%TF.GenerationSoftware,KiCad,Pcbnew,9.0.3*%
%TF.CreationDate,2026-04-09T17:52:17+08:00*%
%TF.ProjectId,audio_player_toy_v2,61756469-6f5f-4706-9c61-7965725f746f,rev?*%
%TF.SameCoordinates,Original*%
%TF.FileFunction,Soldermask,Top*%
%TF.FilePolarity,Negative*%
%FSLAX46Y46*%
G04 Gerber Fmt 4.6, Leading zero omitted, Abs format (unit mm)*
G04 Created by KiCad (PCBNEW 9.0.3) date 2026-04-09 17:52:17*
%MOMM*%
%LPD*%
G01*
G04 APERTURE LIST*
G04 Aperture macros list*
%AMRoundRect*
0 Rectangle with rounded corners*
0 $1 Rounding radius*
0 $2 $3 $4 $5 $6 $7 $8 $9 X,Y pos of 4 corners*
0 Add a 4 corners polygon primitive as box body*
4,1,4,$2,$3,$4,$5,$6,$7,$8,$9,$2,$3,0*
0 Add four circle primitives for the rounded corners*
1,1,$1+$1,$2,$3*
1,1,$1+$1,$4,$5*
1,1,$1+$1,$6,$7*
1,1,$1+$1,$8,$9*
0 Add four rect primitives between the rounded corners*
20,1,$1+$1,$2,$3,$4,$5,0*
20,1,$1+$1,$4,$5,$6,$7,0*
20,1,$1+$1,$6,$7,$8,$9,0*
20,1,$1+$1,$8,$9,$2,$3,0*%
G04 Aperture macros list end*
%ADD10C,0.010000*%
%ADD11RoundRect,0.102000X-0.500000X-0.485000X0.500000X-0.485000X0.500000X0.485000X-0.500000X0.485000X0*%
%ADD12RoundRect,0.200000X-0.200000X-0.275000X0.200000X-0.275000X0.200000X0.275000X-0.200000X0.275000X0*%
%ADD13C,0.600000*%
%ADD14O,2.204000X1.104000*%
%ADD15O,1.904000X1.104000*%
%ADD16C,4.089400*%
%ADD17C,2.528100*%
%ADD18RoundRect,0.190500X0.816500X0.571500X-0.816500X0.571500X-0.816500X-0.571500X0.816500X-0.571500X0*%
%ADD19R,0.800000X0.280000*%
%ADD20R,0.280000X0.800000*%
%ADD21R,3.500000X3.500000*%
%ADD22R,1.700000X1.700000*%
%ADD23C,1.700000*%
%ADD24C,2.204000*%
%ADD25RoundRect,0.375000X-0.875000X-0.875000X0.875000X-0.875000X0.875000X0.875000X-0.875000X0.875000X0*%
G04 APERTURE END LIST*
D10*
%TO.C,J2*%
X103107500Y-116935000D02*
X101867500Y-116935000D01*
X101867500Y-116235000D01*
X103107499Y-116235000D01*
X103107500Y-116935000D01*
G36*
X103107500Y-116935000D02*
G01*
X101867500Y-116935000D01*
X101867500Y-116235000D01*
X103107499Y-116235000D01*
X103107500Y-116935000D01*
G37*
X103107500Y-119735000D02*
X101867500Y-119735000D01*
X101867500Y-119335000D01*
X103107499Y-119335000D01*
X103107500Y-119735000D01*
G36*
X103107500Y-119735000D02*
G01*
X101867500Y-119735000D01*
X101867500Y-119335000D01*
X103107499Y-119335000D01*
X103107500Y-119735000D01*
G37*
X103107500Y-117735001D02*
X101867500Y-117735000D01*
X101867500Y-117035000D01*
X103107500Y-117035000D01*
X103107500Y-117735001D01*
G36*
X103107500Y-117735001D02*
G01*
X101867500Y-117735000D01*
X101867500Y-117035000D01*
X103107500Y-117035000D01*
X103107500Y-117735001D01*
G37*
X103107500Y-118235000D02*
X101867500Y-118234999D01*
X101867500Y-117835000D01*
X103107500Y-117835000D01*
X103107500Y-118235000D01*
G36*
X103107500Y-118235000D02*
G01*
X101867500Y-118234999D01*
X101867500Y-117835000D01*
X103107500Y-117835000D01*
X103107500Y-118235000D01*
G37*
X103107500Y-118734999D02*
X101867500Y-118735000D01*
X101867500Y-118335000D01*
X103107500Y-118335000D01*
X103107500Y-118734999D01*
G36*
X103107500Y-118734999D02*
G01*
X101867500Y-118735000D01*
X101867500Y-118335000D01*
X103107500Y-118335000D01*
X103107500Y-118734999D01*
G37*
X103107500Y-119235000D02*
X101867500Y-119235000D01*
X101867500Y-118835001D01*
X103107500Y-118835000D01*
X103107500Y-119235000D01*
G36*
X103107500Y-119235000D02*
G01*
X101867500Y-119235000D01*
X101867500Y-118835001D01*
X103107500Y-118835000D01*
X103107500Y-119235000D01*
G37*
X103107499Y-120235000D02*
X101867500Y-120235000D01*
X101867500Y-119835000D01*
X103107500Y-119835000D01*
X103107499Y-120235000D01*
G36*
X103107499Y-120235000D02*
G01*
X101867500Y-120235000D01*
X101867500Y-119835000D01*
X103107500Y-119835000D01*
X103107499Y-120235000D01*
G37*
X103107500Y-120735000D02*
X101867500Y-120734999D01*
X101867500Y-120335000D01*
X103107500Y-120335000D01*
X103107500Y-120735000D01*
G36*
X103107500Y-120735000D02*
G01*
X101867500Y-120734999D01*
X101867500Y-120335000D01*
X103107500Y-120335000D01*
X103107500Y-120735000D01*
G37*
X103107500Y-120835001D02*
X103107500Y-121235000D01*
X101867500Y-121235000D01*
X101867500Y-120835000D01*
X103107500Y-120835001D01*
G36*
X103107500Y-120835001D02*
G01*
X103107500Y-121235000D01*
X101867500Y-121235000D01*
X101867500Y-120835000D01*
X103107500Y-120835001D01*
G37*
X103107500Y-121735000D02*
X101867500Y-121735000D01*
X101867500Y-121335001D01*
X103107500Y-121335000D01*
X103107500Y-121735000D01*
G36*
X103107500Y-121735000D02*
G01*
X101867500Y-121735000D01*
X101867500Y-121335001D01*
X103107500Y-121335000D01*
X103107500Y-121735000D01*
G37*
X103107500Y-122535000D02*
X101867500Y-122535000D01*
X101867500Y-121835000D01*
X103107500Y-121834999D01*
X103107500Y-122535000D01*
G36*
X103107500Y-122535000D02*
G01*
X101867500Y-122535000D01*
X101867500Y-121835000D01*
X103107500Y-121834999D01*
X103107500Y-122535000D01*
G37*
X103107499Y-123335000D02*
X101867500Y-123335000D01*
X101867500Y-122635000D01*
X103107500Y-122635000D01*
X103107499Y-123335000D01*
G36*
X103107499Y-123335000D02*
G01*
X101867500Y-123335000D01*
X101867500Y-122635000D01*
X103107500Y-122635000D01*
X103107499Y-123335000D01*
G37*
%TD*%
D11*
%TO.C,FL1*%
X107765000Y-120000000D03*
X109235000Y-120000000D03*
%TD*%
D12*
%TO.C,R3*%
X104235000Y-120780000D03*
X105885000Y-120780000D03*
%TD*%
%TO.C,R1*%
X109215000Y-111585000D03*
X110865000Y-111585000D03*
%TD*%
D13*
%TO.C,J2*%
X101417500Y-116894999D03*
X101417500Y-122675001D03*
D14*
X101907500Y-115460000D03*
X101907500Y-124110000D03*
D15*
X97737500Y-115460000D03*
X97737500Y-124110000D03*
%TD*%
D16*
%TO.C,S1*%
X115000000Y-102630000D03*
D17*
X111190000Y-100090000D03*
X117540000Y-97550000D03*
%TD*%
D12*
%TO.C,R2*%
X104235000Y-119255000D03*
X105885000Y-119255000D03*
%TD*%
D18*
%TO.C,C2*%
X109240000Y-123740000D03*
X106640000Y-123740000D03*
%TD*%
D19*
%TO.C,U1*%
X112470000Y-117210000D03*
X112470000Y-117710000D03*
X112470000Y-118210000D03*
X112470000Y-118710000D03*
X112470000Y-119210000D03*
X112470000Y-119710000D03*
X112470000Y-120210000D03*
X112470000Y-120710000D03*
D20*
X113220000Y-121460000D03*
X113720000Y-121460000D03*
X114220000Y-121460000D03*
X114720000Y-121460000D03*
X115220000Y-121460000D03*
X115720000Y-121460000D03*
X116220000Y-121460000D03*
X116720000Y-121460000D03*
D19*
X117470000Y-120710000D03*
X117470000Y-120210000D03*
X117470000Y-119710000D03*
X117470000Y-119210000D03*
X117470000Y-118710000D03*
X117470000Y-118210000D03*
X117470000Y-117710000D03*
X117470000Y-117210000D03*
D20*
X116720000Y-116460000D03*
X116220000Y-116460000D03*
X115720000Y-116460000D03*
X115220000Y-116460000D03*
X114720000Y-116460000D03*
X114220000Y-116460000D03*
X113720000Y-116460000D03*
X113220000Y-116460000D03*
D21*
X114970000Y-118960000D03*
%TD*%
D12*
%TO.C,C1*%
X117820000Y-122555000D03*
X119470000Y-122555000D03*
%TD*%
%TO.C,C3*%
X117665000Y-114710000D03*
X119315000Y-114710000D03*
%TD*%
D22*
%TO.C,J1*%
X132980000Y-124040000D03*
D23*
X130440000Y-124040000D03*
X132980000Y-121500000D03*
X130440000Y-121500000D03*
X132980000Y-118960001D03*
X130440000Y-118960000D03*
X132980000Y-116420000D03*
X130440000Y-116420000D03*
X132980000Y-113880000D03*
X130440000Y-113880000D03*
%TD*%
D24*
%TO.C,LS2*%
X110000000Y-136265000D03*
X120000000Y-136265000D03*
%TD*%
D25*
%TO.C,LS1*%
X112500000Y-144720000D03*
X117500000Y-144720000D03*
%TD*%
M02*
