M48
; DRILL file {KiCad 9.0.3} date 2026-04-10T15:47:02+0800
; FORMAT={-:-/ absolute / metric / decimal}
; #@! TF.CreationDate,2026-04-10T15:47:02+08:00
; #@! TF.GenerationSoftware,Kicad,Pcbnew,9.0.3
; #@! TF.FileFunction,MixedPlating,1,2
FMAT,2
METRIC
; #@! TA.AperFunction,Plated,PTH,ViaDrill
T1C0.300
; #@! TA.AperFunction,Plated,PTH,ComponentDrill
T2C0.600
; #@! TA.AperFunction,Plated,PTH,ComponentDrill
T3C1.000
; #@! TA.AperFunction,Plated,PTH,ComponentDrill
T4C1.549
; #@! TA.AperFunction,NonPlated,NPTH,ComponentDrill
T5C0.600
; #@! TA.AperFunction,NonPlated,NPTH,ComponentDrill
T6C4.089
%
G90
G05
T1
X97.11Y-98.48
X97.11Y-101.02
X97.11Y-103.56
X97.11Y-106.1
X97.11Y-108.64
X97.11Y-111.18
X97.11Y-113.72
X97.11Y-118.8
X97.11Y-121.34
X97.11Y-126.42
X97.11Y-128.96
X97.11Y-131.5
X97.11Y-134.04
X97.11Y-136.58
X97.11Y-139.12
X97.11Y-141.66
X97.11Y-144.2
X99.65Y-95.94
X99.65Y-98.48
X99.65Y-101.02
X99.65Y-103.56
X99.65Y-106.1
X99.65Y-108.64
X99.65Y-111.18
X99.65Y-113.72
X99.65Y-116.26
X99.65Y-118.8
X99.65Y-121.34
X99.65Y-123.88
X99.65Y-126.42
X99.65Y-128.96
X99.65Y-131.5
X99.65Y-134.04
X99.65Y-136.58
X99.65Y-139.12
X99.65Y-141.66
X99.65Y-144.2
X99.65Y-146.74
X102.19Y-95.94
X102.19Y-98.48
X102.19Y-101.02
X102.19Y-103.56
X102.19Y-106.1
X102.19Y-108.64
X102.19Y-111.18
X102.19Y-113.72
X102.19Y-126.42
X102.19Y-128.96
X102.19Y-131.5
X102.19Y-134.04
X102.19Y-136.58
X102.19Y-139.12
X102.19Y-141.66
X102.19Y-144.2
X102.19Y-146.74
X104.73Y-95.94
X104.73Y-98.48
X104.73Y-101.02
X104.73Y-103.56
X104.73Y-106.1
X104.73Y-108.64
X104.73Y-111.18
X104.73Y-113.72
X104.73Y-116.26
X104.73Y-123.88
X104.73Y-126.42
X104.73Y-128.96
X104.73Y-131.5
X104.73Y-134.04
X104.73Y-136.58
X104.73Y-139.12
X104.73Y-141.66
X104.73Y-144.2
X104.73Y-146.74
X105.34Y-118.085
X106.765Y-120.01
X106.95Y-118.58
X106.99Y-121.18
X107.27Y-95.94
X107.27Y-98.48
X107.27Y-101.02
X107.27Y-103.56
X107.27Y-106.1
X107.27Y-108.64
X107.27Y-111.18
X107.27Y-113.72
X107.27Y-116.26
X107.27Y-126.42
X107.27Y-128.96
X107.27Y-131.5
X107.27Y-134.04
X107.27Y-136.58
X107.27Y-139.12
X107.27Y-141.66
X107.27Y-144.2
X107.27Y-146.74
X109.81Y-95.94
X109.81Y-98.48
X109.81Y-103.56
X109.81Y-106.1
X109.81Y-108.64
X109.81Y-126.42
X109.81Y-128.96
X109.81Y-131.5
X109.81Y-134.04
X109.81Y-139.12
X109.81Y-141.66
X109.81Y-144.2
X109.81Y-146.74
X109.94Y-121.455
X110.16Y-113.715
X110.16Y-116.255
X111.573Y-117.901
X112.35Y-95.94
X112.35Y-98.48
X112.35Y-103.56
X112.35Y-106.1
X112.35Y-108.64
X112.35Y-113.72
X112.35Y-116.26
X112.35Y-121.455
X112.35Y-126.42
X112.35Y-128.96
X112.35Y-131.5
X112.35Y-136.58
X112.35Y-146.74
X113.62Y-122.575
X113.62Y-123.74
X113.98Y-113.13
X114.89Y-95.94
X114.89Y-98.48
X114.89Y-106.1
X114.89Y-108.64
X114.89Y-111.18
X114.89Y-126.42
X114.89Y-128.96
X114.89Y-131.5
X114.89Y-134.04
X114.89Y-136.58
X114.89Y-139.12
X114.89Y-141.66
X114.89Y-144.2
X114.89Y-146.74
X114.895Y-124.695
X114.99Y-122.455
X115.32Y-115.56
X116.32Y-122.905
X116.32Y-123.74
X116.47Y-114.915
X117.43Y-101.02
X117.43Y-103.56
X117.43Y-106.1
X117.43Y-108.64
X117.43Y-111.18
X117.43Y-116.26
X117.43Y-126.42
X117.43Y-128.96
X117.43Y-131.5
X117.43Y-136.58
X117.43Y-146.74
X117.44Y-121.385
X118.37Y-117.61
X119.956Y-116.386
X119.97Y-95.94
X119.97Y-98.48
X119.97Y-101.02
X119.97Y-103.56
X119.97Y-106.1
X119.97Y-108.64
X119.97Y-111.18
X119.97Y-121.34
X119.97Y-123.88
X119.97Y-126.42
X119.97Y-128.96
X119.97Y-131.5
X119.97Y-134.04
X119.97Y-139.12
X119.97Y-141.66
X119.97Y-144.2
X119.97Y-146.74
X122.51Y-95.94
X122.51Y-98.48
X122.51Y-101.02
X122.51Y-103.56
X122.51Y-106.1
X122.51Y-108.64
X122.51Y-111.18
X122.51Y-116.26
X122.51Y-121.34
X122.51Y-123.88
X122.51Y-126.42
X122.51Y-128.96
X122.51Y-131.5
X122.51Y-134.04
X122.51Y-136.58
X122.51Y-139.12
X122.51Y-141.66
X122.51Y-144.2
X122.51Y-146.74
X125.05Y-95.94
X125.05Y-98.48
X125.05Y-101.02
X125.05Y-103.56
X125.05Y-106.1
X125.05Y-108.64
X125.05Y-111.18
X125.05Y-121.34
X125.05Y-123.88
X125.05Y-126.42
X125.05Y-128.96
X125.05Y-131.5
X125.05Y-134.04
X125.05Y-136.58
X125.05Y-139.12
X125.05Y-141.66
X125.05Y-144.2
X125.05Y-146.74
X125.23Y-114.51
X125.645Y-119.31
X126.315Y-117.01
X127.59Y-95.94
X127.59Y-98.48
X127.59Y-101.02
X127.59Y-103.56
X127.59Y-106.1
X127.59Y-108.64
X127.59Y-111.18
X127.59Y-113.72
X127.59Y-116.26
X127.59Y-123.88
X127.59Y-126.42
X127.59Y-128.96
X127.59Y-131.5
X127.59Y-134.04
X127.59Y-136.58
X127.59Y-139.12
X127.59Y-141.66
X127.59Y-144.2
X127.59Y-146.74
X127.961Y-118.21
X128.652Y-119.749
X130.13Y-95.94
X130.13Y-98.48
X130.13Y-101.02
X130.13Y-103.56
X130.13Y-106.1
X130.13Y-108.64
X130.13Y-111.18
X130.13Y-126.42
X130.13Y-128.96
X130.13Y-131.5
X130.13Y-134.04
X130.13Y-136.58
X130.13Y-139.12
X130.13Y-141.66
X130.13Y-144.2
X130.13Y-146.74
X132.67Y-98.48
X132.67Y-101.02
X132.67Y-103.56
X132.67Y-106.1
X132.67Y-108.64
X132.67Y-111.18
X132.67Y-126.42
X132.67Y-128.96
X132.67Y-131.5
X132.67Y-134.04
X132.67Y-136.58
X132.67Y-139.12
X132.67Y-141.66
X132.67Y-144.2
T3
X110.0Y-136.265
X120.0Y-136.265
X130.44Y-113.88
X130.44Y-116.42
X130.44Y-118.96
X130.44Y-121.5
X130.44Y-124.04
X132.98Y-113.88
X132.98Y-116.42
X132.98Y-118.96
X132.98Y-121.5
X132.98Y-124.04
T4
X111.19Y-100.09
X117.54Y-97.55
T5
X101.417Y-116.895
X101.417Y-122.675
T6
X115.0Y-102.63
T2
G00X98.137Y-115.46
M15
G01X97.337Y-115.46
M16
G05
G00X98.137Y-124.11
M15
G01X97.337Y-124.11
M16
G05
G00X102.457Y-115.46
M15
G01X101.358Y-115.46
M16
G05
G00X102.457Y-124.11
M15
G01X101.358Y-124.11
M16
G05
M30
