%TF.GenerationSoftware,KiCad,Pcbnew,9.0.3*%
%TF.CreationDate,2026-04-09T17:52:17+08:00*%
%TF.ProjectId,audio_player_toy_v2,61756469-6f5f-4706-9c61-7965725f746f,rev?*%
%TF.SameCoordinates,Original*%
%TF.FileFunction,Legend,Bot*%
%TF.FilePolarity,Positive*%
%FSLAX46Y46*%
G04 Gerber Fmt 4.6, Leading zero omitted, Abs format (unit mm)*
G04 Created by KiCad (PCBNEW 9.0.3) date 2026-04-09 17:52:17*
%MOMM*%
%LPD*%
G01*
G04 APERTURE LIST*
%ADD10C,0.000000*%
%ADD11C,0.100000*%
G04 APERTURE END LIST*
D10*
G36*
X104283279Y-137711213D02*
G01*
X104283278Y-137711213D01*
X104283278Y-137711212D01*
X104283277Y-137711209D01*
X104283278Y-137711208D01*
X104283279Y-137711213D01*
G37*
G36*
X103082337Y-134035107D02*
G01*
X103118965Y-134036208D01*
X103152120Y-134038187D01*
X103182155Y-134041159D01*
X103209431Y-134045250D01*
X103234303Y-134050576D01*
X103257131Y-134057262D01*
X103278270Y-134065427D01*
X103298081Y-134075192D01*
X103316920Y-134086678D01*
X103335146Y-134100008D01*
X103353116Y-134115299D01*
X103371188Y-134132675D01*
X103389719Y-134152254D01*
X103409069Y-134174161D01*
X103442233Y-134214444D01*
X103471454Y-134253870D01*
X103484603Y-134273401D01*
X103496785Y-134292879D01*
X103508006Y-134312367D01*
X103518272Y-134331917D01*
X103527586Y-134351585D01*
X103535958Y-134371425D01*
X103543393Y-134391493D01*
X103549895Y-134411842D01*
X103555475Y-134432532D01*
X103560132Y-134453615D01*
X103563876Y-134475148D01*
X103566710Y-134497187D01*
X103568644Y-134519784D01*
X103569681Y-134542997D01*
X103569829Y-134566878D01*
X103569091Y-134591489D01*
X103567476Y-134616879D01*
X103564987Y-134643107D01*
X103557418Y-134698291D01*
X103546426Y-134757487D01*
X103532066Y-134821134D01*
X103514380Y-134889676D01*
X103493415Y-134963558D01*
X103385090Y-135331393D01*
X103589866Y-135681816D01*
X103712820Y-135903449D01*
X103827301Y-136132841D01*
X103933205Y-136369526D01*
X104030440Y-136613030D01*
X104118901Y-136862892D01*
X104198491Y-137118639D01*
X104269111Y-137379806D01*
X104330662Y-137645920D01*
X104383042Y-137916518D01*
X104426154Y-138191129D01*
X104459898Y-138469284D01*
X104484174Y-138750517D01*
X104498884Y-139034359D01*
X104503926Y-139320341D01*
X104499203Y-139607995D01*
X104484615Y-139896854D01*
X104484615Y-139896864D01*
X104448928Y-140254505D01*
X104392374Y-140591058D01*
X104316145Y-140905290D01*
X104221431Y-141195963D01*
X104167514Y-141332077D01*
X104109421Y-141461841D01*
X104047301Y-141585098D01*
X103981306Y-141701692D01*
X103911581Y-141811470D01*
X103838277Y-141914275D01*
X103761542Y-142009959D01*
X103681525Y-142098360D01*
X103598375Y-142179328D01*
X103512241Y-142252708D01*
X103423270Y-142318343D01*
X103331613Y-142376083D01*
X103237419Y-142425771D01*
X103140833Y-142467250D01*
X103042008Y-142500370D01*
X102941092Y-142524974D01*
X102838232Y-142540908D01*
X102733580Y-142548017D01*
X102731551Y-142547982D01*
X102627282Y-142546149D01*
X102519486Y-142535146D01*
X102410343Y-142514858D01*
X102300004Y-142485125D01*
X102188612Y-142445797D01*
X102076320Y-142396716D01*
X102018304Y-142366572D01*
X101956271Y-142330006D01*
X101890918Y-142287652D01*
X101822958Y-142240130D01*
X101753093Y-142188070D01*
X101682033Y-142132096D01*
X101610478Y-142072839D01*
X101539138Y-142010922D01*
X101468718Y-141946972D01*
X101399923Y-141881619D01*
X101333460Y-141815485D01*
X101270035Y-141749200D01*
X101210351Y-141683391D01*
X101155119Y-141618680D01*
X101105038Y-141555701D01*
X101060822Y-141495075D01*
X101038109Y-141463748D01*
X101014005Y-141433503D01*
X100988094Y-141404047D01*
X100959954Y-141375096D01*
X100929176Y-141346351D01*
X100895342Y-141317529D01*
X100858038Y-141288334D01*
X100816844Y-141258475D01*
X100771350Y-141227662D01*
X100721135Y-141195606D01*
X100665787Y-141162017D01*
X100604890Y-141126598D01*
X100538029Y-141089064D01*
X100464784Y-141049121D01*
X100384744Y-141006481D01*
X100297492Y-140960849D01*
X100109887Y-140864209D01*
X99962870Y-140790809D01*
X99902685Y-140762187D01*
X99850369Y-140738612D01*
X99805165Y-140719825D01*
X99766311Y-140705576D01*
X99733050Y-140695606D01*
X99704620Y-140689662D01*
X99680266Y-140687489D01*
X99659226Y-140688829D01*
X99640739Y-140693432D01*
X99624051Y-140701042D01*
X99608400Y-140711399D01*
X99593026Y-140724253D01*
X99574036Y-140739890D01*
X99554332Y-140753093D01*
X99533931Y-140763880D01*
X99512852Y-140772264D01*
X99491112Y-140778256D01*
X99468730Y-140781875D01*
X99445725Y-140783128D01*
X99422115Y-140782033D01*
X99397919Y-140778601D01*
X99373156Y-140772848D01*
X99347843Y-140764785D01*
X99321999Y-140754428D01*
X99295643Y-140741787D01*
X99268792Y-140726879D01*
X99241466Y-140709717D01*
X99213683Y-140690314D01*
X99185461Y-140668682D01*
X99156821Y-140644837D01*
X99127778Y-140618793D01*
X99098351Y-140590561D01*
X99068560Y-140560154D01*
X99038423Y-140527588D01*
X99007959Y-140492877D01*
X98977187Y-140456031D01*
X98946123Y-140417066D01*
X98914785Y-140375996D01*
X98851370Y-140287594D01*
X98787089Y-140190929D01*
X98722086Y-140086113D01*
X98683997Y-140020560D01*
X98648467Y-139955403D01*
X98616266Y-139892351D01*
X98588177Y-139833118D01*
X98564975Y-139779417D01*
X98547440Y-139732960D01*
X98541042Y-139712982D01*
X98536349Y-139695459D01*
X98533463Y-139680601D01*
X98532479Y-139668626D01*
X98532687Y-139663230D01*
X98533304Y-139657518D01*
X98535722Y-139645212D01*
X98539654Y-139631836D01*
X98545016Y-139617514D01*
X98551726Y-139602381D01*
X98559707Y-139586558D01*
X98568875Y-139570179D01*
X98579148Y-139553366D01*
X98590444Y-139536254D01*
X98602683Y-139518965D01*
X98615784Y-139501632D01*
X98629663Y-139484379D01*
X98644241Y-139467335D01*
X98659435Y-139450629D01*
X98675165Y-139434390D01*
X98691348Y-139418747D01*
X98716476Y-139394982D01*
X98738631Y-139373271D01*
X98757923Y-139353300D01*
X98774455Y-139334769D01*
X98781720Y-139325945D01*
X98788330Y-139317367D01*
X98794303Y-139308997D01*
X98799652Y-139300794D01*
X98804388Y-139292720D01*
X98808526Y-139284739D01*
X98812078Y-139276811D01*
X98815056Y-139268899D01*
X98817477Y-139260962D01*
X98819348Y-139252966D01*
X98820685Y-139244868D01*
X98821504Y-139236634D01*
X98821813Y-139228223D01*
X98821627Y-139219599D01*
X98820958Y-139210722D01*
X98819822Y-139201554D01*
X98818231Y-139192057D01*
X98816196Y-139182192D01*
X98810851Y-139161210D01*
X98803892Y-139138300D01*
X98795423Y-139113156D01*
X98789743Y-139092890D01*
X98784035Y-139064855D01*
X98772680Y-138987461D01*
X98761658Y-138884982D01*
X98751267Y-138761422D01*
X98750542Y-138750638D01*
X99436733Y-138750638D01*
X99436885Y-138778807D01*
X99437471Y-138803630D01*
X99438680Y-138825283D01*
X99440706Y-138843940D01*
X99442084Y-138852197D01*
X99443741Y-138859770D01*
X99445694Y-138866682D01*
X99447972Y-138872951D01*
X99450598Y-138878603D01*
X99453598Y-138883656D01*
X99456989Y-138888134D01*
X99460802Y-138892058D01*
X99465058Y-138895450D01*
X99469780Y-138898330D01*
X99474996Y-138900721D01*
X99480726Y-138902649D01*
X99486996Y-138904126D01*
X99493831Y-138905182D01*
X99501250Y-138905838D01*
X99509279Y-138906111D01*
X99527272Y-138905604D01*
X99547996Y-138903838D01*
X99571643Y-138900983D01*
X99598405Y-138897217D01*
X99615756Y-138895133D01*
X99633073Y-138893963D01*
X99650320Y-138893685D01*
X99667467Y-138894269D01*
X99684478Y-138895692D01*
X99701320Y-138897931D01*
X99717959Y-138900964D01*
X99734358Y-138904764D01*
X99750488Y-138909305D01*
X99766312Y-138914564D01*
X99781797Y-138920520D01*
X99796909Y-138927146D01*
X99811616Y-138934415D01*
X99825879Y-138942309D01*
X99839669Y-138950798D01*
X99852952Y-138959858D01*
X99865690Y-138969469D01*
X99877852Y-138979604D01*
X99889407Y-138990239D01*
X99900317Y-139001347D01*
X99910546Y-139012908D01*
X99920065Y-139024895D01*
X99928838Y-139037285D01*
X99936832Y-139050054D01*
X99944012Y-139063177D01*
X99950345Y-139076627D01*
X99955798Y-139090383D01*
X99960334Y-139104422D01*
X99963921Y-139118716D01*
X99966524Y-139133242D01*
X99968113Y-139147976D01*
X99968647Y-139162895D01*
X99968335Y-139168373D01*
X99967407Y-139174408D01*
X99965877Y-139180981D01*
X99963765Y-139188069D01*
X99957840Y-139203704D01*
X99949761Y-139221133D01*
X99939649Y-139240185D01*
X99927625Y-139260682D01*
X99913812Y-139282446D01*
X99898337Y-139305301D01*
X99881317Y-139329074D01*
X99862875Y-139353585D01*
X99843137Y-139378663D01*
X99822226Y-139404127D01*
X99800262Y-139429804D01*
X99777369Y-139455514D01*
X99753670Y-139481085D01*
X99729286Y-139506340D01*
X99681731Y-139555906D01*
X99639765Y-139602631D01*
X99603325Y-139646828D01*
X99572348Y-139688806D01*
X99558889Y-139709065D01*
X99546774Y-139728884D01*
X99535991Y-139748309D01*
X99526536Y-139767374D01*
X99518402Y-139786121D01*
X99511578Y-139804589D01*
X99506055Y-139822817D01*
X99501831Y-139840841D01*
X99498893Y-139858706D01*
X99497235Y-139876448D01*
X99496847Y-139894107D01*
X99497727Y-139911720D01*
X99499861Y-139929332D01*
X99503244Y-139946975D01*
X99507869Y-139964692D01*
X99513726Y-139982519D01*
X99520808Y-140000503D01*
X99529107Y-140018675D01*
X99538617Y-140037076D01*
X99549329Y-140055747D01*
X99574322Y-140094057D01*
X99604030Y-140133915D01*
X99615830Y-140149564D01*
X99627648Y-140166484D01*
X99639408Y-140184514D01*
X99651032Y-140203492D01*
X99662444Y-140223264D01*
X99673570Y-140243661D01*
X99684334Y-140264528D01*
X99694657Y-140285704D01*
X99704466Y-140307028D01*
X99713683Y-140328338D01*
X99722235Y-140349473D01*
X99730041Y-140370277D01*
X99737029Y-140390587D01*
X99743122Y-140410241D01*
X99748243Y-140429079D01*
X99752318Y-140446942D01*
X99758549Y-140473935D01*
X99762162Y-140486704D01*
X99766212Y-140499062D01*
X99770766Y-140511072D01*
X99775907Y-140522787D01*
X99781709Y-140534266D01*
X99788239Y-140545567D01*
X99795582Y-140556746D01*
X99803810Y-140567863D01*
X99812997Y-140578975D01*
X99823219Y-140590136D01*
X99834550Y-140601409D01*
X99847069Y-140612849D01*
X99860844Y-140624514D01*
X99875956Y-140636461D01*
X99892480Y-140648748D01*
X99910489Y-140661431D01*
X99930060Y-140674573D01*
X99951269Y-140688223D01*
X99998890Y-140717298D01*
X100053962Y-140749112D01*
X100117080Y-140784131D01*
X100188850Y-140822814D01*
X100269872Y-140865622D01*
X100360748Y-140913013D01*
X100524521Y-140999545D01*
X100660806Y-141075492D01*
X100720087Y-141110555D01*
X100774238Y-141144244D01*
X100823833Y-141176985D01*
X100869457Y-141209201D01*
X100911684Y-141241319D01*
X100951097Y-141273760D01*
X100988276Y-141306951D01*
X101023800Y-141341316D01*
X101058251Y-141377281D01*
X101092204Y-141415268D01*
X101126245Y-141455701D01*
X101160946Y-141499008D01*
X101242180Y-141599456D01*
X101323959Y-141694542D01*
X101406215Y-141784257D01*
X101488881Y-141868587D01*
X101571889Y-141947515D01*
X101655170Y-142021033D01*
X101738656Y-142089124D01*
X101822275Y-142151779D01*
X101905964Y-142208979D01*
X101989652Y-142260715D01*
X102073272Y-142306971D01*
X102156754Y-142347736D01*
X102240032Y-142382996D01*
X102323034Y-142412738D01*
X102405696Y-142436949D01*
X102487946Y-142455615D01*
X102569717Y-142468722D01*
X102650941Y-142476257D01*
X102731552Y-142478210D01*
X102811477Y-142474564D01*
X102890650Y-142465307D01*
X102969004Y-142450425D01*
X103046469Y-142429907D01*
X103122974Y-142403738D01*
X103198457Y-142371906D01*
X103272845Y-142334396D01*
X103346071Y-142291196D01*
X103418067Y-142242291D01*
X103488765Y-142187672D01*
X103558094Y-142127321D01*
X103625988Y-142061226D01*
X103692380Y-141989375D01*
X103732362Y-141940304D01*
X103774983Y-141881629D01*
X103819439Y-141814980D01*
X103864927Y-141741982D01*
X103910643Y-141664264D01*
X103955786Y-141583453D01*
X104041138Y-141419061D01*
X104079740Y-141338730D01*
X104114553Y-141261818D01*
X104144778Y-141189946D01*
X104169610Y-141124747D01*
X104188245Y-141067841D01*
X104199878Y-141020859D01*
X104203710Y-140985430D01*
X104202448Y-140972555D01*
X104198935Y-140963177D01*
X104197066Y-140960319D01*
X104195010Y-140957498D01*
X104192779Y-140954718D01*
X104190377Y-140951983D01*
X104187813Y-140949293D01*
X104185094Y-140946652D01*
X104179223Y-140941537D01*
X104172818Y-140936671D01*
X104165942Y-140932075D01*
X104161133Y-140929244D01*
X104158650Y-140927782D01*
X104151006Y-140923821D01*
X104143065Y-140920217D01*
X104134887Y-140917000D01*
X104126530Y-140914203D01*
X104118054Y-140911849D01*
X104109518Y-140909968D01*
X104100981Y-140908588D01*
X104092499Y-140907740D01*
X104088301Y-140907523D01*
X104084137Y-140907450D01*
X104061623Y-140906015D01*
X104037676Y-140901785D01*
X104012408Y-140894872D01*
X103985930Y-140885393D01*
X103958361Y-140873458D01*
X103929809Y-140859184D01*
X103870223Y-140824073D01*
X103808079Y-140780967D01*
X103744293Y-140730778D01*
X103679770Y-140674416D01*
X103615427Y-140612791D01*
X103552169Y-140546815D01*
X103490909Y-140477399D01*
X103432557Y-140405451D01*
X103378026Y-140331884D01*
X103328225Y-140257607D01*
X103284060Y-140183533D01*
X103246451Y-140110572D01*
X103230386Y-140074791D01*
X103216300Y-140039632D01*
X103202647Y-140000824D01*
X103190892Y-139962370D01*
X103181011Y-139924325D01*
X103172974Y-139886748D01*
X103166755Y-139849692D01*
X103162325Y-139813220D01*
X103159659Y-139777388D01*
X103158729Y-139742255D01*
X103158979Y-139731270D01*
X103273999Y-139731270D01*
X103274639Y-139765745D01*
X103276849Y-139800926D01*
X103280660Y-139836735D01*
X103286083Y-139873090D01*
X103293146Y-139909912D01*
X103301869Y-139947120D01*
X103312269Y-139984637D01*
X103324372Y-140022380D01*
X103338195Y-140060272D01*
X103353762Y-140098233D01*
X103371090Y-140136181D01*
X103395108Y-140184789D01*
X103419207Y-140230679D01*
X103443583Y-140274088D01*
X103468445Y-140315243D01*
X103493992Y-140354376D01*
X103520425Y-140391719D01*
X103547947Y-140427505D01*
X103576761Y-140461963D01*
X103607065Y-140495326D01*
X103639064Y-140527825D01*
X103672960Y-140559693D01*
X103708952Y-140591160D01*
X103747245Y-140622460D01*
X103788039Y-140653820D01*
X103831536Y-140685474D01*
X103877939Y-140717655D01*
X103936340Y-140756456D01*
X103988693Y-140789129D01*
X104035432Y-140815433D01*
X104056835Y-140826123D01*
X104076998Y-140835130D01*
X104095975Y-140842424D01*
X104113823Y-140847977D01*
X104130598Y-140851757D01*
X104146348Y-140853736D01*
X104161133Y-140853884D01*
X104175008Y-140852167D01*
X104188025Y-140848561D01*
X104200240Y-140843030D01*
X104211707Y-140835547D01*
X104222483Y-140826082D01*
X104232621Y-140814605D01*
X104242173Y-140801087D01*
X104251198Y-140785494D01*
X104259747Y-140767800D01*
X104267878Y-140747973D01*
X104275642Y-140725986D01*
X104283094Y-140701803D01*
X104290294Y-140675399D01*
X104304141Y-140615804D01*
X104317621Y-140546959D01*
X104331172Y-140468624D01*
X104357216Y-140314691D01*
X104381058Y-140180642D01*
X104400063Y-140080877D01*
X104406927Y-140048348D01*
X104411591Y-140029792D01*
X104419099Y-140003564D01*
X104424688Y-139978425D01*
X104426738Y-139966211D01*
X104428284Y-139954208D01*
X104429316Y-139942388D01*
X104429828Y-139930730D01*
X104429809Y-139919219D01*
X104429247Y-139907827D01*
X104428143Y-139896535D01*
X104426482Y-139885321D01*
X104424256Y-139874162D01*
X104421459Y-139863039D01*
X104418083Y-139851929D01*
X104414119Y-139840807D01*
X104409556Y-139829656D01*
X104404388Y-139818453D01*
X104398608Y-139807176D01*
X104392205Y-139795804D01*
X104377505Y-139772686D01*
X104360214Y-139748925D01*
X104340273Y-139724348D01*
X104317610Y-139698784D01*
X104292165Y-139672054D01*
X104263864Y-139643989D01*
X104227925Y-139610931D01*
X104189321Y-139578617D01*
X104148445Y-139547241D01*
X104105682Y-139516992D01*
X104061426Y-139488064D01*
X104016064Y-139460648D01*
X103969988Y-139434932D01*
X103923583Y-139411113D01*
X103877243Y-139389378D01*
X103831356Y-139369922D01*
X103786313Y-139352932D01*
X103742501Y-139338603D01*
X103700315Y-139327123D01*
X103660138Y-139318688D01*
X103622364Y-139313486D01*
X103587381Y-139311711D01*
X103559777Y-139312928D01*
X103533308Y-139316527D01*
X103507997Y-139322425D01*
X103483862Y-139330549D01*
X103460927Y-139340812D01*
X103439208Y-139353139D01*
X103418733Y-139367448D01*
X103399519Y-139383659D01*
X103381584Y-139401693D01*
X103364953Y-139421473D01*
X103349646Y-139442914D01*
X103335687Y-139465938D01*
X103323090Y-139490467D01*
X103311879Y-139516421D01*
X103302079Y-139543719D01*
X103293704Y-139572282D01*
X103286781Y-139602028D01*
X103281329Y-139632879D01*
X103277364Y-139664758D01*
X103274916Y-139697582D01*
X103273999Y-139731270D01*
X103158979Y-139731270D01*
X103159510Y-139707876D01*
X103161970Y-139674309D01*
X103166081Y-139641615D01*
X103171822Y-139609849D01*
X103179160Y-139579069D01*
X103188072Y-139549335D01*
X103198528Y-139520700D01*
X103210499Y-139493228D01*
X103223961Y-139466970D01*
X103238887Y-139441991D01*
X103255245Y-139418342D01*
X103273013Y-139396084D01*
X103292161Y-139375277D01*
X103312663Y-139355975D01*
X103334486Y-139338237D01*
X103357613Y-139322121D01*
X103382007Y-139307685D01*
X103407646Y-139294986D01*
X103434503Y-139284083D01*
X103462547Y-139275032D01*
X103491752Y-139267893D01*
X103522092Y-139262721D01*
X103553539Y-139259576D01*
X103586067Y-139258514D01*
X103635757Y-139259276D01*
X103682964Y-139261647D01*
X103727995Y-139265750D01*
X103771148Y-139271715D01*
X103812731Y-139279661D01*
X103853043Y-139289712D01*
X103892388Y-139302001D01*
X103931068Y-139316645D01*
X103969387Y-139333774D01*
X104007647Y-139353512D01*
X104046154Y-139375980D01*
X104085204Y-139401307D01*
X104125108Y-139429619D01*
X104166162Y-139461037D01*
X104208673Y-139495689D01*
X104252944Y-139533700D01*
X104453316Y-139709624D01*
X104420361Y-138938858D01*
X104411403Y-138766367D01*
X104399380Y-138592794D01*
X104384658Y-138421402D01*
X104367599Y-138255449D01*
X104348566Y-138098194D01*
X104327926Y-137952897D01*
X104306041Y-137822815D01*
X104283279Y-137711215D01*
X104283280Y-137711217D01*
X104283281Y-137711217D01*
X104283283Y-137711218D01*
X104243117Y-137544825D01*
X104197873Y-137375026D01*
X104094607Y-137031237D01*
X103978403Y-136691918D01*
X103854178Y-136369125D01*
X103726851Y-136074918D01*
X103663559Y-135942306D01*
X103601337Y-135821362D01*
X103540796Y-135713596D01*
X103482553Y-135620513D01*
X103427221Y-135543625D01*
X103375418Y-135484436D01*
X103357864Y-135466728D01*
X103342654Y-135450700D01*
X103335929Y-135443156D01*
X103329790Y-135435837D01*
X103324236Y-135428680D01*
X103319270Y-135421618D01*
X103314891Y-135414591D01*
X103311098Y-135407529D01*
X103307892Y-135400371D01*
X103305275Y-135393049D01*
X103303244Y-135385498D01*
X103301802Y-135377657D01*
X103300949Y-135369459D01*
X103300682Y-135360839D01*
X103301005Y-135351734D01*
X103301917Y-135342075D01*
X103303417Y-135331801D01*
X103305507Y-135320847D01*
X103308187Y-135309148D01*
X103311453Y-135296639D01*
X103315311Y-135283253D01*
X103319759Y-135268927D01*
X103324797Y-135253598D01*
X103330425Y-135237198D01*
X103343455Y-135200933D01*
X103358849Y-135159611D01*
X103376608Y-135112715D01*
X103387069Y-135083831D01*
X103397235Y-135053096D01*
X103416476Y-134987157D01*
X103433913Y-134917078D01*
X103449126Y-134845044D01*
X103461690Y-134773235D01*
X103471185Y-134703829D01*
X103474652Y-134670709D01*
X103477194Y-134639010D01*
X103478756Y-134609001D01*
X103479288Y-134580959D01*
X103478406Y-134539175D01*
X103475743Y-134499343D01*
X103471289Y-134461459D01*
X103465026Y-134425514D01*
X103456941Y-134391505D01*
X103447016Y-134359422D01*
X103435237Y-134329261D01*
X103421590Y-134301013D01*
X103406054Y-134274676D01*
X103388621Y-134250242D01*
X103369271Y-134227705D01*
X103347990Y-134207057D01*
X103324760Y-134188295D01*
X103299569Y-134171409D01*
X103272403Y-134156397D01*
X103243243Y-134143249D01*
X103212074Y-134131960D01*
X103178884Y-134122523D01*
X103143652Y-134114934D01*
X103106368Y-134109187D01*
X103067014Y-134105271D01*
X103025574Y-134103185D01*
X102982034Y-134102922D01*
X102936378Y-134104474D01*
X102888592Y-134107832D01*
X102838658Y-134112996D01*
X102786563Y-134119959D01*
X102732290Y-134128711D01*
X102675827Y-134139246D01*
X102617154Y-134151561D01*
X102556257Y-134165648D01*
X102493124Y-134181500D01*
X102424198Y-134200685D01*
X102355532Y-134222199D01*
X102287571Y-134245793D01*
X102220756Y-134271227D01*
X102155534Y-134298257D01*
X102092353Y-134326640D01*
X102031653Y-134356131D01*
X101973885Y-134386488D01*
X101919488Y-134417467D01*
X101868907Y-134448826D01*
X101822591Y-134480319D01*
X101780984Y-134511706D01*
X101744530Y-134542743D01*
X101713672Y-134573185D01*
X101688859Y-134602789D01*
X101670534Y-134631314D01*
X101664838Y-134643314D01*
X101660112Y-134656190D01*
X101656341Y-134669917D01*
X101653516Y-134684463D01*
X101651631Y-134699800D01*
X101650670Y-134715900D01*
X101650626Y-134732737D01*
X101651487Y-134750281D01*
X101653246Y-134768501D01*
X101655887Y-134787373D01*
X101663789Y-134826952D01*
X101675104Y-134868793D01*
X101689758Y-134912666D01*
X101707662Y-134958348D01*
X101728738Y-135005611D01*
X101752902Y-135054226D01*
X101780072Y-135103968D01*
X101810163Y-135154613D01*
X101843096Y-135205929D01*
X101878787Y-135257696D01*
X101917155Y-135309681D01*
X101944235Y-135345929D01*
X101968762Y-135380220D01*
X101990253Y-135411766D01*
X102008218Y-135439788D01*
X102022180Y-135463496D01*
X102027509Y-135473488D01*
X102031652Y-135482109D01*
X102034554Y-135489260D01*
X102036150Y-135494844D01*
X102036383Y-135498760D01*
X102035969Y-135500061D01*
X102035191Y-135500911D01*
X102031356Y-135502624D01*
X102023840Y-135505244D01*
X101998561Y-135512991D01*
X101960957Y-135523716D01*
X101912631Y-135536989D01*
X101790226Y-135569436D01*
X101644183Y-135606856D01*
X101544355Y-135633770D01*
X101442512Y-135664513D01*
X101339508Y-135698670D01*
X101236203Y-135735831D01*
X101133451Y-135775576D01*
X101032110Y-135817492D01*
X100933033Y-135861167D01*
X100837080Y-135906185D01*
X100745104Y-135952131D01*
X100657967Y-135998589D01*
X100576519Y-136045149D01*
X100501621Y-136091392D01*
X100434127Y-136136905D01*
X100374897Y-136181273D01*
X100324784Y-136224084D01*
X100284645Y-136264920D01*
X100253222Y-136301486D01*
X100223908Y-136337103D01*
X100197345Y-136370887D01*
X100174170Y-136401949D01*
X100155031Y-136429402D01*
X100147175Y-136441496D01*
X100140565Y-136452357D01*
X100135286Y-136461872D01*
X100131415Y-136469930D01*
X100129034Y-136476420D01*
X100128223Y-136481231D01*
X100127910Y-136483522D01*
X100126982Y-136486451D01*
X100123339Y-136494140D01*
X100117415Y-136504149D01*
X100109337Y-136516324D01*
X100099224Y-136530517D01*
X100087201Y-136546572D01*
X100073388Y-136564344D01*
X100057912Y-136583676D01*
X100022452Y-136626422D01*
X99981801Y-136673600D01*
X99936944Y-136724000D01*
X99888861Y-136776410D01*
X99860895Y-136807005D01*
X99834537Y-136836993D01*
X99809813Y-136866337D01*
X99786750Y-136894986D01*
X99765377Y-136922897D01*
X99745718Y-136950028D01*
X99727804Y-136976331D01*
X99711658Y-137001764D01*
X99697313Y-137026281D01*
X99684790Y-137049838D01*
X99674122Y-137072388D01*
X99665328Y-137093892D01*
X99658444Y-137114301D01*
X99653493Y-137133573D01*
X99650502Y-137151661D01*
X99649499Y-137168522D01*
X99650602Y-137183936D01*
X99653841Y-137202162D01*
X99659108Y-137222967D01*
X99666290Y-137246117D01*
X99675277Y-137271381D01*
X99685966Y-137298525D01*
X99698242Y-137327319D01*
X99712001Y-137357526D01*
X99727128Y-137388918D01*
X99743520Y-137421257D01*
X99761065Y-137454316D01*
X99779652Y-137487862D01*
X99799176Y-137521658D01*
X99819524Y-137555473D01*
X99840590Y-137589076D01*
X99862265Y-137622233D01*
X99905004Y-137688117D01*
X99944878Y-137753213D01*
X99981012Y-137815838D01*
X100012532Y-137874305D01*
X100038564Y-137926935D01*
X100049253Y-137950532D01*
X100058242Y-137972039D01*
X100065425Y-137991242D01*
X100070688Y-138007932D01*
X100073928Y-138021900D01*
X100075031Y-138032933D01*
X100074485Y-138047665D01*
X100072864Y-138062178D01*
X100070205Y-138076452D01*
X100066538Y-138090462D01*
X100061890Y-138104194D01*
X100056299Y-138117619D01*
X100049793Y-138130723D01*
X100042405Y-138143480D01*
X100034168Y-138155872D01*
X100025110Y-138167878D01*
X100015266Y-138179474D01*
X100004666Y-138190644D01*
X99993343Y-138201363D01*
X99981328Y-138211609D01*
X99968653Y-138221367D01*
X99955349Y-138230613D01*
X99941448Y-138239324D01*
X99926983Y-138247482D01*
X99911984Y-138255063D01*
X99896483Y-138262049D01*
X99880510Y-138268418D01*
X99864102Y-138274150D01*
X99847286Y-138279222D01*
X99830096Y-138283614D01*
X99812562Y-138287307D01*
X99794716Y-138290276D01*
X99776591Y-138292505D01*
X99758218Y-138293968D01*
X99739628Y-138294647D01*
X99720854Y-138294521D01*
X99701926Y-138293571D01*
X99682878Y-138291771D01*
X99653155Y-138288499D01*
X99626678Y-138286107D01*
X99603214Y-138284742D01*
X99582534Y-138284545D01*
X99573167Y-138284929D01*
X99564408Y-138285658D01*
X99556230Y-138286750D01*
X99548604Y-138288224D01*
X99541502Y-138290099D01*
X99534896Y-138292389D01*
X99528755Y-138295114D01*
X99523050Y-138298292D01*
X99517752Y-138301942D01*
X99512835Y-138306080D01*
X99508270Y-138310722D01*
X99504026Y-138315889D01*
X99500074Y-138321602D01*
X99496387Y-138327870D01*
X99492936Y-138334719D01*
X99489692Y-138342162D01*
X99483710Y-138358908D01*
X99478211Y-138378250D01*
X99472963Y-138400335D01*
X99467738Y-138425301D01*
X99461512Y-138459918D01*
X99455699Y-138498933D01*
X99450435Y-138541012D01*
X99445841Y-138584819D01*
X99442048Y-138629019D01*
X99439179Y-138672278D01*
X99437366Y-138713262D01*
X99436733Y-138750638D01*
X98750542Y-138750638D01*
X98741812Y-138620788D01*
X98733591Y-138467084D01*
X98726906Y-138304318D01*
X98722057Y-138136493D01*
X98711750Y-137798352D01*
X98697411Y-137483448D01*
X98680937Y-137226966D01*
X98672496Y-137131630D01*
X98664230Y-137064097D01*
X98624967Y-136811177D01*
X99223085Y-136222775D01*
X99476685Y-135977425D01*
X99725033Y-135744356D01*
X99838324Y-135640658D01*
X99939615Y-135549900D01*
X100025337Y-135475380D01*
X100091928Y-135420384D01*
X100155533Y-135371888D01*
X100224096Y-135322911D01*
X100296933Y-135273808D01*
X100373346Y-135224937D01*
X100452648Y-135176655D01*
X100534141Y-135129321D01*
X100617138Y-135083293D01*
X100700947Y-135038926D01*
X100784875Y-134996579D01*
X100868233Y-134956610D01*
X100950326Y-134919373D01*
X101030461Y-134885233D01*
X101107950Y-134854541D01*
X101182102Y-134827657D01*
X101252221Y-134804939D01*
X101317618Y-134786742D01*
X101345094Y-134779434D01*
X101371483Y-134771633D01*
X101396716Y-134763378D01*
X101420734Y-134754701D01*
X101443475Y-134745641D01*
X101464868Y-134736234D01*
X101484857Y-134726518D01*
X101503374Y-134716527D01*
X101520358Y-134706297D01*
X101535742Y-134695865D01*
X101549466Y-134685266D01*
X101561462Y-134674538D01*
X101571672Y-134663717D01*
X101580025Y-134652839D01*
X101586466Y-134641941D01*
X101590925Y-134631058D01*
X101600530Y-134607042D01*
X101614131Y-134582621D01*
X101631547Y-134557868D01*
X101652602Y-134532860D01*
X101677116Y-134507673D01*
X101704915Y-134482381D01*
X101735817Y-134457058D01*
X101769647Y-134431784D01*
X101845374Y-134381674D01*
X101930675Y-134332656D01*
X102024124Y-134285328D01*
X102124305Y-134240295D01*
X102229789Y-134198164D01*
X102339158Y-134159531D01*
X102450982Y-134125005D01*
X102563846Y-134095184D01*
X102676324Y-134070677D01*
X102786993Y-134052081D01*
X102894432Y-134040002D01*
X102946494Y-134036594D01*
X102997217Y-134035041D01*
X103041872Y-134034757D01*
X103082337Y-134035107D01*
G37*
G36*
X101072598Y-139076859D02*
G01*
X101079748Y-139080295D01*
X101084162Y-139085950D01*
X101085671Y-139093925D01*
X101085432Y-139096566D01*
X101084719Y-139099329D01*
X101083547Y-139102210D01*
X101081925Y-139105199D01*
X101079868Y-139108289D01*
X101077386Y-139111474D01*
X101074489Y-139114750D01*
X101071191Y-139118105D01*
X101067504Y-139121534D01*
X101063438Y-139125028D01*
X101059006Y-139128583D01*
X101054221Y-139132190D01*
X101043630Y-139139534D01*
X101031765Y-139147002D01*
X101018716Y-139154541D01*
X101004578Y-139162090D01*
X100989446Y-139169593D01*
X100973414Y-139176994D01*
X100956576Y-139184238D01*
X100939022Y-139191266D01*
X100920853Y-139198023D01*
X100902160Y-139204452D01*
X100880207Y-139212301D01*
X100858146Y-139221366D01*
X100836023Y-139231600D01*
X100813881Y-139242951D01*
X100769716Y-139268808D01*
X100726005Y-139298541D01*
X100683097Y-139331746D01*
X100641347Y-139368032D01*
X100601105Y-139406995D01*
X100562726Y-139448237D01*
X100526557Y-139491362D01*
X100492955Y-139535969D01*
X100462271Y-139581659D01*
X100434857Y-139628036D01*
X100411065Y-139674700D01*
X100391247Y-139721253D01*
X100382937Y-139744364D01*
X100375755Y-139767297D01*
X100369741Y-139790003D01*
X100364939Y-139812431D01*
X100361714Y-139832442D01*
X100359247Y-139853827D01*
X100357524Y-139876406D01*
X100356535Y-139899997D01*
X100356263Y-139924419D01*
X100356692Y-139949486D01*
X100357810Y-139975021D01*
X100359597Y-140000841D01*
X100362045Y-140026762D01*
X100365132Y-140052606D01*
X100368848Y-140078190D01*
X100373177Y-140103331D01*
X100378102Y-140127850D01*
X100383611Y-140151563D01*
X100389688Y-140174290D01*
X100396318Y-140195846D01*
X100412876Y-140236094D01*
X100437593Y-140282623D01*
X100469383Y-140334203D01*
X100507151Y-140389614D01*
X100549810Y-140447627D01*
X100596268Y-140507023D01*
X100645437Y-140566573D01*
X100696225Y-140625055D01*
X100747539Y-140681243D01*
X100798293Y-140733912D01*
X100847394Y-140781836D01*
X100893752Y-140823795D01*
X100936276Y-140858561D01*
X100973879Y-140884911D01*
X100990491Y-140894546D01*
X101005465Y-140901618D01*
X101018662Y-140905973D01*
X101029949Y-140907460D01*
X101032805Y-140907528D01*
X101035625Y-140907735D01*
X101038405Y-140908076D01*
X101041142Y-140908546D01*
X101043832Y-140909143D01*
X101046472Y-140909862D01*
X101049056Y-140910701D01*
X101051585Y-140911656D01*
X101054051Y-140912726D01*
X101056453Y-140913905D01*
X101058787Y-140915190D01*
X101061049Y-140916576D01*
X101063234Y-140918063D01*
X101065341Y-140919647D01*
X101067364Y-140921323D01*
X101069303Y-140923087D01*
X101071151Y-140924937D01*
X101072906Y-140926869D01*
X101074564Y-140928881D01*
X101076122Y-140930966D01*
X101077575Y-140933126D01*
X101078921Y-140935354D01*
X101080155Y-140937645D01*
X101081275Y-140939999D01*
X101082277Y-140942413D01*
X101083156Y-140944880D01*
X101083910Y-140947399D01*
X101084537Y-140949965D01*
X101085029Y-140952577D01*
X101085384Y-140955230D01*
X101085599Y-140957922D01*
X101085672Y-140960647D01*
X101085516Y-140966066D01*
X101085058Y-140971333D01*
X101084312Y-140976420D01*
X101083293Y-140981301D01*
X101082020Y-140985948D01*
X101080506Y-140990335D01*
X101078767Y-140994432D01*
X101076817Y-140998214D01*
X101074672Y-141001653D01*
X101072351Y-141004724D01*
X101069865Y-141007396D01*
X101067234Y-141009642D01*
X101065864Y-141010598D01*
X101064466Y-141011438D01*
X101063038Y-141012157D01*
X101061585Y-141012754D01*
X101060102Y-141013224D01*
X101058597Y-141013563D01*
X101057073Y-141013770D01*
X101055527Y-141013840D01*
X101055526Y-141013840D01*
X101046904Y-141012935D01*
X101036870Y-141010267D01*
X101025507Y-141005914D01*
X101012897Y-140999953D01*
X100984266Y-140983501D01*
X100951627Y-140961517D01*
X100915633Y-140934603D01*
X100876939Y-140903366D01*
X100836196Y-140868408D01*
X100794061Y-140830333D01*
X100751182Y-140789748D01*
X100708215Y-140747258D01*
X100665813Y-140703464D01*
X100624629Y-140658970D01*
X100585318Y-140614384D01*
X100548533Y-140570308D01*
X100514921Y-140527348D01*
X100485144Y-140486106D01*
X100446419Y-140425332D01*
X100412392Y-140362636D01*
X100383083Y-140298375D01*
X100358505Y-140232907D01*
X100338677Y-140166588D01*
X100323614Y-140099774D01*
X100313335Y-140032827D01*
X100307855Y-139966098D01*
X100307189Y-139899951D01*
X100311353Y-139834736D01*
X100320369Y-139770816D01*
X100334248Y-139708547D01*
X100353008Y-139648284D01*
X100376666Y-139590385D01*
X100405240Y-139535209D01*
X100421375Y-139508754D01*
X100438744Y-139483113D01*
X100466148Y-139449432D01*
X100501626Y-139413188D01*
X100543823Y-139375195D01*
X100591378Y-139336270D01*
X100642936Y-139297228D01*
X100697136Y-139258891D01*
X100752620Y-139222072D01*
X100808032Y-139187591D01*
X100862011Y-139156264D01*
X100913199Y-139128909D01*
X100960238Y-139106341D01*
X101001773Y-139089379D01*
X101036441Y-139078838D01*
X101050775Y-139076232D01*
X101062886Y-139075538D01*
X101072598Y-139076859D01*
G37*
G36*
X101647616Y-136238316D02*
G01*
X101659706Y-136240302D01*
X101664699Y-136241565D01*
X101669085Y-136242946D01*
X101672871Y-136244445D01*
X101676059Y-136246059D01*
X101678653Y-136247784D01*
X101679726Y-136248688D01*
X101680657Y-136249619D01*
X101681436Y-136250577D01*
X101682069Y-136251562D01*
X101682557Y-136252574D01*
X101682897Y-136253612D01*
X101683093Y-136254674D01*
X101683143Y-136255763D01*
X101683052Y-136256876D01*
X101682813Y-136258016D01*
X101682429Y-136259179D01*
X101681902Y-136260369D01*
X101680420Y-136262820D01*
X101678367Y-136265363D01*
X101675751Y-136267998D01*
X101672567Y-136270726D01*
X101668825Y-136273541D01*
X101664525Y-136276443D01*
X101659670Y-136279427D01*
X101654262Y-136282493D01*
X101648309Y-136285639D01*
X101641810Y-136288862D01*
X101634767Y-136292160D01*
X101627187Y-136295530D01*
X101619068Y-136298970D01*
X101610420Y-136302481D01*
X101601239Y-136306056D01*
X101591534Y-136309694D01*
X101581305Y-136313395D01*
X101570554Y-136317157D01*
X101559286Y-136320974D01*
X101535212Y-136328774D01*
X101535211Y-136328777D01*
X101475843Y-136349458D01*
X101415623Y-136374231D01*
X101355006Y-136402740D01*
X101294445Y-136434634D01*
X101234394Y-136469554D01*
X101175309Y-136507148D01*
X101117641Y-136547059D01*
X101061848Y-136588934D01*
X101008378Y-136632419D01*
X100957690Y-136677159D01*
X100910237Y-136722796D01*
X100866473Y-136768979D01*
X100826852Y-136815353D01*
X100791828Y-136861562D01*
X100761853Y-136907253D01*
X100737382Y-136952068D01*
X100719648Y-136990790D01*
X100703885Y-137030038D01*
X100690077Y-137069749D01*
X100678208Y-137109856D01*
X100668259Y-137150297D01*
X100660213Y-137191009D01*
X100654053Y-137231929D01*
X100649762Y-137272991D01*
X100646717Y-137355292D01*
X100650933Y-137437403D01*
X100662274Y-137518812D01*
X100680600Y-137599015D01*
X100705773Y-137677496D01*
X100737650Y-137753751D01*
X100776092Y-137827269D01*
X100820962Y-137897539D01*
X100845763Y-137931298D01*
X100872120Y-137964053D01*
X100900010Y-137995745D01*
X100929423Y-138026304D01*
X100960335Y-138055670D01*
X100992734Y-138083779D01*
X101026598Y-138110567D01*
X101061913Y-138135972D01*
X101095834Y-138160183D01*
X101126818Y-138184175D01*
X101154685Y-138207610D01*
X101179257Y-138230147D01*
X101200357Y-138251449D01*
X101217804Y-138271173D01*
X101231420Y-138288987D01*
X101236736Y-138297070D01*
X101241026Y-138304547D01*
X101244272Y-138311377D01*
X101246448Y-138317518D01*
X101247531Y-138322925D01*
X101247503Y-138327557D01*
X101246337Y-138331374D01*
X101244015Y-138334329D01*
X101240508Y-138336384D01*
X101235802Y-138337495D01*
X101229870Y-138337619D01*
X101222690Y-138336714D01*
X101214240Y-138334737D01*
X101204499Y-138331649D01*
X101193442Y-138327402D01*
X101181049Y-138321959D01*
X101152163Y-138307308D01*
X101123799Y-138290935D01*
X101095529Y-138272802D01*
X101067408Y-138252995D01*
X101039490Y-138231599D01*
X100984466Y-138184387D01*
X100930882Y-138131848D01*
X100879159Y-138074670D01*
X100829721Y-138013537D01*
X100782986Y-137949137D01*
X100739379Y-137882151D01*
X100699321Y-137813271D01*
X100663235Y-137743176D01*
X100631543Y-137672554D01*
X100604666Y-137602090D01*
X100583028Y-137532471D01*
X100574305Y-137498190D01*
X100567050Y-137464379D01*
X100561314Y-137431123D01*
X100557152Y-137398504D01*
X100554616Y-137366611D01*
X100553759Y-137335530D01*
X100555883Y-137290542D01*
X100562094Y-137242918D01*
X100572149Y-137193132D01*
X100585811Y-137141656D01*
X100602841Y-137088969D01*
X100622992Y-137035542D01*
X100646031Y-136981854D01*
X100671716Y-136928375D01*
X100699801Y-136875583D01*
X100730053Y-136823955D01*
X100762227Y-136773962D01*
X100796084Y-136726083D01*
X100831387Y-136680788D01*
X100867890Y-136638556D01*
X100905356Y-136599861D01*
X100943542Y-136565178D01*
X100984873Y-136531966D01*
X101029663Y-136499114D01*
X101077273Y-136466912D01*
X101127061Y-136435649D01*
X101178377Y-136405621D01*
X101230580Y-136377120D01*
X101283025Y-136350435D01*
X101335072Y-136325862D01*
X101386072Y-136303690D01*
X101435382Y-136284215D01*
X101482359Y-136267724D01*
X101526360Y-136254512D01*
X101566740Y-136244875D01*
X101602851Y-136239098D01*
X101634058Y-136237475D01*
X101647616Y-136238316D01*
G37*
G36*
X101825514Y-139004055D02*
G01*
X101881136Y-139009070D01*
X101935006Y-139018345D01*
X101961288Y-139024588D01*
X101987141Y-139031899D01*
X102012563Y-139040281D01*
X102037560Y-139049735D01*
X102062130Y-139060265D01*
X102086281Y-139071871D01*
X102110010Y-139084553D01*
X102133322Y-139098314D01*
X102178702Y-139129078D01*
X102222439Y-139164176D01*
X102264552Y-139203613D01*
X102305058Y-139247407D01*
X102343979Y-139295567D01*
X102381329Y-139348103D01*
X102417127Y-139405025D01*
X102451393Y-139466351D01*
X102477688Y-139519111D01*
X102500639Y-139571393D01*
X102520246Y-139623291D01*
X102536511Y-139674894D01*
X102549439Y-139726297D01*
X102559031Y-139777590D01*
X102565290Y-139828869D01*
X102568213Y-139880224D01*
X102567810Y-139931746D01*
X102564078Y-139983533D01*
X102557021Y-140035671D01*
X102546642Y-140088255D01*
X102532942Y-140141377D01*
X102515922Y-140195132D01*
X102495589Y-140249609D01*
X102471939Y-140304901D01*
X102471942Y-140304901D01*
X102453697Y-140342474D01*
X102433814Y-140378537D01*
X102412366Y-140413068D01*
X102389436Y-140446040D01*
X102365101Y-140477426D01*
X102339438Y-140507203D01*
X102312525Y-140535344D01*
X102284443Y-140561825D01*
X102255268Y-140586618D01*
X102225079Y-140609701D01*
X102193955Y-140631047D01*
X102161974Y-140650629D01*
X102148862Y-140657751D01*
X102129213Y-140668424D01*
X102095752Y-140684404D01*
X102061668Y-140698545D01*
X102027041Y-140710820D01*
X101991946Y-140721208D01*
X101956466Y-140729680D01*
X101942855Y-140732163D01*
X101920675Y-140736210D01*
X101884654Y-140740772D01*
X101848481Y-140743346D01*
X101812234Y-140743900D01*
X101775989Y-140742412D01*
X101739828Y-140738855D01*
X101726261Y-140736727D01*
X101703828Y-140733205D01*
X101668067Y-140725438D01*
X101632623Y-140715523D01*
X101597574Y-140703440D01*
X101563000Y-140689161D01*
X101528979Y-140672661D01*
X101495588Y-140653915D01*
X101462904Y-140632896D01*
X101410736Y-140595790D01*
X101362746Y-140558823D01*
X101318783Y-140521724D01*
X101278693Y-140484229D01*
X101260050Y-140465251D01*
X101242318Y-140446072D01*
X101225475Y-140426660D01*
X101209506Y-140406982D01*
X101194388Y-140387004D01*
X101180104Y-140366693D01*
X101166633Y-140346015D01*
X101153957Y-140324937D01*
X101142055Y-140303426D01*
X101130911Y-140281450D01*
X101120504Y-140258971D01*
X101110813Y-140235961D01*
X101101818Y-140212384D01*
X101093503Y-140188206D01*
X101085848Y-140163394D01*
X101078833Y-140137915D01*
X101066647Y-140084822D01*
X101056792Y-140028660D01*
X101049109Y-139969162D01*
X101043449Y-139906059D01*
X101041564Y-139856275D01*
X101314792Y-139856275D01*
X101314979Y-139874466D01*
X101316173Y-139892880D01*
X101318368Y-139911484D01*
X101321550Y-139930247D01*
X101325714Y-139949135D01*
X101330852Y-139968111D01*
X101336957Y-139987147D01*
X101344015Y-140006209D01*
X101352027Y-140025261D01*
X101360979Y-140044270D01*
X101370860Y-140063207D01*
X101381668Y-140082035D01*
X101393392Y-140100719D01*
X101406024Y-140119230D01*
X101419557Y-140137534D01*
X101433982Y-140155594D01*
X101449290Y-140173382D01*
X101465473Y-140190863D01*
X101482525Y-140208002D01*
X101500436Y-140224766D01*
X101519196Y-140241123D01*
X101551479Y-140268043D01*
X101580525Y-140291623D01*
X101606642Y-140311937D01*
X101630134Y-140329060D01*
X101651317Y-140343058D01*
X101661135Y-140348910D01*
X101670491Y-140354006D01*
X101679423Y-140358362D01*
X101687969Y-140361981D01*
X101696169Y-140364873D01*
X101704060Y-140367048D01*
X101711678Y-140368515D01*
X101719067Y-140369284D01*
X101726260Y-140369362D01*
X101733301Y-140368760D01*
X101740225Y-140367485D01*
X101747072Y-140365547D01*
X101753876Y-140362958D01*
X101760683Y-140359721D01*
X101767525Y-140355851D01*
X101774444Y-140351353D01*
X101788665Y-140340512D01*
X101803654Y-140327274D01*
X101819715Y-140311709D01*
X101828578Y-140302337D01*
X101836734Y-140292639D01*
X101844188Y-140282606D01*
X101850936Y-140272230D01*
X101856974Y-140261503D01*
X101862304Y-140250420D01*
X101866926Y-140238966D01*
X101870836Y-140227135D01*
X101874038Y-140214921D01*
X101876522Y-140202314D01*
X101878294Y-140189302D01*
X101879347Y-140175885D01*
X101879685Y-140162047D01*
X101879308Y-140147782D01*
X101878207Y-140133082D01*
X101876388Y-140117938D01*
X101873847Y-140102343D01*
X101870583Y-140086286D01*
X101866595Y-140069759D01*
X101861882Y-140052756D01*
X101856443Y-140035268D01*
X101850277Y-140017284D01*
X101835755Y-139979799D01*
X101818308Y-139940237D01*
X101808552Y-139920272D01*
X102043121Y-139920272D01*
X102043337Y-139933216D01*
X102043974Y-139945768D01*
X102045022Y-139957919D01*
X102046469Y-139969657D01*
X102048305Y-139980969D01*
X102050517Y-139991845D01*
X102053093Y-140002272D01*
X102056026Y-140012236D01*
X102059297Y-140021731D01*
X102062902Y-140030741D01*
X102066825Y-140039256D01*
X102071057Y-140047264D01*
X102075582Y-140054755D01*
X102080395Y-140061713D01*
X102085479Y-140068130D01*
X102090829Y-140073994D01*
X102096426Y-140079293D01*
X102102263Y-140084013D01*
X102108330Y-140088146D01*
X102114612Y-140091676D01*
X102121096Y-140094597D01*
X102127776Y-140096893D01*
X102134640Y-140098554D01*
X102141670Y-140099568D01*
X102148862Y-140099923D01*
X102156201Y-140099609D01*
X102163677Y-140098610D01*
X102171278Y-140096919D01*
X102178990Y-140094523D01*
X102186805Y-140091409D01*
X102194710Y-140087567D01*
X102202694Y-140082984D01*
X102214403Y-140075471D01*
X102219669Y-140071836D01*
X102224543Y-140068248D01*
X102229024Y-140064685D01*
X102233112Y-140061125D01*
X102236807Y-140057546D01*
X102240110Y-140053922D01*
X102243019Y-140050232D01*
X102245534Y-140046450D01*
X102247657Y-140042554D01*
X102249383Y-140038522D01*
X102250718Y-140034328D01*
X102251654Y-140029954D01*
X102252199Y-140025371D01*
X102252347Y-140020558D01*
X102252101Y-140015493D01*
X102251459Y-140010152D01*
X102250421Y-140004508D01*
X102248988Y-139998545D01*
X102247158Y-139992233D01*
X102244933Y-139985554D01*
X102242309Y-139978482D01*
X102239289Y-139970993D01*
X102235872Y-139963064D01*
X102232058Y-139954674D01*
X102227848Y-139945797D01*
X102223237Y-139936415D01*
X102212824Y-139916025D01*
X102200818Y-139893321D01*
X102200823Y-139893321D01*
X102193655Y-139880410D01*
X102186475Y-139868414D01*
X102179298Y-139857328D01*
X102172134Y-139847153D01*
X102165007Y-139837884D01*
X102157930Y-139829516D01*
X102150916Y-139822051D01*
X102143984Y-139815483D01*
X102137151Y-139809811D01*
X102130429Y-139805031D01*
X102123835Y-139801144D01*
X102117385Y-139798141D01*
X102111099Y-139796024D01*
X102104985Y-139794788D01*
X102099065Y-139794432D01*
X102093352Y-139794952D01*
X102087864Y-139796347D01*
X102082614Y-139798612D01*
X102077619Y-139801745D01*
X102072895Y-139805744D01*
X102068459Y-139810608D01*
X102064325Y-139816330D01*
X102060510Y-139822909D01*
X102057029Y-139830343D01*
X102053899Y-139838632D01*
X102051135Y-139847768D01*
X102048752Y-139857750D01*
X102046767Y-139868578D01*
X102045196Y-139880246D01*
X102044054Y-139892754D01*
X102043357Y-139906096D01*
X102043121Y-139920272D01*
X101808552Y-139920272D01*
X101797927Y-139898529D01*
X101774602Y-139854607D01*
X101748325Y-139808402D01*
X101748325Y-139808406D01*
X101721148Y-139763321D01*
X101695439Y-139723496D01*
X101671005Y-139688862D01*
X101659206Y-139673471D01*
X101647652Y-139659355D01*
X101636321Y-139646502D01*
X101625190Y-139634904D01*
X101614230Y-139624554D01*
X101603420Y-139615442D01*
X101592736Y-139607563D01*
X101582154Y-139600907D01*
X101571648Y-139595463D01*
X101561197Y-139591224D01*
X101550773Y-139588183D01*
X101540355Y-139586330D01*
X101529916Y-139585656D01*
X101519434Y-139586155D01*
X101508885Y-139587820D01*
X101498244Y-139590637D01*
X101487486Y-139594601D01*
X101476590Y-139599702D01*
X101465526Y-139605935D01*
X101454276Y-139613287D01*
X101442813Y-139621751D01*
X101431112Y-139631321D01*
X101419151Y-139641987D01*
X101406905Y-139653742D01*
X101381461Y-139680477D01*
X101370042Y-139694009D01*
X101359719Y-139708129D01*
X101350484Y-139722810D01*
X101342329Y-139738010D01*
X101335246Y-139753702D01*
X101329227Y-139769849D01*
X101324261Y-139786420D01*
X101320343Y-139803382D01*
X101317464Y-139820700D01*
X101315615Y-139838343D01*
X101314792Y-139856275D01*
X101041564Y-139856275D01*
X101039879Y-139811779D01*
X101042998Y-139721668D01*
X101047025Y-139678239D01*
X101052669Y-139635925D01*
X101059914Y-139594751D01*
X101068743Y-139554740D01*
X101079137Y-139515917D01*
X101091079Y-139478306D01*
X101104549Y-139441932D01*
X101119533Y-139406819D01*
X101136008Y-139372993D01*
X101148263Y-139350795D01*
X101745008Y-139350795D01*
X101745082Y-139362552D01*
X101746036Y-139375038D01*
X101747821Y-139388165D01*
X101753718Y-139416022D01*
X101762419Y-139445461D01*
X101773572Y-139475819D01*
X101786829Y-139506434D01*
X101801838Y-139536638D01*
X101818250Y-139565773D01*
X101835710Y-139593174D01*
X101853867Y-139618181D01*
X101872374Y-139640126D01*
X101890877Y-139658348D01*
X101900017Y-139665857D01*
X101909027Y-139672187D01*
X101917858Y-139677252D01*
X101926469Y-139680974D01*
X101934815Y-139683268D01*
X101942855Y-139684050D01*
X101950344Y-139683480D01*
X101957154Y-139681805D01*
X101963296Y-139679067D01*
X101968777Y-139675319D01*
X101973607Y-139670613D01*
X101977791Y-139664990D01*
X101981340Y-139658505D01*
X101984262Y-139651202D01*
X101986564Y-139643132D01*
X101988254Y-139634344D01*
X101989343Y-139624883D01*
X101989834Y-139614804D01*
X101989744Y-139604150D01*
X101989071Y-139592974D01*
X101987828Y-139581319D01*
X101986026Y-139569239D01*
X101983668Y-139556779D01*
X101980768Y-139543990D01*
X101977328Y-139530919D01*
X101973361Y-139517614D01*
X101968870Y-139504126D01*
X101963873Y-139490503D01*
X101958366Y-139476792D01*
X101952365Y-139463043D01*
X101945876Y-139449303D01*
X101938910Y-139435623D01*
X101931469Y-139422050D01*
X101923570Y-139408632D01*
X101915212Y-139395421D01*
X101906410Y-139382459D01*
X101897168Y-139369802D01*
X101887497Y-139357494D01*
X101871527Y-139338127D01*
X101857127Y-139321194D01*
X101844176Y-139306658D01*
X101832544Y-139294488D01*
X101822110Y-139284650D01*
X101817304Y-139280594D01*
X101812748Y-139277110D01*
X101808429Y-139274193D01*
X101804331Y-139271834D01*
X101800438Y-139270037D01*
X101796737Y-139268791D01*
X101793205Y-139268096D01*
X101789835Y-139267944D01*
X101786604Y-139268335D01*
X101783505Y-139269259D01*
X101780512Y-139270719D01*
X101777616Y-139272707D01*
X101774801Y-139275218D01*
X101772052Y-139278250D01*
X101769349Y-139281797D01*
X101766680Y-139285855D01*
X101764029Y-139290420D01*
X101761378Y-139295490D01*
X101756019Y-139307121D01*
X101750478Y-139320713D01*
X101747661Y-139329793D01*
X101745851Y-139339847D01*
X101745008Y-139350795D01*
X101148263Y-139350795D01*
X101153960Y-139340476D01*
X101173370Y-139309292D01*
X101194219Y-139279467D01*
X101216490Y-139251025D01*
X101240164Y-139223988D01*
X101265224Y-139198381D01*
X101291652Y-139174231D01*
X101319430Y-139151562D01*
X101348541Y-139130394D01*
X101378962Y-139110756D01*
X101410682Y-139092671D01*
X101443680Y-139076161D01*
X101477938Y-139061251D01*
X101513436Y-139047968D01*
X101550160Y-139036333D01*
X101588090Y-139026371D01*
X101627208Y-139018109D01*
X101667497Y-139011569D01*
X101708937Y-139006776D01*
X101768121Y-139003295D01*
X101825514Y-139004055D01*
G37*
G36*
X102129180Y-136651825D02*
G01*
X102184647Y-136659072D01*
X102239146Y-136670336D01*
X102292252Y-136685640D01*
X102343542Y-136705005D01*
X102368372Y-136716216D01*
X102392589Y-136728452D01*
X102416140Y-136741713D01*
X102438973Y-136756000D01*
X102472627Y-136779556D01*
X102504974Y-136804940D01*
X102535994Y-136832067D01*
X102565661Y-136860842D01*
X102593949Y-136891177D01*
X102620841Y-136922982D01*
X102646308Y-136956167D01*
X102670329Y-136990641D01*
X102692882Y-137026314D01*
X102713941Y-137063096D01*
X102733486Y-137100897D01*
X102751491Y-137139628D01*
X102767934Y-137179195D01*
X102782793Y-137219510D01*
X102796040Y-137260484D01*
X102807657Y-137302025D01*
X102817616Y-137344045D01*
X102825898Y-137386453D01*
X102832478Y-137429155D01*
X102837332Y-137472068D01*
X102840438Y-137515096D01*
X102841773Y-137558149D01*
X102841312Y-137601139D01*
X102839030Y-137643977D01*
X102834909Y-137686571D01*
X102828922Y-137728829D01*
X102821047Y-137770663D01*
X102811258Y-137811985D01*
X102799537Y-137852699D01*
X102785857Y-137892721D01*
X102770195Y-137931957D01*
X102752529Y-137970318D01*
X102752530Y-137970318D01*
X102729859Y-138013192D01*
X102705312Y-138053753D01*
X102678984Y-138091982D01*
X102650976Y-138127872D01*
X102621384Y-138161406D01*
X102590303Y-138192571D01*
X102557832Y-138221355D01*
X102524069Y-138247745D01*
X102489109Y-138271728D01*
X102454891Y-138292191D01*
X102453050Y-138293292D01*
X102415991Y-138312420D01*
X102378029Y-138329102D01*
X102339259Y-138343324D01*
X102299777Y-138355074D01*
X102259684Y-138364337D01*
X102258902Y-138364468D01*
X102219076Y-138371102D01*
X102178050Y-138375353D01*
X102136704Y-138377077D01*
X102095134Y-138376266D01*
X102053434Y-138372901D01*
X102011709Y-138366973D01*
X101991391Y-138362822D01*
X101970051Y-138358466D01*
X101928558Y-138347368D01*
X101887328Y-138333665D01*
X101846458Y-138317345D01*
X101806044Y-138298395D01*
X101766183Y-138276803D01*
X101726976Y-138252552D01*
X101688515Y-138225631D01*
X101650899Y-138196030D01*
X101614230Y-138163731D01*
X101578598Y-138128722D01*
X101543240Y-138090324D01*
X101510257Y-138050948D01*
X101479647Y-138010672D01*
X101451405Y-137969577D01*
X101425531Y-137927733D01*
X101402025Y-137885220D01*
X101380880Y-137842115D01*
X101362099Y-137798494D01*
X101345675Y-137754432D01*
X101331610Y-137710010D01*
X101319901Y-137665299D01*
X101310543Y-137620380D01*
X101303540Y-137575327D01*
X101298883Y-137530219D01*
X101298304Y-137518929D01*
X101592974Y-137518929D01*
X101593361Y-137533266D01*
X101594607Y-137547814D01*
X101596717Y-137562608D01*
X101599694Y-137577678D01*
X101603544Y-137593056D01*
X101608269Y-137608775D01*
X101613873Y-137624868D01*
X101620359Y-137641365D01*
X101627732Y-137658298D01*
X101635994Y-137675702D01*
X101645150Y-137693604D01*
X101655206Y-137712041D01*
X101678017Y-137750642D01*
X101704463Y-137791758D01*
X101734571Y-137835646D01*
X101745003Y-137849803D01*
X101755855Y-137863267D01*
X101767100Y-137876038D01*
X101778709Y-137888103D01*
X101790658Y-137899461D01*
X101802912Y-137910108D01*
X101815449Y-137920033D01*
X101828240Y-137929233D01*
X101841257Y-137937705D01*
X101854473Y-137945440D01*
X101867856Y-137952434D01*
X101881384Y-137958679D01*
X101895024Y-137964172D01*
X101908754Y-137968906D01*
X101922542Y-137972877D01*
X101936359Y-137976075D01*
X101950182Y-137978500D01*
X101963979Y-137980142D01*
X101977726Y-137980999D01*
X101991392Y-137981061D01*
X102004949Y-137980327D01*
X102018371Y-137978787D01*
X102031630Y-137976438D01*
X102044697Y-137973274D01*
X102057547Y-137969290D01*
X102070149Y-137964478D01*
X102082476Y-137958834D01*
X102094501Y-137952352D01*
X102106196Y-137945027D01*
X102117533Y-137936854D01*
X102128484Y-137927825D01*
X102139021Y-137917934D01*
X102144974Y-137911571D01*
X102150417Y-137904888D01*
X102155351Y-137897870D01*
X102159772Y-137890512D01*
X102163680Y-137882798D01*
X102167071Y-137874724D01*
X102169945Y-137866275D01*
X102172302Y-137857442D01*
X102174133Y-137848215D01*
X102175445Y-137838582D01*
X102176232Y-137828534D01*
X102176491Y-137818061D01*
X102176222Y-137807149D01*
X102175426Y-137795792D01*
X102174094Y-137783978D01*
X102172232Y-137771696D01*
X102169833Y-137758937D01*
X102166899Y-137745686D01*
X102163425Y-137731939D01*
X102159410Y-137717683D01*
X102149750Y-137687599D01*
X102137909Y-137655353D01*
X102123870Y-137620861D01*
X102107618Y-137584039D01*
X102089140Y-137544806D01*
X102079171Y-137524724D01*
X102309381Y-137524724D01*
X102309469Y-137534708D01*
X102310000Y-137545000D01*
X102310969Y-137555539D01*
X102312368Y-137566265D01*
X102314190Y-137577118D01*
X102316430Y-137588040D01*
X102319079Y-137598969D01*
X102322133Y-137609847D01*
X102325585Y-137620610D01*
X102329423Y-137631206D01*
X102333648Y-137641570D01*
X102338250Y-137651642D01*
X102343223Y-137661364D01*
X102348558Y-137670676D01*
X102354250Y-137679518D01*
X102360294Y-137687831D01*
X102366682Y-137695552D01*
X102373406Y-137702628D01*
X102380460Y-137708992D01*
X102392290Y-137718122D01*
X102403760Y-137725643D01*
X102414850Y-137731613D01*
X102425533Y-137736098D01*
X102435784Y-137739160D01*
X102445579Y-137740862D01*
X102454891Y-137741267D01*
X102463697Y-137740437D01*
X102471972Y-137738434D01*
X102479689Y-137735326D01*
X102486824Y-137731172D01*
X102493356Y-137726034D01*
X102499251Y-137719979D01*
X102504493Y-137713064D01*
X102509051Y-137705358D01*
X102512902Y-137696920D01*
X102516023Y-137687812D01*
X102518385Y-137678101D01*
X102519968Y-137667849D01*
X102520745Y-137657115D01*
X102520687Y-137645966D01*
X102519772Y-137634464D01*
X102517977Y-137622670D01*
X102515277Y-137610649D01*
X102511641Y-137598464D01*
X102507052Y-137586176D01*
X102501480Y-137573851D01*
X102494897Y-137561549D01*
X102487289Y-137549335D01*
X102478619Y-137537269D01*
X102468871Y-137525417D01*
X102458014Y-137513839D01*
X102458013Y-137513839D01*
X102451291Y-137507337D01*
X102444323Y-137501017D01*
X102437165Y-137494911D01*
X102429872Y-137489054D01*
X102422496Y-137483478D01*
X102415097Y-137478215D01*
X102407724Y-137473297D01*
X102400433Y-137468760D01*
X102393280Y-137464632D01*
X102386319Y-137460948D01*
X102379603Y-137457742D01*
X102373188Y-137455045D01*
X102367131Y-137452889D01*
X102361482Y-137451311D01*
X102356295Y-137450339D01*
X102351630Y-137450009D01*
X102345348Y-137450569D01*
X102339592Y-137452216D01*
X102334363Y-137454884D01*
X102329648Y-137458516D01*
X102325445Y-137463051D01*
X102321744Y-137468434D01*
X102318540Y-137474598D01*
X102315828Y-137481489D01*
X102313598Y-137489045D01*
X102311846Y-137497205D01*
X102310564Y-137505911D01*
X102309743Y-137515104D01*
X102309381Y-137524724D01*
X102079171Y-137524724D01*
X102068423Y-137503074D01*
X102068423Y-137503075D01*
X102060987Y-137489018D01*
X102052685Y-137474381D01*
X102043600Y-137459282D01*
X102033827Y-137443839D01*
X102023451Y-137428166D01*
X102012563Y-137412381D01*
X101989604Y-137380950D01*
X101965660Y-137350481D01*
X101953542Y-137335901D01*
X101941443Y-137321914D01*
X101929455Y-137308634D01*
X101917665Y-137296185D01*
X101906161Y-137284682D01*
X101895034Y-137274239D01*
X101876874Y-137257946D01*
X101860672Y-137243927D01*
X101853214Y-137237793D01*
X101846135Y-137232249D01*
X101839400Y-137227306D01*
X101832972Y-137222974D01*
X101826816Y-137219256D01*
X101820891Y-137216166D01*
X101815165Y-137213709D01*
X101809600Y-137211891D01*
X101804158Y-137210725D01*
X101798806Y-137210215D01*
X101793503Y-137210369D01*
X101788217Y-137211198D01*
X101782909Y-137212709D01*
X101777543Y-137214907D01*
X101772082Y-137217804D01*
X101766492Y-137221407D01*
X101760731Y-137225724D01*
X101754769Y-137230762D01*
X101748565Y-137236531D01*
X101742086Y-137243036D01*
X101735293Y-137250289D01*
X101728147Y-137258294D01*
X101712664Y-137276601D01*
X101695342Y-137298020D01*
X101675891Y-137322616D01*
X101654143Y-137351825D01*
X101644487Y-137366108D01*
X101635648Y-137380219D01*
X101627629Y-137394190D01*
X101620434Y-137408053D01*
X101614068Y-137421840D01*
X101608530Y-137435587D01*
X101603829Y-137449319D01*
X101599965Y-137463071D01*
X101596946Y-137476877D01*
X101594771Y-137490768D01*
X101593446Y-137504773D01*
X101592974Y-137518929D01*
X101298304Y-137518929D01*
X101296571Y-137485130D01*
X101296608Y-137440138D01*
X101298987Y-137395320D01*
X101303709Y-137350749D01*
X101310766Y-137306507D01*
X101320161Y-137262669D01*
X101331893Y-137219308D01*
X101345957Y-137176505D01*
X101362350Y-137134336D01*
X101381071Y-137092876D01*
X101402122Y-137052202D01*
X101425347Y-137012646D01*
X102043120Y-137012646D01*
X102043533Y-137023364D01*
X102044749Y-137034658D01*
X102049423Y-137058743D01*
X102056832Y-137084418D01*
X102066657Y-137111199D01*
X102078588Y-137138606D01*
X102092310Y-137166160D01*
X102107509Y-137193374D01*
X102123868Y-137219771D01*
X102141079Y-137244864D01*
X102158818Y-137268176D01*
X102176782Y-137289223D01*
X102194650Y-137307525D01*
X102212112Y-137322597D01*
X102220591Y-137328772D01*
X102228849Y-137333959D01*
X102236850Y-137338098D01*
X102244551Y-137341131D01*
X102251915Y-137342994D01*
X102258902Y-137343627D01*
X102264935Y-137343552D01*
X102270560Y-137343306D01*
X102275769Y-137342858D01*
X102280567Y-137342176D01*
X102284942Y-137341232D01*
X102288894Y-137339991D01*
X102292422Y-137338425D01*
X102294025Y-137337508D01*
X102295520Y-137336501D01*
X102296907Y-137335397D01*
X102298185Y-137334190D01*
X102299354Y-137332879D01*
X102300413Y-137331458D01*
X102301363Y-137329926D01*
X102302203Y-137328277D01*
X102302930Y-137326510D01*
X102303548Y-137324615D01*
X102304052Y-137322594D01*
X102304446Y-137320441D01*
X102304893Y-137315724D01*
X102304888Y-137310432D01*
X102304423Y-137304535D01*
X102303502Y-137298001D01*
X102302112Y-137290802D01*
X102300257Y-137282902D01*
X102297930Y-137274274D01*
X102295130Y-137264885D01*
X102291849Y-137254704D01*
X102288090Y-137243703D01*
X102283843Y-137231847D01*
X102279109Y-137219107D01*
X102273883Y-137205451D01*
X102261940Y-137175270D01*
X102247991Y-137141054D01*
X102232004Y-137102557D01*
X102216371Y-137067484D01*
X102200348Y-137035909D01*
X102184129Y-137007921D01*
X102176003Y-136995304D01*
X102167900Y-136983619D01*
X102159847Y-136972876D01*
X102151865Y-136963089D01*
X102143978Y-136954270D01*
X102136209Y-136946428D01*
X102128585Y-136939575D01*
X102121130Y-136933720D01*
X102113863Y-136928882D01*
X102106816Y-136925065D01*
X102100008Y-136922286D01*
X102093464Y-136920553D01*
X102087208Y-136919877D01*
X102081266Y-136920273D01*
X102075661Y-136921748D01*
X102070415Y-136924317D01*
X102065555Y-136927991D01*
X102061103Y-136932781D01*
X102057086Y-136938698D01*
X102053525Y-136945754D01*
X102050447Y-136953958D01*
X102047873Y-136963328D01*
X102045831Y-136973868D01*
X102044341Y-136985594D01*
X102043429Y-136998517D01*
X102043120Y-137012646D01*
X101425347Y-137012646D01*
X101425496Y-137012392D01*
X101451191Y-136973520D01*
X101479207Y-136935664D01*
X101509542Y-136898900D01*
X101542193Y-136863306D01*
X101577159Y-136828958D01*
X101614436Y-136795932D01*
X101634927Y-136779546D01*
X101656286Y-136764112D01*
X101678465Y-136749631D01*
X101701407Y-136736105D01*
X101749370Y-136711931D01*
X101799755Y-136691616D01*
X101852138Y-136675175D01*
X101906094Y-136662630D01*
X101961200Y-136654002D01*
X102017033Y-136649312D01*
X102073167Y-136648580D01*
X102129180Y-136651825D01*
G37*
G36*
X102752683Y-134643971D02*
G01*
X102796443Y-134646893D01*
X102836034Y-134652209D01*
X102870478Y-134660011D01*
X102885466Y-134664873D01*
X102898806Y-134670390D01*
X102910370Y-134676573D01*
X102920039Y-134683438D01*
X102929085Y-134691114D01*
X102937542Y-134698665D01*
X102945405Y-134706130D01*
X102952677Y-134713544D01*
X102959355Y-134720949D01*
X102965438Y-134728379D01*
X102970928Y-134735876D01*
X102975822Y-134743478D01*
X102980119Y-134751220D01*
X102983820Y-134759141D01*
X102986923Y-134767284D01*
X102989428Y-134775681D01*
X102991333Y-134784374D01*
X102992638Y-134793399D01*
X102993343Y-134802794D01*
X102993446Y-134812602D01*
X102992946Y-134822855D01*
X102991844Y-134833596D01*
X102990138Y-134844860D01*
X102987827Y-134856686D01*
X102984911Y-134869114D01*
X102981389Y-134882179D01*
X102977261Y-134895923D01*
X102972524Y-134910382D01*
X102967179Y-134925594D01*
X102961226Y-134941600D01*
X102947489Y-134976136D01*
X102931304Y-135014297D01*
X102912671Y-135056391D01*
X102912669Y-135056391D01*
X102904014Y-135075027D01*
X102895359Y-135092494D01*
X102886757Y-135108727D01*
X102878261Y-135123666D01*
X102869932Y-135137246D01*
X102861820Y-135149406D01*
X102853984Y-135160080D01*
X102846476Y-135169212D01*
X102839354Y-135176730D01*
X102832673Y-135182578D01*
X102826485Y-135186690D01*
X102823596Y-135188077D01*
X102820850Y-135189003D01*
X102818256Y-135189468D01*
X102815820Y-135189458D01*
X102813551Y-135188966D01*
X102811451Y-135187988D01*
X102809532Y-135186511D01*
X102807799Y-135184530D01*
X102806260Y-135182037D01*
X102804918Y-135179024D01*
X102802765Y-135172001D01*
X102801250Y-135164099D01*
X102800353Y-135155402D01*
X102800062Y-135146000D01*
X102800359Y-135135976D01*
X102801226Y-135125421D01*
X102802643Y-135114417D01*
X102804599Y-135103058D01*
X102807072Y-135091423D01*
X102810051Y-135079604D01*
X102813514Y-135067685D01*
X102817449Y-135055754D01*
X102821836Y-135043898D01*
X102826657Y-135032203D01*
X102831899Y-135020758D01*
X102837543Y-135009647D01*
X102856815Y-134971990D01*
X102872449Y-134937666D01*
X102878876Y-134921714D01*
X102884364Y-134906550D01*
X102888903Y-134892155D01*
X102892483Y-134878515D01*
X102895093Y-134865615D01*
X102896725Y-134853438D01*
X102897366Y-134841972D01*
X102897010Y-134831198D01*
X102895646Y-134821100D01*
X102893263Y-134811665D01*
X102889852Y-134802875D01*
X102885402Y-134794717D01*
X102879905Y-134787173D01*
X102873351Y-134780230D01*
X102865729Y-134773868D01*
X102857028Y-134768079D01*
X102847239Y-134762840D01*
X102836354Y-134758136D01*
X102824362Y-134753958D01*
X102811252Y-134750284D01*
X102797018Y-134747099D01*
X102781644Y-134744391D01*
X102765126Y-134742143D01*
X102747452Y-134740337D01*
X102708593Y-134737995D01*
X102664988Y-134737244D01*
X102641105Y-134737635D01*
X102616840Y-134738785D01*
X102592364Y-134740652D01*
X102567850Y-134743199D01*
X102543465Y-134746389D01*
X102519381Y-134750180D01*
X102495765Y-134754537D01*
X102472794Y-134759419D01*
X102450632Y-134764788D01*
X102429454Y-134770602D01*
X102409428Y-134776828D01*
X102390725Y-134783424D01*
X102373517Y-134790350D01*
X102357972Y-134797571D01*
X102344261Y-134805047D01*
X102332555Y-134812737D01*
X102316659Y-134824704D01*
X102309446Y-134830445D01*
X102302713Y-134836063D01*
X102296459Y-134841579D01*
X102290678Y-134847026D01*
X102285366Y-134852429D01*
X102280519Y-134857813D01*
X102276130Y-134863206D01*
X102272195Y-134868638D01*
X102268708Y-134874133D01*
X102265669Y-134879719D01*
X102263070Y-134885422D01*
X102260908Y-134891269D01*
X102259175Y-134897290D01*
X102257869Y-134903509D01*
X102256985Y-134909954D01*
X102256519Y-134916649D01*
X102256463Y-134923627D01*
X102256817Y-134930911D01*
X102257575Y-134938529D01*
X102258730Y-134946508D01*
X102260279Y-134954875D01*
X102262219Y-134963657D01*
X102264541Y-134972881D01*
X102267243Y-134982574D01*
X102270321Y-134992762D01*
X102273769Y-135003476D01*
X102281760Y-135026576D01*
X102291173Y-135052094D01*
X102297252Y-135068788D01*
X102302722Y-135085014D01*
X102307576Y-135100686D01*
X102311807Y-135115723D01*
X102315399Y-135130039D01*
X102318345Y-135143554D01*
X102320636Y-135156178D01*
X102322263Y-135167829D01*
X102323212Y-135178425D01*
X102323478Y-135187881D01*
X102323050Y-135196112D01*
X102321918Y-135203036D01*
X102320071Y-135208567D01*
X102318876Y-135210783D01*
X102317500Y-135212620D01*
X102315940Y-135214069D01*
X102314197Y-135215114D01*
X102312266Y-135215751D01*
X102310151Y-135215964D01*
X102299548Y-135214866D01*
X102289466Y-135211657D01*
X102279913Y-135206457D01*
X102270896Y-135199389D01*
X102262428Y-135190577D01*
X102254518Y-135180144D01*
X102247169Y-135168218D01*
X102240398Y-135154914D01*
X102234212Y-135140360D01*
X102228618Y-135124680D01*
X102223628Y-135107995D01*
X102219248Y-135090429D01*
X102212366Y-135053147D01*
X102208044Y-135013817D01*
X102206356Y-134973429D01*
X102207378Y-134932965D01*
X102211183Y-134893413D01*
X102214150Y-134874289D01*
X102217842Y-134855759D01*
X102222269Y-134837951D01*
X102227437Y-134820986D01*
X102233355Y-134804991D01*
X102240037Y-134790082D01*
X102247486Y-134776390D01*
X102255715Y-134764035D01*
X102264735Y-134753137D01*
X102274551Y-134743823D01*
X102286359Y-134734951D01*
X102299922Y-134726417D01*
X102331833Y-134710403D01*
X102369310Y-134695871D01*
X102411384Y-134682915D01*
X102457070Y-134671626D01*
X102505408Y-134662092D01*
X102555413Y-134654408D01*
X102606119Y-134648662D01*
X102656549Y-134644947D01*
X102705728Y-134643352D01*
X102752683Y-134643971D01*
G37*
D11*
X99072475Y-99792455D02*
X98548665Y-99792455D01*
X98548665Y-99792455D02*
X98453427Y-99744836D01*
X98453427Y-99744836D02*
X98405808Y-99649598D01*
X98405808Y-99649598D02*
X98405808Y-99459122D01*
X98405808Y-99459122D02*
X98453427Y-99363884D01*
X99024856Y-99792455D02*
X99072475Y-99697217D01*
X99072475Y-99697217D02*
X99072475Y-99459122D01*
X99072475Y-99459122D02*
X99024856Y-99363884D01*
X99024856Y-99363884D02*
X98929617Y-99316265D01*
X98929617Y-99316265D02*
X98834379Y-99316265D01*
X98834379Y-99316265D02*
X98739141Y-99363884D01*
X98739141Y-99363884D02*
X98691522Y-99459122D01*
X98691522Y-99459122D02*
X98691522Y-99697217D01*
X98691522Y-99697217D02*
X98643903Y-99792455D01*
X98405808Y-100697217D02*
X99072475Y-100697217D01*
X98405808Y-100268646D02*
X98929617Y-100268646D01*
X98929617Y-100268646D02*
X99024856Y-100316265D01*
X99024856Y-100316265D02*
X99072475Y-100411503D01*
X99072475Y-100411503D02*
X99072475Y-100554360D01*
X99072475Y-100554360D02*
X99024856Y-100649598D01*
X99024856Y-100649598D02*
X98977236Y-100697217D01*
X99072475Y-101601979D02*
X98072475Y-101601979D01*
X99024856Y-101601979D02*
X99072475Y-101506741D01*
X99072475Y-101506741D02*
X99072475Y-101316265D01*
X99072475Y-101316265D02*
X99024856Y-101221027D01*
X99024856Y-101221027D02*
X98977236Y-101173408D01*
X98977236Y-101173408D02*
X98881998Y-101125789D01*
X98881998Y-101125789D02*
X98596284Y-101125789D01*
X98596284Y-101125789D02*
X98501046Y-101173408D01*
X98501046Y-101173408D02*
X98453427Y-101221027D01*
X98453427Y-101221027D02*
X98405808Y-101316265D01*
X98405808Y-101316265D02*
X98405808Y-101506741D01*
X98405808Y-101506741D02*
X98453427Y-101601979D01*
X99072475Y-102078170D02*
X98405808Y-102078170D01*
X98072475Y-102078170D02*
X98120094Y-102030551D01*
X98120094Y-102030551D02*
X98167713Y-102078170D01*
X98167713Y-102078170D02*
X98120094Y-102125789D01*
X98120094Y-102125789D02*
X98072475Y-102078170D01*
X98072475Y-102078170D02*
X98167713Y-102078170D01*
X99072475Y-102697217D02*
X99024856Y-102601979D01*
X99024856Y-102601979D02*
X98977236Y-102554360D01*
X98977236Y-102554360D02*
X98881998Y-102506741D01*
X98881998Y-102506741D02*
X98596284Y-102506741D01*
X98596284Y-102506741D02*
X98501046Y-102554360D01*
X98501046Y-102554360D02*
X98453427Y-102601979D01*
X98453427Y-102601979D02*
X98405808Y-102697217D01*
X98405808Y-102697217D02*
X98405808Y-102840074D01*
X98405808Y-102840074D02*
X98453427Y-102935312D01*
X98453427Y-102935312D02*
X98501046Y-102982931D01*
X98501046Y-102982931D02*
X98596284Y-103030550D01*
X98596284Y-103030550D02*
X98881998Y-103030550D01*
X98881998Y-103030550D02*
X98977236Y-102982931D01*
X98977236Y-102982931D02*
X99024856Y-102935312D01*
X99024856Y-102935312D02*
X99072475Y-102840074D01*
X99072475Y-102840074D02*
X99072475Y-102697217D01*
X99167713Y-103221027D02*
X99167713Y-103982931D01*
X98405808Y-104221027D02*
X99405808Y-104221027D01*
X98453427Y-104221027D02*
X98405808Y-104316265D01*
X98405808Y-104316265D02*
X98405808Y-104506741D01*
X98405808Y-104506741D02*
X98453427Y-104601979D01*
X98453427Y-104601979D02*
X98501046Y-104649598D01*
X98501046Y-104649598D02*
X98596284Y-104697217D01*
X98596284Y-104697217D02*
X98881998Y-104697217D01*
X98881998Y-104697217D02*
X98977236Y-104649598D01*
X98977236Y-104649598D02*
X99024856Y-104601979D01*
X99024856Y-104601979D02*
X99072475Y-104506741D01*
X99072475Y-104506741D02*
X99072475Y-104316265D01*
X99072475Y-104316265D02*
X99024856Y-104221027D01*
X99072475Y-105268646D02*
X99024856Y-105173408D01*
X99024856Y-105173408D02*
X98929617Y-105125789D01*
X98929617Y-105125789D02*
X98072475Y-105125789D01*
X99072475Y-106078170D02*
X98548665Y-106078170D01*
X98548665Y-106078170D02*
X98453427Y-106030551D01*
X98453427Y-106030551D02*
X98405808Y-105935313D01*
X98405808Y-105935313D02*
X98405808Y-105744837D01*
X98405808Y-105744837D02*
X98453427Y-105649599D01*
X99024856Y-106078170D02*
X99072475Y-105982932D01*
X99072475Y-105982932D02*
X99072475Y-105744837D01*
X99072475Y-105744837D02*
X99024856Y-105649599D01*
X99024856Y-105649599D02*
X98929617Y-105601980D01*
X98929617Y-105601980D02*
X98834379Y-105601980D01*
X98834379Y-105601980D02*
X98739141Y-105649599D01*
X98739141Y-105649599D02*
X98691522Y-105744837D01*
X98691522Y-105744837D02*
X98691522Y-105982932D01*
X98691522Y-105982932D02*
X98643903Y-106078170D01*
X98405808Y-106459123D02*
X99072475Y-106697218D01*
X98405808Y-106935313D02*
X99072475Y-106697218D01*
X99072475Y-106697218D02*
X99310570Y-106601980D01*
X99310570Y-106601980D02*
X99358189Y-106554361D01*
X99358189Y-106554361D02*
X99405808Y-106459123D01*
X99024856Y-107697218D02*
X99072475Y-107601980D01*
X99072475Y-107601980D02*
X99072475Y-107411504D01*
X99072475Y-107411504D02*
X99024856Y-107316266D01*
X99024856Y-107316266D02*
X98929617Y-107268647D01*
X98929617Y-107268647D02*
X98548665Y-107268647D01*
X98548665Y-107268647D02*
X98453427Y-107316266D01*
X98453427Y-107316266D02*
X98405808Y-107411504D01*
X98405808Y-107411504D02*
X98405808Y-107601980D01*
X98405808Y-107601980D02*
X98453427Y-107697218D01*
X98453427Y-107697218D02*
X98548665Y-107744837D01*
X98548665Y-107744837D02*
X98643903Y-107744837D01*
X98643903Y-107744837D02*
X98739141Y-107268647D01*
X99072475Y-108173409D02*
X98405808Y-108173409D01*
X98596284Y-108173409D02*
X98501046Y-108221028D01*
X98501046Y-108221028D02*
X98453427Y-108268647D01*
X98453427Y-108268647D02*
X98405808Y-108363885D01*
X98405808Y-108363885D02*
X98405808Y-108459123D01*
X99167713Y-108554362D02*
X99167713Y-109316266D01*
X98405808Y-109411505D02*
X98405808Y-109792457D01*
X98072475Y-109554362D02*
X98929617Y-109554362D01*
X98929617Y-109554362D02*
X99024856Y-109601981D01*
X99024856Y-109601981D02*
X99072475Y-109697219D01*
X99072475Y-109697219D02*
X99072475Y-109792457D01*
X99072475Y-110268648D02*
X99024856Y-110173410D01*
X99024856Y-110173410D02*
X98977236Y-110125791D01*
X98977236Y-110125791D02*
X98881998Y-110078172D01*
X98881998Y-110078172D02*
X98596284Y-110078172D01*
X98596284Y-110078172D02*
X98501046Y-110125791D01*
X98501046Y-110125791D02*
X98453427Y-110173410D01*
X98453427Y-110173410D02*
X98405808Y-110268648D01*
X98405808Y-110268648D02*
X98405808Y-110411505D01*
X98405808Y-110411505D02*
X98453427Y-110506743D01*
X98453427Y-110506743D02*
X98501046Y-110554362D01*
X98501046Y-110554362D02*
X98596284Y-110601981D01*
X98596284Y-110601981D02*
X98881998Y-110601981D01*
X98881998Y-110601981D02*
X98977236Y-110554362D01*
X98977236Y-110554362D02*
X99024856Y-110506743D01*
X99024856Y-110506743D02*
X99072475Y-110411505D01*
X99072475Y-110411505D02*
X99072475Y-110268648D01*
X98405808Y-110935315D02*
X99072475Y-111173410D01*
X98405808Y-111411505D02*
X99072475Y-111173410D01*
X99072475Y-111173410D02*
X99310570Y-111078172D01*
X99310570Y-111078172D02*
X99358189Y-111030553D01*
X99358189Y-111030553D02*
X99405808Y-110935315D01*
X99167713Y-111554363D02*
X99167713Y-112316267D01*
X98405808Y-112459125D02*
X99072475Y-112697220D01*
X99072475Y-112697220D02*
X98405808Y-112935315D01*
X98167713Y-113268649D02*
X98120094Y-113316268D01*
X98120094Y-113316268D02*
X98072475Y-113411506D01*
X98072475Y-113411506D02*
X98072475Y-113649601D01*
X98072475Y-113649601D02*
X98120094Y-113744839D01*
X98120094Y-113744839D02*
X98167713Y-113792458D01*
X98167713Y-113792458D02*
X98262951Y-113840077D01*
X98262951Y-113840077D02*
X98358189Y-113840077D01*
X98358189Y-113840077D02*
X98501046Y-113792458D01*
X98501046Y-113792458D02*
X99072475Y-113221030D01*
X99072475Y-113221030D02*
X99072475Y-113840077D01*
X99777657Y-99316265D02*
X99730038Y-99363884D01*
X99730038Y-99363884D02*
X99682419Y-99459122D01*
X99682419Y-99459122D02*
X99682419Y-99697217D01*
X99682419Y-99697217D02*
X99730038Y-99792455D01*
X99730038Y-99792455D02*
X99777657Y-99840074D01*
X99777657Y-99840074D02*
X99872895Y-99887693D01*
X99872895Y-99887693D02*
X99968133Y-99887693D01*
X99968133Y-99887693D02*
X100110990Y-99840074D01*
X100110990Y-99840074D02*
X100682419Y-99268646D01*
X100682419Y-99268646D02*
X100682419Y-99887693D01*
X99682419Y-100506741D02*
X99682419Y-100601979D01*
X99682419Y-100601979D02*
X99730038Y-100697217D01*
X99730038Y-100697217D02*
X99777657Y-100744836D01*
X99777657Y-100744836D02*
X99872895Y-100792455D01*
X99872895Y-100792455D02*
X100063371Y-100840074D01*
X100063371Y-100840074D02*
X100301466Y-100840074D01*
X100301466Y-100840074D02*
X100491942Y-100792455D01*
X100491942Y-100792455D02*
X100587180Y-100744836D01*
X100587180Y-100744836D02*
X100634800Y-100697217D01*
X100634800Y-100697217D02*
X100682419Y-100601979D01*
X100682419Y-100601979D02*
X100682419Y-100506741D01*
X100682419Y-100506741D02*
X100634800Y-100411503D01*
X100634800Y-100411503D02*
X100587180Y-100363884D01*
X100587180Y-100363884D02*
X100491942Y-100316265D01*
X100491942Y-100316265D02*
X100301466Y-100268646D01*
X100301466Y-100268646D02*
X100063371Y-100268646D01*
X100063371Y-100268646D02*
X99872895Y-100316265D01*
X99872895Y-100316265D02*
X99777657Y-100363884D01*
X99777657Y-100363884D02*
X99730038Y-100411503D01*
X99730038Y-100411503D02*
X99682419Y-100506741D01*
X99777657Y-101221027D02*
X99730038Y-101268646D01*
X99730038Y-101268646D02*
X99682419Y-101363884D01*
X99682419Y-101363884D02*
X99682419Y-101601979D01*
X99682419Y-101601979D02*
X99730038Y-101697217D01*
X99730038Y-101697217D02*
X99777657Y-101744836D01*
X99777657Y-101744836D02*
X99872895Y-101792455D01*
X99872895Y-101792455D02*
X99968133Y-101792455D01*
X99968133Y-101792455D02*
X100110990Y-101744836D01*
X100110990Y-101744836D02*
X100682419Y-101173408D01*
X100682419Y-101173408D02*
X100682419Y-101792455D01*
X99682419Y-102649598D02*
X99682419Y-102459122D01*
X99682419Y-102459122D02*
X99730038Y-102363884D01*
X99730038Y-102363884D02*
X99777657Y-102316265D01*
X99777657Y-102316265D02*
X99920514Y-102221027D01*
X99920514Y-102221027D02*
X100110990Y-102173408D01*
X100110990Y-102173408D02*
X100491942Y-102173408D01*
X100491942Y-102173408D02*
X100587180Y-102221027D01*
X100587180Y-102221027D02*
X100634800Y-102268646D01*
X100634800Y-102268646D02*
X100682419Y-102363884D01*
X100682419Y-102363884D02*
X100682419Y-102554360D01*
X100682419Y-102554360D02*
X100634800Y-102649598D01*
X100634800Y-102649598D02*
X100587180Y-102697217D01*
X100587180Y-102697217D02*
X100491942Y-102744836D01*
X100491942Y-102744836D02*
X100253847Y-102744836D01*
X100253847Y-102744836D02*
X100158609Y-102697217D01*
X100158609Y-102697217D02*
X100110990Y-102649598D01*
X100110990Y-102649598D02*
X100063371Y-102554360D01*
X100063371Y-102554360D02*
X100063371Y-102363884D01*
X100063371Y-102363884D02*
X100110990Y-102268646D01*
X100110990Y-102268646D02*
X100158609Y-102221027D01*
X100158609Y-102221027D02*
X100253847Y-102173408D01*
X100301466Y-103173408D02*
X100301466Y-103935313D01*
X99682419Y-104601979D02*
X99682419Y-104697217D01*
X99682419Y-104697217D02*
X99730038Y-104792455D01*
X99730038Y-104792455D02*
X99777657Y-104840074D01*
X99777657Y-104840074D02*
X99872895Y-104887693D01*
X99872895Y-104887693D02*
X100063371Y-104935312D01*
X100063371Y-104935312D02*
X100301466Y-104935312D01*
X100301466Y-104935312D02*
X100491942Y-104887693D01*
X100491942Y-104887693D02*
X100587180Y-104840074D01*
X100587180Y-104840074D02*
X100634800Y-104792455D01*
X100634800Y-104792455D02*
X100682419Y-104697217D01*
X100682419Y-104697217D02*
X100682419Y-104601979D01*
X100682419Y-104601979D02*
X100634800Y-104506741D01*
X100634800Y-104506741D02*
X100587180Y-104459122D01*
X100587180Y-104459122D02*
X100491942Y-104411503D01*
X100491942Y-104411503D02*
X100301466Y-104363884D01*
X100301466Y-104363884D02*
X100063371Y-104363884D01*
X100063371Y-104363884D02*
X99872895Y-104411503D01*
X99872895Y-104411503D02*
X99777657Y-104459122D01*
X99777657Y-104459122D02*
X99730038Y-104506741D01*
X99730038Y-104506741D02*
X99682419Y-104601979D01*
X100015752Y-105792455D02*
X100682419Y-105792455D01*
X99634800Y-105554360D02*
X100349085Y-105316265D01*
X100349085Y-105316265D02*
X100349085Y-105935312D01*
X100301466Y-106316265D02*
X100301466Y-107078170D01*
X99682419Y-107744836D02*
X99682419Y-107840074D01*
X99682419Y-107840074D02*
X99730038Y-107935312D01*
X99730038Y-107935312D02*
X99777657Y-107982931D01*
X99777657Y-107982931D02*
X99872895Y-108030550D01*
X99872895Y-108030550D02*
X100063371Y-108078169D01*
X100063371Y-108078169D02*
X100301466Y-108078169D01*
X100301466Y-108078169D02*
X100491942Y-108030550D01*
X100491942Y-108030550D02*
X100587180Y-107982931D01*
X100587180Y-107982931D02*
X100634800Y-107935312D01*
X100634800Y-107935312D02*
X100682419Y-107840074D01*
X100682419Y-107840074D02*
X100682419Y-107744836D01*
X100682419Y-107744836D02*
X100634800Y-107649598D01*
X100634800Y-107649598D02*
X100587180Y-107601979D01*
X100587180Y-107601979D02*
X100491942Y-107554360D01*
X100491942Y-107554360D02*
X100301466Y-107506741D01*
X100301466Y-107506741D02*
X100063371Y-107506741D01*
X100063371Y-107506741D02*
X99872895Y-107554360D01*
X99872895Y-107554360D02*
X99777657Y-107601979D01*
X99777657Y-107601979D02*
X99730038Y-107649598D01*
X99730038Y-107649598D02*
X99682419Y-107744836D01*
X100110990Y-108649598D02*
X100063371Y-108554360D01*
X100063371Y-108554360D02*
X100015752Y-108506741D01*
X100015752Y-108506741D02*
X99920514Y-108459122D01*
X99920514Y-108459122D02*
X99872895Y-108459122D01*
X99872895Y-108459122D02*
X99777657Y-108506741D01*
X99777657Y-108506741D02*
X99730038Y-108554360D01*
X99730038Y-108554360D02*
X99682419Y-108649598D01*
X99682419Y-108649598D02*
X99682419Y-108840074D01*
X99682419Y-108840074D02*
X99730038Y-108935312D01*
X99730038Y-108935312D02*
X99777657Y-108982931D01*
X99777657Y-108982931D02*
X99872895Y-109030550D01*
X99872895Y-109030550D02*
X99920514Y-109030550D01*
X99920514Y-109030550D02*
X100015752Y-108982931D01*
X100015752Y-108982931D02*
X100063371Y-108935312D01*
X100063371Y-108935312D02*
X100110990Y-108840074D01*
X100110990Y-108840074D02*
X100110990Y-108649598D01*
X100110990Y-108649598D02*
X100158609Y-108554360D01*
X100158609Y-108554360D02*
X100206228Y-108506741D01*
X100206228Y-108506741D02*
X100301466Y-108459122D01*
X100301466Y-108459122D02*
X100491942Y-108459122D01*
X100491942Y-108459122D02*
X100587180Y-108506741D01*
X100587180Y-108506741D02*
X100634800Y-108554360D01*
X100634800Y-108554360D02*
X100682419Y-108649598D01*
X100682419Y-108649598D02*
X100682419Y-108840074D01*
X100682419Y-108840074D02*
X100634800Y-108935312D01*
X100634800Y-108935312D02*
X100587180Y-108982931D01*
X100587180Y-108982931D02*
X100491942Y-109030550D01*
X100491942Y-109030550D02*
X100301466Y-109030550D01*
X100301466Y-109030550D02*
X100206228Y-108982931D01*
X100206228Y-108982931D02*
X100158609Y-108935312D01*
X100158609Y-108935312D02*
X100110990Y-108840074D01*
M02*
