M48
; DRILL file {KiCad 9.0.3} date 2026-03-16T17:47:46+0800
; FORMAT={-:-/ absolute / metric / decimal}
; #@! TF.CreationDate,2026-03-16T17:47:46+08:00
; #@! TF.GenerationSoftware,Kicad,Pcbnew,9.0.3
; #@! TF.FileFunction,MixedPlating,1,6
FMAT,2
METRIC
; #@! TA.AperFunction,Plated,PTH,ViaDrill
T1C0.300
; #@! TA.AperFunction,Plated,PTH,ComponentDrill
T2C0.600
; #@! TA.AperFunction,Plated,PTH,ComponentDrill
T3C0.700
; #@! TA.AperFunction,Plated,PTH,ComponentDrill
T4C0.762
; #@! TA.AperFunction,NonPlated,NPTH,ComponentDrill
T5C0.520
; #@! TA.AperFunction,NonPlated,NPTH,ComponentDrill
T6C0.900
; #@! TA.AperFunction,NonPlated,NPTH,ComponentDrill
T7C1.280
; #@! TA.AperFunction,NonPlated,NPTH,ComponentDrill
T8C1.300
; #@! TA.AperFunction,NonPlated,NPTH,ComponentDrill
T9C2.200
; #@! TA.AperFunction,NonPlated,NPTH,ComponentDrill
T10C2.400
%
G90
G05
T1
X140.7Y-70.61
X140.72Y-79.135
X140.97Y-74.19
X140.97Y-76.19
X141.49Y-77.775
X142.75Y-72.04
X142.755Y-73.08
X142.759Y-75.711
X143.49Y-77.775
X143.745Y-75.02
X144.145Y-72.145
X144.198Y-70.16
X144.365Y-79.365
X145.35Y-70.61
X145.405Y-72.13
X145.82Y-79.105
X146.585Y-73.14
X146.585Y-74.64
X146.635Y-64.525
X146.635Y-66.525
X146.675Y-77.125
X146.725Y-79.897
X146.797Y-88.43
X147.53Y-83.37
X147.691Y-73.183
X147.691Y-73.953
X147.716Y-74.753
X147.775Y-88.405
X148.355Y-68.635
X148.559Y-73.192
X148.56Y-73.96
X148.65Y-79.897
X149.25Y-89.56
X149.35Y-77.305
X149.35Y-78.545
X149.41Y-75.695
X149.455Y-68.63
X149.455Y-71.3
X150.07Y-63.28
X150.15Y-61.14
X150.465Y-68.629
X150.511Y-71.507
X150.596Y-73.378
X150.64Y-74.27
X150.855Y-66.119
X151.015Y-76.595
X151.02Y-77.985
X151.355Y-63.28
X151.655Y-68.635
X151.782Y-72.778
X151.99Y-71.507
X152.35Y-87.015
X152.65Y-61.14
X152.755Y-68.63
X152.895Y-72.845
X153.115Y-62.45
X153.15Y-66.119
X153.52Y-82.4
X153.635Y-71.53
X153.695Y-88.96
X153.912Y-80.706
X154.0Y-78.17
X154.23Y-61.59
X154.26Y-74.265
X154.315Y-66.125
X154.565Y-68.535
X154.565Y-71.295
X154.797Y-84.294
X154.883Y-81.054
X154.99Y-60.615
X155.046Y-83.271
X155.45Y-60.155
X155.67Y-68.545
X155.67Y-71.295
X155.68Y-81.12
X155.77Y-88.38
X155.845Y-83.255
X155.854Y-84.266
X155.949Y-62.425
X156.43Y-88.38
X156.59Y-81.01
X156.599Y-62.425
X156.685Y-81.835
X157.23Y-82.34
X157.29Y-60.6
X157.529Y-64.867
X158.18Y-84.785
X158.28Y-61.46
X158.28Y-62.46
X158.28Y-63.46
X159.325Y-68.515
X159.33Y-67.656
X160.51Y-66.119
X160.68Y-82.375
X160.68Y-84.78
X160.805Y-80.84
X160.86Y-79.095
X160.865Y-73.69
X160.865Y-76.26
X161.0Y-60.255
X161.0Y-61.755
X161.0Y-63.255
X161.084Y-70.996
X161.686Y-70.394
X162.5Y-60.255
X162.5Y-61.755
X162.5Y-63.255
X162.512Y-68.518
X162.815Y-73.69
X162.815Y-76.245
X162.885Y-79.11
X162.965Y-80.85
X163.58Y-68.517
X163.645Y-71.61
X164.66Y-82.375
X164.957Y-71.425
X165.105Y-84.135
X165.76Y-68.517
X165.925Y-77.95
X166.075Y-66.815
X166.415Y-73.405
X166.56Y-68.617
X166.665Y-71.25
X166.835Y-84.72
X166.88Y-88.8
X167.57Y-64.145
X167.57Y-65.515
X167.575Y-66.815
X168.25Y-69.12
X168.25Y-70.95
X168.305Y-79.81
X168.797Y-75.731
X168.845Y-76.787
X168.845Y-77.787
X169.31Y-79.81
X169.335Y-84.72
X169.595Y-69.119
X169.845Y-75.787
X169.845Y-76.787
X169.845Y-77.787
X169.886Y-73.57
X170.096Y-79.958
X170.37Y-81.885
X170.37Y-82.885
X170.37Y-83.885
X170.437Y-69.119
X170.845Y-75.787
X170.845Y-76.787
X170.845Y-77.787
X170.9Y-73.545
X170.945Y-67.065
X170.975Y-65.756
X171.25Y-64.995
X171.275Y-69.125
X171.37Y-81.885
X171.37Y-82.885
X171.37Y-83.885
X171.735Y-60.975
X171.735Y-64.06
X171.807Y-78.667
X172.024Y-73.57
X172.15Y-69.24
X172.37Y-81.885
X172.37Y-82.885
X172.37Y-83.885
X173.05Y-70.575
X173.155Y-62.525
X173.386Y-84.49
X173.645Y-67.3
X173.66Y-76.59
X173.662Y-77.433
X173.675Y-75.763
X173.684Y-78.297
X173.685Y-72.807
X174.185Y-84.451
X174.4Y-81.011
X174.435Y-66.845
X175.07Y-84.451
X175.1Y-81.011
X175.255Y-66.865
X175.29Y-61.575
X175.412Y-63.014
X175.735Y-63.826
X175.988Y-82.82
X176.093Y-61.614
X176.258Y-72.425
X176.35Y-88.175
X176.37Y-68.517
X176.634Y-74.955
X176.751Y-77.001
X176.778Y-83.026
X177.135Y-68.75
X177.305Y-61.77
X177.325Y-72.395
X177.62Y-69.944
X177.651Y-83.03
X177.652Y-75.718
X177.738Y-85.408
X177.905Y-63.88
X178.0Y-74.954
X178.105Y-61.88
X178.115Y-68.55
X178.551Y-77.415
X178.878Y-72.151
X179.092Y-75.975
X179.129Y-75.09
X179.183Y-69.178
X179.351Y-77.415
X179.453Y-79.81
X179.61Y-73.28
X179.63Y-72.423
X179.66Y-62.397
X179.685Y-63.975
X179.7Y-68.518
X179.805Y-63.184
X179.985Y-79.213
X180.26Y-70.544
X180.28Y-65.065
X180.49Y-69.164
X180.544Y-78.617
X180.6Y-83.555
X180.71Y-61.605
X180.715Y-89.475
X180.89Y-76.725
X181.065Y-78.01
X181.281Y-69.046
X181.36Y-60.415
X181.475Y-64.44
X181.621Y-63.145
X181.629Y-84.614
X181.815Y-80.44
X181.83Y-83.46
X181.965Y-89.55
X181.985Y-62.433
X182.008Y-65.104
X182.009Y-63.844
X182.472Y-69.764
X182.475Y-68.518
X182.524Y-79.732
X182.964Y-62.349
X182.999Y-71.012
X183.13Y-79.21
X183.253Y-71.77
X183.35Y-83.87
X183.372Y-68.518
X183.535Y-75.84
X183.625Y-73.695
X183.73Y-69.255
X184.125Y-70.75
X184.135Y-75.301
X184.33Y-83.87
X184.46Y-60.415
X184.754Y-61.605
X184.8Y-78.732
X184.92Y-73.689
X184.99Y-67.695
X185.002Y-75.691
X185.235Y-80.415
X185.34Y-60.09
X185.602Y-71.96
X185.602Y-71.074
X185.95Y-79.661
X185.986Y-60.835
X186.008Y-61.698
X186.03Y-85.675
X186.05Y-84.53
X186.202Y-76.45
X186.369Y-75.165
X186.603Y-63.105
X186.8Y-79.661
X186.92Y-68.64
X187.04Y-87.52
X187.23Y-63.38
X187.54Y-60.215
X187.569Y-71.41
X187.6Y-65.08
X187.669Y-80.419
X187.89Y-79.65
X187.92Y-77.9
X188.03Y-69.13
X188.13Y-82.92
X188.169Y-71.96
X188.199Y-75.111
X188.235Y-68.32
X188.384Y-69.848
X188.455Y-64.844
X188.59Y-80.415
X188.733Y-67.694
X188.925Y-72.395
X189.07Y-83.475
X189.111Y-75.155
X189.317Y-66.65
X189.54Y-60.215
X189.62Y-80.845
X189.689Y-64.649
X190.31Y-66.22
X190.33Y-83.47
X190.945Y-64.58
X191.54Y-60.215
X191.596Y-81.454
X191.604Y-76.713
X191.606Y-69.41
X191.61Y-80.06
X191.676Y-68.35
X191.7Y-83.475
X192.276Y-69.848
X192.352Y-63.38
X192.527Y-82.394
X192.786Y-66.646
X192.8Y-86.615
X192.892Y-78.116
X193.065Y-84.705
X193.065Y-85.74
X193.15Y-69.848
X193.545Y-81.04
X193.545Y-82.29
X193.55Y-86.62
X193.59Y-66.785
X193.644Y-78.389
X193.97Y-64.66
X194.08Y-62.165
X194.305Y-60.305
X194.475Y-68.98
X194.495Y-67.285
X194.545Y-65.33
X194.614Y-63.38
X194.95Y-72.29
X194.951Y-70.249
X194.97Y-79.59
X195.081Y-74.979
X195.352Y-71.449
X195.44Y-61.19
X195.722Y-80.363
X195.815Y-62.585
X195.821Y-63.623
X195.825Y-86.42
X195.834Y-84.805
X195.887Y-75.2
X195.96Y-85.595
X196.154Y-67.291
X196.421Y-65.285
X196.62Y-60.11
X196.62Y-63.58
X196.65Y-82.795
X196.759Y-68.745
X197.205Y-81.095
X197.786Y-74.68
X197.956Y-80.179
X198.082Y-69.048
X198.15Y-81.069
X198.65Y-85.655
X198.66Y-86.465
X198.695Y-84.815
X198.752Y-78.233
X198.805Y-80.609
X198.825Y-72.488
X198.891Y-64.631
X199.272Y-60.521
X199.745Y-62.275
X199.865Y-68.47
X199.897Y-78.362
X200.077Y-60.38
X200.22Y-82.01
X200.345Y-86.675
X200.615Y-84.945
X200.722Y-88.499
X201.072Y-76.624
X201.205Y-82.01
X201.329Y-60.047
X201.509Y-88.845
X201.511Y-62.629
X201.87Y-76.562
X201.87Y-79.205
X201.943Y-81.702
X201.975Y-87.17
X202.01Y-85.875
X202.2Y-68.293
X202.84Y-81.75
X202.915Y-60.16
X203.285Y-76.203
X204.022Y-88.851
X204.115Y-87.805
X204.174Y-69.048
X204.561Y-86.929
X204.647Y-66.688
X205.06Y-61.97
X205.236Y-60.945
X205.37Y-80.885
X205.38Y-70.87
X205.392Y-72.1
X206.005Y-66.995
X206.326Y-68.526
X206.456Y-76.203
X206.565Y-88.715
X206.58Y-74.68
X206.625Y-62.997
X206.958Y-72.1
X207.04Y-88.19
X207.465Y-70.849
X207.475Y-80.82
X207.66Y-60.965
X207.66Y-84.24
X207.845Y-69.048
X208.082Y-67.131
X208.23Y-79.92
X208.926Y-82.405
X208.975Y-75.955
X209.02Y-68.685
X209.075Y-62.238
X209.08Y-61.39
X209.16Y-71.345
X209.555Y-89.415
X210.135Y-88.51
X210.92Y-86.88
X211.544Y-88.75
X211.613Y-89.547
X212.193Y-65.519
X212.793Y-69.04
X213.19Y-87.15
X213.193Y-84.131
X213.275Y-59.96
X214.14Y-64.245
X214.305Y-71.63
X214.391Y-87.497
X214.424Y-83.956
X214.63Y-76.355
X214.96Y-79.201
X215.155Y-64.19
X215.235Y-71.629
X215.56Y-89.515
X215.57Y-88.83
X215.76Y-83.95
X216.765Y-65.83
X216.89Y-64.053
X216.925Y-67.93
X217.325Y-82.205
X217.496Y-59.96
X217.665Y-68.235
X217.685Y-87.19
X217.735Y-71.629
X217.925Y-76.355
X218.16Y-82.69
X218.675Y-59.96
X218.845Y-68.15
X219.685Y-87.19
X219.796Y-76.355
X219.824Y-69.048
X220.425Y-80.405
X220.61Y-66.329
X220.68Y-82.22
X220.856Y-89.76
X221.385Y-67.93
X221.497Y-87.205
X222.395Y-75.49
X222.467Y-88.898
X223.67Y-73.985
X224.008Y-87.106
X224.075Y-89.488
X224.325Y-65.935
X224.325Y-67.93
X224.325Y-69.048
X224.325Y-70.849
X224.525Y-82.205
X224.925Y-74.192
X224.925Y-64.86
X225.525Y-67.93
X225.525Y-69.048
X225.855Y-89.488
X226.22Y-87.132
X226.575Y-68.5
X227.055Y-71.005
X227.125Y-83.307
X227.175Y-64.23
X227.755Y-83.8
X227.868Y-70.847
X227.99Y-89.488
X228.023Y-73.491
X228.09Y-87.132
X228.22Y-60.03
X228.715Y-70.21
X228.715Y-71.02
X229.248Y-82.805
X229.248Y-82.805
X229.42Y-63.795
X229.955Y-89.488
X229.965Y-60.0
X230.205Y-87.132
X230.33Y-63.09
X230.43Y-64.27
X231.29Y-71.555
X231.35Y-62.891
X231.4Y-59.995
X231.587Y-63.807
X231.735Y-65.675
X231.825Y-82.205
X231.855Y-68.745
X232.097Y-89.701
X232.135Y-83.691
X232.224Y-64.571
X232.26Y-86.901
X232.747Y-69.02
X233.276Y-65.197
X233.335Y-82.223
X233.715Y-83.665
X233.859Y-59.991
X234.055Y-62.842
X234.17Y-89.685
X234.245Y-86.745
X234.61Y-85.235
X234.73Y-62.0
X235.16Y-86.0
X235.162Y-83.691
X235.764Y-86.771
X236.127Y-79.197
X236.14Y-72.83
X236.146Y-74.792
X236.172Y-80.404
X236.176Y-81.604
X236.191Y-76.09
X236.196Y-68.18
X236.225Y-77.335
X236.235Y-69.9
X236.3Y-71.599
X236.338Y-89.401
X236.375Y-73.755
X236.684Y-82.222
X236.697Y-79.8
X236.703Y-81.002
X236.718Y-78.599
X236.72Y-76.69
X236.735Y-75.49
X236.958Y-72.199
X236.977Y-68.004
X237.192Y-70.996
X237.485Y-69.223
X237.665Y-66.19
X237.72Y-70.395
X237.821Y-81.932
X238.125Y-66.67
X238.194Y-81.224
X238.61Y-66.193
X238.87Y-88.425
X238.89Y-85.358
X238.95Y-87.465
X239.475Y-63.248
X239.705Y-64.465
X239.71Y-60.32
X239.995Y-87.88
X240.085Y-86.56
X240.136Y-80.988
X240.415Y-89.71
X240.585Y-68.18
X240.595Y-65.41
X240.604Y-63.196
X240.816Y-81.619
X240.865Y-64.31
X240.91Y-85.9
X240.91Y-86.635
X240.91Y-88.695
X241.07Y-60.345
X241.295Y-66.543
X241.449Y-62.447
X241.515Y-61.33
X241.66Y-87.57
X241.73Y-63.525
X241.76Y-80.83
X241.855Y-65.02
X242.05Y-83.26
X242.095Y-82.22
X242.2Y-89.64
X242.32Y-86.185
X242.375Y-60.115
X242.545Y-65.782
X242.55Y-63.807
X242.85Y-72.703
X242.986Y-75.85
X243.01Y-73.957
X243.235Y-74.8
X243.235Y-77.125
X243.235Y-78.97
X243.235Y-80.37
X243.53Y-65.78
X243.535Y-63.805
X243.605Y-86.03
X243.855Y-89.65
X244.018Y-73.645
X244.042Y-70.43
X244.157Y-72.816
X244.26Y-60.31
X244.32Y-65.05
X244.613Y-71.122
X244.839Y-70.354
X244.84Y-86.03
X245.1Y-87.105
X245.112Y-83.297
X245.15Y-84.55
X245.15Y-88.535
X245.18Y-61.775
X245.253Y-69.67
X245.26Y-63.545
X245.3Y-68.61
T3
X157.61Y-88.15
X158.86Y-88.15
X160.11Y-88.15
X161.36Y-88.15
X162.61Y-88.15
X163.86Y-88.15
X165.11Y-88.15
X188.31Y-88.12
X189.56Y-88.12
X190.81Y-88.12
T4
X164.08Y-62.25
X166.62Y-62.25
X169.16Y-62.25
T5
X160.02Y-62.45
T6
X207.45Y-75.99
T7
X193.15Y-75.99
T8
X197.76Y-64.23
X197.76Y-71.85
X200.3Y-64.23
X200.3Y-71.85
X202.84Y-64.23
X202.84Y-71.85
T9
X148.4Y-61.86
X243.4Y-61.86
X243.4Y-87.86
T10
X162.793Y-84.23
T2
G00X153.995Y-60.3
M15
G01X153.745Y-60.3
M16
G05
G00X153.995Y-64.6
M15
G01X153.745Y-64.6
M16
G05
G00X158.795Y-60.3
M15
G01X158.545Y-60.3
M16
G05
G00X158.795Y-64.6
M15
G01X158.545Y-64.6
M16
G05
M30
