%TF.GenerationSoftware,KiCad,Pcbnew,9.0.3*%
%TF.CreationDate,2026-03-16T17:47:19+08:00*%
%TF.ProjectId,TopaxChainStm32_v1.5,546f7061-7843-4686-9169-6e53746d3332,rev?*%
%TF.SameCoordinates,Original*%
%TF.FileFunction,Soldermask,Bot*%
%TF.FilePolarity,Negative*%
%FSLAX46Y46*%
G04 Gerber Fmt 4.6, Leading zero omitted, Abs format (unit mm)*
G04 Created by KiCad (PCBNEW 9.0.3) date 2026-03-16 17:47:19*
%MOMM*%
%LPD*%
G01*
G04 APERTURE LIST*
G04 Aperture macros list*
%AMRoundRect*
0 Rectangle with rounded corners*
0 $1 Rounding radius*
0 $2 $3 $4 $5 $6 $7 $8 $9 X,Y pos of 4 corners*
0 Add a 4 corners polygon primitive as box body*
4,1,4,$2,$3,$4,$5,$6,$7,$8,$9,$2,$3,0*
0 Add four circle primitives for the rounded corners*
1,1,$1+$1,$2,$3*
1,1,$1+$1,$4,$5*
1,1,$1+$1,$6,$7*
1,1,$1+$1,$8,$9*
0 Add four rect primitives between the rounded corners*
20,1,$1+$1,$2,$3,$4,$5,0*
20,1,$1+$1,$4,$5,$6,$7,0*
20,1,$1+$1,$6,$7,$8,$9,0*
20,1,$1+$1,$8,$9,$2,$3,0*%
%AMFreePoly0*
4,1,17,0.285355,2.035355,0.290534,2.029275,0.940534,1.129275,0.950000,1.100000,0.950000,-2.000000,0.935355,-2.035355,0.900000,-2.050000,-0.900000,-2.050000,-0.935355,-2.035355,-0.950000,-2.000000,-0.950000,1.100000,-0.940534,1.129275,-0.290534,2.029275,-0.257962,2.049362,-0.250000,2.050000,0.250000,2.050000,0.285355,2.035355,0.285355,2.035355,$1*%
G04 Aperture macros list end*
%ADD10C,2.200000*%
%ADD11C,0.900025*%
%ADD12C,1.300025*%
%ADD13C,1.280010*%
%ADD14RoundRect,0.135000X-0.135000X-0.185000X0.135000X-0.185000X0.135000X0.185000X-0.135000X0.185000X0*%
%ADD15RoundRect,0.140000X0.170000X-0.140000X0.170000X0.140000X-0.170000X0.140000X-0.170000X-0.140000X0*%
%ADD16RoundRect,0.140000X-0.140000X-0.170000X0.140000X-0.170000X0.140000X0.170000X-0.140000X0.170000X0*%
%ADD17R,0.900000X1.500000*%
%ADD18O,0.900000X1.500000*%
%ADD19RoundRect,0.135000X-0.185000X0.135000X-0.185000X-0.135000X0.185000X-0.135000X0.185000X0.135000X0*%
%ADD20R,0.864008X0.806477*%
%ADD21RoundRect,0.135000X0.135000X0.185000X-0.135000X0.185000X-0.135000X-0.185000X0.135000X-0.185000X0*%
%ADD22RoundRect,0.140000X-0.170000X0.140000X-0.170000X-0.140000X0.170000X-0.140000X0.170000X0.140000X0*%
%ADD23C,2.400000*%
%ADD24R,5.080010X7.620015*%
%ADD25R,0.400000X0.700000*%
%ADD26R,0.764999X0.200000*%
%ADD27R,0.664999X0.200000*%
%ADD28R,0.200000X0.664999*%
%ADD29C,1.524003*%
%ADD30R,0.800000X1.524003*%
%ADD31R,0.600000X1.100000*%
%ADD32R,0.700000X2.000000*%
%ADD33R,1.800000X2.500000*%
%ADD34O,0.700000X1.600000*%
%ADD35R,1.500000X0.500000*%
%ADD36R,1.500000X0.800000*%
%ADD37R,1.650000X1.300000*%
%ADD38FreePoly0,0.000000*%
%ADD39R,0.700000X3.500000*%
%ADD40R,1.500000X2.300000*%
%ADD41RoundRect,0.225000X-0.225000X-0.250000X0.225000X-0.250000X0.225000X0.250000X-0.225000X0.250000X0*%
%ADD42R,0.700000X1.250013*%
%ADD43RoundRect,0.135000X0.185000X-0.135000X0.185000X0.135000X-0.185000X0.135000X-0.185000X-0.135000X0*%
%ADD44RoundRect,0.225000X-0.250000X0.225000X-0.250000X-0.225000X0.250000X-0.225000X0.250000X0.225000X0*%
%ADD45R,0.299999X0.670001*%
%ADD46RoundRect,0.162500X-0.162500X0.837500X-0.162500X-0.837500X0.162500X-0.837500X0.162500X0.837500X0*%
%ADD47R,2.158014X0.559995*%
%ADD48R,0.532004X1.072009*%
%ADD49R,0.510008X0.400000*%
%ADD50C,0.519990*%
%ADD51O,1.350013X1.100000*%
%ADD52R,0.300000X0.870003*%
%ADD53R,2.100000X0.950013*%
G04 APERTURE END LIST*
D10*
%TO.C,H3*%
X243400000Y-87860000D03*
%TD*%
D11*
%TO.C,U52*%
X207450114Y-75989956D03*
D12*
X202840005Y-71850001D03*
X202840005Y-64229986D03*
X200300000Y-71850000D03*
X200300000Y-64229986D03*
X197759995Y-71850001D03*
X197759995Y-64229986D03*
D13*
X193150140Y-75989956D03*
%TD*%
D10*
%TO.C,H1*%
X243400000Y-61860000D03*
%TD*%
%TO.C,H2*%
X148400000Y-61860000D03*
%TD*%
D14*
%TO.C,R10*%
X243405002Y-69120000D03*
X244425000Y-69120000D03*
%TD*%
D15*
%TO.C,C88*%
X204550000Y-65070000D03*
X204550000Y-64110000D03*
%TD*%
D16*
%TO.C,C15*%
X241712468Y-71650864D03*
X242672468Y-71650864D03*
%TD*%
D17*
%TO.C,U40*%
X165109872Y-88150000D03*
D18*
X163859936Y-88150000D03*
X162610000Y-88150000D03*
X161360063Y-88150000D03*
X160109872Y-88150000D03*
X158859936Y-88150000D03*
X157610000Y-88150000D03*
%TD*%
D19*
%TO.C,R67*%
X207620000Y-64080001D03*
X207620000Y-65099999D03*
%TD*%
D20*
%TO.C,F4*%
X193325000Y-89105000D03*
X193325000Y-87598268D03*
%TD*%
D15*
%TO.C,C91*%
X204240000Y-61970000D03*
X204240000Y-61010000D03*
%TD*%
D21*
%TO.C,R8*%
X152995000Y-76740000D03*
X151975002Y-76740000D03*
%TD*%
D14*
%TO.C,R51*%
X155250001Y-65280000D03*
X156269999Y-65280000D03*
%TD*%
D22*
%TO.C,C1*%
X180600000Y-87280000D03*
X180600000Y-88240000D03*
%TD*%
D23*
%TO.C,U15*%
X162793203Y-84230000D03*
D24*
X239946366Y-76230000D03*
X157320000Y-76230000D03*
%TD*%
D25*
%TO.C,D3*%
X239415014Y-81140001D03*
X238714986Y-81140001D03*
%TD*%
D14*
%TO.C,R1*%
X212305001Y-88400000D03*
X213324999Y-88400000D03*
%TD*%
D21*
%TO.C,R4*%
X152579999Y-82875000D03*
X151560001Y-82875000D03*
%TD*%
D26*
%TO.C,U14*%
X177122501Y-64575203D03*
D27*
X177072386Y-64175152D03*
X177072386Y-63775355D03*
X177072386Y-63375306D03*
D28*
X177305051Y-62743352D03*
X177705102Y-62742844D03*
X178104898Y-62742844D03*
X178504949Y-62742844D03*
D27*
X178737614Y-63375306D03*
X178737614Y-63775355D03*
X178737614Y-64175152D03*
X178737614Y-64575204D03*
D28*
X178504949Y-65207156D03*
X178104898Y-65207156D03*
X177705102Y-65207156D03*
X177305051Y-65207156D03*
%TD*%
D22*
%TO.C,C61*%
X241105000Y-84080000D03*
X241105000Y-85040000D03*
%TD*%
D29*
%TO.C,R44*%
X164079995Y-62250000D03*
X166620000Y-62250000D03*
X169160005Y-62250000D03*
%TD*%
D22*
%TO.C,C4*%
X214335000Y-88400000D03*
X214335000Y-89360000D03*
%TD*%
D26*
%TO.C,U7*%
X183407501Y-64540203D03*
D27*
X183357386Y-64140152D03*
X183357386Y-63740355D03*
X183357386Y-63340306D03*
D28*
X183590051Y-62708352D03*
X183990102Y-62707844D03*
X184389898Y-62707844D03*
X184789949Y-62707844D03*
D27*
X185022614Y-63340306D03*
X185022614Y-63740355D03*
X185022614Y-64140152D03*
X185022614Y-64540204D03*
D28*
X184789949Y-65172156D03*
X184389898Y-65172156D03*
X183990102Y-65172156D03*
X183590051Y-65172156D03*
%TD*%
D30*
%TO.C,U3*%
X198720495Y-88880000D03*
X195419505Y-88880000D03*
%TD*%
D17*
%TO.C,U41*%
X190810128Y-88120000D03*
D18*
X189560191Y-88120000D03*
X188310000Y-88120000D03*
%TD*%
D22*
%TO.C,C2*%
X181630000Y-87280000D03*
X181630000Y-88240000D03*
%TD*%
D14*
%TO.C,R15*%
X184920001Y-89340002D03*
X185939999Y-89340002D03*
%TD*%
%TO.C,R43*%
X140970001Y-72040000D03*
X141989999Y-72040000D03*
%TD*%
%TO.C,R38*%
X238555001Y-83260000D03*
X239574999Y-83260000D03*
%TD*%
D31*
%TO.C,U42*%
X143480037Y-73929898D03*
X144430000Y-73929898D03*
X145379963Y-73929898D03*
X145379963Y-76530102D03*
X143480037Y-76530102D03*
%TD*%
D19*
%TO.C,R68*%
X201140000Y-60980001D03*
X201140000Y-61999999D03*
%TD*%
D15*
%TO.C,C66*%
X141990000Y-75040000D03*
X141990000Y-74080000D03*
%TD*%
%TO.C,C89*%
X206590000Y-65070000D03*
X206590000Y-64110000D03*
%TD*%
D32*
%TO.C,U59*%
X150070000Y-88859999D03*
X151320000Y-88860000D03*
X152570000Y-88859999D03*
D33*
X155050000Y-85920000D03*
X147590000Y-85920000D03*
%TD*%
D34*
%TO.C,U32*%
X148355000Y-67330000D03*
X149455000Y-67330001D03*
X150555000Y-67330000D03*
X151655000Y-67330001D03*
X152755000Y-67330000D03*
X153854999Y-67330000D03*
X154955000Y-67330000D03*
X156055000Y-67330000D03*
D35*
X146615000Y-70440000D03*
D36*
X147405001Y-71430000D03*
D37*
X146975000Y-69190000D03*
D38*
X157155000Y-69930000D03*
%TD*%
D39*
%TO.C,CN2*%
X212155000Y-61802500D03*
X213655000Y-61802500D03*
X215155000Y-61802500D03*
X216655000Y-61802500D03*
D40*
X218705000Y-63802500D03*
X210105000Y-63802500D03*
%TD*%
D41*
%TO.C,C62*%
X238290000Y-85560000D03*
X239840000Y-85560000D03*
%TD*%
D22*
%TO.C,C63*%
X242135000Y-84080000D03*
X242135000Y-85040000D03*
%TD*%
D21*
%TO.C,R16*%
X185939998Y-88345000D03*
X184920000Y-88345000D03*
%TD*%
D15*
%TO.C,C92*%
X205570000Y-65070000D03*
X205570000Y-64110000D03*
%TD*%
D21*
%TO.C,R71*%
X198414999Y-60315000D03*
X197395001Y-60315000D03*
%TD*%
D42*
%TO.C,U13*%
X150459962Y-75457468D03*
X148560038Y-75457468D03*
X149510000Y-73457468D03*
%TD*%
D15*
%TO.C,C93*%
X202170000Y-61970000D03*
X202170000Y-61010000D03*
%TD*%
D43*
%TO.C,R50*%
X159420000Y-66879999D03*
X159420000Y-65860001D03*
%TD*%
D44*
%TO.C,C20*%
X244630000Y-66365000D03*
X244630000Y-67915000D03*
%TD*%
D41*
%TO.C,C14*%
X241542468Y-70405864D03*
X243092468Y-70405864D03*
%TD*%
D15*
%TO.C,C90*%
X208650000Y-65070000D03*
X208650000Y-64110000D03*
%TD*%
D45*
%TO.C,U12*%
X242445000Y-68359755D03*
X241945001Y-68359755D03*
X241444999Y-68359755D03*
X241444999Y-66879753D03*
X241945001Y-66879753D03*
X242445000Y-66879753D03*
%TD*%
D46*
%TO.C,U16*%
X172560000Y-60980000D03*
X173510000Y-60979999D03*
X174460000Y-60980000D03*
X174460000Y-64400000D03*
X173510000Y-64400001D03*
X172560000Y-64400000D03*
%TD*%
D19*
%TO.C,R9*%
X243405000Y-67090001D03*
X243405000Y-68109999D03*
%TD*%
D47*
%TO.C,U57*%
X197394107Y-61314999D03*
X197394107Y-62585001D03*
X190205893Y-62585001D03*
X190205893Y-61314999D03*
%TD*%
D22*
%TO.C,C67*%
X141980000Y-76000000D03*
X141980000Y-76960000D03*
%TD*%
D21*
%TO.C,R45*%
X141989999Y-73080000D03*
X140970001Y-73080000D03*
%TD*%
%TO.C,R11*%
X152995000Y-75690000D03*
X151975002Y-75690000D03*
%TD*%
D48*
%TO.C,U10*%
X151025074Y-79040000D03*
X151975037Y-79040000D03*
X152925000Y-79040000D03*
X152925000Y-81338196D03*
X151975037Y-81338196D03*
X151025074Y-81338196D03*
%TD*%
D39*
%TO.C,CN1*%
X233205000Y-61802500D03*
X234705000Y-61802500D03*
X236205000Y-61802500D03*
X237705000Y-61802500D03*
D40*
X239755000Y-63802500D03*
X231155000Y-63802500D03*
%TD*%
D16*
%TO.C,C16*%
X151973539Y-77781632D03*
X152933539Y-77781632D03*
%TD*%
D19*
%TO.C,R2*%
X202840000Y-88200001D03*
X202840000Y-89219999D03*
%TD*%
D25*
%TO.C,D4*%
X239415014Y-84335000D03*
X238714986Y-84335000D03*
%TD*%
D49*
%TO.C,Q2*%
X183937765Y-88343547D03*
X183937765Y-89343547D03*
X182637791Y-88843420D03*
%TD*%
D50*
%TO.C,U45*%
X160020064Y-62450000D03*
D51*
X158670051Y-60299886D03*
X158670051Y-64600114D03*
X153869949Y-60299886D03*
X153869949Y-64600114D03*
D52*
X159020064Y-61585128D03*
X157519936Y-61585128D03*
X157020064Y-61585128D03*
X156519936Y-61585128D03*
X156020064Y-61585128D03*
X155519936Y-61585128D03*
X155020064Y-61585128D03*
X153519936Y-61585128D03*
X153519936Y-63315126D03*
X155020064Y-63315126D03*
X155519936Y-63315126D03*
X156020064Y-63315126D03*
X156519936Y-63315126D03*
X157020064Y-63315126D03*
X157519936Y-63315126D03*
X159020064Y-63315126D03*
%TD*%
D14*
%TO.C,R12*%
X147590001Y-89370000D03*
X148609999Y-89370000D03*
%TD*%
D39*
%TO.C,CN3*%
X222675000Y-61802500D03*
X224175000Y-61802500D03*
X225675000Y-61802500D03*
X227175000Y-61802500D03*
D40*
X229225000Y-63802500D03*
X220625000Y-63802500D03*
%TD*%
D19*
%TO.C,R69*%
X203210000Y-60980001D03*
X203210000Y-61999999D03*
%TD*%
D41*
%TO.C,C19*%
X243370000Y-64875000D03*
X244920000Y-64875000D03*
%TD*%
D21*
%TO.C,R47*%
X145384999Y-78140000D03*
X144365001Y-78140000D03*
%TD*%
D30*
%TO.C,U2*%
X219970495Y-88880000D03*
X216669505Y-88880000D03*
%TD*%
D53*
%TO.C,U11*%
X239035000Y-69295000D03*
X239035000Y-67644759D03*
%TD*%
D14*
%TO.C,R35*%
X144900001Y-71430000D03*
X145919999Y-71430000D03*
%TD*%
%TO.C,R36*%
X238555001Y-82220000D03*
X239574999Y-82220000D03*
%TD*%
M02*
