%TF.GenerationSoftware,KiCad,Pcbnew,9.0.3*%
%TF.CreationDate,2026-04-10T15:40:57+08:00*%
%TF.ProjectId,audio_player_toy_v1,61756469-6f5f-4706-9c61-7965725f746f,rev?*%
%TF.SameCoordinates,Original*%
%TF.FileFunction,Copper,L2,Bot*%
%TF.FilePolarity,Positive*%
%FSLAX46Y46*%
G04 Gerber Fmt 4.6, Leading zero omitted, Abs format (unit mm)*
G04 Created by KiCad (PCBNEW 9.0.3) date 2026-04-10 15:40:57*
%MOMM*%
%LPD*%
G01*
G04 APERTURE LIST*
%TA.AperFunction,ComponentPad*%
%ADD10R,1.700000X1.700000*%
%TD*%
%TA.AperFunction,ComponentPad*%
%ADD11C,1.700000*%
%TD*%
%TA.AperFunction,ComponentPad*%
%ADD12C,2.324100*%
%TD*%
%TA.AperFunction,ComponentPad*%
%ADD13C,2.000000*%
%TD*%
%TA.AperFunction,ComponentPad*%
%ADD14C,1.500000*%
%TD*%
%TA.AperFunction,SMDPad,CuDef*%
%ADD15R,4.600000X6.650000*%
%TD*%
%TA.AperFunction,ViaPad*%
%ADD16C,0.600000*%
%TD*%
%TA.AperFunction,Conductor*%
%ADD17C,0.200000*%
%TD*%
G04 APERTURE END LIST*
D10*
%TO.P,J1,1,Pin_1*%
%TO.N,unconnected-(J1-Pin_1-Pad1)*%
X133500000Y-110390000D03*
D11*
%TO.P,J1,2,Pin_2*%
%TO.N,RDY{slash}BSYB*%
X136040000Y-110390000D03*
%TO.P,J1,3,Pin_3*%
%TO.N,INTB*%
X133500000Y-112930000D03*
%TO.P,J1,4,Pin_4*%
%TO.N,SSB*%
X136040000Y-112930000D03*
%TO.P,J1,5,Pin_5*%
%TO.N,MOSI*%
X133500000Y-115470000D03*
%TO.P,J1,6,Pin_6*%
%TO.N,MISO*%
X136040000Y-115470000D03*
%TO.P,J1,7,Pin_7*%
%TO.N,SCLK*%
X133500000Y-118010000D03*
%TO.P,J1,8,Pin_8*%
%TO.N,BAT+*%
X136040000Y-118010000D03*
%TO.P,J1,9,Pin_9*%
%TO.N,GND*%
X133500000Y-120550000D03*
%TO.P,J1,10,Pin_10*%
X136040000Y-120550000D03*
%TD*%
D12*
%TO.P,S1,1*%
%TO.N,GPIO5*%
X116190000Y-112540000D03*
%TO.P,S1,2*%
%TO.N,GND*%
X122540000Y-110000000D03*
%TD*%
D13*
%TO.P,LS2,1,1*%
%TO.N,SPK+*%
X115000000Y-151560000D03*
%TO.P,LS2,2,2*%
%TO.N,SPK-*%
X125000000Y-151560000D03*
%TD*%
D14*
%TO.P,U1,*%
%TO.N,*%
X104050000Y-155950000D03*
D15*
%TO.P,U1,1,-*%
%TO.N,GND*%
X109000000Y-104580000D03*
%TO.P,U1,2,+*%
%TO.N,Net-(U1-+-Pad2)*%
X120000000Y-104570001D03*
%TO.P,U1,3,-*%
X131000000Y-104580000D03*
%TO.P,U1,4,+*%
%TO.N,Net-(D1-A)*%
X131000000Y-160430000D03*
%TO.P,U1,5,-*%
%TO.N,Net-(U1-+-Pad6)*%
X120000000Y-160429999D03*
%TO.P,U1,6,+*%
X109000000Y-160430000D03*
%TD*%
D16*
%TO.N,GND*%
X104990000Y-158440001D03*
X104990000Y-160980000D03*
X102450000Y-160980000D03*
X102450000Y-158440000D03*
X120230000Y-155900000D03*
X107530000Y-155895000D03*
X112610000Y-153360000D03*
X110065000Y-153360000D03*
%TO.N,BAT+*%
X118650000Y-135800000D03*
X121350000Y-135800000D03*
%TO.N,GND*%
X107530000Y-125420000D03*
X125310000Y-160980000D03*
X110070000Y-150820000D03*
X138010000Y-127000000D03*
X107530000Y-115260000D03*
X107530000Y-145740000D03*
X127850000Y-127960000D03*
X112610000Y-102560000D03*
X135470000Y-127960000D03*
X107530000Y-148280000D03*
X107530000Y-135580000D03*
X107530000Y-143200000D03*
X112610000Y-148280000D03*
X104990000Y-133040000D03*
X102450000Y-122880000D03*
X102450000Y-115260000D03*
X112610000Y-143200000D03*
X115150000Y-130500000D03*
X104990000Y-125420000D03*
X107530000Y-140660000D03*
X102450000Y-135580000D03*
X107530000Y-138120000D03*
X115150000Y-155900000D03*
X104990000Y-102560000D03*
X117690000Y-125420000D03*
X121000000Y-131925000D03*
X125310000Y-153360000D03*
X115150000Y-110180000D03*
X135470000Y-135580000D03*
X138010000Y-125750000D03*
X115150000Y-115260000D03*
X125310000Y-122880000D03*
X115150000Y-135580000D03*
X102450000Y-150820000D03*
X125310000Y-133040000D03*
X125310000Y-112720000D03*
X110070000Y-145740000D03*
X132930000Y-122880000D03*
X104990000Y-143200000D03*
X117690000Y-110180000D03*
X112610000Y-110180000D03*
X110070000Y-122880000D03*
X112610000Y-150820000D03*
X127850000Y-125420000D03*
X110070000Y-155900000D03*
X130390000Y-138120000D03*
X110070000Y-130500000D03*
X112610000Y-135580000D03*
X120050000Y-138130000D03*
X102450000Y-153360000D03*
X127850000Y-133040000D03*
X122770000Y-122880000D03*
X135470000Y-130500000D03*
X115150000Y-107640000D03*
X132930000Y-130500000D03*
X104990000Y-120340000D03*
X102450000Y-148280000D03*
X117690000Y-138120000D03*
X125310000Y-163520000D03*
X104990000Y-107640000D03*
X107530000Y-150820000D03*
X120230000Y-150820000D03*
X115150000Y-133040000D03*
X110070000Y-140660000D03*
X130390000Y-133040000D03*
X138010000Y-105100000D03*
X115150000Y-143200000D03*
X102450000Y-107640000D03*
X110070000Y-120340000D03*
X112610000Y-138120000D03*
X104990000Y-153360000D03*
X138010000Y-160980000D03*
X102450000Y-120340000D03*
X132930000Y-133040000D03*
X122770000Y-115260000D03*
X107530000Y-120340000D03*
X127850000Y-112720000D03*
X122770000Y-150820000D03*
X120230000Y-148280000D03*
X122800000Y-118610000D03*
X115150000Y-117800000D03*
X125310000Y-158440000D03*
X110070000Y-138120000D03*
X110070000Y-110180000D03*
X104990000Y-117800000D03*
X112610000Y-115260000D03*
X107530000Y-130500000D03*
X125310000Y-138120000D03*
X112610000Y-140660000D03*
X112610000Y-107640000D03*
X112610000Y-133040000D03*
X135470000Y-105100000D03*
X112610000Y-127960000D03*
X115150000Y-140660000D03*
X135470000Y-102560000D03*
X107530000Y-153360000D03*
X132930000Y-135580000D03*
X102450000Y-102560000D03*
X115150000Y-145740000D03*
X102450000Y-143200000D03*
X138010000Y-115260000D03*
X138010000Y-158440000D03*
X107530000Y-110180000D03*
X110070000Y-127960000D03*
X138010000Y-112720000D03*
X127850000Y-122880000D03*
X121350000Y-134858528D03*
X115150000Y-153360000D03*
X104990000Y-130500000D03*
X120230000Y-110180000D03*
X112610000Y-130500000D03*
X138010000Y-145740000D03*
X102450000Y-125420000D03*
X117690000Y-135580000D03*
X102450000Y-145740000D03*
X102450000Y-127960000D03*
X122770000Y-112720000D03*
X112610000Y-120340000D03*
X138010000Y-150820000D03*
X117690000Y-117800000D03*
X125340000Y-118610000D03*
X135470000Y-107640000D03*
X102450000Y-112720000D03*
X104990000Y-148280000D03*
X107530000Y-127960000D03*
X135470000Y-122880000D03*
X138010000Y-122880000D03*
X119000000Y-131925000D03*
X112610000Y-122880000D03*
X125310000Y-148280000D03*
X107530000Y-133040000D03*
X102450000Y-155900000D03*
X122770000Y-140660000D03*
X125310000Y-145740000D03*
X135470000Y-125420000D03*
X102450000Y-133040000D03*
X120050000Y-140670000D03*
X104990000Y-112720000D03*
X135470000Y-133040000D03*
X127880000Y-119980000D03*
X138010000Y-153360000D03*
X122770000Y-127960000D03*
X120230000Y-153360000D03*
X102450000Y-110180000D03*
X121000000Y-129925000D03*
X104990000Y-150820000D03*
X120050000Y-143210000D03*
X122770000Y-143200000D03*
X102450000Y-140660000D03*
X122800000Y-119980000D03*
X127850000Y-140660000D03*
X122770000Y-145740000D03*
X138010000Y-148280000D03*
X117690000Y-145740000D03*
X110070000Y-135580000D03*
X115150000Y-102560000D03*
X104990000Y-105100000D03*
X132930000Y-127960000D03*
X102450000Y-105100000D03*
X104990000Y-127960000D03*
X115150000Y-138120000D03*
X104990000Y-145740000D03*
X127850000Y-110180000D03*
X115150000Y-105100000D03*
X115150000Y-127960000D03*
X138010000Y-102560000D03*
X104990000Y-140660000D03*
X127850000Y-138120000D03*
X110070000Y-143200000D03*
X138010000Y-110180000D03*
X112610000Y-145740000D03*
X125310000Y-127960000D03*
X112610000Y-155900000D03*
X104990000Y-163520000D03*
X138010000Y-107640000D03*
X119000000Y-129925000D03*
X107530000Y-117800000D03*
X104990000Y-115260000D03*
X107530000Y-122880000D03*
X110070000Y-117800000D03*
X115150000Y-125420000D03*
X138010000Y-155900000D03*
X112610000Y-105100000D03*
X112610000Y-125420000D03*
X104990000Y-138120000D03*
X102450000Y-130500000D03*
X130390000Y-135580000D03*
X117690000Y-140660000D03*
X125340000Y-119980000D03*
X125310000Y-143200000D03*
X125310000Y-125420000D03*
X110070000Y-115260000D03*
X138010000Y-120340000D03*
X117690000Y-150820000D03*
X122770000Y-148280000D03*
X125310000Y-155900000D03*
X115150000Y-122880000D03*
X107530000Y-112720000D03*
X125310000Y-115260000D03*
X130390000Y-140660000D03*
X104990000Y-110180000D03*
X110070000Y-125420000D03*
X127880000Y-118610000D03*
X120050000Y-145750000D03*
X102450000Y-117800000D03*
X102450000Y-138120000D03*
X110070000Y-133040000D03*
X117690000Y-143200000D03*
X104990000Y-135580000D03*
X130390000Y-110180000D03*
X115150000Y-148280000D03*
X110070000Y-148280000D03*
X125310000Y-140660000D03*
X127850000Y-115260000D03*
X125310000Y-110180000D03*
X132930000Y-125420000D03*
X104990000Y-122880000D03*
%TO.N,Net-(D1-A)*%
X135811605Y-144342804D03*
X133271605Y-146882804D03*
X135811605Y-146882804D03*
X133271605Y-144342804D03*
%TO.N,GPIO5*%
X119205570Y-117673601D03*
X120750000Y-127130000D03*
%TO.N,INTB*%
X130900000Y-112930000D03*
X130200000Y-130000000D03*
%TO.N,RDY{slash}BSYB*%
X131280057Y-111700000D03*
X129600000Y-129364512D03*
%TO.N,MOSI*%
X130890000Y-120270000D03*
X117140000Y-120730000D03*
X116410000Y-129720000D03*
%TO.N,MISO*%
X119868183Y-127497793D03*
X120150000Y-119540000D03*
%TO.N,SSB*%
X118650000Y-127528140D03*
X119361037Y-118526553D03*
%TO.N,SCLK*%
X120150000Y-118658999D03*
X119250000Y-126990000D03*
%TD*%
D17*
%TO.N,BAT+*%
X121350000Y-135800000D02*
X118650000Y-135800000D01*
%TO.N,GPIO5*%
X120075542Y-117673601D02*
X120750000Y-118348059D01*
X119205570Y-117673601D02*
X120075542Y-117673601D01*
X120750000Y-118348059D02*
X120750000Y-127130000D01*
%TO.N,INTB*%
X130200000Y-130000000D02*
X130200000Y-113630000D01*
X130200000Y-113630000D02*
X130900000Y-112930000D01*
%TO.N,RDY{slash}BSYB*%
X129600000Y-113380057D02*
X129600000Y-129364512D01*
X131280057Y-111700000D02*
X129600000Y-113380057D01*
%TO.N,MOSI*%
X131760000Y-115470000D02*
X133500000Y-115470000D01*
X130890000Y-116340000D02*
X131760000Y-115470000D01*
X117140000Y-120730000D02*
X116410000Y-121460000D01*
X130890000Y-120270000D02*
X130890000Y-116340000D01*
X116410000Y-121460000D02*
X116410000Y-129720000D01*
%TO.N,MISO*%
X120150000Y-119540000D02*
X119868183Y-119821817D01*
X119868183Y-119821817D02*
X119868183Y-127497793D01*
%TO.N,SSB*%
X119361037Y-118526553D02*
X118650000Y-119237590D01*
X118650000Y-119237590D02*
X118650000Y-127528140D01*
%TO.N,SCLK*%
X120141001Y-118658999D02*
X119250000Y-119550000D01*
X120150000Y-118658999D02*
X120141001Y-118658999D01*
X119250000Y-119550000D02*
X119250000Y-126990000D01*
%TD*%
%TA.AperFunction,Conductor*%
%TO.N,GND*%
G36*
X116899544Y-100519407D02*
G01*
X116935508Y-100568907D01*
X116935508Y-100630093D01*
X116915786Y-100664774D01*
X116892207Y-100691660D01*
X116892204Y-100691664D01*
X116832617Y-100769316D01*
X116795875Y-100824306D01*
X116779693Y-100852334D01*
X116779677Y-100852364D01*
X116750459Y-100911617D01*
X116750452Y-100911631D01*
X116712996Y-101002059D01*
X116691744Y-101064664D01*
X116691741Y-101064671D01*
X116683363Y-101095936D01*
X116670461Y-101160797D01*
X116670459Y-101160807D01*
X116656618Y-101265944D01*
X116653375Y-101298883D01*
X116652314Y-101315060D01*
X116651232Y-101348125D01*
X116651232Y-107811873D01*
X116652314Y-107844938D01*
X116653376Y-107861129D01*
X116656618Y-107894043D01*
X116670460Y-107999190D01*
X116670462Y-107999199D01*
X116683363Y-108064058D01*
X116691736Y-108095311D01*
X116691740Y-108095322D01*
X116712995Y-108157937D01*
X116750451Y-108248364D01*
X116779697Y-108307670D01*
X116779703Y-108307681D01*
X116779707Y-108307688D01*
X116795879Y-108335699D01*
X116795883Y-108335705D01*
X116832606Y-108390664D01*
X116832627Y-108390694D01*
X116892189Y-108468317D01*
X116892209Y-108468342D01*
X116935789Y-108518033D01*
X116935798Y-108518043D01*
X116958688Y-108540933D01*
X116958696Y-108540940D01*
X116958697Y-108540941D01*
X117008388Y-108584521D01*
X117008408Y-108584537D01*
X117086036Y-108644103D01*
X117086043Y-108644108D01*
X117086051Y-108644114D01*
X117086066Y-108644124D01*
X117141025Y-108680847D01*
X117141031Y-108680851D01*
X117166200Y-108695382D01*
X117169061Y-108697034D01*
X117228367Y-108726280D01*
X117318794Y-108763736D01*
X117381406Y-108784990D01*
X117412673Y-108793368D01*
X117477523Y-108806268D01*
X117582689Y-108820114D01*
X117615606Y-108823356D01*
X117631791Y-108824417D01*
X117664858Y-108825500D01*
X117664859Y-108825500D01*
X121144620Y-108825500D01*
X121202811Y-108844407D01*
X121238775Y-108893907D01*
X121238775Y-108955093D01*
X121224713Y-108982691D01*
X121118486Y-109128898D01*
X120999717Y-109361995D01*
X120918875Y-109610804D01*
X120877950Y-109869190D01*
X120877950Y-110130809D01*
X120918875Y-110389195D01*
X120999717Y-110638004D01*
X121065594Y-110767297D01*
X121765300Y-110067592D01*
X121765300Y-110076301D01*
X121795072Y-110225972D01*
X121853470Y-110366958D01*
X121938252Y-110493842D01*
X122046158Y-110601748D01*
X122173042Y-110686530D01*
X122314028Y-110744928D01*
X122463699Y-110774700D01*
X122472405Y-110774700D01*
X121772701Y-111474404D01*
X121901995Y-111540282D01*
X122150804Y-111621124D01*
X122409191Y-111662050D01*
X122670809Y-111662050D01*
X122929195Y-111621124D01*
X123177999Y-111540284D01*
X123307297Y-111474404D01*
X122607593Y-110774700D01*
X122616301Y-110774700D01*
X122765972Y-110744928D01*
X122906958Y-110686530D01*
X123033842Y-110601748D01*
X123141748Y-110493842D01*
X123226530Y-110366958D01*
X123284928Y-110225972D01*
X123314700Y-110076301D01*
X123314700Y-110067593D01*
X124014404Y-110767297D01*
X124080284Y-110637999D01*
X124161124Y-110389195D01*
X124202050Y-110130809D01*
X124202050Y-109869190D01*
X124161125Y-109610806D01*
X124140062Y-109545981D01*
X124140062Y-109545980D01*
X124131703Y-109520253D01*
X132449500Y-109520253D01*
X132449500Y-111259746D01*
X132449501Y-111259758D01*
X132461132Y-111318227D01*
X132461134Y-111318233D01*
X132498827Y-111374643D01*
X132505448Y-111384552D01*
X132571769Y-111428867D01*
X132616231Y-111437711D01*
X132630241Y-111440498D01*
X132630246Y-111440498D01*
X132630252Y-111440500D01*
X132630253Y-111440500D01*
X134369747Y-111440500D01*
X134369748Y-111440500D01*
X134428231Y-111428867D01*
X134494552Y-111384552D01*
X134538867Y-111318231D01*
X134550500Y-111259748D01*
X134550500Y-110286532D01*
X134989500Y-110286532D01*
X134989500Y-110493467D01*
X135029869Y-110696418D01*
X135109058Y-110887597D01*
X135109059Y-110887598D01*
X135224023Y-111059655D01*
X135370345Y-111205977D01*
X135542402Y-111320941D01*
X135733580Y-111400130D01*
X135936535Y-111440500D01*
X135936536Y-111440500D01*
X136143464Y-111440500D01*
X136143465Y-111440500D01*
X136346420Y-111400130D01*
X136537598Y-111320941D01*
X136709655Y-111205977D01*
X136855977Y-111059655D01*
X136970941Y-110887598D01*
X137050130Y-110696420D01*
X137090500Y-110493465D01*
X137090500Y-110286535D01*
X137050130Y-110083580D01*
X136970941Y-109892402D01*
X136855977Y-109720345D01*
X136709655Y-109574023D01*
X136667687Y-109545981D01*
X136537597Y-109459058D01*
X136346418Y-109379869D01*
X136143467Y-109339500D01*
X136143465Y-109339500D01*
X135936535Y-109339500D01*
X135936532Y-109339500D01*
X135733581Y-109379869D01*
X135542402Y-109459058D01*
X135370348Y-109574020D01*
X135224020Y-109720348D01*
X135109058Y-109892402D01*
X135029869Y-110083581D01*
X134989500Y-110286532D01*
X134550500Y-110286532D01*
X134550500Y-109520252D01*
X134538867Y-109461769D01*
X134494552Y-109395448D01*
X134494548Y-109395445D01*
X134428233Y-109351134D01*
X134428231Y-109351133D01*
X134428228Y-109351132D01*
X134428227Y-109351132D01*
X134369758Y-109339501D01*
X134369748Y-109339500D01*
X132630252Y-109339500D01*
X132630251Y-109339500D01*
X132630241Y-109339501D01*
X132571772Y-109351132D01*
X132571766Y-109351134D01*
X132505451Y-109395445D01*
X132505445Y-109395451D01*
X132461134Y-109461766D01*
X132461132Y-109461772D01*
X132449501Y-109520241D01*
X132449500Y-109520253D01*
X124131703Y-109520253D01*
X124080282Y-109361995D01*
X123961513Y-109128898D01*
X123855287Y-108982691D01*
X123836380Y-108924500D01*
X123855287Y-108866309D01*
X123904787Y-108830345D01*
X123935380Y-108825500D01*
X133363606Y-108825500D01*
X133363607Y-108825500D01*
X133396676Y-108824417D01*
X133412860Y-108823356D01*
X133445774Y-108820114D01*
X133550941Y-108806268D01*
X133615795Y-108793367D01*
X133647061Y-108784989D01*
X133709669Y-108763737D01*
X133800094Y-108726282D01*
X133859387Y-108697043D01*
X133887422Y-108680858D01*
X133942414Y-108644114D01*
X134020065Y-108584530D01*
X134069777Y-108540933D01*
X134092666Y-108518044D01*
X134136263Y-108468332D01*
X134195847Y-108390681D01*
X134232591Y-108335689D01*
X134248776Y-108307654D01*
X134278015Y-108248361D01*
X134315470Y-108157936D01*
X134336723Y-108095325D01*
X134345101Y-108064058D01*
X134358002Y-107999204D01*
X134371847Y-107894039D01*
X134375088Y-107861126D01*
X134376149Y-107844941D01*
X134377232Y-107811874D01*
X134377232Y-101348125D01*
X134376149Y-101315060D01*
X134375088Y-101298874D01*
X134371846Y-101265954D01*
X134358000Y-101160790D01*
X134345100Y-101095941D01*
X134336722Y-101064674D01*
X134315468Y-101002062D01*
X134278012Y-100911635D01*
X134248766Y-100852329D01*
X134232581Y-100824296D01*
X134195846Y-100769319D01*
X134195840Y-100769311D01*
X134195835Y-100769304D01*
X134136273Y-100691681D01*
X134136251Y-100691655D01*
X134112679Y-100664777D01*
X134088525Y-100608561D01*
X134102026Y-100548884D01*
X134148027Y-100508541D01*
X134187109Y-100500500D01*
X134934108Y-100500500D01*
X134997835Y-100500500D01*
X135002152Y-100500593D01*
X135387853Y-100517434D01*
X135396432Y-100518184D01*
X135777053Y-100568295D01*
X135785544Y-100569792D01*
X136160338Y-100652881D01*
X136168671Y-100655114D01*
X136284579Y-100691660D01*
X136534797Y-100770553D01*
X136542913Y-100773507D01*
X136897587Y-100920418D01*
X136905398Y-100924060D01*
X137175495Y-101064664D01*
X137245910Y-101101320D01*
X137253390Y-101105638D01*
X137577167Y-101311906D01*
X137584241Y-101316860D01*
X137888797Y-101550554D01*
X137895398Y-101556093D01*
X138178459Y-101815470D01*
X138184529Y-101821540D01*
X138443905Y-102104599D01*
X138449445Y-102111202D01*
X138683139Y-102415758D01*
X138688093Y-102422832D01*
X138894361Y-102746609D01*
X138898679Y-102754089D01*
X139075935Y-103094593D01*
X139079585Y-103102420D01*
X139226492Y-103457086D01*
X139229446Y-103465202D01*
X139344884Y-103831326D01*
X139347119Y-103839668D01*
X139430205Y-104214445D01*
X139431705Y-104222951D01*
X139481813Y-104603554D01*
X139482566Y-104612158D01*
X139499406Y-104997847D01*
X139499500Y-105002165D01*
X139499500Y-159997834D01*
X139499406Y-160002152D01*
X139482566Y-160387841D01*
X139481813Y-160396445D01*
X139431705Y-160777048D01*
X139430205Y-160785554D01*
X139347119Y-161160331D01*
X139344884Y-161168673D01*
X139229446Y-161534797D01*
X139226492Y-161542913D01*
X139079585Y-161897579D01*
X139075935Y-161905406D01*
X138898679Y-162245910D01*
X138894361Y-162253390D01*
X138688093Y-162577167D01*
X138683139Y-162584241D01*
X138449445Y-162888797D01*
X138443895Y-162895411D01*
X138184540Y-163178447D01*
X138178447Y-163184540D01*
X138162727Y-163198946D01*
X137895413Y-163443894D01*
X137888797Y-163449445D01*
X137584236Y-163683143D01*
X137577168Y-163688093D01*
X137473654Y-163754039D01*
X137472693Y-163754651D01*
X137413456Y-163769970D01*
X137356528Y-163747546D01*
X137323653Y-163695943D01*
X137320500Y-163671155D01*
X137320500Y-144137291D01*
X137319417Y-144104226D01*
X137319417Y-144104223D01*
X137318356Y-144088039D01*
X137315114Y-144055119D01*
X137301268Y-143949955D01*
X137288368Y-143885106D01*
X137279990Y-143853839D01*
X137258736Y-143791227D01*
X137221280Y-143700800D01*
X137192034Y-143641494D01*
X137175849Y-143613461D01*
X137139114Y-143558484D01*
X137139108Y-143558476D01*
X137139103Y-143558469D01*
X137079541Y-143480846D01*
X137079521Y-143480821D01*
X137035941Y-143431130D01*
X137035940Y-143431129D01*
X137035933Y-143431121D01*
X137013044Y-143408232D01*
X137013035Y-143408224D01*
X137013027Y-143408216D01*
X136963347Y-143364647D01*
X136885685Y-143305053D01*
X136830696Y-143268310D01*
X136802674Y-143252132D01*
X136802669Y-143252129D01*
X136802663Y-143252126D01*
X136743364Y-143222884D01*
X136652937Y-143185428D01*
X136621160Y-143174641D01*
X136590311Y-143164169D01*
X136559058Y-143155796D01*
X136494199Y-143142895D01*
X136494190Y-143142893D01*
X136389043Y-143129051D01*
X136356129Y-143125809D01*
X136339938Y-143124747D01*
X136308031Y-143123702D01*
X136306874Y-143123665D01*
X128658126Y-143123665D01*
X128657007Y-143123701D01*
X128625061Y-143124747D01*
X128608884Y-143125808D01*
X128575946Y-143129051D01*
X128470806Y-143142893D01*
X128470800Y-143142894D01*
X128405946Y-143155794D01*
X128374698Y-143164166D01*
X128312066Y-143185425D01*
X128312063Y-143185426D01*
X128221639Y-143222880D01*
X128221631Y-143222884D01*
X128194666Y-143236181D01*
X128162324Y-143252132D01*
X128162317Y-143252135D01*
X128162313Y-143252138D01*
X128134308Y-143268307D01*
X128134284Y-143268322D01*
X128079316Y-143305050D01*
X128001662Y-143364638D01*
X128001647Y-143364650D01*
X127951959Y-143408227D01*
X127929062Y-143431124D01*
X127885485Y-143480812D01*
X127885473Y-143480827D01*
X127825885Y-143558481D01*
X127789143Y-143613471D01*
X127772961Y-143641499D01*
X127772945Y-143641529D01*
X127743727Y-143700782D01*
X127743720Y-143700796D01*
X127706266Y-143791219D01*
X127685004Y-143853852D01*
X127676631Y-143885105D01*
X127663730Y-143949964D01*
X127663728Y-143949973D01*
X127649886Y-144055120D01*
X127646644Y-144088034D01*
X127645582Y-144104225D01*
X127644500Y-144137290D01*
X127644500Y-163711039D01*
X127645582Y-163744104D01*
X127646643Y-163760281D01*
X127649886Y-163793220D01*
X127663728Y-163898360D01*
X127663730Y-163898376D01*
X127676634Y-163963236D01*
X127685010Y-163994495D01*
X127706265Y-164057107D01*
X127743715Y-164147522D01*
X127772956Y-164206819D01*
X127784313Y-164226492D01*
X127789133Y-164234840D01*
X127789134Y-164234843D01*
X127789137Y-164234848D01*
X127789138Y-164234849D01*
X127825882Y-164289843D01*
X127864548Y-164340233D01*
X127884972Y-164397908D01*
X127867595Y-164456574D01*
X127819053Y-164493821D01*
X127786006Y-164499500D01*
X123200530Y-164499500D01*
X123142339Y-164480593D01*
X123106375Y-164431093D01*
X123106375Y-164369907D01*
X123126097Y-164335226D01*
X123132134Y-164328341D01*
X123132135Y-164328340D01*
X123132142Y-164328332D01*
X123191726Y-164250681D01*
X123228470Y-164195689D01*
X123244655Y-164167654D01*
X123273894Y-164108361D01*
X123311349Y-164017936D01*
X123332602Y-163955325D01*
X123340980Y-163924058D01*
X123353881Y-163859204D01*
X123367726Y-163754039D01*
X123370967Y-163721126D01*
X123372028Y-163704941D01*
X123373111Y-163671874D01*
X123373111Y-157208125D01*
X123372028Y-157175060D01*
X123370967Y-157158874D01*
X123367725Y-157125954D01*
X123353879Y-157020790D01*
X123340979Y-156955941D01*
X123332601Y-156924674D01*
X123311347Y-156862062D01*
X123273891Y-156771635D01*
X123244645Y-156712329D01*
X123228460Y-156684296D01*
X123191725Y-156629319D01*
X123191719Y-156629311D01*
X123191714Y-156629304D01*
X123132152Y-156551681D01*
X123132132Y-156551656D01*
X123088552Y-156501965D01*
X123088551Y-156501964D01*
X123088544Y-156501956D01*
X123065655Y-156479067D01*
X123065646Y-156479059D01*
X123065638Y-156479051D01*
X123015958Y-156435482D01*
X122938296Y-156375888D01*
X122883307Y-156339145D01*
X122855285Y-156322967D01*
X122855280Y-156322964D01*
X122855274Y-156322961D01*
X122795975Y-156293719D01*
X122705548Y-156256263D01*
X122673771Y-156245476D01*
X122642922Y-156235004D01*
X122611669Y-156226631D01*
X122546810Y-156213730D01*
X122546801Y-156213728D01*
X122441654Y-156199886D01*
X122408740Y-156196644D01*
X122392549Y-156195582D01*
X122360187Y-156194523D01*
X122359485Y-156194500D01*
X120320010Y-156194500D01*
X120320005Y-156194500D01*
X120300868Y-156194970D01*
X120298437Y-156195000D01*
X120161563Y-156195000D01*
X120159132Y-156194970D01*
X120139995Y-156194500D01*
X120139990Y-156194500D01*
X115231356Y-156194500D01*
X115231119Y-156194523D01*
X115221414Y-156195000D01*
X115078586Y-156195000D01*
X115068880Y-156194523D01*
X115068644Y-156194500D01*
X112700010Y-156194500D01*
X112700005Y-156194500D01*
X112680868Y-156194970D01*
X112678437Y-156195000D01*
X112541563Y-156195000D01*
X112539132Y-156194970D01*
X112519995Y-156194500D01*
X112519990Y-156194500D01*
X110151356Y-156194500D01*
X110151119Y-156194523D01*
X110141414Y-156195000D01*
X109998586Y-156195000D01*
X109988880Y-156194523D01*
X109988644Y-156194500D01*
X106630737Y-156194500D01*
X106630035Y-156194523D01*
X106597672Y-156195582D01*
X106581495Y-156196643D01*
X106548557Y-156199886D01*
X106443417Y-156213728D01*
X106443411Y-156213729D01*
X106378557Y-156226629D01*
X106347309Y-156235001D01*
X106284677Y-156256260D01*
X106284674Y-156256261D01*
X106194250Y-156293715D01*
X106194242Y-156293719D01*
X106167277Y-156307016D01*
X106134935Y-156322967D01*
X106134928Y-156322970D01*
X106134924Y-156322973D01*
X106106919Y-156339142D01*
X106106895Y-156339157D01*
X106051927Y-156375885D01*
X105974273Y-156435473D01*
X105974258Y-156435485D01*
X105924570Y-156479062D01*
X105901673Y-156501959D01*
X105858096Y-156551647D01*
X105858084Y-156551662D01*
X105798496Y-156629316D01*
X105761754Y-156684306D01*
X105745572Y-156712334D01*
X105745556Y-156712364D01*
X105716338Y-156771617D01*
X105716331Y-156771631D01*
X105678875Y-156862059D01*
X105657623Y-156924664D01*
X105657620Y-156924671D01*
X105649242Y-156955936D01*
X105636340Y-157020797D01*
X105636338Y-157020807D01*
X105622497Y-157125944D01*
X105619254Y-157158883D01*
X105618193Y-157175060D01*
X105617111Y-157208125D01*
X105617111Y-163671873D01*
X105618193Y-163704938D01*
X105619255Y-163721129D01*
X105622497Y-163754043D01*
X105636339Y-163859190D01*
X105636341Y-163859199D01*
X105649242Y-163924058D01*
X105657615Y-163955311D01*
X105668087Y-163986160D01*
X105678874Y-164017937D01*
X105716330Y-164108364D01*
X105745576Y-164167670D01*
X105745582Y-164167681D01*
X105745586Y-164167688D01*
X105761758Y-164195699D01*
X105761762Y-164195705D01*
X105798485Y-164250664D01*
X105798506Y-164250694D01*
X105858068Y-164328317D01*
X105858087Y-164328340D01*
X105864125Y-164335225D01*
X105888278Y-164391442D01*
X105874774Y-164451118D01*
X105828772Y-164491460D01*
X105789693Y-164499500D01*
X105002165Y-164499500D01*
X104997847Y-164499406D01*
X104612158Y-164482566D01*
X104603554Y-164481813D01*
X104222951Y-164431705D01*
X104214445Y-164430205D01*
X103839668Y-164347119D01*
X103831326Y-164344884D01*
X103465202Y-164229446D01*
X103457086Y-164226492D01*
X103102420Y-164079585D01*
X103094593Y-164075935D01*
X102754089Y-163898679D01*
X102746609Y-163894361D01*
X102422832Y-163688093D01*
X102415758Y-163683139D01*
X102111202Y-163449445D01*
X102104599Y-163443905D01*
X101821540Y-163184529D01*
X101815470Y-163178459D01*
X101556093Y-162895398D01*
X101550554Y-162888797D01*
X101316860Y-162584241D01*
X101311906Y-162577167D01*
X101105638Y-162253390D01*
X101101320Y-162245910D01*
X100924064Y-161905406D01*
X100920414Y-161897579D01*
X100773507Y-161542913D01*
X100770553Y-161534797D01*
X100655115Y-161168673D01*
X100652880Y-161160331D01*
X100569794Y-160785554D01*
X100568294Y-160777048D01*
X100555643Y-160680953D01*
X100518184Y-160396432D01*
X100517434Y-160387853D01*
X100500594Y-160002152D01*
X100500500Y-159997834D01*
X100500500Y-155851456D01*
X103049500Y-155851456D01*
X103049500Y-155851459D01*
X103049500Y-156048541D01*
X103086590Y-156235005D01*
X103087949Y-156241834D01*
X103087949Y-156241836D01*
X103163367Y-156423913D01*
X103163368Y-156423914D01*
X103272861Y-156587782D01*
X103412218Y-156727139D01*
X103576086Y-156836632D01*
X103758165Y-156912051D01*
X103951459Y-156950500D01*
X103951460Y-156950500D01*
X104148540Y-156950500D01*
X104148541Y-156950500D01*
X104341835Y-156912051D01*
X104523914Y-156836632D01*
X104687782Y-156727139D01*
X104827139Y-156587782D01*
X104936632Y-156423914D01*
X105012051Y-156241835D01*
X105050500Y-156048541D01*
X105050500Y-155851459D01*
X105012051Y-155658165D01*
X104936632Y-155476086D01*
X104827139Y-155312218D01*
X104687782Y-155172861D01*
X104523914Y-155063368D01*
X104523915Y-155063368D01*
X104523913Y-155063367D01*
X104341835Y-154987949D01*
X104148543Y-154949500D01*
X104148541Y-154949500D01*
X103951459Y-154949500D01*
X103951456Y-154949500D01*
X103758165Y-154987949D01*
X103758163Y-154987949D01*
X103576086Y-155063367D01*
X103412218Y-155172861D01*
X103412214Y-155172864D01*
X103272864Y-155312214D01*
X103272861Y-155312218D01*
X103163367Y-155476086D01*
X103087949Y-155658163D01*
X103087949Y-155658165D01*
X103049500Y-155851456D01*
X100500500Y-155851456D01*
X100500500Y-151465515D01*
X113799500Y-151465515D01*
X113799500Y-151654484D01*
X113829058Y-151841113D01*
X113829060Y-151841118D01*
X113887453Y-152020832D01*
X113973240Y-152189199D01*
X114084310Y-152342073D01*
X114217927Y-152475690D01*
X114370801Y-152586760D01*
X114539168Y-152672547D01*
X114718882Y-152730940D01*
X114718883Y-152730940D01*
X114718886Y-152730941D01*
X114905516Y-152760500D01*
X114905519Y-152760500D01*
X115094484Y-152760500D01*
X115281113Y-152730941D01*
X115281114Y-152730940D01*
X115281118Y-152730940D01*
X115460832Y-152672547D01*
X115629199Y-152586760D01*
X115782073Y-152475690D01*
X115915690Y-152342073D01*
X116026760Y-152189199D01*
X116112547Y-152020832D01*
X116170940Y-151841118D01*
X116200500Y-151654481D01*
X116200500Y-151465519D01*
X116200500Y-151465515D01*
X123799500Y-151465515D01*
X123799500Y-151654484D01*
X123829058Y-151841113D01*
X123829060Y-151841118D01*
X123887453Y-152020832D01*
X123973240Y-152189199D01*
X124084310Y-152342073D01*
X124217927Y-152475690D01*
X124370801Y-152586760D01*
X124539168Y-152672547D01*
X124718882Y-152730940D01*
X124718883Y-152730940D01*
X124718886Y-152730941D01*
X124905516Y-152760500D01*
X124905519Y-152760500D01*
X125094484Y-152760500D01*
X125281113Y-152730941D01*
X125281114Y-152730940D01*
X125281118Y-152730940D01*
X125460832Y-152672547D01*
X125629199Y-152586760D01*
X125782073Y-152475690D01*
X125915690Y-152342073D01*
X126026760Y-152189199D01*
X126112547Y-152020832D01*
X126170940Y-151841118D01*
X126200500Y-151654481D01*
X126200500Y-151465519D01*
X126200500Y-151465515D01*
X126170941Y-151278886D01*
X126170940Y-151278882D01*
X126112547Y-151099168D01*
X126026760Y-150930801D01*
X125915690Y-150777927D01*
X125782073Y-150644310D01*
X125629199Y-150533240D01*
X125629198Y-150533239D01*
X125629196Y-150533238D01*
X125460832Y-150447453D01*
X125281113Y-150389058D01*
X125094484Y-150359500D01*
X125094481Y-150359500D01*
X124905519Y-150359500D01*
X124905516Y-150359500D01*
X124718886Y-150389058D01*
X124539167Y-150447453D01*
X124370803Y-150533238D01*
X124217928Y-150644309D01*
X124084309Y-150777928D01*
X123973238Y-150930803D01*
X123887453Y-151099167D01*
X123829058Y-151278886D01*
X123799500Y-151465515D01*
X116200500Y-151465515D01*
X116170941Y-151278886D01*
X116170940Y-151278882D01*
X116112547Y-151099168D01*
X116026760Y-150930801D01*
X115915690Y-150777927D01*
X115782073Y-150644310D01*
X115629199Y-150533240D01*
X115629198Y-150533239D01*
X115629196Y-150533238D01*
X115460832Y-150447453D01*
X115281113Y-150389058D01*
X115094484Y-150359500D01*
X115094481Y-150359500D01*
X114905519Y-150359500D01*
X114905516Y-150359500D01*
X114718886Y-150389058D01*
X114539167Y-150447453D01*
X114370803Y-150533238D01*
X114217928Y-150644309D01*
X114084309Y-150777928D01*
X113973238Y-150930803D01*
X113887453Y-151099167D01*
X113829058Y-151278886D01*
X113799500Y-151465515D01*
X100500500Y-151465515D01*
X100500500Y-135734108D01*
X118149500Y-135734108D01*
X118149500Y-135865892D01*
X118179579Y-135978151D01*
X118183609Y-135993190D01*
X118249496Y-136107309D01*
X118249498Y-136107311D01*
X118249500Y-136107314D01*
X118342686Y-136200500D01*
X118342688Y-136200501D01*
X118342690Y-136200503D01*
X118456810Y-136266390D01*
X118456808Y-136266390D01*
X118456812Y-136266391D01*
X118456814Y-136266392D01*
X118584108Y-136300500D01*
X118584110Y-136300500D01*
X118715890Y-136300500D01*
X118715892Y-136300500D01*
X118843186Y-136266392D01*
X118843188Y-136266390D01*
X118843190Y-136266390D01*
X118957309Y-136200503D01*
X118957309Y-136200502D01*
X118957314Y-136200500D01*
X119028319Y-136129494D01*
X119082834Y-136101719D01*
X119098321Y-136100500D01*
X120901679Y-136100500D01*
X120959870Y-136119407D01*
X120971676Y-136129490D01*
X121042686Y-136200500D01*
X121042688Y-136200501D01*
X121042690Y-136200503D01*
X121156810Y-136266390D01*
X121156808Y-136266390D01*
X121156812Y-136266391D01*
X121156814Y-136266392D01*
X121284108Y-136300500D01*
X121284110Y-136300500D01*
X121415890Y-136300500D01*
X121415892Y-136300500D01*
X121543186Y-136266392D01*
X121543188Y-136266390D01*
X121543190Y-136266390D01*
X121657309Y-136200503D01*
X121657309Y-136200502D01*
X121657314Y-136200500D01*
X121750500Y-136107314D01*
X121816392Y-135993186D01*
X121850500Y-135865892D01*
X121850500Y-135734108D01*
X121816392Y-135606814D01*
X121816390Y-135606811D01*
X121816390Y-135606809D01*
X121750503Y-135492690D01*
X121750501Y-135492688D01*
X121750500Y-135492686D01*
X121657314Y-135399500D01*
X121657311Y-135399498D01*
X121657309Y-135399496D01*
X121543189Y-135333609D01*
X121543191Y-135333609D01*
X121493799Y-135320375D01*
X121415892Y-135299500D01*
X121284108Y-135299500D01*
X121206200Y-135320375D01*
X121156809Y-135333609D01*
X121042690Y-135399496D01*
X121042689Y-135399497D01*
X121042686Y-135399499D01*
X121042686Y-135399500D01*
X120971680Y-135470505D01*
X120917166Y-135498281D01*
X120901679Y-135499500D01*
X119098321Y-135499500D01*
X119040130Y-135480593D01*
X119028323Y-135470509D01*
X118957314Y-135399500D01*
X118957311Y-135399498D01*
X118957309Y-135399496D01*
X118843189Y-135333609D01*
X118843191Y-135333609D01*
X118793799Y-135320375D01*
X118715892Y-135299500D01*
X118584108Y-135299500D01*
X118506200Y-135320375D01*
X118456809Y-135333609D01*
X118342690Y-135399496D01*
X118249496Y-135492690D01*
X118183609Y-135606809D01*
X118183608Y-135606814D01*
X118149500Y-135734108D01*
X100500500Y-135734108D01*
X100500500Y-129654108D01*
X115909500Y-129654108D01*
X115909500Y-129785892D01*
X115921561Y-129830904D01*
X115943609Y-129913190D01*
X116009496Y-130027309D01*
X116009498Y-130027311D01*
X116009500Y-130027314D01*
X116102686Y-130120500D01*
X116102688Y-130120501D01*
X116102690Y-130120503D01*
X116216810Y-130186390D01*
X116216808Y-130186390D01*
X116216812Y-130186391D01*
X116216814Y-130186392D01*
X116344108Y-130220500D01*
X116344110Y-130220500D01*
X116475890Y-130220500D01*
X116475892Y-130220500D01*
X116603186Y-130186392D01*
X116603188Y-130186390D01*
X116603190Y-130186390D01*
X116717309Y-130120503D01*
X116717309Y-130120502D01*
X116717314Y-130120500D01*
X116810500Y-130027314D01*
X116864313Y-129934108D01*
X116876390Y-129913190D01*
X116876390Y-129913188D01*
X116876392Y-129913186D01*
X116910500Y-129785892D01*
X116910500Y-129654108D01*
X116876392Y-129526814D01*
X116876390Y-129526811D01*
X116876390Y-129526809D01*
X116810503Y-129412690D01*
X116810501Y-129412688D01*
X116810500Y-129412686D01*
X116739494Y-129341680D01*
X116717555Y-129298620D01*
X129099500Y-129298620D01*
X129099500Y-129430404D01*
X129125331Y-129526809D01*
X129133609Y-129557702D01*
X129199496Y-129671821D01*
X129199498Y-129671823D01*
X129199500Y-129671826D01*
X129292686Y-129765012D01*
X129292688Y-129765013D01*
X129292690Y-129765015D01*
X129406810Y-129830902D01*
X129406808Y-129830902D01*
X129406812Y-129830903D01*
X129406814Y-129830904D01*
X129534108Y-129865012D01*
X129534110Y-129865012D01*
X129600500Y-129865012D01*
X129658691Y-129883919D01*
X129694655Y-129933419D01*
X129699500Y-129964012D01*
X129699500Y-130065892D01*
X129714132Y-130120500D01*
X129733609Y-130193190D01*
X129799496Y-130307309D01*
X129799498Y-130307311D01*
X129799500Y-130307314D01*
X129892686Y-130400500D01*
X129892688Y-130400501D01*
X129892690Y-130400503D01*
X130006810Y-130466390D01*
X130006808Y-130466390D01*
X130006812Y-130466391D01*
X130006814Y-130466392D01*
X130134108Y-130500500D01*
X130134110Y-130500500D01*
X130265890Y-130500500D01*
X130265892Y-130500500D01*
X130393186Y-130466392D01*
X130393188Y-130466390D01*
X130393190Y-130466390D01*
X130507309Y-130400503D01*
X130507309Y-130400502D01*
X130507314Y-130400500D01*
X130600500Y-130307314D01*
X130666392Y-130193186D01*
X130700500Y-130065892D01*
X130700500Y-129934108D01*
X130666392Y-129806814D01*
X130666390Y-129806811D01*
X130666390Y-129806809D01*
X130600503Y-129692690D01*
X130600501Y-129692688D01*
X130600500Y-129692686D01*
X130529494Y-129621680D01*
X130501719Y-129567166D01*
X130500500Y-129551679D01*
X130500500Y-121792396D01*
X132964710Y-121792396D01*
X132981776Y-121801092D01*
X133183878Y-121866759D01*
X133393750Y-121900000D01*
X133606250Y-121900000D01*
X133816121Y-121866759D01*
X134018223Y-121801092D01*
X134035288Y-121792396D01*
X135504710Y-121792396D01*
X135521776Y-121801092D01*
X135723878Y-121866759D01*
X135933750Y-121900000D01*
X136146250Y-121900000D01*
X136356121Y-121866759D01*
X136558223Y-121801092D01*
X136575288Y-121792396D01*
X136039999Y-121257107D01*
X135504710Y-121792396D01*
X134035288Y-121792396D01*
X133499999Y-121257107D01*
X132964710Y-121792396D01*
X130500500Y-121792396D01*
X130500500Y-120794523D01*
X130519407Y-120736332D01*
X130568907Y-120700368D01*
X130630093Y-120700368D01*
X130649000Y-120708786D01*
X130696814Y-120736392D01*
X130824108Y-120770500D01*
X130824110Y-120770500D01*
X130955890Y-120770500D01*
X130955892Y-120770500D01*
X131083186Y-120736392D01*
X131083188Y-120736390D01*
X131083190Y-120736390D01*
X131197309Y-120670503D01*
X131197309Y-120670502D01*
X131197314Y-120670500D01*
X131290500Y-120577314D01*
X131356392Y-120463186D01*
X131361600Y-120443749D01*
X132150000Y-120443749D01*
X132150000Y-120656250D01*
X132183240Y-120866121D01*
X132248907Y-121068224D01*
X132248908Y-121068227D01*
X132257602Y-121085288D01*
X132792891Y-120549999D01*
X132727066Y-120484174D01*
X133000000Y-120484174D01*
X133000000Y-120615826D01*
X133034075Y-120742993D01*
X133099901Y-120857007D01*
X133192993Y-120950099D01*
X133307007Y-121015925D01*
X133434174Y-121050000D01*
X133565826Y-121050000D01*
X133692993Y-121015925D01*
X133807007Y-120950099D01*
X133900099Y-120857007D01*
X133965925Y-120742993D01*
X134000000Y-120615826D01*
X134000000Y-120549999D01*
X134207107Y-120549999D01*
X134742396Y-121085288D01*
X134754516Y-121083369D01*
X134785488Y-121083370D01*
X134797602Y-121085288D01*
X135332891Y-120549999D01*
X135267066Y-120484174D01*
X135540000Y-120484174D01*
X135540000Y-120615826D01*
X135574075Y-120742993D01*
X135639901Y-120857007D01*
X135732993Y-120950099D01*
X135847007Y-121015925D01*
X135974174Y-121050000D01*
X136105826Y-121050000D01*
X136232993Y-121015925D01*
X136347007Y-120950099D01*
X136440099Y-120857007D01*
X136505925Y-120742993D01*
X136540000Y-120615826D01*
X136540000Y-120549999D01*
X136747107Y-120549999D01*
X137282396Y-121085288D01*
X137291092Y-121068223D01*
X137356759Y-120866121D01*
X137390000Y-120656250D01*
X137390000Y-120443749D01*
X137356759Y-120233878D01*
X137291092Y-120031776D01*
X137282396Y-120014710D01*
X136747107Y-120549999D01*
X136540000Y-120549999D01*
X136540000Y-120484174D01*
X136505925Y-120357007D01*
X136440099Y-120242993D01*
X136347007Y-120149901D01*
X136232993Y-120084075D01*
X136105826Y-120050000D01*
X135974174Y-120050000D01*
X135847007Y-120084075D01*
X135732993Y-120149901D01*
X135639901Y-120242993D01*
X135574075Y-120357007D01*
X135540000Y-120484174D01*
X135267066Y-120484174D01*
X134797601Y-120014709D01*
X134785488Y-120016628D01*
X134754516Y-120016628D01*
X134742398Y-120014708D01*
X134207107Y-120549999D01*
X134000000Y-120549999D01*
X134000000Y-120484174D01*
X133965925Y-120357007D01*
X133900099Y-120242993D01*
X133807007Y-120149901D01*
X133692993Y-120084075D01*
X133565826Y-120050000D01*
X133434174Y-120050000D01*
X133307007Y-120084075D01*
X133192993Y-120149901D01*
X133099901Y-120242993D01*
X133034075Y-120357007D01*
X133000000Y-120484174D01*
X132727066Y-120484174D01*
X132257602Y-120014710D01*
X132248906Y-120031779D01*
X132183240Y-120233878D01*
X132150000Y-120443749D01*
X131361600Y-120443749D01*
X131390500Y-120335892D01*
X131390500Y-120204108D01*
X131356392Y-120076814D01*
X131356390Y-120076811D01*
X131356390Y-120076809D01*
X131290503Y-119962690D01*
X131290501Y-119962688D01*
X131290500Y-119962686D01*
X131219494Y-119891680D01*
X131191719Y-119837166D01*
X131190500Y-119821679D01*
X131190500Y-117906532D01*
X132449500Y-117906532D01*
X132449500Y-118113467D01*
X132489869Y-118316418D01*
X132569058Y-118507597D01*
X132643672Y-118619265D01*
X132684023Y-118679655D01*
X132830345Y-118825977D01*
X133002402Y-118940941D01*
X133193580Y-119020130D01*
X133242003Y-119029762D01*
X133295386Y-119059657D01*
X133321003Y-119115221D01*
X133309067Y-119175231D01*
X133264138Y-119216765D01*
X133238177Y-119224640D01*
X133183877Y-119233241D01*
X132981779Y-119298906D01*
X132964710Y-119307602D01*
X133499999Y-119842891D01*
X134035288Y-119307602D01*
X134018227Y-119298908D01*
X134018224Y-119298907D01*
X133816122Y-119233241D01*
X133761822Y-119224640D01*
X133707306Y-119196862D01*
X133679529Y-119142345D01*
X133689101Y-119081913D01*
X133732366Y-119038649D01*
X133757993Y-119029762D01*
X133806420Y-119020130D01*
X133997598Y-118940941D01*
X134169655Y-118825977D01*
X134315977Y-118679655D01*
X134430941Y-118507598D01*
X134510130Y-118316420D01*
X134550500Y-118113465D01*
X134550500Y-117906535D01*
X134550499Y-117906532D01*
X134989500Y-117906532D01*
X134989500Y-118113467D01*
X135029869Y-118316418D01*
X135109058Y-118507597D01*
X135183672Y-118619265D01*
X135224023Y-118679655D01*
X135370345Y-118825977D01*
X135542402Y-118940941D01*
X135733580Y-119020130D01*
X135782003Y-119029762D01*
X135835386Y-119059657D01*
X135861003Y-119115221D01*
X135849067Y-119175231D01*
X135804138Y-119216765D01*
X135778177Y-119224640D01*
X135723877Y-119233241D01*
X135521779Y-119298906D01*
X135504710Y-119307602D01*
X136039999Y-119842891D01*
X136575288Y-119307602D01*
X136558227Y-119298908D01*
X136558224Y-119298907D01*
X136356122Y-119233241D01*
X136301822Y-119224640D01*
X136247306Y-119196862D01*
X136219529Y-119142345D01*
X136229101Y-119081913D01*
X136272366Y-119038649D01*
X136297993Y-119029762D01*
X136346420Y-119020130D01*
X136537598Y-118940941D01*
X136709655Y-118825977D01*
X136855977Y-118679655D01*
X136970941Y-118507598D01*
X137050130Y-118316420D01*
X137090500Y-118113465D01*
X137090500Y-117906535D01*
X137050130Y-117703580D01*
X136970941Y-117512402D01*
X136855977Y-117340345D01*
X136709655Y-117194023D01*
X136709651Y-117194020D01*
X136537597Y-117079058D01*
X136346418Y-116999869D01*
X136143467Y-116959500D01*
X136143465Y-116959500D01*
X135936535Y-116959500D01*
X135936532Y-116959500D01*
X135733581Y-116999869D01*
X135542402Y-117079058D01*
X135370348Y-117194020D01*
X135224020Y-117340348D01*
X135109058Y-117512402D01*
X135029869Y-117703581D01*
X134989500Y-117906532D01*
X134550499Y-117906532D01*
X134510130Y-117703580D01*
X134430941Y-117512402D01*
X134315977Y-117340345D01*
X134169655Y-117194023D01*
X134169651Y-117194020D01*
X133997597Y-117079058D01*
X133806418Y-116999869D01*
X133603467Y-116959500D01*
X133603465Y-116959500D01*
X133396535Y-116959500D01*
X133396532Y-116959500D01*
X133193581Y-116999869D01*
X133002402Y-117079058D01*
X132830348Y-117194020D01*
X132684020Y-117340348D01*
X132569058Y-117512402D01*
X132489869Y-117703581D01*
X132449500Y-117906532D01*
X131190500Y-117906532D01*
X131190500Y-116505479D01*
X131209407Y-116447288D01*
X131219496Y-116435475D01*
X131855475Y-115799496D01*
X131909992Y-115771719D01*
X131925479Y-115770500D01*
X132421268Y-115770500D01*
X132479459Y-115789407D01*
X132512732Y-115831614D01*
X132569058Y-115967597D01*
X132681263Y-116135525D01*
X132684023Y-116139655D01*
X132830345Y-116285977D01*
X133002402Y-116400941D01*
X133193580Y-116480130D01*
X133396535Y-116520500D01*
X133396536Y-116520500D01*
X133603464Y-116520500D01*
X133603465Y-116520500D01*
X133806420Y-116480130D01*
X133997598Y-116400941D01*
X134169655Y-116285977D01*
X134315977Y-116139655D01*
X134430941Y-115967598D01*
X134510130Y-115776420D01*
X134550500Y-115573465D01*
X134550500Y-115366535D01*
X134550499Y-115366532D01*
X134989500Y-115366532D01*
X134989500Y-115573467D01*
X135029869Y-115776418D01*
X135109058Y-115967597D01*
X135221263Y-116135525D01*
X135224023Y-116139655D01*
X135370345Y-116285977D01*
X135542402Y-116400941D01*
X135733580Y-116480130D01*
X135936535Y-116520500D01*
X135936536Y-116520500D01*
X136143464Y-116520500D01*
X136143465Y-116520500D01*
X136346420Y-116480130D01*
X136537598Y-116400941D01*
X136709655Y-116285977D01*
X136855977Y-116139655D01*
X136970941Y-115967598D01*
X137050130Y-115776420D01*
X137090500Y-115573465D01*
X137090500Y-115366535D01*
X137050130Y-115163580D01*
X136970941Y-114972402D01*
X136855977Y-114800345D01*
X136709655Y-114654023D01*
X136675610Y-114631275D01*
X136537597Y-114539058D01*
X136346418Y-114459869D01*
X136143467Y-114419500D01*
X136143465Y-114419500D01*
X135936535Y-114419500D01*
X135936532Y-114419500D01*
X135733581Y-114459869D01*
X135542402Y-114539058D01*
X135370348Y-114654020D01*
X135224020Y-114800348D01*
X135109058Y-114972402D01*
X135029869Y-115163581D01*
X134989500Y-115366532D01*
X134550499Y-115366532D01*
X134510130Y-115163580D01*
X134430941Y-114972402D01*
X134315977Y-114800345D01*
X134169655Y-114654023D01*
X134135610Y-114631275D01*
X133997597Y-114539058D01*
X133806418Y-114459869D01*
X133603467Y-114419500D01*
X133603465Y-114419500D01*
X133396535Y-114419500D01*
X133396532Y-114419500D01*
X133193581Y-114459869D01*
X133002402Y-114539058D01*
X132830348Y-114654020D01*
X132684020Y-114800348D01*
X132569058Y-114972402D01*
X132512732Y-115108386D01*
X132472995Y-115154912D01*
X132421268Y-115169500D01*
X131720435Y-115169500D01*
X131644011Y-115189978D01*
X131644007Y-115189980D01*
X131575491Y-115229538D01*
X130669504Y-116135525D01*
X130614987Y-116163302D01*
X130554555Y-116153731D01*
X130511290Y-116110466D01*
X130500500Y-116065521D01*
X130500500Y-113795477D01*
X130519407Y-113737286D01*
X130529484Y-113725486D01*
X130795475Y-113459494D01*
X130849990Y-113431719D01*
X130865477Y-113430500D01*
X130965890Y-113430500D01*
X130965892Y-113430500D01*
X131093186Y-113396392D01*
X131093188Y-113396390D01*
X131093190Y-113396390D01*
X131207309Y-113330503D01*
X131207309Y-113330502D01*
X131207314Y-113330500D01*
X131300500Y-113237314D01*
X131366392Y-113123186D01*
X131400500Y-112995892D01*
X131400500Y-112864108D01*
X131390432Y-112826532D01*
X132449500Y-112826532D01*
X132449500Y-113033467D01*
X132489869Y-113236418D01*
X132569058Y-113427597D01*
X132684020Y-113599651D01*
X132684023Y-113599655D01*
X132830345Y-113745977D01*
X133002402Y-113860941D01*
X133193580Y-113940130D01*
X133396535Y-113980500D01*
X133396536Y-113980500D01*
X133603464Y-113980500D01*
X133603465Y-113980500D01*
X133806420Y-113940130D01*
X133997598Y-113860941D01*
X134169655Y-113745977D01*
X134315977Y-113599655D01*
X134430941Y-113427598D01*
X134510130Y-113236420D01*
X134550500Y-113033465D01*
X134550500Y-112826535D01*
X134550499Y-112826532D01*
X134989500Y-112826532D01*
X134989500Y-113033467D01*
X135029869Y-113236418D01*
X135109058Y-113427597D01*
X135224020Y-113599651D01*
X135224023Y-113599655D01*
X135370345Y-113745977D01*
X135542402Y-113860941D01*
X135733580Y-113940130D01*
X135936535Y-113980500D01*
X135936536Y-113980500D01*
X136143464Y-113980500D01*
X136143465Y-113980500D01*
X136346420Y-113940130D01*
X136537598Y-113860941D01*
X136709655Y-113745977D01*
X136855977Y-113599655D01*
X136970941Y-113427598D01*
X137050130Y-113236420D01*
X137090500Y-113033465D01*
X137090500Y-112826535D01*
X137050130Y-112623580D01*
X136970941Y-112432402D01*
X136855977Y-112260345D01*
X136709655Y-112114023D01*
X136689421Y-112100503D01*
X136537597Y-111999058D01*
X136346418Y-111919869D01*
X136143467Y-111879500D01*
X136143465Y-111879500D01*
X135936535Y-111879500D01*
X135936532Y-111879500D01*
X135733581Y-111919869D01*
X135542402Y-111999058D01*
X135370348Y-112114020D01*
X135224020Y-112260348D01*
X135109058Y-112432402D01*
X135029869Y-112623581D01*
X134989500Y-112826532D01*
X134550499Y-112826532D01*
X134510130Y-112623580D01*
X134430941Y-112432402D01*
X134315977Y-112260345D01*
X134169655Y-112114023D01*
X134149421Y-112100503D01*
X133997597Y-111999058D01*
X133806418Y-111919869D01*
X133603467Y-111879500D01*
X133603465Y-111879500D01*
X133396535Y-111879500D01*
X133396532Y-111879500D01*
X133193581Y-111919869D01*
X133002402Y-111999058D01*
X132830348Y-112114020D01*
X132684020Y-112260348D01*
X132569058Y-112432402D01*
X132489869Y-112623581D01*
X132449500Y-112826532D01*
X131390432Y-112826532D01*
X131366392Y-112736814D01*
X131366390Y-112736811D01*
X131366390Y-112736809D01*
X131300503Y-112622690D01*
X131300501Y-112622688D01*
X131300500Y-112622686D01*
X131207314Y-112529500D01*
X131207311Y-112529498D01*
X131207309Y-112529496D01*
X131108704Y-112472566D01*
X131089892Y-112451673D01*
X131069994Y-112431775D01*
X131069570Y-112429103D01*
X131067763Y-112427096D01*
X131064824Y-112399130D01*
X131060423Y-112371342D01*
X131061650Y-112368933D01*
X131061368Y-112366246D01*
X131088201Y-112316826D01*
X131175532Y-112229496D01*
X131230049Y-112201719D01*
X131245535Y-112200500D01*
X131345947Y-112200500D01*
X131345949Y-112200500D01*
X131473243Y-112166392D01*
X131473245Y-112166390D01*
X131473247Y-112166390D01*
X131587366Y-112100503D01*
X131587366Y-112100502D01*
X131587371Y-112100500D01*
X131680557Y-112007314D01*
X131746449Y-111893186D01*
X131780557Y-111765892D01*
X131780557Y-111634108D01*
X131746449Y-111506814D01*
X131746447Y-111506811D01*
X131746447Y-111506809D01*
X131680560Y-111392690D01*
X131680558Y-111392688D01*
X131680557Y-111392686D01*
X131587371Y-111299500D01*
X131587368Y-111299498D01*
X131587366Y-111299496D01*
X131473246Y-111233609D01*
X131473248Y-111233609D01*
X131423856Y-111220375D01*
X131345949Y-111199500D01*
X131214165Y-111199500D01*
X131136257Y-111220375D01*
X131086866Y-111233609D01*
X130972747Y-111299496D01*
X130879553Y-111392690D01*
X130813666Y-111506809D01*
X130779557Y-111634109D01*
X130779557Y-111734520D01*
X130760650Y-111792711D01*
X130750561Y-111804524D01*
X129415489Y-113139597D01*
X129415488Y-113139596D01*
X129359539Y-113195546D01*
X129319980Y-113264064D01*
X129319978Y-113264068D01*
X129299500Y-113340492D01*
X129299500Y-128916191D01*
X129280593Y-128974382D01*
X129270509Y-128986188D01*
X129199500Y-129057198D01*
X129199497Y-129057201D01*
X129199496Y-129057202D01*
X129133609Y-129171321D01*
X129133608Y-129171326D01*
X129099500Y-129298620D01*
X116717555Y-129298620D01*
X116711719Y-129287166D01*
X116710500Y-129271679D01*
X116710500Y-121625477D01*
X116729407Y-121567286D01*
X116739484Y-121555486D01*
X117035475Y-121259494D01*
X117089990Y-121231719D01*
X117105477Y-121230500D01*
X117205890Y-121230500D01*
X117205892Y-121230500D01*
X117333186Y-121196392D01*
X117333188Y-121196390D01*
X117333190Y-121196390D01*
X117447309Y-121130503D01*
X117447309Y-121130502D01*
X117447314Y-121130500D01*
X117540500Y-121037314D01*
X117606392Y-120923186D01*
X117640500Y-120795892D01*
X117640500Y-120664108D01*
X117606392Y-120536814D01*
X117606390Y-120536811D01*
X117606390Y-120536809D01*
X117540503Y-120422690D01*
X117540501Y-120422688D01*
X117540500Y-120422686D01*
X117447314Y-120329500D01*
X117447311Y-120329498D01*
X117447309Y-120329496D01*
X117333189Y-120263609D01*
X117333191Y-120263609D01*
X117283799Y-120250375D01*
X117205892Y-120229500D01*
X117074108Y-120229500D01*
X116996200Y-120250375D01*
X116946809Y-120263609D01*
X116832690Y-120329496D01*
X116739496Y-120422690D01*
X116673609Y-120536809D01*
X116639500Y-120664109D01*
X116639500Y-120764521D01*
X116620593Y-120822712D01*
X116610509Y-120834518D01*
X116225489Y-121219540D01*
X116225488Y-121219539D01*
X116169539Y-121275489D01*
X116129980Y-121344007D01*
X116129978Y-121344011D01*
X116109500Y-121420435D01*
X116109500Y-129271679D01*
X116090593Y-129329870D01*
X116080509Y-129341676D01*
X116009500Y-129412686D01*
X116009497Y-129412689D01*
X116009496Y-129412690D01*
X115943609Y-129526809D01*
X115932796Y-129567166D01*
X115909500Y-129654108D01*
X100500500Y-129654108D01*
X100500500Y-114929563D01*
X117704800Y-114929563D01*
X117704800Y-115230436D01*
X117744070Y-115528724D01*
X117744070Y-115528729D01*
X117821941Y-115819350D01*
X117937078Y-116097314D01*
X117937081Y-116097319D01*
X118054351Y-116300438D01*
X118087518Y-116357884D01*
X118236485Y-116552022D01*
X118270674Y-116596578D01*
X118483422Y-116809326D01*
X118722119Y-116992484D01*
X118904710Y-117097903D01*
X118945650Y-117143371D01*
X118952046Y-117204221D01*
X118921453Y-117257209D01*
X118904712Y-117269373D01*
X118898259Y-117273098D01*
X118805066Y-117366291D01*
X118739179Y-117480410D01*
X118739178Y-117480415D01*
X118705070Y-117607709D01*
X118705070Y-117739493D01*
X118735149Y-117851752D01*
X118739179Y-117866791D01*
X118805066Y-117980910D01*
X118805068Y-117980912D01*
X118805070Y-117980915D01*
X118898256Y-118074101D01*
X118922076Y-118087854D01*
X118963017Y-118133323D01*
X118969413Y-118194173D01*
X118958313Y-118223090D01*
X118894645Y-118333365D01*
X118860537Y-118460662D01*
X118860537Y-118561074D01*
X118841630Y-118619265D01*
X118831546Y-118631071D01*
X118465489Y-118997130D01*
X118465488Y-118997129D01*
X118409539Y-119053079D01*
X118369980Y-119121597D01*
X118369978Y-119121601D01*
X118349500Y-119198025D01*
X118349500Y-127079819D01*
X118330593Y-127138010D01*
X118320509Y-127149816D01*
X118274436Y-127195890D01*
X118249497Y-127220829D01*
X118249496Y-127220830D01*
X118183609Y-127334949D01*
X118183608Y-127334954D01*
X118149500Y-127462248D01*
X118149500Y-127594032D01*
X118175477Y-127690979D01*
X118183609Y-127721330D01*
X118249496Y-127835449D01*
X118249498Y-127835451D01*
X118249500Y-127835454D01*
X118342686Y-127928640D01*
X118342688Y-127928641D01*
X118342690Y-127928643D01*
X118456810Y-127994530D01*
X118456808Y-127994530D01*
X118456812Y-127994531D01*
X118456814Y-127994532D01*
X118584108Y-128028640D01*
X118584110Y-128028640D01*
X118715890Y-128028640D01*
X118715892Y-128028640D01*
X118843186Y-127994532D01*
X118843188Y-127994530D01*
X118843190Y-127994530D01*
X118957309Y-127928643D01*
X118957309Y-127928642D01*
X118957314Y-127928640D01*
X119050500Y-127835454D01*
X119116392Y-127721326D01*
X119150500Y-127594032D01*
X119150500Y-127589500D01*
X119155345Y-127574588D01*
X119155345Y-127558907D01*
X119164561Y-127546221D01*
X119169407Y-127531309D01*
X119182092Y-127522092D01*
X119191309Y-127509407D01*
X119206221Y-127504561D01*
X119218907Y-127495345D01*
X119249500Y-127490500D01*
X119272108Y-127490500D01*
X119330299Y-127509407D01*
X119366263Y-127558907D01*
X119367729Y-127563857D01*
X119376447Y-127596392D01*
X119401792Y-127690983D01*
X119467679Y-127805102D01*
X119467681Y-127805104D01*
X119467683Y-127805107D01*
X119560869Y-127898293D01*
X119560871Y-127898294D01*
X119560873Y-127898296D01*
X119674993Y-127964183D01*
X119674991Y-127964183D01*
X119674995Y-127964184D01*
X119674997Y-127964185D01*
X119802291Y-127998293D01*
X119802293Y-127998293D01*
X119934073Y-127998293D01*
X119934075Y-127998293D01*
X120061369Y-127964185D01*
X120061371Y-127964183D01*
X120061373Y-127964183D01*
X120175492Y-127898296D01*
X120175492Y-127898295D01*
X120175497Y-127898293D01*
X120268683Y-127805107D01*
X120334575Y-127690979D01*
X120352906Y-127622564D01*
X120386229Y-127571253D01*
X120443350Y-127549326D01*
X120498030Y-127562453D01*
X120556814Y-127596392D01*
X120684108Y-127630500D01*
X120684110Y-127630500D01*
X120815890Y-127630500D01*
X120815892Y-127630500D01*
X120943186Y-127596392D01*
X120943188Y-127596390D01*
X120943190Y-127596390D01*
X121057309Y-127530503D01*
X121057309Y-127530502D01*
X121057314Y-127530500D01*
X121150500Y-127437314D01*
X121216392Y-127323186D01*
X121250500Y-127195892D01*
X121250500Y-127064108D01*
X121216392Y-126936814D01*
X121216390Y-126936811D01*
X121216390Y-126936809D01*
X121150503Y-126822690D01*
X121150501Y-126822688D01*
X121150500Y-126822686D01*
X121079494Y-126751680D01*
X121051719Y-126697166D01*
X121050500Y-126681679D01*
X121050500Y-118308498D01*
X121050500Y-118308497D01*
X121037103Y-118258499D01*
X121037103Y-118258498D01*
X121037103Y-118258497D01*
X121030024Y-118232076D01*
X121030023Y-118232074D01*
X121030022Y-118232073D01*
X121030022Y-118232071D01*
X120990460Y-118163548D01*
X120338051Y-117511139D01*
X120310276Y-117456625D01*
X120319847Y-117396193D01*
X120363112Y-117352928D01*
X120395134Y-117342985D01*
X120448732Y-117335929D01*
X120739351Y-117258058D01*
X121017319Y-117142919D01*
X121277881Y-116992484D01*
X121516578Y-116809326D01*
X121729326Y-116596578D01*
X121912484Y-116357881D01*
X122062919Y-116097319D01*
X122178058Y-115819351D01*
X122255929Y-115528732D01*
X122295200Y-115230435D01*
X122295200Y-114929565D01*
X122255929Y-114631268D01*
X122178058Y-114340649D01*
X122062919Y-114062681D01*
X121912484Y-113802119D01*
X121729326Y-113563422D01*
X121516578Y-113350674D01*
X121472022Y-113316485D01*
X121277884Y-113167518D01*
X121229523Y-113139597D01*
X121094729Y-113061773D01*
X121017314Y-113017078D01*
X120739350Y-112901941D01*
X120535495Y-112847319D01*
X120448732Y-112824071D01*
X120448729Y-112824070D01*
X120448727Y-112824070D01*
X120150436Y-112784800D01*
X120150435Y-112784800D01*
X119849565Y-112784800D01*
X119849563Y-112784800D01*
X119551275Y-112824070D01*
X119551270Y-112824070D01*
X119260649Y-112901941D01*
X118982685Y-113017078D01*
X118722115Y-113167518D01*
X118483425Y-113350671D01*
X118270671Y-113563425D01*
X118087518Y-113802115D01*
X117937078Y-114062685D01*
X117821941Y-114340649D01*
X117744070Y-114631270D01*
X117744070Y-114631275D01*
X117704800Y-114929563D01*
X100500500Y-114929563D01*
X100500500Y-112432761D01*
X114827450Y-112432761D01*
X114827450Y-112647238D01*
X114860999Y-112859059D01*
X114927276Y-113063038D01*
X115016073Y-113237314D01*
X115024643Y-113254132D01*
X115150705Y-113427642D01*
X115302358Y-113579295D01*
X115475868Y-113705357D01*
X115666962Y-113802724D01*
X115870936Y-113868999D01*
X115870937Y-113868999D01*
X115870940Y-113869000D01*
X116082762Y-113902550D01*
X116082765Y-113902550D01*
X116297238Y-113902550D01*
X116509059Y-113869000D01*
X116509060Y-113868999D01*
X116509064Y-113868999D01*
X116713038Y-113802724D01*
X116904132Y-113705357D01*
X117077642Y-113579295D01*
X117229295Y-113427642D01*
X117355357Y-113254132D01*
X117452724Y-113063038D01*
X117518999Y-112859064D01*
X117524152Y-112826532D01*
X117552550Y-112647238D01*
X117552550Y-112432761D01*
X117519000Y-112220940D01*
X117511697Y-112198463D01*
X117452724Y-112016962D01*
X117355357Y-111825868D01*
X117229295Y-111652358D01*
X117077642Y-111500705D01*
X116904132Y-111374643D01*
X116904131Y-111374642D01*
X116904129Y-111374641D01*
X116713038Y-111277276D01*
X116509059Y-111210999D01*
X116297238Y-111177450D01*
X116297235Y-111177450D01*
X116082765Y-111177450D01*
X116082762Y-111177450D01*
X115870940Y-111210999D01*
X115666961Y-111277276D01*
X115475870Y-111374641D01*
X115302359Y-111500704D01*
X115150704Y-111652359D01*
X115024641Y-111825870D01*
X114927276Y-112016961D01*
X114860999Y-112220940D01*
X114827450Y-112432761D01*
X100500500Y-112432761D01*
X100500500Y-107952824D01*
X106199999Y-107952824D01*
X106206401Y-108012370D01*
X106206403Y-108012381D01*
X106256646Y-108147088D01*
X106256647Y-108147090D01*
X106342807Y-108262184D01*
X106342815Y-108262192D01*
X106457909Y-108348352D01*
X106457911Y-108348353D01*
X106592618Y-108398596D01*
X106592629Y-108398598D01*
X106652176Y-108405000D01*
X108499999Y-108405000D01*
X108500000Y-108404999D01*
X108500000Y-105080001D01*
X109500000Y-105080001D01*
X109500000Y-108404999D01*
X109500001Y-108405000D01*
X111347824Y-108405000D01*
X111407370Y-108398598D01*
X111407381Y-108398596D01*
X111542088Y-108348353D01*
X111542090Y-108348352D01*
X111657184Y-108262192D01*
X111657192Y-108262184D01*
X111743352Y-108147090D01*
X111743353Y-108147088D01*
X111793596Y-108012381D01*
X111793598Y-108012370D01*
X111800000Y-107952824D01*
X111800000Y-105080001D01*
X111799999Y-105080000D01*
X109500001Y-105080000D01*
X109500000Y-105080001D01*
X108500000Y-105080001D01*
X108499999Y-105080000D01*
X106200001Y-105080000D01*
X106200000Y-105080001D01*
X106200000Y-107952824D01*
X106199999Y-107952824D01*
X100500500Y-107952824D01*
X100500500Y-105002165D01*
X100500594Y-104997847D01*
X100510433Y-104772498D01*
X100517434Y-104612144D01*
X100518184Y-104603568D01*
X100568295Y-104222942D01*
X100569791Y-104214459D01*
X100652883Y-103839655D01*
X100655115Y-103831326D01*
X100770553Y-103465202D01*
X100773507Y-103457086D01*
X100785072Y-103429166D01*
X100920421Y-103102403D01*
X100924056Y-103094609D01*
X101101325Y-102754079D01*
X101105632Y-102746618D01*
X101311913Y-102422820D01*
X101316851Y-102415769D01*
X101550564Y-102111189D01*
X101556083Y-102104612D01*
X101815481Y-101821528D01*
X101821528Y-101815481D01*
X102104612Y-101556083D01*
X102111189Y-101550564D01*
X102415769Y-101316851D01*
X102422820Y-101311913D01*
X102587227Y-101207175D01*
X106200000Y-101207175D01*
X106200000Y-104079999D01*
X106200001Y-104080000D01*
X108499999Y-104080000D01*
X108500000Y-104079999D01*
X108500000Y-100755001D01*
X109500000Y-100755001D01*
X109500000Y-104079999D01*
X109500001Y-104080000D01*
X111799999Y-104080000D01*
X111800000Y-104079999D01*
X111800000Y-101207175D01*
X111793598Y-101147629D01*
X111793596Y-101147618D01*
X111743353Y-101012911D01*
X111743352Y-101012909D01*
X111657192Y-100897815D01*
X111657184Y-100897807D01*
X111542090Y-100811647D01*
X111542088Y-100811646D01*
X111407381Y-100761403D01*
X111407370Y-100761401D01*
X111347824Y-100755000D01*
X109500001Y-100755000D01*
X109500000Y-100755001D01*
X108500000Y-100755001D01*
X108499999Y-100755000D01*
X106652176Y-100755000D01*
X106592629Y-100761401D01*
X106592618Y-100761403D01*
X106457911Y-100811646D01*
X106457909Y-100811647D01*
X106342815Y-100897807D01*
X106342807Y-100897815D01*
X106256647Y-101012909D01*
X106256646Y-101012911D01*
X106206403Y-101147618D01*
X106206401Y-101147629D01*
X106200000Y-101207175D01*
X102587227Y-101207175D01*
X102746610Y-101105638D01*
X102754079Y-101101325D01*
X103094609Y-100924056D01*
X103102403Y-100920421D01*
X103457093Y-100773504D01*
X103465194Y-100770555D01*
X103831334Y-100655112D01*
X103839655Y-100652883D01*
X104214459Y-100569791D01*
X104222942Y-100568295D01*
X104603568Y-100518184D01*
X104612144Y-100517434D01*
X104997847Y-100500593D01*
X105002165Y-100500500D01*
X105065892Y-100500500D01*
X116841353Y-100500500D01*
X116899544Y-100519407D01*
G37*
%TD.AperFunction*%
%TD*%
%TA.AperFunction,Conductor*%
%TO.N,Net-(U1-+-Pad6)*%
G36*
X109991158Y-156700500D02*
G01*
X110148842Y-156700500D01*
X110151356Y-156700000D01*
X112519990Y-156700000D01*
X112530168Y-156700500D01*
X112531158Y-156700500D01*
X112689832Y-156700500D01*
X112700010Y-156700000D01*
X115068644Y-156700000D01*
X115071158Y-156700500D01*
X115228842Y-156700500D01*
X115231356Y-156700000D01*
X120139990Y-156700000D01*
X120150168Y-156700500D01*
X120151158Y-156700500D01*
X120309832Y-156700500D01*
X120320010Y-156700000D01*
X122359485Y-156700000D01*
X122375670Y-156701061D01*
X122480834Y-156714906D01*
X122512102Y-156723284D01*
X122602529Y-156760740D01*
X122630563Y-156776925D01*
X122708213Y-156836509D01*
X122731102Y-156859398D01*
X122790685Y-156937048D01*
X122806870Y-156965081D01*
X122844326Y-157055508D01*
X122852704Y-157086775D01*
X122866550Y-157191939D01*
X122867611Y-157208125D01*
X122867611Y-163671874D01*
X122866550Y-163688059D01*
X122852705Y-163793224D01*
X122844327Y-163824491D01*
X122806872Y-163914916D01*
X122790687Y-163942951D01*
X122731103Y-164020602D01*
X122708214Y-164043491D01*
X122630563Y-164103075D01*
X122602530Y-164119259D01*
X122602528Y-164119260D01*
X122512103Y-164156715D01*
X122480837Y-164165093D01*
X122391587Y-164176843D01*
X122375670Y-164178939D01*
X122359486Y-164180000D01*
X106630737Y-164180000D01*
X106614552Y-164178939D01*
X106601528Y-164177224D01*
X106509386Y-164165093D01*
X106478119Y-164156715D01*
X106387692Y-164119259D01*
X106359659Y-164103074D01*
X106282009Y-164043491D01*
X106259119Y-164020601D01*
X106199536Y-163942951D01*
X106183351Y-163914918D01*
X106145895Y-163824491D01*
X106137517Y-163793223D01*
X106123672Y-163688059D01*
X106122611Y-163671874D01*
X106122611Y-157208125D01*
X106123672Y-157191940D01*
X106137517Y-157086776D01*
X106137517Y-157086775D01*
X106145895Y-157055508D01*
X106183351Y-156965081D01*
X106199534Y-156937050D01*
X106259124Y-156859392D01*
X106282003Y-156836513D01*
X106359661Y-156776923D01*
X106387690Y-156760740D01*
X106478120Y-156723283D01*
X106509386Y-156714906D01*
X106614552Y-156701061D01*
X106630737Y-156700000D01*
X109988644Y-156700000D01*
X109991158Y-156700500D01*
G37*
%TD.AperFunction*%
%TD*%
%TA.AperFunction,Conductor*%
%TO.N,Net-(D1-A)*%
G36*
X136323059Y-143630226D02*
G01*
X136428223Y-143644071D01*
X136459491Y-143652449D01*
X136549918Y-143689905D01*
X136577952Y-143706090D01*
X136655602Y-143765674D01*
X136678491Y-143788563D01*
X136738074Y-143866213D01*
X136754259Y-143894246D01*
X136791715Y-143984673D01*
X136800093Y-144015940D01*
X136813939Y-144121104D01*
X136815000Y-144137290D01*
X136815000Y-163711039D01*
X136813939Y-163727225D01*
X136800093Y-163832389D01*
X136791715Y-163863656D01*
X136754259Y-163954083D01*
X136738074Y-163982116D01*
X136678491Y-164059766D01*
X136655601Y-164082656D01*
X136577951Y-164142239D01*
X136549918Y-164158424D01*
X136459491Y-164195880D01*
X136428224Y-164204258D01*
X136334398Y-164216611D01*
X136323058Y-164218104D01*
X136306874Y-164219165D01*
X132482500Y-164219165D01*
X128658123Y-164219165D01*
X128641940Y-164218104D01*
X128614469Y-164214487D01*
X128536775Y-164204259D01*
X128505508Y-164195881D01*
X128415083Y-164158426D01*
X128387050Y-164142242D01*
X128309392Y-164082652D01*
X128286513Y-164059773D01*
X128226921Y-163982112D01*
X128210739Y-163954082D01*
X128173284Y-163863657D01*
X128173284Y-163863656D01*
X128164906Y-163832390D01*
X128151061Y-163727225D01*
X128150000Y-163711040D01*
X128150000Y-144137290D01*
X128151061Y-144121105D01*
X128164906Y-144015941D01*
X128173284Y-143984673D01*
X128210740Y-143894246D01*
X128226923Y-143866215D01*
X128286513Y-143788557D01*
X128309392Y-143765678D01*
X128387050Y-143706088D01*
X128415079Y-143689905D01*
X128505509Y-143652448D01*
X128536775Y-143644071D01*
X128641941Y-143630226D01*
X128658126Y-143629165D01*
X136306874Y-143629165D01*
X136323059Y-143630226D01*
G37*
%TD.AperFunction*%
%TD*%
%TA.AperFunction,Conductor*%
%TO.N,Net-(U1-+-Pad2)*%
G36*
X133379791Y-100841061D02*
G01*
X133484955Y-100854906D01*
X133516223Y-100863284D01*
X133606650Y-100900740D01*
X133634684Y-100916925D01*
X133712334Y-100976509D01*
X133735223Y-100999398D01*
X133794806Y-101077048D01*
X133810991Y-101105081D01*
X133848447Y-101195508D01*
X133856825Y-101226775D01*
X133870671Y-101331939D01*
X133871732Y-101348125D01*
X133871732Y-107811874D01*
X133870671Y-107828059D01*
X133856826Y-107933224D01*
X133848448Y-107964491D01*
X133810993Y-108054916D01*
X133794808Y-108082951D01*
X133735224Y-108160602D01*
X133712335Y-108183491D01*
X133634684Y-108243075D01*
X133606651Y-108259259D01*
X133606649Y-108259260D01*
X133516224Y-108296715D01*
X133484958Y-108305093D01*
X133395708Y-108316843D01*
X133379791Y-108318939D01*
X133363607Y-108320000D01*
X117664858Y-108320000D01*
X117648673Y-108318939D01*
X117635649Y-108317224D01*
X117543507Y-108305093D01*
X117512240Y-108296715D01*
X117421813Y-108259259D01*
X117393780Y-108243074D01*
X117316130Y-108183491D01*
X117293240Y-108160601D01*
X117233657Y-108082951D01*
X117217472Y-108054918D01*
X117180016Y-107964491D01*
X117171638Y-107933223D01*
X117157793Y-107828059D01*
X117156732Y-107811874D01*
X117156732Y-101348125D01*
X117157793Y-101331940D01*
X117171638Y-101226776D01*
X117171638Y-101226775D01*
X117180016Y-101195508D01*
X117217472Y-101105081D01*
X117233655Y-101077050D01*
X117293245Y-100999392D01*
X117316124Y-100976513D01*
X117393782Y-100916923D01*
X117421811Y-100900740D01*
X117512241Y-100863283D01*
X117543507Y-100854906D01*
X117648673Y-100841061D01*
X117664858Y-100840000D01*
X133363606Y-100840000D01*
X133379791Y-100841061D01*
G37*
%TD.AperFunction*%
%TD*%
M02*
