M48
; DRILL file {KiCad 9.0.3} date 2026-04-09T17:51:29+0800
; FORMAT={-:-/ absolute / metric / decimal}
; #@! TF.CreationDate,2026-04-09T17:51:29+08:00
; #@! TF.GenerationSoftware,Kicad,Pcbnew,9.0.3
; #@! TF.FileFunction,MixedPlating,1,2
FMAT,2
METRIC
; #@! TA.AperFunction,Plated,PTH,ViaDrill
T1C0.300
; #@! TA.AperFunction,Plated,PTH,ComponentDrill
T2C1.000
; #@! TA.AperFunction,Plated,PTH,ComponentDrill
T3C1.500
; #@! TA.AperFunction,Plated,PTH,ComponentDrill
T4C1.549
; #@! TA.AperFunction,NonPlated,NPTH,ComponentDrill
T5C4.089
%
G90
G05
T1
X102.45Y-102.56
X102.45Y-105.1
X102.45Y-107.64
X102.45Y-110.18
X102.45Y-112.72
X102.45Y-115.26
X102.45Y-117.8
X102.45Y-120.34
X102.45Y-122.88
X102.45Y-125.42
X102.45Y-127.96
X102.45Y-130.5
X102.45Y-133.04
X102.45Y-135.58
X102.45Y-138.12
X102.45Y-140.66
X102.45Y-143.2
X102.45Y-145.74
X102.45Y-148.28
X102.45Y-150.82
X102.45Y-153.36
X102.45Y-155.9
X104.99Y-102.56
X104.99Y-105.1
X104.99Y-107.64
X104.99Y-110.18
X104.99Y-112.72
X104.99Y-115.26
X104.99Y-117.8
X104.99Y-120.34
X104.99Y-122.88
X104.99Y-125.42
X104.99Y-127.96
X104.99Y-130.5
X104.99Y-133.04
X104.99Y-135.58
X104.99Y-138.12
X104.99Y-140.66
X104.99Y-143.2
X104.99Y-145.74
X104.99Y-148.28
X104.99Y-150.82
X104.99Y-153.36
X104.99Y-163.52
X107.53Y-110.18
X107.53Y-112.72
X107.53Y-115.26
X107.53Y-117.8
X107.53Y-120.34
X107.53Y-122.88
X107.53Y-125.42
X107.53Y-127.96
X107.53Y-130.5
X107.53Y-133.04
X107.53Y-135.58
X107.53Y-138.12
X107.53Y-140.66
X107.53Y-143.2
X107.53Y-145.74
X107.53Y-148.28
X107.53Y-150.82
X107.53Y-153.36
X110.07Y-110.18
X110.07Y-115.26
X110.07Y-117.8
X110.07Y-120.34
X110.07Y-122.88
X110.07Y-125.42
X110.07Y-127.96
X110.07Y-130.5
X110.07Y-133.04
X110.07Y-135.58
X110.07Y-138.12
X110.07Y-140.66
X110.07Y-143.2
X110.07Y-145.74
X110.07Y-148.28
X110.07Y-150.82
X110.07Y-155.9
X112.61Y-102.56
X112.61Y-105.1
X112.61Y-107.64
X112.61Y-110.18
X112.61Y-115.26
X112.61Y-120.34
X112.61Y-122.88
X112.61Y-125.42
X112.61Y-127.96
X112.61Y-130.5
X112.61Y-133.04
X112.61Y-135.58
X112.61Y-138.12
X112.61Y-140.66
X112.61Y-143.2
X112.61Y-145.74
X112.61Y-148.28
X112.61Y-150.82
X112.61Y-155.9
X115.15Y-102.56
X115.15Y-105.1
X115.15Y-107.64
X115.15Y-110.18
X115.15Y-115.26
X115.15Y-117.8
X115.15Y-122.88
X115.15Y-125.42
X115.15Y-127.96
X115.15Y-130.5
X115.15Y-133.04
X115.15Y-135.58
X115.15Y-138.12
X115.15Y-140.66
X115.15Y-143.2
X115.15Y-145.74
X115.15Y-148.28
X115.15Y-153.36
X115.15Y-155.9
X116.41Y-129.72
X117.14Y-120.73
X117.69Y-110.18
X117.69Y-117.8
X117.69Y-125.42
X117.69Y-135.58
X117.69Y-138.12
X117.69Y-140.66
X117.69Y-143.2
X117.69Y-145.74
X117.69Y-150.82
X117.69Y-153.36
X117.69Y-155.9
X118.65Y-127.528
X118.65Y-135.8
X119.0Y-129.925
X119.0Y-131.925
X119.206Y-117.674
X119.25Y-126.99
X119.361Y-118.527
X119.868Y-127.498
X120.05Y-138.13
X120.05Y-140.67
X120.05Y-143.21
X120.05Y-145.75
X120.15Y-118.659
X120.15Y-119.54
X120.23Y-110.18
X120.23Y-148.28
X120.23Y-150.82
X120.23Y-153.36
X120.75Y-127.13
X121.0Y-129.925
X121.0Y-131.925
X121.35Y-134.859
X121.35Y-135.8
X122.77Y-112.72
X122.77Y-115.26
X122.77Y-122.88
X122.77Y-127.96
X122.77Y-140.66
X122.77Y-143.2
X122.77Y-145.74
X122.77Y-148.28
X122.77Y-150.82
X122.77Y-155.9
X122.8Y-118.61
X122.8Y-119.98
X125.31Y-110.18
X125.31Y-112.72
X125.31Y-115.26
X125.31Y-122.88
X125.31Y-125.42
X125.31Y-127.96
X125.31Y-133.04
X125.31Y-138.12
X125.31Y-140.66
X125.31Y-143.2
X125.31Y-145.74
X125.31Y-148.28
X125.31Y-153.36
X125.31Y-155.9
X125.31Y-158.44
X125.31Y-160.98
X125.31Y-163.52
X125.34Y-118.61
X125.34Y-119.98
X127.85Y-110.18
X127.85Y-112.72
X127.85Y-115.26
X127.85Y-122.88
X127.85Y-125.42
X127.85Y-127.96
X127.85Y-133.04
X127.85Y-138.12
X127.85Y-140.66
X127.88Y-118.61
X127.88Y-119.98
X129.6Y-129.365
X130.2Y-130.0
X130.39Y-110.18
X130.39Y-133.04
X130.39Y-135.58
X130.39Y-138.12
X130.39Y-140.66
X130.89Y-120.27
X130.9Y-112.93
X131.28Y-111.7
X132.93Y-122.88
X132.93Y-125.42
X132.93Y-127.96
X132.93Y-130.5
X132.93Y-133.04
X132.93Y-135.58
X133.272Y-144.343
X133.272Y-146.883
X135.47Y-102.56
X135.47Y-105.1
X135.47Y-107.64
X135.47Y-122.88
X135.47Y-125.42
X135.47Y-127.96
X135.47Y-130.5
X135.47Y-133.04
X135.47Y-135.58
X135.812Y-144.343
X135.812Y-146.883
X138.01Y-102.56
X138.01Y-105.1
X138.01Y-107.64
X138.01Y-110.18
X138.01Y-112.72
X138.01Y-115.26
X138.01Y-120.34
X138.01Y-122.88
X138.01Y-125.75
X138.01Y-127.0
X138.01Y-145.74
X138.01Y-148.28
X138.01Y-150.82
X138.01Y-153.36
X138.01Y-155.9
X138.01Y-158.44
X138.01Y-160.98
T2
X115.0Y-151.56
X125.0Y-151.56
X133.5Y-110.39
X133.5Y-112.93
X133.5Y-115.47
X133.5Y-118.01
X133.5Y-120.55
X136.04Y-110.39
X136.04Y-112.93
X136.04Y-115.47
X136.04Y-118.01
X136.04Y-120.55
T3
X104.05Y-155.95
T4
X116.19Y-112.54
X122.54Y-110.0
T5
X120.0Y-115.08
M30
