%TF.GenerationSoftware,KiCad,Pcbnew,9.0.3*%
%TF.CreationDate,2026-04-10T15:40:57+08:00*%
%TF.ProjectId,audio_player_toy_v1,61756469-6f5f-4706-9c61-7965725f746f,rev?*%
%TF.SameCoordinates,Original*%
%TF.FileFunction,Legend,Top*%
%TF.FilePolarity,Positive*%
%FSLAX46Y46*%
G04 Gerber Fmt 4.6, Leading zero omitted, Abs format (unit mm)*
G04 Created by KiCad (PCBNEW 9.0.3) date 2026-04-10 15:40:57*
%MOMM*%
%LPD*%
G01*
G04 APERTURE LIST*
%ADD10C,0.000000*%
%ADD11C,0.100000*%
%ADD12C,0.125000*%
%ADD13C,0.150000*%
%ADD14C,0.200000*%
%ADD15C,0.120000*%
%ADD16C,0.127000*%
G04 APERTURE END LIST*
D10*
G36*
X110224912Y-134448629D02*
G01*
X110232061Y-134452066D01*
X110236475Y-134457721D01*
X110237984Y-134465696D01*
X110237744Y-134468336D01*
X110237032Y-134471100D01*
X110235859Y-134473980D01*
X110234238Y-134476969D01*
X110232181Y-134480060D01*
X110229698Y-134483246D01*
X110226802Y-134486521D01*
X110223504Y-134489875D01*
X110219816Y-134493304D01*
X110215751Y-134496799D01*
X110211319Y-134500354D01*
X110206533Y-134503961D01*
X110195944Y-134511305D01*
X110184078Y-134518774D01*
X110171029Y-134526312D01*
X110156891Y-134533861D01*
X110141759Y-134541363D01*
X110125727Y-134548765D01*
X110108888Y-134556009D01*
X110091336Y-134563037D01*
X110073166Y-134569794D01*
X110054472Y-134576223D01*
X110032519Y-134584071D01*
X110010459Y-134593137D01*
X109988336Y-134603370D01*
X109966194Y-134614722D01*
X109922030Y-134640579D01*
X109878318Y-134670311D01*
X109835410Y-134703517D01*
X109793660Y-134739803D01*
X109753418Y-134778765D01*
X109715037Y-134820008D01*
X109678870Y-134863132D01*
X109645268Y-134907739D01*
X109614584Y-134953430D01*
X109587170Y-134999807D01*
X109563377Y-135046471D01*
X109543559Y-135093024D01*
X109535250Y-135116134D01*
X109528067Y-135139067D01*
X109522053Y-135161773D01*
X109517253Y-135184202D01*
X109514025Y-135204213D01*
X109511559Y-135225599D01*
X109509837Y-135248178D01*
X109508848Y-135271768D01*
X109508576Y-135296190D01*
X109509005Y-135321257D01*
X109510122Y-135346791D01*
X109511910Y-135372612D01*
X109514356Y-135398533D01*
X109517444Y-135424377D01*
X109521160Y-135449961D01*
X109525489Y-135475103D01*
X109530415Y-135499621D01*
X109535924Y-135523334D01*
X109542001Y-135546060D01*
X109548631Y-135567617D01*
X109565188Y-135607866D01*
X109589906Y-135654393D01*
X109621695Y-135705974D01*
X109659464Y-135761384D01*
X109702123Y-135819398D01*
X109748581Y-135878794D01*
X109797750Y-135938344D01*
X109848537Y-135996826D01*
X109899852Y-136053013D01*
X109950606Y-136105682D01*
X109999707Y-136153607D01*
X110046065Y-136195566D01*
X110088589Y-136230332D01*
X110126191Y-136256681D01*
X110142804Y-136266317D01*
X110157778Y-136273389D01*
X110170976Y-136277744D01*
X110182261Y-136279230D01*
X110185117Y-136279299D01*
X110187937Y-136279506D01*
X110190718Y-136279846D01*
X110193455Y-136280316D01*
X110196145Y-136280913D01*
X110198784Y-136281632D01*
X110201369Y-136282472D01*
X110203897Y-136283428D01*
X110206364Y-136284497D01*
X110208766Y-136285676D01*
X110211099Y-136286961D01*
X110213361Y-136288348D01*
X110215547Y-136289834D01*
X110217654Y-136291418D01*
X110219678Y-136293093D01*
X110221616Y-136294858D01*
X110223464Y-136296708D01*
X110225219Y-136298640D01*
X110226877Y-136300651D01*
X110228435Y-136302738D01*
X110229888Y-136304897D01*
X110231234Y-136307124D01*
X110232468Y-136309416D01*
X110233588Y-136311770D01*
X110234589Y-136314183D01*
X110235469Y-136316651D01*
X110236223Y-136319170D01*
X110236849Y-136321737D01*
X110237341Y-136324349D01*
X110237696Y-136327002D01*
X110237912Y-136329693D01*
X110237985Y-136332418D01*
X110237829Y-136337837D01*
X110237370Y-136343103D01*
X110236624Y-136348191D01*
X110235606Y-136353071D01*
X110234333Y-136357719D01*
X110232819Y-136362105D01*
X110231079Y-136366203D01*
X110229130Y-136369985D01*
X110226986Y-136373424D01*
X110224664Y-136376494D01*
X110222178Y-136379166D01*
X110219545Y-136381413D01*
X110218177Y-136382369D01*
X110216779Y-136383208D01*
X110215351Y-136383928D01*
X110213896Y-136384525D01*
X110212415Y-136384995D01*
X110210910Y-136385334D01*
X110209385Y-136385541D01*
X110207840Y-136385610D01*
X110207839Y-136385610D01*
X110199216Y-136384705D01*
X110189182Y-136382038D01*
X110177820Y-136377685D01*
X110165210Y-136371724D01*
X110136579Y-136355272D01*
X110103939Y-136333287D01*
X110067946Y-136306374D01*
X110029251Y-136275137D01*
X109988509Y-136240179D01*
X109946372Y-136202104D01*
X109903494Y-136161520D01*
X109860528Y-136119028D01*
X109818126Y-136075235D01*
X109776943Y-136030741D01*
X109737631Y-135986155D01*
X109700844Y-135942079D01*
X109667234Y-135899119D01*
X109637457Y-135857878D01*
X109598731Y-135797104D01*
X109564705Y-135734407D01*
X109535396Y-135670146D01*
X109510818Y-135604677D01*
X109490990Y-135538358D01*
X109475927Y-135471545D01*
X109465648Y-135404597D01*
X109460167Y-135337869D01*
X109459501Y-135271721D01*
X109463667Y-135206507D01*
X109472682Y-135142587D01*
X109486561Y-135080317D01*
X109505321Y-135020054D01*
X109528979Y-134962156D01*
X109557553Y-134906980D01*
X109573688Y-134880524D01*
X109591057Y-134854883D01*
X109618460Y-134821204D01*
X109653939Y-134784959D01*
X109696135Y-134746965D01*
X109743691Y-134708040D01*
X109795249Y-134668999D01*
X109849449Y-134630662D01*
X109904933Y-134593844D01*
X109960344Y-134559363D01*
X110014323Y-134528035D01*
X110065512Y-134500679D01*
X110112552Y-134478112D01*
X110154086Y-134461150D01*
X110188754Y-134450609D01*
X110203088Y-134448003D01*
X110215198Y-134447309D01*
X110224912Y-134448629D01*
G37*
G36*
X110977827Y-134375827D02*
G01*
X111033449Y-134380840D01*
X111087318Y-134390117D01*
X111113601Y-134396358D01*
X111139453Y-134403669D01*
X111164876Y-134412052D01*
X111189872Y-134421506D01*
X111214443Y-134432036D01*
X111238593Y-134443642D01*
X111262322Y-134456324D01*
X111285634Y-134470086D01*
X111331014Y-134500850D01*
X111374752Y-134535946D01*
X111416865Y-134575385D01*
X111457371Y-134619178D01*
X111496291Y-134667337D01*
X111533641Y-134719873D01*
X111569439Y-134776797D01*
X111603706Y-134838121D01*
X111630001Y-134890882D01*
X111652952Y-134943164D01*
X111672559Y-134995061D01*
X111688824Y-135046665D01*
X111701752Y-135098068D01*
X111711344Y-135149362D01*
X111717601Y-135200640D01*
X111720526Y-135251995D01*
X111720122Y-135303518D01*
X111716390Y-135355303D01*
X111709333Y-135407441D01*
X111698954Y-135460026D01*
X111685254Y-135513148D01*
X111668235Y-135566902D01*
X111647901Y-135621379D01*
X111624253Y-135676672D01*
X111624254Y-135676672D01*
X111606011Y-135714245D01*
X111586126Y-135750308D01*
X111564680Y-135784839D01*
X111541749Y-135817810D01*
X111517413Y-135849197D01*
X111491750Y-135878974D01*
X111464838Y-135907116D01*
X111436756Y-135933596D01*
X111407581Y-135958390D01*
X111377392Y-135981472D01*
X111346268Y-136002818D01*
X111314286Y-136022400D01*
X111301175Y-136029522D01*
X111281526Y-136040195D01*
X111248064Y-136056174D01*
X111213981Y-136070315D01*
X111179353Y-136082592D01*
X111144259Y-136092978D01*
X111108778Y-136101450D01*
X111095168Y-136103933D01*
X111072988Y-136107980D01*
X111036967Y-136112544D01*
X111000794Y-136115116D01*
X110964546Y-136115671D01*
X110928302Y-136114183D01*
X110892141Y-136110626D01*
X110878574Y-136108497D01*
X110856141Y-136104976D01*
X110820380Y-136097208D01*
X110784936Y-136087294D01*
X110749887Y-136075210D01*
X110715313Y-136060931D01*
X110681291Y-136044432D01*
X110647900Y-136025685D01*
X110615217Y-136004667D01*
X110563048Y-135967561D01*
X110515059Y-135930593D01*
X110471095Y-135893496D01*
X110431005Y-135856001D01*
X110412362Y-135837021D01*
X110394630Y-135817842D01*
X110377788Y-135798430D01*
X110361819Y-135778752D01*
X110346701Y-135758775D01*
X110332417Y-135738463D01*
X110318946Y-135717785D01*
X110306270Y-135696708D01*
X110294369Y-135675197D01*
X110283224Y-135653221D01*
X110272816Y-135630743D01*
X110263124Y-135607732D01*
X110254131Y-135584155D01*
X110245816Y-135559977D01*
X110238161Y-135535164D01*
X110231146Y-135509685D01*
X110218960Y-135456593D01*
X110209104Y-135400431D01*
X110201422Y-135340933D01*
X110195762Y-135277830D01*
X110193876Y-135228046D01*
X110467104Y-135228046D01*
X110467292Y-135246236D01*
X110468487Y-135264651D01*
X110470680Y-135283255D01*
X110473863Y-135302018D01*
X110478027Y-135320905D01*
X110483165Y-135339882D01*
X110489269Y-135358919D01*
X110496328Y-135377980D01*
X110504339Y-135397032D01*
X110513291Y-135416042D01*
X110523173Y-135434978D01*
X110533981Y-135453805D01*
X110545705Y-135472490D01*
X110558337Y-135491001D01*
X110571870Y-135509304D01*
X110586294Y-135527366D01*
X110601602Y-135545153D01*
X110617786Y-135562633D01*
X110634837Y-135579772D01*
X110652748Y-135596536D01*
X110671509Y-135612894D01*
X110703792Y-135639813D01*
X110732837Y-135663394D01*
X110758954Y-135683709D01*
X110782447Y-135700830D01*
X110803629Y-135714828D01*
X110813448Y-135720680D01*
X110822804Y-135725777D01*
X110831736Y-135730132D01*
X110840283Y-135733752D01*
X110848482Y-135736643D01*
X110856372Y-135738819D01*
X110863991Y-135740286D01*
X110871380Y-135741055D01*
X110878573Y-135741133D01*
X110885614Y-135740531D01*
X110892537Y-135739256D01*
X110899384Y-135737319D01*
X110906189Y-135734728D01*
X110912995Y-135731493D01*
X110919838Y-135727621D01*
X110926757Y-135723123D01*
X110940978Y-135712283D01*
X110955966Y-135699045D01*
X110972028Y-135683480D01*
X110980890Y-135674108D01*
X110989047Y-135664410D01*
X110996500Y-135654377D01*
X111003248Y-135644002D01*
X111009287Y-135633274D01*
X111014618Y-135622191D01*
X111019239Y-135610736D01*
X111023150Y-135598906D01*
X111026349Y-135586692D01*
X111028834Y-135574084D01*
X111030606Y-135561074D01*
X111031660Y-135547655D01*
X111031998Y-135533817D01*
X111031619Y-135519553D01*
X111030520Y-135504853D01*
X111028701Y-135489709D01*
X111026160Y-135474113D01*
X111022896Y-135458056D01*
X111018908Y-135441530D01*
X111014195Y-135424527D01*
X111008756Y-135407038D01*
X111002589Y-135389054D01*
X110988067Y-135351570D01*
X110970621Y-135312008D01*
X110960865Y-135292043D01*
X111195434Y-135292043D01*
X111195649Y-135304987D01*
X111196286Y-135317540D01*
X111197334Y-135329691D01*
X111198782Y-135341428D01*
X111200617Y-135352740D01*
X111202829Y-135363615D01*
X111205406Y-135374042D01*
X111208338Y-135384008D01*
X111211610Y-135393502D01*
X111215214Y-135402513D01*
X111219137Y-135411028D01*
X111223369Y-135419036D01*
X111227895Y-135426525D01*
X111232707Y-135433484D01*
X111237793Y-135439901D01*
X111243141Y-135445765D01*
X111248739Y-135451063D01*
X111254577Y-135455784D01*
X111260642Y-135459916D01*
X111266924Y-135463448D01*
X111273410Y-135466368D01*
X111280090Y-135468664D01*
X111286952Y-135470325D01*
X111293984Y-135471339D01*
X111301175Y-135471694D01*
X111308514Y-135471379D01*
X111315990Y-135470381D01*
X111323590Y-135468690D01*
X111331303Y-135466294D01*
X111339118Y-135463180D01*
X111347023Y-135459338D01*
X111355007Y-135454755D01*
X111366715Y-135447242D01*
X111371981Y-135443607D01*
X111376855Y-135440018D01*
X111381336Y-135436456D01*
X111385425Y-135432897D01*
X111389120Y-135429317D01*
X111392423Y-135425693D01*
X111395332Y-135422002D01*
X111397847Y-135418220D01*
X111399969Y-135414325D01*
X111401696Y-135410293D01*
X111403029Y-135406100D01*
X111403968Y-135401725D01*
X111404512Y-135397142D01*
X111404660Y-135392329D01*
X111404414Y-135387264D01*
X111403772Y-135381922D01*
X111402734Y-135376279D01*
X111401301Y-135370315D01*
X111399471Y-135364005D01*
X111397245Y-135357325D01*
X111394622Y-135350252D01*
X111391602Y-135342763D01*
X111388185Y-135334835D01*
X111384371Y-135326445D01*
X111380160Y-135317569D01*
X111375550Y-135308185D01*
X111365137Y-135287796D01*
X111353130Y-135265093D01*
X111353136Y-135265092D01*
X111345969Y-135252181D01*
X111338788Y-135240185D01*
X111331610Y-135229100D01*
X111324447Y-135218924D01*
X111317320Y-135209654D01*
X111310242Y-135201287D01*
X111303230Y-135193822D01*
X111296297Y-135187254D01*
X111289463Y-135181582D01*
X111282741Y-135176803D01*
X111276148Y-135172914D01*
X111269699Y-135169912D01*
X111263411Y-135167795D01*
X111257298Y-135166559D01*
X111251378Y-135166203D01*
X111245665Y-135166723D01*
X111240176Y-135168118D01*
X111234926Y-135170383D01*
X111229932Y-135173516D01*
X111225208Y-135177515D01*
X111220772Y-135182379D01*
X111216638Y-135188100D01*
X111212823Y-135194680D01*
X111209342Y-135202115D01*
X111206212Y-135210402D01*
X111203447Y-135219538D01*
X111201065Y-135229521D01*
X111199080Y-135240349D01*
X111197508Y-135252017D01*
X111196366Y-135264524D01*
X111195670Y-135277867D01*
X111195434Y-135292043D01*
X110960865Y-135292043D01*
X110950240Y-135270299D01*
X110926915Y-135226377D01*
X110900637Y-135180174D01*
X110900638Y-135180177D01*
X110873460Y-135135092D01*
X110847751Y-135095267D01*
X110823317Y-135060634D01*
X110811518Y-135045243D01*
X110799965Y-135031125D01*
X110788634Y-135018272D01*
X110777501Y-135006675D01*
X110766542Y-134996325D01*
X110755733Y-134987214D01*
X110745049Y-134979334D01*
X110734467Y-134972677D01*
X110723961Y-134967234D01*
X110713509Y-134962995D01*
X110703086Y-134959954D01*
X110692667Y-134958101D01*
X110682229Y-134957427D01*
X110671747Y-134957927D01*
X110661198Y-134959590D01*
X110650557Y-134962408D01*
X110639799Y-134966372D01*
X110628902Y-134971473D01*
X110617839Y-134977705D01*
X110606589Y-134985058D01*
X110595126Y-134993522D01*
X110583425Y-135003092D01*
X110571464Y-135013759D01*
X110559218Y-135025512D01*
X110533773Y-135052248D01*
X110522354Y-135065780D01*
X110512032Y-135079900D01*
X110502797Y-135094580D01*
X110494642Y-135109781D01*
X110487559Y-135125472D01*
X110481539Y-135141620D01*
X110476574Y-135158191D01*
X110472656Y-135175152D01*
X110469777Y-135192471D01*
X110467929Y-135210114D01*
X110467104Y-135228046D01*
X110193876Y-135228046D01*
X110192190Y-135183550D01*
X110195311Y-135093439D01*
X110199336Y-135050010D01*
X110204981Y-135007696D01*
X110212226Y-134966521D01*
X110221055Y-134926510D01*
X110231450Y-134887687D01*
X110243392Y-134850077D01*
X110256862Y-134813703D01*
X110271845Y-134778591D01*
X110288321Y-134744764D01*
X110300576Y-134722566D01*
X110897320Y-134722566D01*
X110897396Y-134734323D01*
X110898349Y-134746809D01*
X110900134Y-134759936D01*
X110906030Y-134787794D01*
X110914731Y-134817233D01*
X110925885Y-134847591D01*
X110939142Y-134878205D01*
X110954151Y-134908409D01*
X110970562Y-134937545D01*
X110988022Y-134964946D01*
X111006180Y-134989952D01*
X111024687Y-135011897D01*
X111043190Y-135030119D01*
X111052330Y-135037628D01*
X111061339Y-135043957D01*
X111070170Y-135049024D01*
X111078782Y-135052745D01*
X111087129Y-135055039D01*
X111095168Y-135055821D01*
X111102656Y-135055252D01*
X111109467Y-135053576D01*
X111115609Y-135050838D01*
X111121090Y-135047091D01*
X111125919Y-135042383D01*
X111130104Y-135036761D01*
X111133653Y-135030275D01*
X111136575Y-135022972D01*
X111138877Y-135014903D01*
X111140567Y-135006115D01*
X111141655Y-134996655D01*
X111142147Y-134986575D01*
X111142056Y-134975922D01*
X111141384Y-134964744D01*
X111140141Y-134953090D01*
X111138339Y-134941009D01*
X111135981Y-134928550D01*
X111133080Y-134915761D01*
X111129641Y-134902689D01*
X111125673Y-134889385D01*
X111121184Y-134875897D01*
X111116184Y-134862274D01*
X111110679Y-134848563D01*
X111104678Y-134834813D01*
X111098189Y-134821074D01*
X111091222Y-134807394D01*
X111083783Y-134793821D01*
X111075881Y-134780403D01*
X111067525Y-134767191D01*
X111058722Y-134754231D01*
X111049481Y-134741573D01*
X111039810Y-134729265D01*
X111023839Y-134709898D01*
X111009440Y-134692964D01*
X110996488Y-134678429D01*
X110984857Y-134666259D01*
X110974424Y-134656421D01*
X110969616Y-134652366D01*
X110965061Y-134648881D01*
X110960742Y-134645963D01*
X110956644Y-134643606D01*
X110952751Y-134641808D01*
X110949048Y-134640562D01*
X110945518Y-134639867D01*
X110942147Y-134639715D01*
X110938918Y-134640106D01*
X110935816Y-134641031D01*
X110932825Y-134642490D01*
X110929930Y-134644478D01*
X110927115Y-134646989D01*
X110924364Y-134650021D01*
X110921662Y-134653568D01*
X110918992Y-134657626D01*
X110916341Y-134662192D01*
X110913690Y-134667261D01*
X110908331Y-134678892D01*
X110902790Y-134692484D01*
X110899973Y-134701563D01*
X110898164Y-134711618D01*
X110897320Y-134722566D01*
X110300576Y-134722566D01*
X110306273Y-134712247D01*
X110325682Y-134681063D01*
X110346531Y-134651238D01*
X110368802Y-134622795D01*
X110392476Y-134595759D01*
X110417536Y-134570153D01*
X110443964Y-134546003D01*
X110471742Y-134523333D01*
X110500853Y-134502166D01*
X110531275Y-134482527D01*
X110562995Y-134464441D01*
X110595992Y-134447931D01*
X110630250Y-134433022D01*
X110665749Y-134419738D01*
X110702473Y-134408104D01*
X110740403Y-134398143D01*
X110779521Y-134389880D01*
X110819810Y-134383340D01*
X110861250Y-134378546D01*
X110920433Y-134375066D01*
X110977827Y-134375827D01*
G37*
G36*
X111281493Y-132023596D02*
G01*
X111336960Y-132030842D01*
X111391459Y-132042106D01*
X111444564Y-132057411D01*
X111495853Y-132076776D01*
X111520684Y-132087988D01*
X111544902Y-132100223D01*
X111568453Y-132113484D01*
X111591286Y-132127771D01*
X111624940Y-132151326D01*
X111657287Y-132176711D01*
X111688307Y-132203837D01*
X111717973Y-132232613D01*
X111746262Y-132262948D01*
X111773153Y-132294753D01*
X111798620Y-132327938D01*
X111822642Y-132362412D01*
X111845195Y-132398085D01*
X111866254Y-132434867D01*
X111885799Y-132472668D01*
X111903804Y-132511398D01*
X111920247Y-132550965D01*
X111935105Y-132591281D01*
X111948353Y-132632255D01*
X111959969Y-132673797D01*
X111969930Y-132715816D01*
X111978211Y-132758223D01*
X111984791Y-132800926D01*
X111989645Y-132843838D01*
X111992751Y-132886866D01*
X111994085Y-132929920D01*
X111993624Y-132972911D01*
X111991343Y-133015748D01*
X111987221Y-133058341D01*
X111981235Y-133100600D01*
X111973359Y-133142435D01*
X111963571Y-133183756D01*
X111951850Y-133224471D01*
X111938170Y-133264492D01*
X111922508Y-133303728D01*
X111904842Y-133342089D01*
X111904843Y-133342088D01*
X111882171Y-133384963D01*
X111857624Y-133425523D01*
X111831297Y-133463753D01*
X111803289Y-133499642D01*
X111773696Y-133533176D01*
X111742615Y-133564342D01*
X111710144Y-133593126D01*
X111676381Y-133619517D01*
X111641421Y-133643500D01*
X111607204Y-133663961D01*
X111605363Y-133665062D01*
X111568304Y-133684191D01*
X111530340Y-133700873D01*
X111491570Y-133715095D01*
X111452089Y-133726845D01*
X111411997Y-133736108D01*
X111411215Y-133736239D01*
X111371389Y-133742872D01*
X111330363Y-133747124D01*
X111289016Y-133748849D01*
X111247445Y-133748037D01*
X111205747Y-133744672D01*
X111164022Y-133738743D01*
X111143704Y-133734594D01*
X111122364Y-133730236D01*
X111080871Y-133719139D01*
X111039640Y-133705436D01*
X110998770Y-133689117D01*
X110958355Y-133670167D01*
X110918496Y-133648573D01*
X110879287Y-133624323D01*
X110840827Y-133597403D01*
X110803212Y-133567800D01*
X110766542Y-133535502D01*
X110730910Y-133500494D01*
X110695553Y-133462094D01*
X110662570Y-133422719D01*
X110631959Y-133382444D01*
X110603718Y-133341347D01*
X110577844Y-133299504D01*
X110554338Y-133256991D01*
X110533193Y-133213886D01*
X110514411Y-133170265D01*
X110497988Y-133126203D01*
X110483923Y-133081781D01*
X110472213Y-133037071D01*
X110462856Y-132992151D01*
X110455852Y-132947099D01*
X110451194Y-132901990D01*
X110450616Y-132890700D01*
X110745287Y-132890700D01*
X110745673Y-132905036D01*
X110746919Y-132919585D01*
X110749029Y-132934378D01*
X110752007Y-132949449D01*
X110755857Y-132964826D01*
X110760582Y-132980546D01*
X110766186Y-132996638D01*
X110772672Y-133013136D01*
X110780045Y-133030069D01*
X110788307Y-133047472D01*
X110797463Y-133065375D01*
X110807517Y-133083812D01*
X110830330Y-133122412D01*
X110856776Y-133163529D01*
X110886884Y-133207417D01*
X110897316Y-133221574D01*
X110908168Y-133235038D01*
X110919413Y-133247808D01*
X110931022Y-133259874D01*
X110942970Y-133271233D01*
X110955225Y-133281878D01*
X110967762Y-133291804D01*
X110980553Y-133301004D01*
X110993569Y-133309476D01*
X111006784Y-133317211D01*
X111020169Y-133324204D01*
X111033696Y-133330450D01*
X111047338Y-133335943D01*
X111061066Y-133340677D01*
X111074854Y-133344647D01*
X111088672Y-133347846D01*
X111102495Y-133350270D01*
X111116293Y-133351913D01*
X111130038Y-133352769D01*
X111143704Y-133352832D01*
X111157262Y-133352097D01*
X111170684Y-133350558D01*
X111183943Y-133348209D01*
X111197010Y-133345045D01*
X111209860Y-133341060D01*
X111222462Y-133336249D01*
X111234789Y-133330605D01*
X111246814Y-133324123D01*
X111258509Y-133316798D01*
X111269846Y-133308624D01*
X111280797Y-133299595D01*
X111291334Y-133289705D01*
X111297287Y-133283342D01*
X111302730Y-133276658D01*
X111307664Y-133269641D01*
X111312085Y-133262283D01*
X111315992Y-133254570D01*
X111319384Y-133246495D01*
X111322258Y-133238046D01*
X111324613Y-133229213D01*
X111326446Y-133219986D01*
X111327757Y-133210353D01*
X111328544Y-133200305D01*
X111328804Y-133189831D01*
X111328536Y-133178920D01*
X111327738Y-133167563D01*
X111326407Y-133155749D01*
X111324545Y-133143467D01*
X111322146Y-133130707D01*
X111319211Y-133117458D01*
X111315737Y-133103711D01*
X111311722Y-133089454D01*
X111302064Y-133059370D01*
X111290222Y-133027124D01*
X111276182Y-132992632D01*
X111259931Y-132955810D01*
X111241453Y-132916576D01*
X111231483Y-132896494D01*
X111461694Y-132896494D01*
X111461782Y-132906479D01*
X111462313Y-132916771D01*
X111463282Y-132927310D01*
X111464681Y-132938036D01*
X111466503Y-132948889D01*
X111468742Y-132959810D01*
X111471392Y-132970740D01*
X111474446Y-132981617D01*
X111477897Y-132992382D01*
X111481737Y-133002977D01*
X111485961Y-133013340D01*
X111490563Y-133023413D01*
X111495535Y-133033135D01*
X111500871Y-133042447D01*
X111506563Y-133051289D01*
X111512607Y-133059602D01*
X111518994Y-133067324D01*
X111525718Y-133074398D01*
X111532773Y-133080763D01*
X111544602Y-133089894D01*
X111556073Y-133097413D01*
X111567163Y-133103384D01*
X111577846Y-133107868D01*
X111588097Y-133110931D01*
X111597892Y-133112632D01*
X111607204Y-133113037D01*
X111616010Y-133112207D01*
X111624285Y-133110206D01*
X111632002Y-133107097D01*
X111639137Y-133102943D01*
X111645667Y-133097805D01*
X111651564Y-133091750D01*
X111656805Y-133084835D01*
X111661363Y-133077128D01*
X111665215Y-133068690D01*
X111668336Y-133059583D01*
X111670698Y-133049872D01*
X111672281Y-133039619D01*
X111673056Y-133028886D01*
X111672999Y-133017737D01*
X111672085Y-133006234D01*
X111670290Y-132994441D01*
X111667589Y-132982421D01*
X111663954Y-132970235D01*
X111659364Y-132957948D01*
X111653791Y-132945622D01*
X111647210Y-132933320D01*
X111639601Y-132921105D01*
X111630933Y-132909040D01*
X111621183Y-132897187D01*
X111610327Y-132885610D01*
X111610326Y-132885610D01*
X111603603Y-132879108D01*
X111596635Y-132872788D01*
X111589478Y-132866682D01*
X111582184Y-132860826D01*
X111574810Y-132855249D01*
X111567409Y-132849986D01*
X111560036Y-132845068D01*
X111552746Y-132840530D01*
X111545593Y-132836402D01*
X111538631Y-132832719D01*
X111531916Y-132829513D01*
X111525502Y-132826816D01*
X111519443Y-132824661D01*
X111513794Y-132823082D01*
X111508608Y-132822110D01*
X111503943Y-132821779D01*
X111497659Y-132822341D01*
X111491905Y-132823987D01*
X111486675Y-132826654D01*
X111481961Y-132830286D01*
X111477757Y-132834823D01*
X111474057Y-132840204D01*
X111470854Y-132846369D01*
X111468141Y-132853260D01*
X111465911Y-132860815D01*
X111464158Y-132868976D01*
X111462876Y-132877683D01*
X111462056Y-132886875D01*
X111461694Y-132896494D01*
X111231483Y-132896494D01*
X111220735Y-132874845D01*
X111220736Y-132874845D01*
X111213300Y-132860789D01*
X111204997Y-132846153D01*
X111195913Y-132831053D01*
X111186140Y-132815610D01*
X111175764Y-132799936D01*
X111164876Y-132784152D01*
X111141917Y-132752720D01*
X111117973Y-132722251D01*
X111105855Y-132707671D01*
X111093756Y-132693684D01*
X111081768Y-132680406D01*
X111069977Y-132667957D01*
X111058474Y-132656452D01*
X111047347Y-132646009D01*
X111029187Y-132629716D01*
X111012985Y-132615698D01*
X111005527Y-132609563D01*
X110998448Y-132604020D01*
X110991713Y-132599077D01*
X110985285Y-132594745D01*
X110979128Y-132591028D01*
X110973203Y-132587937D01*
X110967477Y-132585479D01*
X110961912Y-132583662D01*
X110956471Y-132582496D01*
X110951118Y-132581985D01*
X110945816Y-132582140D01*
X110940530Y-132582968D01*
X110935222Y-132584479D01*
X110929856Y-132586678D01*
X110924395Y-132589575D01*
X110918804Y-132593178D01*
X110913045Y-132597495D01*
X110907082Y-132602533D01*
X110900878Y-132608302D01*
X110894398Y-132614808D01*
X110887604Y-132622060D01*
X110880460Y-132630065D01*
X110864976Y-132648372D01*
X110847655Y-132669791D01*
X110828203Y-132694387D01*
X110806456Y-132723596D01*
X110796800Y-132737879D01*
X110787961Y-132751990D01*
X110779942Y-132765961D01*
X110772747Y-132779824D01*
X110766380Y-132793612D01*
X110760843Y-132807357D01*
X110756142Y-132821089D01*
X110752278Y-132834842D01*
X110749259Y-132848648D01*
X110747084Y-132862538D01*
X110745759Y-132876544D01*
X110745287Y-132890700D01*
X110450616Y-132890700D01*
X110448884Y-132856901D01*
X110448921Y-132811908D01*
X110451300Y-132767090D01*
X110456021Y-132722521D01*
X110463079Y-132678279D01*
X110472475Y-132634440D01*
X110484206Y-132591080D01*
X110498269Y-132548277D01*
X110514663Y-132506107D01*
X110533384Y-132464647D01*
X110554435Y-132423973D01*
X110577659Y-132384416D01*
X111195433Y-132384416D01*
X111195846Y-132395134D01*
X111197061Y-132406429D01*
X111201736Y-132430514D01*
X111209144Y-132456188D01*
X111218970Y-132482970D01*
X111230901Y-132510378D01*
X111244623Y-132537931D01*
X111259821Y-132565145D01*
X111276181Y-132591541D01*
X111293391Y-132616636D01*
X111311132Y-132639947D01*
X111329095Y-132660994D01*
X111346963Y-132679295D01*
X111364424Y-132694368D01*
X111372903Y-132700543D01*
X111381162Y-132705730D01*
X111389162Y-132709870D01*
X111396864Y-132712901D01*
X111404228Y-132714764D01*
X111411215Y-132715398D01*
X111417247Y-132715323D01*
X111422871Y-132715077D01*
X111428082Y-132714629D01*
X111432879Y-132713948D01*
X111437254Y-132713003D01*
X111441207Y-132711762D01*
X111444735Y-132710196D01*
X111446338Y-132709280D01*
X111447833Y-132708272D01*
X111449220Y-132707167D01*
X111450498Y-132705960D01*
X111451667Y-132704649D01*
X111452726Y-132703230D01*
X111453676Y-132701697D01*
X111454515Y-132700049D01*
X111455243Y-132698280D01*
X111455860Y-132696386D01*
X111456365Y-132694365D01*
X111456758Y-132692212D01*
X111457206Y-132687494D01*
X111457200Y-132682203D01*
X111456736Y-132676306D01*
X111455813Y-132669772D01*
X111454425Y-132662572D01*
X111452570Y-132654673D01*
X111450243Y-132646044D01*
X111447442Y-132636656D01*
X111444162Y-132626475D01*
X111440402Y-132615474D01*
X111436156Y-132603618D01*
X111431422Y-132590878D01*
X111426196Y-132577222D01*
X111414253Y-132547041D01*
X111400304Y-132512826D01*
X111384317Y-132474329D01*
X111368684Y-132439255D01*
X111352661Y-132407680D01*
X111336441Y-132379693D01*
X111328316Y-132367075D01*
X111320214Y-132355390D01*
X111312160Y-132344647D01*
X111304177Y-132334861D01*
X111296290Y-132326040D01*
X111288522Y-132318198D01*
X111280898Y-132311345D01*
X111273442Y-132305492D01*
X111266177Y-132300653D01*
X111259129Y-132296836D01*
X111252321Y-132294057D01*
X111245777Y-132292323D01*
X111239521Y-132291648D01*
X111233579Y-132292043D01*
X111227973Y-132293520D01*
X111222727Y-132296089D01*
X111217867Y-132299762D01*
X111213416Y-132304552D01*
X111209399Y-132310469D01*
X111205838Y-132317524D01*
X111202759Y-132325730D01*
X111200186Y-132335098D01*
X111198143Y-132345639D01*
X111196653Y-132357365D01*
X111195742Y-132370287D01*
X111195433Y-132384416D01*
X110577659Y-132384416D01*
X110577808Y-132384162D01*
X110603504Y-132345290D01*
X110631521Y-132307435D01*
X110661855Y-132270671D01*
X110694506Y-132235077D01*
X110729471Y-132200729D01*
X110766749Y-132167703D01*
X110787239Y-132151317D01*
X110808599Y-132135882D01*
X110830777Y-132121401D01*
X110853719Y-132107875D01*
X110901683Y-132083702D01*
X110952068Y-132063387D01*
X111004451Y-132046946D01*
X111058407Y-132034401D01*
X111113513Y-132025773D01*
X111169346Y-132021083D01*
X111225480Y-132020350D01*
X111281493Y-132023596D01*
G37*
D11*
X102500000Y-146060000D02*
X137500000Y-146060000D01*
X137500000Y-157060000D01*
X102500000Y-157060000D01*
X102500000Y-146060000D01*
D10*
G36*
X111904997Y-130015742D02*
G01*
X111948757Y-130018664D01*
X111988346Y-130023980D01*
X112022790Y-130031782D01*
X112037779Y-130036644D01*
X112051117Y-130042161D01*
X112062682Y-130048345D01*
X112072352Y-130055208D01*
X112081398Y-130062885D01*
X112089854Y-130070437D01*
X112097717Y-130077901D01*
X112104989Y-130085315D01*
X112111667Y-130092719D01*
X112117751Y-130100150D01*
X112123241Y-130107647D01*
X112128135Y-130115248D01*
X112132432Y-130122990D01*
X112136133Y-130130912D01*
X112139236Y-130139054D01*
X112141741Y-130147451D01*
X112143646Y-130156144D01*
X112144951Y-130165169D01*
X112145656Y-130174566D01*
X112145759Y-130184372D01*
X112145259Y-130194626D01*
X112144157Y-130205366D01*
X112142451Y-130216631D01*
X112140140Y-130228457D01*
X112137224Y-130240885D01*
X112133702Y-130253950D01*
X112129573Y-130267695D01*
X112124837Y-130282153D01*
X112119492Y-130297365D01*
X112113538Y-130313370D01*
X112099800Y-130347907D01*
X112083617Y-130386068D01*
X112064983Y-130428163D01*
X112064982Y-130428162D01*
X112056327Y-130446798D01*
X112047671Y-130464264D01*
X112039068Y-130480498D01*
X112030574Y-130495437D01*
X112022244Y-130509017D01*
X112014133Y-130521176D01*
X112006296Y-130531852D01*
X111998789Y-130540982D01*
X111991667Y-130548501D01*
X111984985Y-130554349D01*
X111978798Y-130558461D01*
X111975909Y-130559847D01*
X111973163Y-130560775D01*
X111970569Y-130561239D01*
X111968133Y-130561229D01*
X111965863Y-130560738D01*
X111963764Y-130559758D01*
X111961845Y-130558282D01*
X111960112Y-130556301D01*
X111958571Y-130553808D01*
X111957231Y-130550794D01*
X111955078Y-130543772D01*
X111953563Y-130535869D01*
X111952666Y-130527173D01*
X111952376Y-130517771D01*
X111952671Y-130507747D01*
X111953537Y-130497192D01*
X111954955Y-130486189D01*
X111956911Y-130474828D01*
X111959385Y-130463194D01*
X111962364Y-130451374D01*
X111965828Y-130439456D01*
X111969762Y-130427525D01*
X111974148Y-130415669D01*
X111978970Y-130403974D01*
X111984211Y-130392529D01*
X111989855Y-130381418D01*
X112009128Y-130343761D01*
X112024762Y-130309437D01*
X112031189Y-130293485D01*
X112036677Y-130278320D01*
X112041216Y-130263926D01*
X112044795Y-130250286D01*
X112047405Y-130237386D01*
X112049037Y-130225210D01*
X112049679Y-130213743D01*
X112049323Y-130202968D01*
X112047958Y-130192871D01*
X112045575Y-130183436D01*
X112042164Y-130174646D01*
X112037715Y-130166488D01*
X112032218Y-130158944D01*
X112025663Y-130152000D01*
X112018041Y-130145640D01*
X112009340Y-130139849D01*
X111999552Y-130134610D01*
X111988667Y-130129908D01*
X111976675Y-130125728D01*
X111963566Y-130122055D01*
X111949331Y-130118870D01*
X111933958Y-130116162D01*
X111917439Y-130113914D01*
X111899764Y-130112108D01*
X111860905Y-130109767D01*
X111817301Y-130109014D01*
X111793418Y-130109406D01*
X111769153Y-130110555D01*
X111744677Y-130112423D01*
X111720163Y-130114971D01*
X111695777Y-130118160D01*
X111671693Y-130121952D01*
X111648078Y-130126308D01*
X111625106Y-130131190D01*
X111602945Y-130136558D01*
X111581766Y-130142373D01*
X111561741Y-130148598D01*
X111543038Y-130155194D01*
X111525829Y-130162121D01*
X111510284Y-130169342D01*
X111496574Y-130176817D01*
X111484868Y-130184507D01*
X111468973Y-130196475D01*
X111461758Y-130202216D01*
X111455026Y-130207834D01*
X111448772Y-130213350D01*
X111442991Y-130218797D01*
X111437679Y-130224199D01*
X111432831Y-130229584D01*
X111428442Y-130234978D01*
X111424507Y-130240409D01*
X111421022Y-130245904D01*
X111417982Y-130251489D01*
X111415383Y-130257193D01*
X111413220Y-130263041D01*
X111411488Y-130269061D01*
X111410182Y-130275280D01*
X111409298Y-130281724D01*
X111408831Y-130288421D01*
X111408777Y-130295398D01*
X111409130Y-130302682D01*
X111409888Y-130310300D01*
X111411043Y-130318279D01*
X111412592Y-130326646D01*
X111414531Y-130335428D01*
X111416853Y-130344652D01*
X111419556Y-130354345D01*
X111422634Y-130364533D01*
X111426082Y-130375246D01*
X111434071Y-130398347D01*
X111443486Y-130423865D01*
X111449564Y-130440558D01*
X111455035Y-130456784D01*
X111459889Y-130472457D01*
X111464119Y-130487494D01*
X111467711Y-130501811D01*
X111470658Y-130515324D01*
X111472949Y-130527949D01*
X111474574Y-130539600D01*
X111475525Y-130550196D01*
X111475791Y-130559652D01*
X111475362Y-130567883D01*
X111474230Y-130574806D01*
X111472383Y-130580337D01*
X111471189Y-130582554D01*
X111469812Y-130584391D01*
X111468253Y-130585839D01*
X111466509Y-130586886D01*
X111464579Y-130587522D01*
X111462463Y-130587736D01*
X111451860Y-130586638D01*
X111441778Y-130583427D01*
X111432225Y-130578227D01*
X111423209Y-130571159D01*
X111414741Y-130562348D01*
X111406830Y-130551916D01*
X111399482Y-130539988D01*
X111392711Y-130526685D01*
X111386524Y-130512132D01*
X111380931Y-130496451D01*
X111375940Y-130479766D01*
X111371562Y-130462200D01*
X111364679Y-130424917D01*
X111360357Y-130385588D01*
X111358669Y-130345200D01*
X111359690Y-130304737D01*
X111363495Y-130265185D01*
X111366463Y-130246059D01*
X111370155Y-130227530D01*
X111374581Y-130209722D01*
X111379749Y-130192758D01*
X111385668Y-130176761D01*
X111392349Y-130161854D01*
X111399799Y-130148161D01*
X111408028Y-130135806D01*
X111417047Y-130124908D01*
X111426863Y-130115595D01*
X111438671Y-130106723D01*
X111452234Y-130098188D01*
X111484146Y-130082174D01*
X111521623Y-130067642D01*
X111563696Y-130054687D01*
X111609384Y-130043397D01*
X111657720Y-130033864D01*
X111707727Y-130026179D01*
X111758432Y-130020433D01*
X111808861Y-130016718D01*
X111858041Y-130015124D01*
X111904997Y-130015742D01*
G37*
G36*
X110799928Y-131610086D02*
G01*
X110812019Y-131612073D01*
X110817011Y-131613337D01*
X110821397Y-131614718D01*
X110825183Y-131616217D01*
X110828372Y-131617830D01*
X110830965Y-131619555D01*
X110832039Y-131620459D01*
X110832968Y-131621390D01*
X110833748Y-131622348D01*
X110834382Y-131623333D01*
X110834869Y-131624344D01*
X110835210Y-131625382D01*
X110835406Y-131626445D01*
X110835457Y-131627534D01*
X110835364Y-131628648D01*
X110835124Y-131629787D01*
X110834741Y-131630951D01*
X110834215Y-131632140D01*
X110832733Y-131634591D01*
X110830680Y-131637134D01*
X110828063Y-131639770D01*
X110824880Y-131642497D01*
X110821137Y-131645313D01*
X110816837Y-131648214D01*
X110811982Y-131651198D01*
X110806575Y-131654264D01*
X110800621Y-131657410D01*
X110794121Y-131660633D01*
X110787079Y-131663930D01*
X110779498Y-131667301D01*
X110771381Y-131670741D01*
X110762732Y-131674251D01*
X110753552Y-131677827D01*
X110743846Y-131681465D01*
X110733617Y-131685166D01*
X110722867Y-131688928D01*
X110711599Y-131692745D01*
X110687525Y-131700545D01*
X110687524Y-131700548D01*
X110628156Y-131721229D01*
X110567936Y-131746001D01*
X110507319Y-131774511D01*
X110446758Y-131806404D01*
X110386707Y-131841325D01*
X110327622Y-131878918D01*
X110269954Y-131918829D01*
X110214159Y-131960705D01*
X110160691Y-132004190D01*
X110110003Y-132048929D01*
X110062550Y-132094567D01*
X110018786Y-132140750D01*
X109979165Y-132187124D01*
X109944140Y-132233333D01*
X109914166Y-132279024D01*
X109889696Y-132323839D01*
X109871960Y-132362561D01*
X109856197Y-132401809D01*
X109842390Y-132441519D01*
X109830520Y-132481626D01*
X109820572Y-132522068D01*
X109812526Y-132562780D01*
X109806367Y-132603700D01*
X109802075Y-132644762D01*
X109799029Y-132727063D01*
X109803246Y-132809174D01*
X109814587Y-132890583D01*
X109832913Y-132970786D01*
X109858085Y-133049267D01*
X109889962Y-133125522D01*
X109928405Y-133199040D01*
X109973275Y-133269310D01*
X109998076Y-133303069D01*
X110024432Y-133335825D01*
X110052323Y-133367515D01*
X110081735Y-133398075D01*
X110112648Y-133427441D01*
X110145046Y-133455550D01*
X110178911Y-133482338D01*
X110214225Y-133507742D01*
X110248147Y-133531954D01*
X110279131Y-133555947D01*
X110306998Y-133579381D01*
X110331570Y-133601918D01*
X110352670Y-133623220D01*
X110370116Y-133642945D01*
X110383733Y-133660758D01*
X110389049Y-133668841D01*
X110393340Y-133676318D01*
X110396585Y-133683148D01*
X110398761Y-133689288D01*
X110399844Y-133694696D01*
X110399816Y-133699328D01*
X110398651Y-133703145D01*
X110396327Y-133706100D01*
X110392821Y-133708155D01*
X110388115Y-133709265D01*
X110382183Y-133709389D01*
X110375003Y-133708484D01*
X110366553Y-133706508D01*
X110356811Y-133703419D01*
X110345755Y-133699173D01*
X110333362Y-133693730D01*
X110304476Y-133679079D01*
X110276111Y-133662706D01*
X110247842Y-133644572D01*
X110219721Y-133624765D01*
X110191802Y-133603370D01*
X110136779Y-133556158D01*
X110083195Y-133503619D01*
X110031473Y-133446441D01*
X109982033Y-133385309D01*
X109935299Y-133320908D01*
X109891692Y-133253922D01*
X109851634Y-133185041D01*
X109815548Y-133114946D01*
X109783856Y-133044324D01*
X109756979Y-132973861D01*
X109735341Y-132904241D01*
X109726617Y-132869962D01*
X109719362Y-132836151D01*
X109713627Y-132802893D01*
X109709465Y-132770275D01*
X109706929Y-132738382D01*
X109706072Y-132707300D01*
X109708196Y-132662314D01*
X109714406Y-132614690D01*
X109724462Y-132564903D01*
X109738124Y-132513427D01*
X109755152Y-132460740D01*
X109775306Y-132407313D01*
X109798344Y-132353624D01*
X109824027Y-132300146D01*
X109852114Y-132247354D01*
X109882365Y-132195726D01*
X109914540Y-132145733D01*
X109948397Y-132097853D01*
X109983698Y-132052559D01*
X110020202Y-132010327D01*
X110057667Y-131971632D01*
X110095855Y-131936949D01*
X110137185Y-131903738D01*
X110181976Y-131870885D01*
X110229586Y-131838682D01*
X110279373Y-131807420D01*
X110330689Y-131777392D01*
X110382893Y-131748890D01*
X110435338Y-131722206D01*
X110487385Y-131697633D01*
X110538385Y-131675461D01*
X110587696Y-131655986D01*
X110634672Y-131639495D01*
X110678673Y-131626283D01*
X110719052Y-131616645D01*
X110755165Y-131610869D01*
X110786369Y-131609247D01*
X110799928Y-131610086D01*
G37*
G36*
X112234649Y-129406877D02*
G01*
X112271279Y-129407979D01*
X112304433Y-129409958D01*
X112334469Y-129412930D01*
X112361744Y-129417020D01*
X112386616Y-129422347D01*
X112409443Y-129429033D01*
X112430583Y-129437198D01*
X112450394Y-129446963D01*
X112469233Y-129458450D01*
X112487459Y-129471779D01*
X112505429Y-129487070D01*
X112523501Y-129504445D01*
X112542033Y-129524025D01*
X112561383Y-129545932D01*
X112594545Y-129586215D01*
X112623767Y-129625641D01*
X112636916Y-129645171D01*
X112649098Y-129664650D01*
X112660318Y-129684139D01*
X112670583Y-129703688D01*
X112679899Y-129723355D01*
X112688271Y-129743195D01*
X112695706Y-129763263D01*
X112702209Y-129783613D01*
X112707787Y-129804303D01*
X112712444Y-129825387D01*
X112716188Y-129846919D01*
X112719023Y-129868957D01*
X112720957Y-129891554D01*
X112721994Y-129914767D01*
X112722141Y-129938650D01*
X112721404Y-129963259D01*
X112719788Y-129988650D01*
X112717300Y-130014878D01*
X112709729Y-130070062D01*
X112698739Y-130129257D01*
X112684378Y-130192905D01*
X112666692Y-130261448D01*
X112645727Y-130335329D01*
X112537403Y-130703165D01*
X112742179Y-131053587D01*
X112865133Y-131275220D01*
X112979612Y-131504612D01*
X113085518Y-131741297D01*
X113182752Y-131984802D01*
X113271214Y-132234663D01*
X113350804Y-132490410D01*
X113421424Y-132751576D01*
X113482974Y-133017691D01*
X113535355Y-133288289D01*
X113578467Y-133562899D01*
X113612211Y-133841055D01*
X113636487Y-134122288D01*
X113651196Y-134406130D01*
X113656239Y-134692112D01*
X113651516Y-134979766D01*
X113636928Y-135268625D01*
X113636928Y-135268636D01*
X113601241Y-135626276D01*
X113544687Y-135962829D01*
X113468458Y-136277061D01*
X113373743Y-136567733D01*
X113319826Y-136703849D01*
X113261733Y-136833612D01*
X113199614Y-136956868D01*
X113133619Y-137073462D01*
X113063894Y-137183241D01*
X112990590Y-137286047D01*
X112913855Y-137381729D01*
X112833838Y-137470131D01*
X112750688Y-137551099D01*
X112664554Y-137624479D01*
X112575583Y-137690114D01*
X112483926Y-137747854D01*
X112389731Y-137797541D01*
X112293146Y-137839021D01*
X112194321Y-137872141D01*
X112093405Y-137896745D01*
X111990545Y-137912679D01*
X111885892Y-137919789D01*
X111883864Y-137919753D01*
X111779594Y-137917920D01*
X111671799Y-137906918D01*
X111562656Y-137886629D01*
X111452315Y-137856896D01*
X111340924Y-137817567D01*
X111228632Y-137768488D01*
X111170617Y-137738342D01*
X111108582Y-137701778D01*
X111043231Y-137659423D01*
X110975270Y-137611900D01*
X110905406Y-137559841D01*
X110834345Y-137503867D01*
X110762791Y-137444609D01*
X110691451Y-137382692D01*
X110621031Y-137318743D01*
X110552236Y-137253389D01*
X110485773Y-137187256D01*
X110422347Y-137120971D01*
X110362664Y-137055161D01*
X110307431Y-136990452D01*
X110257351Y-136927472D01*
X110213133Y-136866846D01*
X110190422Y-136835519D01*
X110166318Y-136805273D01*
X110140406Y-136775819D01*
X110112267Y-136746866D01*
X110081489Y-136718123D01*
X110047655Y-136689300D01*
X110010350Y-136660104D01*
X109969157Y-136630246D01*
X109923662Y-136599434D01*
X109873448Y-136567377D01*
X109818100Y-136533787D01*
X109757203Y-136498369D01*
X109690341Y-136460835D01*
X109617097Y-136420892D01*
X109537057Y-136378251D01*
X109449805Y-136332620D01*
X109262200Y-136235980D01*
X109115183Y-136162581D01*
X109054998Y-136133958D01*
X109002682Y-136110383D01*
X108957477Y-136091597D01*
X108918624Y-136077347D01*
X108885362Y-136067377D01*
X108856934Y-136061433D01*
X108832579Y-136059260D01*
X108811538Y-136060601D01*
X108793052Y-136065203D01*
X108776364Y-136072812D01*
X108760712Y-136083171D01*
X108745338Y-136096025D01*
X108726349Y-136111661D01*
X108706645Y-136124864D01*
X108686244Y-136135651D01*
X108665164Y-136144035D01*
X108643424Y-136150028D01*
X108621043Y-136153645D01*
X108598038Y-136154899D01*
X108574428Y-136153804D01*
X108550232Y-136150372D01*
X108525468Y-136144619D01*
X108500155Y-136136556D01*
X108474311Y-136126198D01*
X108447955Y-136113559D01*
X108421104Y-136098651D01*
X108393778Y-136081489D01*
X108365995Y-136062085D01*
X108337774Y-136040453D01*
X108309133Y-136016609D01*
X108280090Y-135990564D01*
X108250664Y-135962331D01*
X108220873Y-135931925D01*
X108190736Y-135899359D01*
X108160272Y-135864647D01*
X108129499Y-135827802D01*
X108098435Y-135788837D01*
X108067098Y-135747767D01*
X108003683Y-135659364D01*
X107939401Y-135562700D01*
X107874399Y-135457884D01*
X107836311Y-135392331D01*
X107800779Y-135327174D01*
X107768579Y-135264122D01*
X107740489Y-135204890D01*
X107717288Y-135151188D01*
X107699753Y-135104731D01*
X107693354Y-135084753D01*
X107688662Y-135067229D01*
X107685776Y-135052372D01*
X107684792Y-135040397D01*
X107685000Y-135035000D01*
X107685617Y-135029289D01*
X107688035Y-135016983D01*
X107691966Y-135003606D01*
X107697328Y-134989286D01*
X107704039Y-134974152D01*
X107712020Y-134958330D01*
X107721188Y-134941949D01*
X107731460Y-134925138D01*
X107742757Y-134908025D01*
X107754996Y-134890736D01*
X107768096Y-134873402D01*
X107781976Y-134856149D01*
X107796554Y-134839106D01*
X107811748Y-134822400D01*
X107827478Y-134806162D01*
X107843662Y-134790518D01*
X107868788Y-134766754D01*
X107890944Y-134745042D01*
X107910236Y-134725071D01*
X107926768Y-134706539D01*
X107934031Y-134697716D01*
X107940642Y-134689138D01*
X107946616Y-134680767D01*
X107951965Y-134672564D01*
X107956701Y-134664491D01*
X107960839Y-134656509D01*
X107964391Y-134648581D01*
X107967369Y-134640669D01*
X107969788Y-134632733D01*
X107971660Y-134624736D01*
X107972998Y-134616639D01*
X107973815Y-134608405D01*
X107974125Y-134599995D01*
X107973939Y-134591370D01*
X107973271Y-134582493D01*
X107972135Y-134573325D01*
X107970544Y-134563828D01*
X107968509Y-134553964D01*
X107963164Y-134532981D01*
X107956204Y-134510071D01*
X107947735Y-134484926D01*
X107942056Y-134464662D01*
X107936348Y-134436625D01*
X107924993Y-134359232D01*
X107913970Y-134256753D01*
X107903580Y-134133193D01*
X107902855Y-134122408D01*
X108589046Y-134122408D01*
X108589198Y-134150577D01*
X108589784Y-134175401D01*
X108590993Y-134197054D01*
X108593019Y-134215710D01*
X108594398Y-134223968D01*
X108596053Y-134231541D01*
X108598007Y-134238452D01*
X108600285Y-134244722D01*
X108602911Y-134250373D01*
X108605909Y-134255427D01*
X108609302Y-134259905D01*
X108613114Y-134263829D01*
X108617371Y-134267221D01*
X108622094Y-134270101D01*
X108627309Y-134272493D01*
X108633039Y-134274419D01*
X108639309Y-134275897D01*
X108646143Y-134276954D01*
X108653562Y-134277608D01*
X108661593Y-134277882D01*
X108679585Y-134277375D01*
X108700309Y-134275608D01*
X108723956Y-134272754D01*
X108750718Y-134268988D01*
X108768069Y-134266904D01*
X108785385Y-134265735D01*
X108802633Y-134265456D01*
X108819780Y-134266039D01*
X108836791Y-134267463D01*
X108853632Y-134269703D01*
X108870270Y-134272735D01*
X108886671Y-134276534D01*
X108902800Y-134281076D01*
X108918625Y-134286336D01*
X108934110Y-134292291D01*
X108949222Y-134298916D01*
X108963928Y-134306187D01*
X108978192Y-134314079D01*
X108991982Y-134322569D01*
X109005264Y-134331630D01*
X109018003Y-134341240D01*
X109030166Y-134351375D01*
X109041719Y-134362009D01*
X109052628Y-134373118D01*
X109062859Y-134384679D01*
X109072378Y-134396666D01*
X109081151Y-134409056D01*
X109089145Y-134421825D01*
X109096325Y-134434947D01*
X109102658Y-134448398D01*
X109108110Y-134462155D01*
X109112646Y-134476193D01*
X109116233Y-134490487D01*
X109118837Y-134505013D01*
X109120425Y-134519748D01*
X109120960Y-134534666D01*
X109120648Y-134540143D01*
X109119720Y-134546179D01*
X109118190Y-134552752D01*
X109116076Y-134559840D01*
X109110153Y-134575475D01*
X109102074Y-134592905D01*
X109091961Y-134611957D01*
X109079938Y-134632453D01*
X109066126Y-134654217D01*
X109050649Y-134677073D01*
X109033628Y-134700845D01*
X109015188Y-134725356D01*
X108995450Y-134750434D01*
X108974539Y-134775898D01*
X108952575Y-134801574D01*
X108929682Y-134827285D01*
X108905982Y-134852856D01*
X108881599Y-134878111D01*
X108834043Y-134927678D01*
X108792077Y-134974403D01*
X108755637Y-135018598D01*
X108724660Y-135060578D01*
X108711202Y-135080835D01*
X108699086Y-135100656D01*
X108688304Y-135120079D01*
X108678849Y-135139145D01*
X108670714Y-135157892D01*
X108663889Y-135176360D01*
X108658368Y-135194587D01*
X108654143Y-135212613D01*
X108651205Y-135230478D01*
X108649547Y-135248220D01*
X108649160Y-135265878D01*
X108650039Y-135283492D01*
X108652174Y-135301102D01*
X108655557Y-135318746D01*
X108660182Y-135336462D01*
X108666039Y-135354290D01*
X108673121Y-135372273D01*
X108681420Y-135390445D01*
X108690929Y-135408847D01*
X108701640Y-135427519D01*
X108726635Y-135465828D01*
X108756342Y-135505686D01*
X108768143Y-135521334D01*
X108779961Y-135538254D01*
X108791720Y-135556284D01*
X108803344Y-135575264D01*
X108814757Y-135595034D01*
X108825883Y-135615432D01*
X108836646Y-135636300D01*
X108846970Y-135657475D01*
X108856779Y-135678798D01*
X108865996Y-135700108D01*
X108874547Y-135721245D01*
X108882354Y-135742048D01*
X108889342Y-135762358D01*
X108895434Y-135782011D01*
X108900556Y-135800849D01*
X108904630Y-135818712D01*
X108910860Y-135845706D01*
X108914475Y-135858474D01*
X108918524Y-135870834D01*
X108923079Y-135882843D01*
X108928220Y-135894558D01*
X108934020Y-135906037D01*
X108940553Y-135917338D01*
X108947895Y-135928517D01*
X108956123Y-135939634D01*
X108965310Y-135950746D01*
X108975531Y-135961908D01*
X108986863Y-135973181D01*
X108999380Y-135984620D01*
X109013157Y-135996285D01*
X109028269Y-136008232D01*
X109044793Y-136020519D01*
X109062802Y-136033203D01*
X109082373Y-136046344D01*
X109103581Y-136059995D01*
X109151203Y-136089069D01*
X109206274Y-136120884D01*
X109269393Y-136155903D01*
X109341163Y-136194585D01*
X109422185Y-136237392D01*
X109513061Y-136284784D01*
X109676834Y-136371316D01*
X109813118Y-136447262D01*
X109872400Y-136482325D01*
X109926550Y-136516015D01*
X109976146Y-136548756D01*
X110021769Y-136580973D01*
X110063996Y-136613090D01*
X110103410Y-136645532D01*
X110140589Y-136678723D01*
X110176113Y-136713087D01*
X110210563Y-136749052D01*
X110244517Y-136787039D01*
X110278556Y-136827473D01*
X110313258Y-136870779D01*
X110394492Y-136971226D01*
X110476271Y-137066313D01*
X110558528Y-137156028D01*
X110641194Y-137240357D01*
X110724202Y-137319286D01*
X110807482Y-137392804D01*
X110890968Y-137460896D01*
X110974588Y-137523549D01*
X111058277Y-137580750D01*
X111141965Y-137632485D01*
X111225585Y-137678742D01*
X111309067Y-137719507D01*
X111392344Y-137754767D01*
X111475347Y-137784509D01*
X111558008Y-137808719D01*
X111640259Y-137827385D01*
X111722030Y-137840492D01*
X111803255Y-137848028D01*
X111883864Y-137849980D01*
X111963790Y-137846334D01*
X112042963Y-137837078D01*
X112121316Y-137822197D01*
X112198781Y-137801678D01*
X112275287Y-137775509D01*
X112350770Y-137743677D01*
X112425158Y-137706167D01*
X112498384Y-137662966D01*
X112570380Y-137614062D01*
X112641077Y-137559442D01*
X112710407Y-137499091D01*
X112778301Y-137432997D01*
X112844693Y-137361146D01*
X112884675Y-137312074D01*
X112927296Y-137253399D01*
X112971752Y-137186750D01*
X113017240Y-137113753D01*
X113062956Y-137036035D01*
X113108099Y-136955224D01*
X113193451Y-136790831D01*
X113232052Y-136710502D01*
X113266867Y-136633589D01*
X113297091Y-136561718D01*
X113321922Y-136496518D01*
X113340556Y-136439612D01*
X113352191Y-136392630D01*
X113356022Y-136357200D01*
X113354761Y-136344325D01*
X113351248Y-136334947D01*
X113349378Y-136332091D01*
X113347323Y-136329270D01*
X113345091Y-136326490D01*
X113342690Y-136323753D01*
X113340126Y-136321063D01*
X113337407Y-136318423D01*
X113331535Y-136313309D01*
X113325131Y-136308441D01*
X113318254Y-136303846D01*
X113313446Y-136301015D01*
X113310963Y-136299553D01*
X113303319Y-136295591D01*
X113295378Y-136291988D01*
X113287200Y-136288772D01*
X113278843Y-136285973D01*
X113270367Y-136283619D01*
X113261831Y-136281738D01*
X113253293Y-136280360D01*
X113244812Y-136279511D01*
X113240613Y-136279295D01*
X113236449Y-136279222D01*
X113213936Y-136277787D01*
X113189989Y-136273556D01*
X113164720Y-136266644D01*
X113138243Y-136257164D01*
X113110673Y-136245230D01*
X113082122Y-136230956D01*
X113022535Y-136195844D01*
X112960392Y-136152738D01*
X112896605Y-136102549D01*
X112832083Y-136046187D01*
X112767739Y-135984562D01*
X112704481Y-135918586D01*
X112643222Y-135849169D01*
X112584871Y-135777222D01*
X112530339Y-135703655D01*
X112480537Y-135629379D01*
X112436373Y-135555304D01*
X112398763Y-135482343D01*
X112382699Y-135446562D01*
X112368613Y-135411402D01*
X112354959Y-135372596D01*
X112343204Y-135334142D01*
X112333323Y-135296097D01*
X112325285Y-135258519D01*
X112319067Y-135221464D01*
X112314637Y-135184992D01*
X112311972Y-135149160D01*
X112311042Y-135114026D01*
X112311291Y-135103041D01*
X112426312Y-135103041D01*
X112426950Y-135137516D01*
X112429162Y-135172698D01*
X112432971Y-135208506D01*
X112438396Y-135244860D01*
X112445459Y-135281683D01*
X112454181Y-135318891D01*
X112464582Y-135356407D01*
X112476684Y-135394151D01*
X112490508Y-135432043D01*
X112506074Y-135470003D01*
X112523403Y-135507952D01*
X112547421Y-135556559D01*
X112571519Y-135602451D01*
X112595896Y-135645858D01*
X112620758Y-135687013D01*
X112646305Y-135726147D01*
X112672738Y-135763490D01*
X112700260Y-135799276D01*
X112729073Y-135833733D01*
X112759378Y-135867097D01*
X112791377Y-135899596D01*
X112825272Y-135931464D01*
X112861265Y-135962931D01*
X112899558Y-135994231D01*
X112940352Y-136025590D01*
X112983849Y-136057245D01*
X113030251Y-136089426D01*
X113088653Y-136128226D01*
X113141006Y-136160899D01*
X113187746Y-136187204D01*
X113209148Y-136197893D01*
X113229310Y-136206900D01*
X113248288Y-136214195D01*
X113266136Y-136219748D01*
X113282910Y-136223529D01*
X113298661Y-136225508D01*
X113313446Y-136225654D01*
X113327321Y-136223938D01*
X113340338Y-136220332D01*
X113352553Y-136214801D01*
X113364020Y-136207318D01*
X113374796Y-136197853D01*
X113384933Y-136186376D01*
X113394486Y-136172857D01*
X113403509Y-136157265D01*
X113412059Y-136139571D01*
X113420190Y-136119745D01*
X113427954Y-136097756D01*
X113435408Y-136073574D01*
X113442606Y-136047170D01*
X113456454Y-135987575D01*
X113469934Y-135918730D01*
X113483485Y-135840395D01*
X113509528Y-135686462D01*
X113533371Y-135552413D01*
X113552376Y-135452648D01*
X113559239Y-135420120D01*
X113563902Y-135401563D01*
X113571412Y-135375335D01*
X113577000Y-135350197D01*
X113579050Y-135337983D01*
X113580597Y-135325978D01*
X113581629Y-135314158D01*
X113582140Y-135302502D01*
X113582120Y-135290990D01*
X113581560Y-135279598D01*
X113580455Y-135268306D01*
X113578794Y-135257092D01*
X113576569Y-135245933D01*
X113573772Y-135234810D01*
X113570396Y-135223699D01*
X113566431Y-135212579D01*
X113561869Y-135201427D01*
X113556701Y-135190225D01*
X113550921Y-135178948D01*
X113544518Y-135167575D01*
X113529816Y-135144457D01*
X113512526Y-135120696D01*
X113492585Y-135096120D01*
X113469923Y-135070554D01*
X113444476Y-135043825D01*
X113416177Y-135015760D01*
X113380238Y-134982702D01*
X113341635Y-134950388D01*
X113300758Y-134919011D01*
X113257995Y-134888763D01*
X113213739Y-134859835D01*
X113168377Y-134832418D01*
X113122300Y-134806704D01*
X113075896Y-134782884D01*
X113029556Y-134761150D01*
X112983669Y-134741692D01*
X112938626Y-134724703D01*
X112894815Y-134710374D01*
X112852627Y-134698895D01*
X112812451Y-134690459D01*
X112774677Y-134685257D01*
X112739694Y-134683481D01*
X112712090Y-134684699D01*
X112685621Y-134688297D01*
X112660310Y-134694196D01*
X112636175Y-134702320D01*
X112613239Y-134712583D01*
X112591522Y-134724910D01*
X112571045Y-134739219D01*
X112551830Y-134755430D01*
X112533896Y-134773465D01*
X112517266Y-134793243D01*
X112501959Y-134814685D01*
X112487999Y-134837710D01*
X112475402Y-134862239D01*
X112464192Y-134888192D01*
X112454391Y-134915490D01*
X112446017Y-134944053D01*
X112439094Y-134973799D01*
X112433641Y-135004651D01*
X112429678Y-135036529D01*
X112427229Y-135069352D01*
X112426312Y-135103041D01*
X112311291Y-135103041D01*
X112311821Y-135079647D01*
X112314282Y-135046081D01*
X112318394Y-135013386D01*
X112324134Y-134981620D01*
X112331473Y-134950840D01*
X112340384Y-134921105D01*
X112350840Y-134892471D01*
X112362812Y-134864998D01*
X112376274Y-134838742D01*
X112391199Y-134813761D01*
X112407558Y-134790113D01*
X112425326Y-134767856D01*
X112444473Y-134747048D01*
X112464974Y-134727746D01*
X112486799Y-134710008D01*
X112509924Y-134693892D01*
X112534320Y-134679456D01*
X112559959Y-134666757D01*
X112586815Y-134655854D01*
X112614859Y-134646803D01*
X112644065Y-134639663D01*
X112674405Y-134634492D01*
X112705852Y-134631346D01*
X112738379Y-134630285D01*
X112788069Y-134631048D01*
X112835278Y-134633418D01*
X112880308Y-134637522D01*
X112923462Y-134643485D01*
X112965044Y-134651431D01*
X113005356Y-134661483D01*
X113044700Y-134673771D01*
X113083380Y-134688417D01*
X113121699Y-134705545D01*
X113159960Y-134725282D01*
X113198465Y-134747751D01*
X113237517Y-134773078D01*
X113277420Y-134801390D01*
X113318475Y-134832808D01*
X113360986Y-134867460D01*
X113405257Y-134905470D01*
X113605628Y-135081396D01*
X113572674Y-134310629D01*
X113563715Y-134138138D01*
X113551692Y-133964565D01*
X113536970Y-133793174D01*
X113519911Y-133627221D01*
X113500879Y-133469965D01*
X113480239Y-133324668D01*
X113458355Y-133194586D01*
X113435590Y-133082980D01*
X113435591Y-133082982D01*
X113435591Y-133082984D01*
X113435592Y-133082984D01*
X113435592Y-133082985D01*
X113435592Y-133082986D01*
X113435593Y-133082987D01*
X113435594Y-133082988D01*
X113435594Y-133082989D01*
X113435595Y-133082990D01*
X113395429Y-132916597D01*
X113350185Y-132746797D01*
X113246919Y-132403009D01*
X113130716Y-132063689D01*
X113006491Y-131740896D01*
X112879164Y-131446690D01*
X112815872Y-131314077D01*
X112753649Y-131193133D01*
X112693109Y-131085367D01*
X112634865Y-130992285D01*
X112579534Y-130915396D01*
X112527729Y-130856207D01*
X112510177Y-130838499D01*
X112494968Y-130822471D01*
X112488242Y-130814926D01*
X112482103Y-130807608D01*
X112476549Y-130800451D01*
X112471583Y-130793389D01*
X112467203Y-130786362D01*
X112463411Y-130779300D01*
X112460205Y-130772142D01*
X112457588Y-130764820D01*
X112455557Y-130757269D01*
X112454115Y-130749428D01*
X112453261Y-130741230D01*
X112452995Y-130732610D01*
X112453318Y-130723504D01*
X112454229Y-130713846D01*
X112455730Y-130703573D01*
X112457819Y-130692618D01*
X112460498Y-130680919D01*
X112463766Y-130668409D01*
X112467624Y-130655024D01*
X112472072Y-130640698D01*
X112477110Y-130625368D01*
X112482738Y-130608969D01*
X112495768Y-130572703D01*
X112511162Y-130531382D01*
X112528920Y-130484487D01*
X112539381Y-130455603D01*
X112549547Y-130424867D01*
X112568789Y-130358928D01*
X112586226Y-130288849D01*
X112601438Y-130216815D01*
X112614003Y-130145005D01*
X112623498Y-130075600D01*
X112626964Y-130042481D01*
X112629505Y-130010781D01*
X112631068Y-129980773D01*
X112631601Y-129952730D01*
X112630717Y-129910946D01*
X112628056Y-129871114D01*
X112623602Y-129833230D01*
X112617340Y-129797285D01*
X112609254Y-129763275D01*
X112599329Y-129731192D01*
X112587550Y-129701031D01*
X112573902Y-129672785D01*
X112558367Y-129646447D01*
X112540933Y-129622013D01*
X112521583Y-129599476D01*
X112500301Y-129578828D01*
X112477073Y-129560065D01*
X112451882Y-129543180D01*
X112424716Y-129528168D01*
X112395556Y-129515019D01*
X112364387Y-129503730D01*
X112331196Y-129494294D01*
X112295965Y-129486705D01*
X112258680Y-129480957D01*
X112219326Y-129477042D01*
X112177886Y-129474956D01*
X112134347Y-129474692D01*
X112088691Y-129476244D01*
X112040904Y-129479604D01*
X111990971Y-129484768D01*
X111938876Y-129491729D01*
X111884604Y-129500482D01*
X111828139Y-129511017D01*
X111769467Y-129523331D01*
X111708570Y-129537418D01*
X111645436Y-129553270D01*
X111576511Y-129572457D01*
X111507845Y-129593970D01*
X111439883Y-129617564D01*
X111373069Y-129642998D01*
X111307847Y-129670028D01*
X111244666Y-129698410D01*
X111183966Y-129727902D01*
X111126197Y-129758259D01*
X111071799Y-129789238D01*
X111021220Y-129820597D01*
X110974904Y-129852090D01*
X110933296Y-129883478D01*
X110896842Y-129914514D01*
X110865985Y-129944956D01*
X110841172Y-129974560D01*
X110822847Y-130003084D01*
X110817151Y-130015085D01*
X110812424Y-130027962D01*
X110808652Y-130041688D01*
X110805829Y-130056234D01*
X110803942Y-130071571D01*
X110802982Y-130087672D01*
X110802938Y-130104508D01*
X110803800Y-130122051D01*
X110805557Y-130140272D01*
X110808200Y-130159144D01*
X110816101Y-130198724D01*
X110827417Y-130240564D01*
X110842070Y-130284438D01*
X110859975Y-130330119D01*
X110881051Y-130377382D01*
X110905214Y-130425997D01*
X110932384Y-130475740D01*
X110962476Y-130526383D01*
X110995409Y-130577701D01*
X111031100Y-130629466D01*
X111069468Y-130681452D01*
X111096548Y-130717700D01*
X111121075Y-130751991D01*
X111142564Y-130783537D01*
X111160531Y-130811558D01*
X111174493Y-130835267D01*
X111179821Y-130845260D01*
X111183965Y-130853880D01*
X111186866Y-130861031D01*
X111188463Y-130866615D01*
X111188696Y-130870530D01*
X111188281Y-130871833D01*
X111187503Y-130872682D01*
X111183669Y-130874395D01*
X111176153Y-130877015D01*
X111150874Y-130884761D01*
X111113269Y-130895487D01*
X111064943Y-130908759D01*
X110942539Y-130941207D01*
X110796495Y-130978628D01*
X110696667Y-131005541D01*
X110594824Y-131036284D01*
X110491821Y-131070441D01*
X110388516Y-131107601D01*
X110285764Y-131147347D01*
X110184422Y-131189264D01*
X110085345Y-131232938D01*
X109989392Y-131277956D01*
X109897417Y-131323902D01*
X109810279Y-131370361D01*
X109728832Y-131416919D01*
X109653934Y-131463163D01*
X109586440Y-131508676D01*
X109527210Y-131553044D01*
X109477096Y-131595854D01*
X109436957Y-131636690D01*
X109405535Y-131673256D01*
X109376221Y-131708874D01*
X109349657Y-131742658D01*
X109326484Y-131773720D01*
X109307344Y-131801172D01*
X109299487Y-131813268D01*
X109292878Y-131824128D01*
X109287599Y-131833643D01*
X109283728Y-131841701D01*
X109281347Y-131848191D01*
X109280536Y-131853002D01*
X109280223Y-131855293D01*
X109279294Y-131858222D01*
X109275651Y-131865911D01*
X109269728Y-131875920D01*
X109261649Y-131888096D01*
X109251536Y-131902288D01*
X109239513Y-131918344D01*
X109225701Y-131936115D01*
X109210223Y-131955447D01*
X109174763Y-131998193D01*
X109134114Y-132045370D01*
X109089257Y-132095770D01*
X109041174Y-132148180D01*
X109013208Y-132178775D01*
X108986849Y-132208765D01*
X108962124Y-132238108D01*
X108939062Y-132266757D01*
X108917689Y-132294669D01*
X108898030Y-132321799D01*
X108880116Y-132348102D01*
X108863971Y-132373534D01*
X108849625Y-132398051D01*
X108837103Y-132421608D01*
X108826434Y-132444160D01*
X108817641Y-132465663D01*
X108810757Y-132486072D01*
X108805806Y-132505343D01*
X108802815Y-132523431D01*
X108801812Y-132540293D01*
X108802916Y-132555707D01*
X108806154Y-132573933D01*
X108811420Y-132594738D01*
X108818601Y-132617888D01*
X108827590Y-132643152D01*
X108838278Y-132670297D01*
X108850555Y-132699090D01*
X108864313Y-132729297D01*
X108879441Y-132760688D01*
X108895833Y-132793029D01*
X108913377Y-132826088D01*
X108931965Y-132859632D01*
X108951489Y-132893428D01*
X108971837Y-132927244D01*
X108992903Y-132960847D01*
X109014578Y-132994005D01*
X109057317Y-133059888D01*
X109097191Y-133124984D01*
X109133324Y-133187609D01*
X109164844Y-133246077D01*
X109190878Y-133298706D01*
X109201566Y-133322303D01*
X109210555Y-133343809D01*
X109217737Y-133363012D01*
X109223001Y-133379703D01*
X109226240Y-133393670D01*
X109227344Y-133404703D01*
X109226797Y-133419436D01*
X109225177Y-133433949D01*
X109222518Y-133448222D01*
X109218850Y-133462234D01*
X109214203Y-133475964D01*
X109208611Y-133489390D01*
X109202106Y-133502493D01*
X109194718Y-133515251D01*
X109186480Y-133527643D01*
X109177423Y-133539648D01*
X109167579Y-133551245D01*
X109156979Y-133562414D01*
X109145656Y-133573133D01*
X109133641Y-133583380D01*
X109120966Y-133593139D01*
X109107662Y-133602383D01*
X109093761Y-133611095D01*
X109079296Y-133619252D01*
X109064296Y-133626834D01*
X109048795Y-133633820D01*
X109032824Y-133640189D01*
X109016415Y-133645921D01*
X108999599Y-133650993D01*
X108982409Y-133655385D01*
X108964875Y-133659077D01*
X108947029Y-133662047D01*
X108928904Y-133664275D01*
X108910530Y-133665739D01*
X108891941Y-133666419D01*
X108873166Y-133666293D01*
X108854239Y-133665341D01*
X108835190Y-133663542D01*
X108805468Y-133660269D01*
X108778991Y-133657878D01*
X108755527Y-133656512D01*
X108734847Y-133656316D01*
X108725479Y-133656699D01*
X108716720Y-133657428D01*
X108708543Y-133658521D01*
X108700917Y-133659995D01*
X108693815Y-133661869D01*
X108687208Y-133664160D01*
X108681066Y-133666885D01*
X108675361Y-133670063D01*
X108670065Y-133673712D01*
X108665148Y-133677851D01*
X108660582Y-133682493D01*
X108656338Y-133687661D01*
X108652387Y-133693372D01*
X108648700Y-133699641D01*
X108645249Y-133706490D01*
X108642005Y-133713933D01*
X108636023Y-133730679D01*
X108630523Y-133750022D01*
X108625276Y-133772105D01*
X108620051Y-133797071D01*
X108613823Y-133831689D01*
X108608012Y-133870705D01*
X108602747Y-133912783D01*
X108598154Y-133956589D01*
X108594360Y-134000790D01*
X108591492Y-134044049D01*
X108589679Y-134085033D01*
X108589046Y-134122408D01*
X107902855Y-134122408D01*
X107894125Y-133992559D01*
X107885904Y-133838855D01*
X107879219Y-133676089D01*
X107874370Y-133508264D01*
X107864063Y-133170123D01*
X107849724Y-132855218D01*
X107833250Y-132598737D01*
X107824808Y-132503402D01*
X107816542Y-132435869D01*
X107777280Y-132182947D01*
X108375398Y-131594545D01*
X108628998Y-131349195D01*
X108877345Y-131116128D01*
X108990638Y-131012429D01*
X109091928Y-130921671D01*
X109177650Y-130847150D01*
X109244241Y-130792154D01*
X109307845Y-130743660D01*
X109376410Y-130694682D01*
X109449246Y-130645579D01*
X109525659Y-130596708D01*
X109604959Y-130548427D01*
X109686454Y-130501092D01*
X109769451Y-130455063D01*
X109853260Y-130410696D01*
X109937188Y-130368349D01*
X110020545Y-130328380D01*
X110102638Y-130291145D01*
X110182774Y-130257003D01*
X110260263Y-130226312D01*
X110334414Y-130199428D01*
X110404534Y-130176710D01*
X110469931Y-130158514D01*
X110497407Y-130151205D01*
X110523795Y-130143405D01*
X110549029Y-130135148D01*
X110573047Y-130126472D01*
X110595787Y-130117413D01*
X110617181Y-130108006D01*
X110637170Y-130098289D01*
X110655687Y-130088297D01*
X110672670Y-130078067D01*
X110688055Y-130067635D01*
X110701778Y-130057037D01*
X110713775Y-130046309D01*
X110723984Y-130035488D01*
X110732339Y-130024610D01*
X110738779Y-130013712D01*
X110743238Y-130002828D01*
X110752843Y-129978813D01*
X110766444Y-129954391D01*
X110783860Y-129929639D01*
X110804915Y-129904631D01*
X110829429Y-129879444D01*
X110857227Y-129854152D01*
X110888129Y-129828830D01*
X110921959Y-129803556D01*
X110997686Y-129753446D01*
X111082986Y-129704427D01*
X111176438Y-129657099D01*
X111276617Y-129612067D01*
X111382102Y-129569934D01*
X111491470Y-129531303D01*
X111603295Y-129496776D01*
X111716159Y-129466955D01*
X111828637Y-129442447D01*
X111939306Y-129423851D01*
X112046745Y-129411772D01*
X112098807Y-129408365D01*
X112149529Y-129406812D01*
X112194185Y-129406528D01*
X112234649Y-129406877D01*
G37*
D11*
X104872475Y-137847544D02*
X104348665Y-137847544D01*
X104348665Y-137847544D02*
X104253427Y-137895163D01*
X104253427Y-137895163D02*
X104205808Y-137990401D01*
X104205808Y-137990401D02*
X104205808Y-138180877D01*
X104205808Y-138180877D02*
X104253427Y-138276115D01*
X104824856Y-137847544D02*
X104872475Y-137942782D01*
X104872475Y-137942782D02*
X104872475Y-138180877D01*
X104872475Y-138180877D02*
X104824856Y-138276115D01*
X104824856Y-138276115D02*
X104729617Y-138323734D01*
X104729617Y-138323734D02*
X104634379Y-138323734D01*
X104634379Y-138323734D02*
X104539141Y-138276115D01*
X104539141Y-138276115D02*
X104491522Y-138180877D01*
X104491522Y-138180877D02*
X104491522Y-137942782D01*
X104491522Y-137942782D02*
X104443903Y-137847544D01*
X104205808Y-136942782D02*
X104872475Y-136942782D01*
X104205808Y-137371353D02*
X104729617Y-137371353D01*
X104729617Y-137371353D02*
X104824856Y-137323734D01*
X104824856Y-137323734D02*
X104872475Y-137228496D01*
X104872475Y-137228496D02*
X104872475Y-137085639D01*
X104872475Y-137085639D02*
X104824856Y-136990401D01*
X104824856Y-136990401D02*
X104777236Y-136942782D01*
X104872475Y-136038020D02*
X103872475Y-136038020D01*
X104824856Y-136038020D02*
X104872475Y-136133258D01*
X104872475Y-136133258D02*
X104872475Y-136323734D01*
X104872475Y-136323734D02*
X104824856Y-136418972D01*
X104824856Y-136418972D02*
X104777236Y-136466591D01*
X104777236Y-136466591D02*
X104681998Y-136514210D01*
X104681998Y-136514210D02*
X104396284Y-136514210D01*
X104396284Y-136514210D02*
X104301046Y-136466591D01*
X104301046Y-136466591D02*
X104253427Y-136418972D01*
X104253427Y-136418972D02*
X104205808Y-136323734D01*
X104205808Y-136323734D02*
X104205808Y-136133258D01*
X104205808Y-136133258D02*
X104253427Y-136038020D01*
X104872475Y-135561829D02*
X104205808Y-135561829D01*
X103872475Y-135561829D02*
X103920094Y-135609448D01*
X103920094Y-135609448D02*
X103967713Y-135561829D01*
X103967713Y-135561829D02*
X103920094Y-135514210D01*
X103920094Y-135514210D02*
X103872475Y-135561829D01*
X103872475Y-135561829D02*
X103967713Y-135561829D01*
X104872475Y-134942782D02*
X104824856Y-135038020D01*
X104824856Y-135038020D02*
X104777236Y-135085639D01*
X104777236Y-135085639D02*
X104681998Y-135133258D01*
X104681998Y-135133258D02*
X104396284Y-135133258D01*
X104396284Y-135133258D02*
X104301046Y-135085639D01*
X104301046Y-135085639D02*
X104253427Y-135038020D01*
X104253427Y-135038020D02*
X104205808Y-134942782D01*
X104205808Y-134942782D02*
X104205808Y-134799925D01*
X104205808Y-134799925D02*
X104253427Y-134704687D01*
X104253427Y-134704687D02*
X104301046Y-134657068D01*
X104301046Y-134657068D02*
X104396284Y-134609449D01*
X104396284Y-134609449D02*
X104681998Y-134609449D01*
X104681998Y-134609449D02*
X104777236Y-134657068D01*
X104777236Y-134657068D02*
X104824856Y-134704687D01*
X104824856Y-134704687D02*
X104872475Y-134799925D01*
X104872475Y-134799925D02*
X104872475Y-134942782D01*
X104967713Y-134418973D02*
X104967713Y-133657068D01*
X104205808Y-133418972D02*
X105205808Y-133418972D01*
X104253427Y-133418972D02*
X104205808Y-133323734D01*
X104205808Y-133323734D02*
X104205808Y-133133258D01*
X104205808Y-133133258D02*
X104253427Y-133038020D01*
X104253427Y-133038020D02*
X104301046Y-132990401D01*
X104301046Y-132990401D02*
X104396284Y-132942782D01*
X104396284Y-132942782D02*
X104681998Y-132942782D01*
X104681998Y-132942782D02*
X104777236Y-132990401D01*
X104777236Y-132990401D02*
X104824856Y-133038020D01*
X104824856Y-133038020D02*
X104872475Y-133133258D01*
X104872475Y-133133258D02*
X104872475Y-133323734D01*
X104872475Y-133323734D02*
X104824856Y-133418972D01*
X104872475Y-132371353D02*
X104824856Y-132466591D01*
X104824856Y-132466591D02*
X104729617Y-132514210D01*
X104729617Y-132514210D02*
X103872475Y-132514210D01*
X104872475Y-131561829D02*
X104348665Y-131561829D01*
X104348665Y-131561829D02*
X104253427Y-131609448D01*
X104253427Y-131609448D02*
X104205808Y-131704686D01*
X104205808Y-131704686D02*
X104205808Y-131895162D01*
X104205808Y-131895162D02*
X104253427Y-131990400D01*
X104824856Y-131561829D02*
X104872475Y-131657067D01*
X104872475Y-131657067D02*
X104872475Y-131895162D01*
X104872475Y-131895162D02*
X104824856Y-131990400D01*
X104824856Y-131990400D02*
X104729617Y-132038019D01*
X104729617Y-132038019D02*
X104634379Y-132038019D01*
X104634379Y-132038019D02*
X104539141Y-131990400D01*
X104539141Y-131990400D02*
X104491522Y-131895162D01*
X104491522Y-131895162D02*
X104491522Y-131657067D01*
X104491522Y-131657067D02*
X104443903Y-131561829D01*
X104205808Y-131180876D02*
X104872475Y-130942781D01*
X104205808Y-130704686D02*
X104872475Y-130942781D01*
X104872475Y-130942781D02*
X105110570Y-131038019D01*
X105110570Y-131038019D02*
X105158189Y-131085638D01*
X105158189Y-131085638D02*
X105205808Y-131180876D01*
X104824856Y-129942781D02*
X104872475Y-130038019D01*
X104872475Y-130038019D02*
X104872475Y-130228495D01*
X104872475Y-130228495D02*
X104824856Y-130323733D01*
X104824856Y-130323733D02*
X104729617Y-130371352D01*
X104729617Y-130371352D02*
X104348665Y-130371352D01*
X104348665Y-130371352D02*
X104253427Y-130323733D01*
X104253427Y-130323733D02*
X104205808Y-130228495D01*
X104205808Y-130228495D02*
X104205808Y-130038019D01*
X104205808Y-130038019D02*
X104253427Y-129942781D01*
X104253427Y-129942781D02*
X104348665Y-129895162D01*
X104348665Y-129895162D02*
X104443903Y-129895162D01*
X104443903Y-129895162D02*
X104539141Y-130371352D01*
X104872475Y-129466590D02*
X104205808Y-129466590D01*
X104396284Y-129466590D02*
X104301046Y-129418971D01*
X104301046Y-129418971D02*
X104253427Y-129371352D01*
X104253427Y-129371352D02*
X104205808Y-129276114D01*
X104205808Y-129276114D02*
X104205808Y-129180876D01*
X104967713Y-129085638D02*
X104967713Y-128323733D01*
X104205808Y-128228494D02*
X104205808Y-127847542D01*
X103872475Y-128085637D02*
X104729617Y-128085637D01*
X104729617Y-128085637D02*
X104824856Y-128038018D01*
X104824856Y-128038018D02*
X104872475Y-127942780D01*
X104872475Y-127942780D02*
X104872475Y-127847542D01*
X104872475Y-127371351D02*
X104824856Y-127466589D01*
X104824856Y-127466589D02*
X104777236Y-127514208D01*
X104777236Y-127514208D02*
X104681998Y-127561827D01*
X104681998Y-127561827D02*
X104396284Y-127561827D01*
X104396284Y-127561827D02*
X104301046Y-127514208D01*
X104301046Y-127514208D02*
X104253427Y-127466589D01*
X104253427Y-127466589D02*
X104205808Y-127371351D01*
X104205808Y-127371351D02*
X104205808Y-127228494D01*
X104205808Y-127228494D02*
X104253427Y-127133256D01*
X104253427Y-127133256D02*
X104301046Y-127085637D01*
X104301046Y-127085637D02*
X104396284Y-127038018D01*
X104396284Y-127038018D02*
X104681998Y-127038018D01*
X104681998Y-127038018D02*
X104777236Y-127085637D01*
X104777236Y-127085637D02*
X104824856Y-127133256D01*
X104824856Y-127133256D02*
X104872475Y-127228494D01*
X104872475Y-127228494D02*
X104872475Y-127371351D01*
X104205808Y-126704684D02*
X104872475Y-126466589D01*
X104205808Y-126228494D02*
X104872475Y-126466589D01*
X104872475Y-126466589D02*
X105110570Y-126561827D01*
X105110570Y-126561827D02*
X105158189Y-126609446D01*
X105158189Y-126609446D02*
X105205808Y-126704684D01*
X104967713Y-126085637D02*
X104967713Y-125323732D01*
X104205808Y-125180874D02*
X104872475Y-124942779D01*
X104872475Y-124942779D02*
X104205808Y-124704684D01*
X104872475Y-123799922D02*
X104872475Y-124371350D01*
X104872475Y-124085636D02*
X103872475Y-124085636D01*
X103872475Y-124085636D02*
X104015332Y-124180874D01*
X104015332Y-124180874D02*
X104110570Y-124276112D01*
X104110570Y-124276112D02*
X104158189Y-124371350D01*
X105577657Y-138323734D02*
X105530038Y-138276115D01*
X105530038Y-138276115D02*
X105482419Y-138180877D01*
X105482419Y-138180877D02*
X105482419Y-137942782D01*
X105482419Y-137942782D02*
X105530038Y-137847544D01*
X105530038Y-137847544D02*
X105577657Y-137799925D01*
X105577657Y-137799925D02*
X105672895Y-137752306D01*
X105672895Y-137752306D02*
X105768133Y-137752306D01*
X105768133Y-137752306D02*
X105910990Y-137799925D01*
X105910990Y-137799925D02*
X106482419Y-138371353D01*
X106482419Y-138371353D02*
X106482419Y-137752306D01*
X105482419Y-137133258D02*
X105482419Y-137038020D01*
X105482419Y-137038020D02*
X105530038Y-136942782D01*
X105530038Y-136942782D02*
X105577657Y-136895163D01*
X105577657Y-136895163D02*
X105672895Y-136847544D01*
X105672895Y-136847544D02*
X105863371Y-136799925D01*
X105863371Y-136799925D02*
X106101466Y-136799925D01*
X106101466Y-136799925D02*
X106291942Y-136847544D01*
X106291942Y-136847544D02*
X106387180Y-136895163D01*
X106387180Y-136895163D02*
X106434800Y-136942782D01*
X106434800Y-136942782D02*
X106482419Y-137038020D01*
X106482419Y-137038020D02*
X106482419Y-137133258D01*
X106482419Y-137133258D02*
X106434800Y-137228496D01*
X106434800Y-137228496D02*
X106387180Y-137276115D01*
X106387180Y-137276115D02*
X106291942Y-137323734D01*
X106291942Y-137323734D02*
X106101466Y-137371353D01*
X106101466Y-137371353D02*
X105863371Y-137371353D01*
X105863371Y-137371353D02*
X105672895Y-137323734D01*
X105672895Y-137323734D02*
X105577657Y-137276115D01*
X105577657Y-137276115D02*
X105530038Y-137228496D01*
X105530038Y-137228496D02*
X105482419Y-137133258D01*
X105577657Y-136418972D02*
X105530038Y-136371353D01*
X105530038Y-136371353D02*
X105482419Y-136276115D01*
X105482419Y-136276115D02*
X105482419Y-136038020D01*
X105482419Y-136038020D02*
X105530038Y-135942782D01*
X105530038Y-135942782D02*
X105577657Y-135895163D01*
X105577657Y-135895163D02*
X105672895Y-135847544D01*
X105672895Y-135847544D02*
X105768133Y-135847544D01*
X105768133Y-135847544D02*
X105910990Y-135895163D01*
X105910990Y-135895163D02*
X106482419Y-136466591D01*
X106482419Y-136466591D02*
X106482419Y-135847544D01*
X105482419Y-134990401D02*
X105482419Y-135180877D01*
X105482419Y-135180877D02*
X105530038Y-135276115D01*
X105530038Y-135276115D02*
X105577657Y-135323734D01*
X105577657Y-135323734D02*
X105720514Y-135418972D01*
X105720514Y-135418972D02*
X105910990Y-135466591D01*
X105910990Y-135466591D02*
X106291942Y-135466591D01*
X106291942Y-135466591D02*
X106387180Y-135418972D01*
X106387180Y-135418972D02*
X106434800Y-135371353D01*
X106434800Y-135371353D02*
X106482419Y-135276115D01*
X106482419Y-135276115D02*
X106482419Y-135085639D01*
X106482419Y-135085639D02*
X106434800Y-134990401D01*
X106434800Y-134990401D02*
X106387180Y-134942782D01*
X106387180Y-134942782D02*
X106291942Y-134895163D01*
X106291942Y-134895163D02*
X106053847Y-134895163D01*
X106053847Y-134895163D02*
X105958609Y-134942782D01*
X105958609Y-134942782D02*
X105910990Y-134990401D01*
X105910990Y-134990401D02*
X105863371Y-135085639D01*
X105863371Y-135085639D02*
X105863371Y-135276115D01*
X105863371Y-135276115D02*
X105910990Y-135371353D01*
X105910990Y-135371353D02*
X105958609Y-135418972D01*
X105958609Y-135418972D02*
X106053847Y-135466591D01*
X106101466Y-134466591D02*
X106101466Y-133704687D01*
X105482419Y-133038020D02*
X105482419Y-132942782D01*
X105482419Y-132942782D02*
X105530038Y-132847544D01*
X105530038Y-132847544D02*
X105577657Y-132799925D01*
X105577657Y-132799925D02*
X105672895Y-132752306D01*
X105672895Y-132752306D02*
X105863371Y-132704687D01*
X105863371Y-132704687D02*
X106101466Y-132704687D01*
X106101466Y-132704687D02*
X106291942Y-132752306D01*
X106291942Y-132752306D02*
X106387180Y-132799925D01*
X106387180Y-132799925D02*
X106434800Y-132847544D01*
X106434800Y-132847544D02*
X106482419Y-132942782D01*
X106482419Y-132942782D02*
X106482419Y-133038020D01*
X106482419Y-133038020D02*
X106434800Y-133133258D01*
X106434800Y-133133258D02*
X106387180Y-133180877D01*
X106387180Y-133180877D02*
X106291942Y-133228496D01*
X106291942Y-133228496D02*
X106101466Y-133276115D01*
X106101466Y-133276115D02*
X105863371Y-133276115D01*
X105863371Y-133276115D02*
X105672895Y-133228496D01*
X105672895Y-133228496D02*
X105577657Y-133180877D01*
X105577657Y-133180877D02*
X105530038Y-133133258D01*
X105530038Y-133133258D02*
X105482419Y-133038020D01*
X105815752Y-131847544D02*
X106482419Y-131847544D01*
X105434800Y-132085639D02*
X106149085Y-132323734D01*
X106149085Y-132323734D02*
X106149085Y-131704687D01*
X106101466Y-131323734D02*
X106101466Y-130561830D01*
X105482419Y-129895163D02*
X105482419Y-129799925D01*
X105482419Y-129799925D02*
X105530038Y-129704687D01*
X105530038Y-129704687D02*
X105577657Y-129657068D01*
X105577657Y-129657068D02*
X105672895Y-129609449D01*
X105672895Y-129609449D02*
X105863371Y-129561830D01*
X105863371Y-129561830D02*
X106101466Y-129561830D01*
X106101466Y-129561830D02*
X106291942Y-129609449D01*
X106291942Y-129609449D02*
X106387180Y-129657068D01*
X106387180Y-129657068D02*
X106434800Y-129704687D01*
X106434800Y-129704687D02*
X106482419Y-129799925D01*
X106482419Y-129799925D02*
X106482419Y-129895163D01*
X106482419Y-129895163D02*
X106434800Y-129990401D01*
X106434800Y-129990401D02*
X106387180Y-130038020D01*
X106387180Y-130038020D02*
X106291942Y-130085639D01*
X106291942Y-130085639D02*
X106101466Y-130133258D01*
X106101466Y-130133258D02*
X105863371Y-130133258D01*
X105863371Y-130133258D02*
X105672895Y-130085639D01*
X105672895Y-130085639D02*
X105577657Y-130038020D01*
X105577657Y-130038020D02*
X105530038Y-129990401D01*
X105530038Y-129990401D02*
X105482419Y-129895163D01*
X106482419Y-129085639D02*
X106482419Y-128895163D01*
X106482419Y-128895163D02*
X106434800Y-128799925D01*
X106434800Y-128799925D02*
X106387180Y-128752306D01*
X106387180Y-128752306D02*
X106244323Y-128657068D01*
X106244323Y-128657068D02*
X106053847Y-128609449D01*
X106053847Y-128609449D02*
X105672895Y-128609449D01*
X105672895Y-128609449D02*
X105577657Y-128657068D01*
X105577657Y-128657068D02*
X105530038Y-128704687D01*
X105530038Y-128704687D02*
X105482419Y-128799925D01*
X105482419Y-128799925D02*
X105482419Y-128990401D01*
X105482419Y-128990401D02*
X105530038Y-129085639D01*
X105530038Y-129085639D02*
X105577657Y-129133258D01*
X105577657Y-129133258D02*
X105672895Y-129180877D01*
X105672895Y-129180877D02*
X105910990Y-129180877D01*
X105910990Y-129180877D02*
X106006228Y-129133258D01*
X106006228Y-129133258D02*
X106053847Y-129085639D01*
X106053847Y-129085639D02*
X106101466Y-128990401D01*
X106101466Y-128990401D02*
X106101466Y-128799925D01*
X106101466Y-128799925D02*
X106053847Y-128704687D01*
X106053847Y-128704687D02*
X106006228Y-128657068D01*
X106006228Y-128657068D02*
X105910990Y-128609449D01*
D12*
X130880093Y-123236119D02*
X131546759Y-124236119D01*
X131546759Y-123236119D02*
X130880093Y-124236119D01*
X135546760Y-124236119D02*
X135213427Y-123759928D01*
X134975332Y-124236119D02*
X134975332Y-123236119D01*
X134975332Y-123236119D02*
X135356284Y-123236119D01*
X135356284Y-123236119D02*
X135451522Y-123283738D01*
X135451522Y-123283738D02*
X135499141Y-123331357D01*
X135499141Y-123331357D02*
X135546760Y-123426595D01*
X135546760Y-123426595D02*
X135546760Y-123569452D01*
X135546760Y-123569452D02*
X135499141Y-123664690D01*
X135499141Y-123664690D02*
X135451522Y-123712309D01*
X135451522Y-123712309D02*
X135356284Y-123759928D01*
X135356284Y-123759928D02*
X134975332Y-123759928D01*
X135975332Y-124236119D02*
X135975332Y-123236119D01*
X135975332Y-123236119D02*
X136213427Y-123236119D01*
X136213427Y-123236119D02*
X136356284Y-123283738D01*
X136356284Y-123283738D02*
X136451522Y-123378976D01*
X136451522Y-123378976D02*
X136499141Y-123474214D01*
X136499141Y-123474214D02*
X136546760Y-123664690D01*
X136546760Y-123664690D02*
X136546760Y-123807547D01*
X136546760Y-123807547D02*
X136499141Y-123998023D01*
X136499141Y-123998023D02*
X136451522Y-124093261D01*
X136451522Y-124093261D02*
X136356284Y-124188500D01*
X136356284Y-124188500D02*
X136213427Y-124236119D01*
X136213427Y-124236119D02*
X135975332Y-124236119D01*
X137165808Y-123759928D02*
X137165808Y-124236119D01*
X136832475Y-123236119D02*
X137165808Y-123759928D01*
X137165808Y-123759928D02*
X137499141Y-123236119D01*
X130975331Y-125846063D02*
X130975331Y-124846063D01*
X131451521Y-125846063D02*
X131451521Y-124846063D01*
X131451521Y-124846063D02*
X132022949Y-125846063D01*
X132022949Y-125846063D02*
X132022949Y-124846063D01*
X132356283Y-124846063D02*
X132927711Y-124846063D01*
X132641997Y-125846063D02*
X132641997Y-124846063D01*
X133594378Y-125322253D02*
X133737235Y-125369872D01*
X133737235Y-125369872D02*
X133784854Y-125417491D01*
X133784854Y-125417491D02*
X133832473Y-125512729D01*
X133832473Y-125512729D02*
X133832473Y-125655586D01*
X133832473Y-125655586D02*
X133784854Y-125750824D01*
X133784854Y-125750824D02*
X133737235Y-125798444D01*
X133737235Y-125798444D02*
X133641997Y-125846063D01*
X133641997Y-125846063D02*
X133261045Y-125846063D01*
X133261045Y-125846063D02*
X133261045Y-124846063D01*
X133261045Y-124846063D02*
X133594378Y-124846063D01*
X133594378Y-124846063D02*
X133689616Y-124893682D01*
X133689616Y-124893682D02*
X133737235Y-124941301D01*
X133737235Y-124941301D02*
X133784854Y-125036539D01*
X133784854Y-125036539D02*
X133784854Y-125131777D01*
X133784854Y-125131777D02*
X133737235Y-125227015D01*
X133737235Y-125227015D02*
X133689616Y-125274634D01*
X133689616Y-125274634D02*
X133594378Y-125322253D01*
X133594378Y-125322253D02*
X133261045Y-125322253D01*
X134975331Y-125798444D02*
X135118188Y-125846063D01*
X135118188Y-125846063D02*
X135356283Y-125846063D01*
X135356283Y-125846063D02*
X135451521Y-125798444D01*
X135451521Y-125798444D02*
X135499140Y-125750824D01*
X135499140Y-125750824D02*
X135546759Y-125655586D01*
X135546759Y-125655586D02*
X135546759Y-125560348D01*
X135546759Y-125560348D02*
X135499140Y-125465110D01*
X135499140Y-125465110D02*
X135451521Y-125417491D01*
X135451521Y-125417491D02*
X135356283Y-125369872D01*
X135356283Y-125369872D02*
X135165807Y-125322253D01*
X135165807Y-125322253D02*
X135070569Y-125274634D01*
X135070569Y-125274634D02*
X135022950Y-125227015D01*
X135022950Y-125227015D02*
X134975331Y-125131777D01*
X134975331Y-125131777D02*
X134975331Y-125036539D01*
X134975331Y-125036539D02*
X135022950Y-124941301D01*
X135022950Y-124941301D02*
X135070569Y-124893682D01*
X135070569Y-124893682D02*
X135165807Y-124846063D01*
X135165807Y-124846063D02*
X135403902Y-124846063D01*
X135403902Y-124846063D02*
X135546759Y-124893682D01*
X135927712Y-125798444D02*
X136070569Y-125846063D01*
X136070569Y-125846063D02*
X136308664Y-125846063D01*
X136308664Y-125846063D02*
X136403902Y-125798444D01*
X136403902Y-125798444D02*
X136451521Y-125750824D01*
X136451521Y-125750824D02*
X136499140Y-125655586D01*
X136499140Y-125655586D02*
X136499140Y-125560348D01*
X136499140Y-125560348D02*
X136451521Y-125465110D01*
X136451521Y-125465110D02*
X136403902Y-125417491D01*
X136403902Y-125417491D02*
X136308664Y-125369872D01*
X136308664Y-125369872D02*
X136118188Y-125322253D01*
X136118188Y-125322253D02*
X136022950Y-125274634D01*
X136022950Y-125274634D02*
X135975331Y-125227015D01*
X135975331Y-125227015D02*
X135927712Y-125131777D01*
X135927712Y-125131777D02*
X135927712Y-125036539D01*
X135927712Y-125036539D02*
X135975331Y-124941301D01*
X135975331Y-124941301D02*
X136022950Y-124893682D01*
X136022950Y-124893682D02*
X136118188Y-124846063D01*
X136118188Y-124846063D02*
X136356283Y-124846063D01*
X136356283Y-124846063D02*
X136499140Y-124893682D01*
X137261045Y-125322253D02*
X137403902Y-125369872D01*
X137403902Y-125369872D02*
X137451521Y-125417491D01*
X137451521Y-125417491D02*
X137499140Y-125512729D01*
X137499140Y-125512729D02*
X137499140Y-125655586D01*
X137499140Y-125655586D02*
X137451521Y-125750824D01*
X137451521Y-125750824D02*
X137403902Y-125798444D01*
X137403902Y-125798444D02*
X137308664Y-125846063D01*
X137308664Y-125846063D02*
X136927712Y-125846063D01*
X136927712Y-125846063D02*
X136927712Y-124846063D01*
X136927712Y-124846063D02*
X137261045Y-124846063D01*
X137261045Y-124846063D02*
X137356283Y-124893682D01*
X137356283Y-124893682D02*
X137403902Y-124941301D01*
X137403902Y-124941301D02*
X137451521Y-125036539D01*
X137451521Y-125036539D02*
X137451521Y-125131777D01*
X137451521Y-125131777D02*
X137403902Y-125227015D01*
X137403902Y-125227015D02*
X137356283Y-125274634D01*
X137356283Y-125274634D02*
X137261045Y-125322253D01*
X137261045Y-125322253D02*
X136927712Y-125322253D01*
X130975331Y-127456007D02*
X130975331Y-126456007D01*
X130975331Y-126456007D02*
X131308664Y-127170292D01*
X131308664Y-127170292D02*
X131641997Y-126456007D01*
X131641997Y-126456007D02*
X131641997Y-127456007D01*
X132308664Y-126456007D02*
X132499140Y-126456007D01*
X132499140Y-126456007D02*
X132594378Y-126503626D01*
X132594378Y-126503626D02*
X132689616Y-126598864D01*
X132689616Y-126598864D02*
X132737235Y-126789340D01*
X132737235Y-126789340D02*
X132737235Y-127122673D01*
X132737235Y-127122673D02*
X132689616Y-127313149D01*
X132689616Y-127313149D02*
X132594378Y-127408388D01*
X132594378Y-127408388D02*
X132499140Y-127456007D01*
X132499140Y-127456007D02*
X132308664Y-127456007D01*
X132308664Y-127456007D02*
X132213426Y-127408388D01*
X132213426Y-127408388D02*
X132118188Y-127313149D01*
X132118188Y-127313149D02*
X132070569Y-127122673D01*
X132070569Y-127122673D02*
X132070569Y-126789340D01*
X132070569Y-126789340D02*
X132118188Y-126598864D01*
X132118188Y-126598864D02*
X132213426Y-126503626D01*
X132213426Y-126503626D02*
X132308664Y-126456007D01*
X133118188Y-127408388D02*
X133261045Y-127456007D01*
X133261045Y-127456007D02*
X133499140Y-127456007D01*
X133499140Y-127456007D02*
X133594378Y-127408388D01*
X133594378Y-127408388D02*
X133641997Y-127360768D01*
X133641997Y-127360768D02*
X133689616Y-127265530D01*
X133689616Y-127265530D02*
X133689616Y-127170292D01*
X133689616Y-127170292D02*
X133641997Y-127075054D01*
X133641997Y-127075054D02*
X133594378Y-127027435D01*
X133594378Y-127027435D02*
X133499140Y-126979816D01*
X133499140Y-126979816D02*
X133308664Y-126932197D01*
X133308664Y-126932197D02*
X133213426Y-126884578D01*
X133213426Y-126884578D02*
X133165807Y-126836959D01*
X133165807Y-126836959D02*
X133118188Y-126741721D01*
X133118188Y-126741721D02*
X133118188Y-126646483D01*
X133118188Y-126646483D02*
X133165807Y-126551245D01*
X133165807Y-126551245D02*
X133213426Y-126503626D01*
X133213426Y-126503626D02*
X133308664Y-126456007D01*
X133308664Y-126456007D02*
X133546759Y-126456007D01*
X133546759Y-126456007D02*
X133689616Y-126503626D01*
X134118188Y-127456007D02*
X134118188Y-126456007D01*
X135356283Y-127456007D02*
X135356283Y-126456007D01*
X135356283Y-126456007D02*
X135689616Y-127170292D01*
X135689616Y-127170292D02*
X136022949Y-126456007D01*
X136022949Y-126456007D02*
X136022949Y-127456007D01*
X136499140Y-127456007D02*
X136499140Y-126456007D01*
X136927711Y-127408388D02*
X137070568Y-127456007D01*
X137070568Y-127456007D02*
X137308663Y-127456007D01*
X137308663Y-127456007D02*
X137403901Y-127408388D01*
X137403901Y-127408388D02*
X137451520Y-127360768D01*
X137451520Y-127360768D02*
X137499139Y-127265530D01*
X137499139Y-127265530D02*
X137499139Y-127170292D01*
X137499139Y-127170292D02*
X137451520Y-127075054D01*
X137451520Y-127075054D02*
X137403901Y-127027435D01*
X137403901Y-127027435D02*
X137308663Y-126979816D01*
X137308663Y-126979816D02*
X137118187Y-126932197D01*
X137118187Y-126932197D02*
X137022949Y-126884578D01*
X137022949Y-126884578D02*
X136975330Y-126836959D01*
X136975330Y-126836959D02*
X136927711Y-126741721D01*
X136927711Y-126741721D02*
X136927711Y-126646483D01*
X136927711Y-126646483D02*
X136975330Y-126551245D01*
X136975330Y-126551245D02*
X137022949Y-126503626D01*
X137022949Y-126503626D02*
X137118187Y-126456007D01*
X137118187Y-126456007D02*
X137356282Y-126456007D01*
X137356282Y-126456007D02*
X137499139Y-126503626D01*
X138118187Y-126456007D02*
X138308663Y-126456007D01*
X138308663Y-126456007D02*
X138403901Y-126503626D01*
X138403901Y-126503626D02*
X138499139Y-126598864D01*
X138499139Y-126598864D02*
X138546758Y-126789340D01*
X138546758Y-126789340D02*
X138546758Y-127122673D01*
X138546758Y-127122673D02*
X138499139Y-127313149D01*
X138499139Y-127313149D02*
X138403901Y-127408388D01*
X138403901Y-127408388D02*
X138308663Y-127456007D01*
X138308663Y-127456007D02*
X138118187Y-127456007D01*
X138118187Y-127456007D02*
X138022949Y-127408388D01*
X138022949Y-127408388D02*
X137927711Y-127313149D01*
X137927711Y-127313149D02*
X137880092Y-127122673D01*
X137880092Y-127122673D02*
X137880092Y-126789340D01*
X137880092Y-126789340D02*
X137927711Y-126598864D01*
X137927711Y-126598864D02*
X138022949Y-126503626D01*
X138022949Y-126503626D02*
X138118187Y-126456007D01*
X130927712Y-129018332D02*
X131070569Y-129065951D01*
X131070569Y-129065951D02*
X131308664Y-129065951D01*
X131308664Y-129065951D02*
X131403902Y-129018332D01*
X131403902Y-129018332D02*
X131451521Y-128970712D01*
X131451521Y-128970712D02*
X131499140Y-128875474D01*
X131499140Y-128875474D02*
X131499140Y-128780236D01*
X131499140Y-128780236D02*
X131451521Y-128684998D01*
X131451521Y-128684998D02*
X131403902Y-128637379D01*
X131403902Y-128637379D02*
X131308664Y-128589760D01*
X131308664Y-128589760D02*
X131118188Y-128542141D01*
X131118188Y-128542141D02*
X131022950Y-128494522D01*
X131022950Y-128494522D02*
X130975331Y-128446903D01*
X130975331Y-128446903D02*
X130927712Y-128351665D01*
X130927712Y-128351665D02*
X130927712Y-128256427D01*
X130927712Y-128256427D02*
X130975331Y-128161189D01*
X130975331Y-128161189D02*
X131022950Y-128113570D01*
X131022950Y-128113570D02*
X131118188Y-128065951D01*
X131118188Y-128065951D02*
X131356283Y-128065951D01*
X131356283Y-128065951D02*
X131499140Y-128113570D01*
X132499140Y-128970712D02*
X132451521Y-129018332D01*
X132451521Y-129018332D02*
X132308664Y-129065951D01*
X132308664Y-129065951D02*
X132213426Y-129065951D01*
X132213426Y-129065951D02*
X132070569Y-129018332D01*
X132070569Y-129018332D02*
X131975331Y-128923093D01*
X131975331Y-128923093D02*
X131927712Y-128827855D01*
X131927712Y-128827855D02*
X131880093Y-128637379D01*
X131880093Y-128637379D02*
X131880093Y-128494522D01*
X131880093Y-128494522D02*
X131927712Y-128304046D01*
X131927712Y-128304046D02*
X131975331Y-128208808D01*
X131975331Y-128208808D02*
X132070569Y-128113570D01*
X132070569Y-128113570D02*
X132213426Y-128065951D01*
X132213426Y-128065951D02*
X132308664Y-128065951D01*
X132308664Y-128065951D02*
X132451521Y-128113570D01*
X132451521Y-128113570D02*
X132499140Y-128161189D01*
X133403902Y-129065951D02*
X132927712Y-129065951D01*
X132927712Y-129065951D02*
X132927712Y-128065951D01*
X133737236Y-129065951D02*
X133737236Y-128065951D01*
X134308664Y-129065951D02*
X133880093Y-128494522D01*
X134308664Y-128065951D02*
X133737236Y-128637379D01*
X135832474Y-128542141D02*
X135975331Y-128589760D01*
X135975331Y-128589760D02*
X136022950Y-128637379D01*
X136022950Y-128637379D02*
X136070569Y-128732617D01*
X136070569Y-128732617D02*
X136070569Y-128875474D01*
X136070569Y-128875474D02*
X136022950Y-128970712D01*
X136022950Y-128970712D02*
X135975331Y-129018332D01*
X135975331Y-129018332D02*
X135880093Y-129065951D01*
X135880093Y-129065951D02*
X135499141Y-129065951D01*
X135499141Y-129065951D02*
X135499141Y-128065951D01*
X135499141Y-128065951D02*
X135832474Y-128065951D01*
X135832474Y-128065951D02*
X135927712Y-128113570D01*
X135927712Y-128113570D02*
X135975331Y-128161189D01*
X135975331Y-128161189D02*
X136022950Y-128256427D01*
X136022950Y-128256427D02*
X136022950Y-128351665D01*
X136022950Y-128351665D02*
X135975331Y-128446903D01*
X135975331Y-128446903D02*
X135927712Y-128494522D01*
X135927712Y-128494522D02*
X135832474Y-128542141D01*
X135832474Y-128542141D02*
X135499141Y-128542141D01*
X136451522Y-128780236D02*
X136927712Y-128780236D01*
X136356284Y-129065951D02*
X136689617Y-128065951D01*
X136689617Y-128065951D02*
X137022950Y-129065951D01*
X137213427Y-128065951D02*
X137784855Y-128065951D01*
X137499141Y-129065951D02*
X137499141Y-128065951D01*
X138118189Y-128684998D02*
X138880094Y-128684998D01*
X138499141Y-129065951D02*
X138499141Y-128304046D01*
X131499140Y-129723514D02*
X131403902Y-129675895D01*
X131403902Y-129675895D02*
X131261045Y-129675895D01*
X131261045Y-129675895D02*
X131118188Y-129723514D01*
X131118188Y-129723514D02*
X131022950Y-129818752D01*
X131022950Y-129818752D02*
X130975331Y-129913990D01*
X130975331Y-129913990D02*
X130927712Y-130104466D01*
X130927712Y-130104466D02*
X130927712Y-130247323D01*
X130927712Y-130247323D02*
X130975331Y-130437799D01*
X130975331Y-130437799D02*
X131022950Y-130533037D01*
X131022950Y-130533037D02*
X131118188Y-130628276D01*
X131118188Y-130628276D02*
X131261045Y-130675895D01*
X131261045Y-130675895D02*
X131356283Y-130675895D01*
X131356283Y-130675895D02*
X131499140Y-130628276D01*
X131499140Y-130628276D02*
X131546759Y-130580656D01*
X131546759Y-130580656D02*
X131546759Y-130247323D01*
X131546759Y-130247323D02*
X131356283Y-130247323D01*
X131975331Y-130675895D02*
X131975331Y-129675895D01*
X131975331Y-129675895D02*
X132546759Y-130675895D01*
X132546759Y-130675895D02*
X132546759Y-129675895D01*
X133022950Y-130675895D02*
X133022950Y-129675895D01*
X133022950Y-129675895D02*
X133261045Y-129675895D01*
X133261045Y-129675895D02*
X133403902Y-129723514D01*
X133403902Y-129723514D02*
X133499140Y-129818752D01*
X133499140Y-129818752D02*
X133546759Y-129913990D01*
X133546759Y-129913990D02*
X133594378Y-130104466D01*
X133594378Y-130104466D02*
X133594378Y-130247323D01*
X133594378Y-130247323D02*
X133546759Y-130437799D01*
X133546759Y-130437799D02*
X133499140Y-130533037D01*
X133499140Y-130533037D02*
X133403902Y-130628276D01*
X133403902Y-130628276D02*
X133261045Y-130675895D01*
X133261045Y-130675895D02*
X133022950Y-130675895D01*
X136022949Y-129723514D02*
X135927711Y-129675895D01*
X135927711Y-129675895D02*
X135784854Y-129675895D01*
X135784854Y-129675895D02*
X135641997Y-129723514D01*
X135641997Y-129723514D02*
X135546759Y-129818752D01*
X135546759Y-129818752D02*
X135499140Y-129913990D01*
X135499140Y-129913990D02*
X135451521Y-130104466D01*
X135451521Y-130104466D02*
X135451521Y-130247323D01*
X135451521Y-130247323D02*
X135499140Y-130437799D01*
X135499140Y-130437799D02*
X135546759Y-130533037D01*
X135546759Y-130533037D02*
X135641997Y-130628276D01*
X135641997Y-130628276D02*
X135784854Y-130675895D01*
X135784854Y-130675895D02*
X135880092Y-130675895D01*
X135880092Y-130675895D02*
X136022949Y-130628276D01*
X136022949Y-130628276D02*
X136070568Y-130580656D01*
X136070568Y-130580656D02*
X136070568Y-130247323D01*
X136070568Y-130247323D02*
X135880092Y-130247323D01*
X136499140Y-130675895D02*
X136499140Y-129675895D01*
X136499140Y-129675895D02*
X137070568Y-130675895D01*
X137070568Y-130675895D02*
X137070568Y-129675895D01*
X137546759Y-130675895D02*
X137546759Y-129675895D01*
X137546759Y-129675895D02*
X137784854Y-129675895D01*
X137784854Y-129675895D02*
X137927711Y-129723514D01*
X137927711Y-129723514D02*
X138022949Y-129818752D01*
X138022949Y-129818752D02*
X138070568Y-129913990D01*
X138070568Y-129913990D02*
X138118187Y-130104466D01*
X138118187Y-130104466D02*
X138118187Y-130247323D01*
X138118187Y-130247323D02*
X138070568Y-130437799D01*
X138070568Y-130437799D02*
X138022949Y-130533037D01*
X138022949Y-130533037D02*
X137927711Y-130628276D01*
X137927711Y-130628276D02*
X137784854Y-130675895D01*
X137784854Y-130675895D02*
X137546759Y-130675895D01*
D13*
X116328095Y-126754819D02*
X116328095Y-127564342D01*
X116328095Y-127564342D02*
X116375714Y-127659580D01*
X116375714Y-127659580D02*
X116423333Y-127707200D01*
X116423333Y-127707200D02*
X116518571Y-127754819D01*
X116518571Y-127754819D02*
X116709047Y-127754819D01*
X116709047Y-127754819D02*
X116804285Y-127707200D01*
X116804285Y-127707200D02*
X116851904Y-127659580D01*
X116851904Y-127659580D02*
X116899523Y-127564342D01*
X116899523Y-127564342D02*
X116899523Y-126754819D01*
X117328095Y-126850057D02*
X117375714Y-126802438D01*
X117375714Y-126802438D02*
X117470952Y-126754819D01*
X117470952Y-126754819D02*
X117709047Y-126754819D01*
X117709047Y-126754819D02*
X117804285Y-126802438D01*
X117804285Y-126802438D02*
X117851904Y-126850057D01*
X117851904Y-126850057D02*
X117899523Y-126945295D01*
X117899523Y-126945295D02*
X117899523Y-127040533D01*
X117899523Y-127040533D02*
X117851904Y-127183390D01*
X117851904Y-127183390D02*
X117280476Y-127754819D01*
X117280476Y-127754819D02*
X117899523Y-127754819D01*
X109934819Y-113536666D02*
X109458628Y-113869999D01*
X109934819Y-114108094D02*
X108934819Y-114108094D01*
X108934819Y-114108094D02*
X108934819Y-113727142D01*
X108934819Y-113727142D02*
X108982438Y-113631904D01*
X108982438Y-113631904D02*
X109030057Y-113584285D01*
X109030057Y-113584285D02*
X109125295Y-113536666D01*
X109125295Y-113536666D02*
X109268152Y-113536666D01*
X109268152Y-113536666D02*
X109363390Y-113584285D01*
X109363390Y-113584285D02*
X109411009Y-113631904D01*
X109411009Y-113631904D02*
X109458628Y-113727142D01*
X109458628Y-113727142D02*
X109458628Y-114108094D01*
X109934819Y-112584285D02*
X109934819Y-113155713D01*
X109934819Y-112869999D02*
X108934819Y-112869999D01*
X108934819Y-112869999D02*
X109077676Y-112965237D01*
X109077676Y-112965237D02*
X109172914Y-113060475D01*
X109172914Y-113060475D02*
X109220533Y-113155713D01*
X125729580Y-136786666D02*
X125777200Y-136834285D01*
X125777200Y-136834285D02*
X125824819Y-136977142D01*
X125824819Y-136977142D02*
X125824819Y-137072380D01*
X125824819Y-137072380D02*
X125777200Y-137215237D01*
X125777200Y-137215237D02*
X125681961Y-137310475D01*
X125681961Y-137310475D02*
X125586723Y-137358094D01*
X125586723Y-137358094D02*
X125396247Y-137405713D01*
X125396247Y-137405713D02*
X125253390Y-137405713D01*
X125253390Y-137405713D02*
X125062914Y-137358094D01*
X125062914Y-137358094D02*
X124967676Y-137310475D01*
X124967676Y-137310475D02*
X124872438Y-137215237D01*
X124872438Y-137215237D02*
X124824819Y-137072380D01*
X124824819Y-137072380D02*
X124824819Y-136977142D01*
X124824819Y-136977142D02*
X124872438Y-136834285D01*
X124872438Y-136834285D02*
X124920057Y-136786666D01*
X124824819Y-136453332D02*
X124824819Y-135834285D01*
X124824819Y-135834285D02*
X125205771Y-136167618D01*
X125205771Y-136167618D02*
X125205771Y-136024761D01*
X125205771Y-136024761D02*
X125253390Y-135929523D01*
X125253390Y-135929523D02*
X125301009Y-135881904D01*
X125301009Y-135881904D02*
X125396247Y-135834285D01*
X125396247Y-135834285D02*
X125634342Y-135834285D01*
X125634342Y-135834285D02*
X125729580Y-135881904D01*
X125729580Y-135881904D02*
X125777200Y-135929523D01*
X125777200Y-135929523D02*
X125824819Y-136024761D01*
X125824819Y-136024761D02*
X125824819Y-136310475D01*
X125824819Y-136310475D02*
X125777200Y-136405713D01*
X125777200Y-136405713D02*
X125729580Y-136453332D01*
X121359580Y-136786666D02*
X121407200Y-136834285D01*
X121407200Y-136834285D02*
X121454819Y-136977142D01*
X121454819Y-136977142D02*
X121454819Y-137072380D01*
X121454819Y-137072380D02*
X121407200Y-137215237D01*
X121407200Y-137215237D02*
X121311961Y-137310475D01*
X121311961Y-137310475D02*
X121216723Y-137358094D01*
X121216723Y-137358094D02*
X121026247Y-137405713D01*
X121026247Y-137405713D02*
X120883390Y-137405713D01*
X120883390Y-137405713D02*
X120692914Y-137358094D01*
X120692914Y-137358094D02*
X120597676Y-137310475D01*
X120597676Y-137310475D02*
X120502438Y-137215237D01*
X120502438Y-137215237D02*
X120454819Y-137072380D01*
X120454819Y-137072380D02*
X120454819Y-136977142D01*
X120454819Y-136977142D02*
X120502438Y-136834285D01*
X120502438Y-136834285D02*
X120550057Y-136786666D01*
X120454819Y-135881904D02*
X120454819Y-136358094D01*
X120454819Y-136358094D02*
X120931009Y-136405713D01*
X120931009Y-136405713D02*
X120883390Y-136358094D01*
X120883390Y-136358094D02*
X120835771Y-136262856D01*
X120835771Y-136262856D02*
X120835771Y-136024761D01*
X120835771Y-136024761D02*
X120883390Y-135929523D01*
X120883390Y-135929523D02*
X120931009Y-135881904D01*
X120931009Y-135881904D02*
X121026247Y-135834285D01*
X121026247Y-135834285D02*
X121264342Y-135834285D01*
X121264342Y-135834285D02*
X121359580Y-135881904D01*
X121359580Y-135881904D02*
X121407200Y-135929523D01*
X121407200Y-135929523D02*
X121454819Y-136024761D01*
X121454819Y-136024761D02*
X121454819Y-136262856D01*
X121454819Y-136262856D02*
X121407200Y-136358094D01*
X121407200Y-136358094D02*
X121359580Y-136405713D01*
X132576666Y-107344819D02*
X132576666Y-108059104D01*
X132576666Y-108059104D02*
X132529047Y-108201961D01*
X132529047Y-108201961D02*
X132433809Y-108297200D01*
X132433809Y-108297200D02*
X132290952Y-108344819D01*
X132290952Y-108344819D02*
X132195714Y-108344819D01*
X133576666Y-108344819D02*
X133005238Y-108344819D01*
X133290952Y-108344819D02*
X133290952Y-107344819D01*
X133290952Y-107344819D02*
X133195714Y-107487676D01*
X133195714Y-107487676D02*
X133100476Y-107582914D01*
X133100476Y-107582914D02*
X133005238Y-107630533D01*
X121194580Y-126101666D02*
X121242200Y-126149285D01*
X121242200Y-126149285D02*
X121289819Y-126292142D01*
X121289819Y-126292142D02*
X121289819Y-126387380D01*
X121289819Y-126387380D02*
X121242200Y-126530237D01*
X121242200Y-126530237D02*
X121146961Y-126625475D01*
X121146961Y-126625475D02*
X121051723Y-126673094D01*
X121051723Y-126673094D02*
X120861247Y-126720713D01*
X120861247Y-126720713D02*
X120718390Y-126720713D01*
X120718390Y-126720713D02*
X120527914Y-126673094D01*
X120527914Y-126673094D02*
X120432676Y-126625475D01*
X120432676Y-126625475D02*
X120337438Y-126530237D01*
X120337438Y-126530237D02*
X120289819Y-126387380D01*
X120289819Y-126387380D02*
X120289819Y-126292142D01*
X120289819Y-126292142D02*
X120337438Y-126149285D01*
X120337438Y-126149285D02*
X120385057Y-126101666D01*
X120623152Y-125244523D02*
X121289819Y-125244523D01*
X120242200Y-125482618D02*
X120956485Y-125720713D01*
X120956485Y-125720713D02*
X120956485Y-125101666D01*
X132899709Y-139183332D02*
X132937805Y-139221428D01*
X132937805Y-139221428D02*
X132975900Y-139335713D01*
X132975900Y-139335713D02*
X132975900Y-139411904D01*
X132975900Y-139411904D02*
X132937805Y-139526190D01*
X132937805Y-139526190D02*
X132861614Y-139602380D01*
X132861614Y-139602380D02*
X132785424Y-139640475D01*
X132785424Y-139640475D02*
X132633043Y-139678571D01*
X132633043Y-139678571D02*
X132518757Y-139678571D01*
X132518757Y-139678571D02*
X132366376Y-139640475D01*
X132366376Y-139640475D02*
X132290185Y-139602380D01*
X132290185Y-139602380D02*
X132213995Y-139526190D01*
X132213995Y-139526190D02*
X132175900Y-139411904D01*
X132175900Y-139411904D02*
X132175900Y-139335713D01*
X132175900Y-139335713D02*
X132213995Y-139221428D01*
X132213995Y-139221428D02*
X132252090Y-139183332D01*
X132975900Y-138421428D02*
X132975900Y-138878571D01*
X132975900Y-138649999D02*
X132175900Y-138649999D01*
X132175900Y-138649999D02*
X132290185Y-138726190D01*
X132290185Y-138726190D02*
X132366376Y-138802380D01*
X132366376Y-138802380D02*
X132404471Y-138878571D01*
X112403095Y-106917200D02*
X112545952Y-106964819D01*
X112545952Y-106964819D02*
X112784047Y-106964819D01*
X112784047Y-106964819D02*
X112879285Y-106917200D01*
X112879285Y-106917200D02*
X112926904Y-106869580D01*
X112926904Y-106869580D02*
X112974523Y-106774342D01*
X112974523Y-106774342D02*
X112974523Y-106679104D01*
X112974523Y-106679104D02*
X112926904Y-106583866D01*
X112926904Y-106583866D02*
X112879285Y-106536247D01*
X112879285Y-106536247D02*
X112784047Y-106488628D01*
X112784047Y-106488628D02*
X112593571Y-106441009D01*
X112593571Y-106441009D02*
X112498333Y-106393390D01*
X112498333Y-106393390D02*
X112450714Y-106345771D01*
X112450714Y-106345771D02*
X112403095Y-106250533D01*
X112403095Y-106250533D02*
X112403095Y-106155295D01*
X112403095Y-106155295D02*
X112450714Y-106060057D01*
X112450714Y-106060057D02*
X112498333Y-106012438D01*
X112498333Y-106012438D02*
X112593571Y-105964819D01*
X112593571Y-105964819D02*
X112831666Y-105964819D01*
X112831666Y-105964819D02*
X112974523Y-106012438D01*
X113926904Y-106964819D02*
X113355476Y-106964819D01*
X113641190Y-106964819D02*
X113641190Y-105964819D01*
X113641190Y-105964819D02*
X113545952Y-106107676D01*
X113545952Y-106107676D02*
X113450714Y-106202914D01*
X113450714Y-106202914D02*
X113355476Y-106250533D01*
D11*
X119357142Y-152017419D02*
X118880952Y-152017419D01*
X118880952Y-152017419D02*
X118880952Y-151017419D01*
X119642857Y-151969800D02*
X119785714Y-152017419D01*
X119785714Y-152017419D02*
X120023809Y-152017419D01*
X120023809Y-152017419D02*
X120119047Y-151969800D01*
X120119047Y-151969800D02*
X120166666Y-151922180D01*
X120166666Y-151922180D02*
X120214285Y-151826942D01*
X120214285Y-151826942D02*
X120214285Y-151731704D01*
X120214285Y-151731704D02*
X120166666Y-151636466D01*
X120166666Y-151636466D02*
X120119047Y-151588847D01*
X120119047Y-151588847D02*
X120023809Y-151541228D01*
X120023809Y-151541228D02*
X119833333Y-151493609D01*
X119833333Y-151493609D02*
X119738095Y-151445990D01*
X119738095Y-151445990D02*
X119690476Y-151398371D01*
X119690476Y-151398371D02*
X119642857Y-151303133D01*
X119642857Y-151303133D02*
X119642857Y-151207895D01*
X119642857Y-151207895D02*
X119690476Y-151112657D01*
X119690476Y-151112657D02*
X119738095Y-151065038D01*
X119738095Y-151065038D02*
X119833333Y-151017419D01*
X119833333Y-151017419D02*
X120071428Y-151017419D01*
X120071428Y-151017419D02*
X120214285Y-151065038D01*
X120595238Y-151112657D02*
X120642857Y-151065038D01*
X120642857Y-151065038D02*
X120738095Y-151017419D01*
X120738095Y-151017419D02*
X120976190Y-151017419D01*
X120976190Y-151017419D02*
X121071428Y-151065038D01*
X121071428Y-151065038D02*
X121119047Y-151112657D01*
X121119047Y-151112657D02*
X121166666Y-151207895D01*
X121166666Y-151207895D02*
X121166666Y-151303133D01*
X121166666Y-151303133D02*
X121119047Y-151445990D01*
X121119047Y-151445990D02*
X120547619Y-152017419D01*
X120547619Y-152017419D02*
X121166666Y-152017419D01*
X119347142Y-163082419D02*
X118870952Y-163082419D01*
X118870952Y-163082419D02*
X118870952Y-162082419D01*
X119632857Y-163034800D02*
X119775714Y-163082419D01*
X119775714Y-163082419D02*
X120013809Y-163082419D01*
X120013809Y-163082419D02*
X120109047Y-163034800D01*
X120109047Y-163034800D02*
X120156666Y-162987180D01*
X120156666Y-162987180D02*
X120204285Y-162891942D01*
X120204285Y-162891942D02*
X120204285Y-162796704D01*
X120204285Y-162796704D02*
X120156666Y-162701466D01*
X120156666Y-162701466D02*
X120109047Y-162653847D01*
X120109047Y-162653847D02*
X120013809Y-162606228D01*
X120013809Y-162606228D02*
X119823333Y-162558609D01*
X119823333Y-162558609D02*
X119728095Y-162510990D01*
X119728095Y-162510990D02*
X119680476Y-162463371D01*
X119680476Y-162463371D02*
X119632857Y-162368133D01*
X119632857Y-162368133D02*
X119632857Y-162272895D01*
X119632857Y-162272895D02*
X119680476Y-162177657D01*
X119680476Y-162177657D02*
X119728095Y-162130038D01*
X119728095Y-162130038D02*
X119823333Y-162082419D01*
X119823333Y-162082419D02*
X120061428Y-162082419D01*
X120061428Y-162082419D02*
X120204285Y-162130038D01*
X121156666Y-163082419D02*
X120585238Y-163082419D01*
X120870952Y-163082419D02*
X120870952Y-162082419D01*
X120870952Y-162082419D02*
X120775714Y-162225276D01*
X120775714Y-162225276D02*
X120680476Y-162320514D01*
X120680476Y-162320514D02*
X120585238Y-162368133D01*
D13*
X133444819Y-144720898D02*
X132444819Y-144720898D01*
X132444819Y-144720898D02*
X132444819Y-144482803D01*
X132444819Y-144482803D02*
X132492438Y-144339946D01*
X132492438Y-144339946D02*
X132587676Y-144244708D01*
X132587676Y-144244708D02*
X132682914Y-144197089D01*
X132682914Y-144197089D02*
X132873390Y-144149470D01*
X132873390Y-144149470D02*
X133016247Y-144149470D01*
X133016247Y-144149470D02*
X133206723Y-144197089D01*
X133206723Y-144197089D02*
X133301961Y-144244708D01*
X133301961Y-144244708D02*
X133397200Y-144339946D01*
X133397200Y-144339946D02*
X133444819Y-144482803D01*
X133444819Y-144482803D02*
X133444819Y-144720898D01*
X133444819Y-143197089D02*
X133444819Y-143768517D01*
X133444819Y-143482803D02*
X132444819Y-143482803D01*
X132444819Y-143482803D02*
X132587676Y-143578041D01*
X132587676Y-143578041D02*
X132682914Y-143673279D01*
X132682914Y-143673279D02*
X132730533Y-143768517D01*
X125879580Y-126101666D02*
X125927200Y-126149285D01*
X125927200Y-126149285D02*
X125974819Y-126292142D01*
X125974819Y-126292142D02*
X125974819Y-126387380D01*
X125974819Y-126387380D02*
X125927200Y-126530237D01*
X125927200Y-126530237D02*
X125831961Y-126625475D01*
X125831961Y-126625475D02*
X125736723Y-126673094D01*
X125736723Y-126673094D02*
X125546247Y-126720713D01*
X125546247Y-126720713D02*
X125403390Y-126720713D01*
X125403390Y-126720713D02*
X125212914Y-126673094D01*
X125212914Y-126673094D02*
X125117676Y-126625475D01*
X125117676Y-126625475D02*
X125022438Y-126530237D01*
X125022438Y-126530237D02*
X124974819Y-126387380D01*
X124974819Y-126387380D02*
X124974819Y-126292142D01*
X124974819Y-126292142D02*
X125022438Y-126149285D01*
X125022438Y-126149285D02*
X125070057Y-126101666D01*
X125070057Y-125720713D02*
X125022438Y-125673094D01*
X125022438Y-125673094D02*
X124974819Y-125577856D01*
X124974819Y-125577856D02*
X124974819Y-125339761D01*
X124974819Y-125339761D02*
X125022438Y-125244523D01*
X125022438Y-125244523D02*
X125070057Y-125196904D01*
X125070057Y-125196904D02*
X125165295Y-125149285D01*
X125165295Y-125149285D02*
X125260533Y-125149285D01*
X125260533Y-125149285D02*
X125403390Y-125196904D01*
X125403390Y-125196904D02*
X125974819Y-125768332D01*
X125974819Y-125768332D02*
X125974819Y-125149285D01*
%TO.C,U2*%
X117420000Y-128345000D02*
X117420000Y-128845000D01*
X117420000Y-133495000D02*
X117420000Y-133005000D01*
X117920000Y-128345000D02*
X117420000Y-128345000D01*
X117920000Y-128345000D02*
X117420000Y-128845000D01*
X117920000Y-133495000D02*
X117420000Y-133495000D01*
X122080000Y-128345000D02*
X122570000Y-128345000D01*
X122080000Y-133495000D02*
X122570000Y-133495000D01*
X122570000Y-128345000D02*
X122570000Y-128845000D01*
X122570000Y-133495000D02*
X122570000Y-133005000D01*
D14*
X117190000Y-128585000D02*
G75*
G02*
X116990000Y-128585000I-100000J0D01*
G01*
X116990000Y-128585000D02*
G75*
G02*
X117190000Y-128585000I100000J0D01*
G01*
D15*
%TO.C,R1*%
X110387500Y-113607258D02*
X110387500Y-113132742D01*
X111432500Y-113607258D02*
X111432500Y-113132742D01*
%TO.C,C3*%
X123430000Y-136479419D02*
X123430000Y-136760581D01*
X124450000Y-136479419D02*
X124450000Y-136760581D01*
%TO.C,C5*%
X121797500Y-136382742D02*
X121797500Y-136857258D01*
X122842500Y-136382742D02*
X122842500Y-136857258D01*
%TO.C,J1*%
X132120000Y-109010000D02*
X133500000Y-109010000D01*
X132120000Y-110390000D02*
X132120000Y-109010000D01*
X132120000Y-111660000D02*
X132120000Y-121930000D01*
X132120000Y-111660000D02*
X134770000Y-111660000D01*
X132120000Y-121930000D02*
X137420000Y-121930000D01*
X134770000Y-109010000D02*
X137420000Y-109010000D01*
X134770000Y-111660000D02*
X134770000Y-109010000D01*
X137420000Y-109010000D02*
X137420000Y-121930000D01*
%TO.C,C4*%
X121742500Y-126172258D02*
X121742500Y-125697742D01*
X122787500Y-126172258D02*
X122787500Y-125697742D01*
D16*
%TO.C,C1*%
X133641605Y-140690000D02*
X133641605Y-137490000D01*
X135601605Y-140690000D02*
X135601605Y-137490000D01*
D14*
X134721605Y-141840000D02*
G75*
G02*
X134521605Y-141840000I-100000J0D01*
G01*
X134521605Y-141840000D02*
G75*
G02*
X134721605Y-141840000I100000J0D01*
G01*
D16*
%TO.C,S1*%
X112253000Y-107333000D02*
X112253000Y-122827000D01*
X112253000Y-122827000D02*
X127747000Y-122827000D01*
X127747000Y-107333000D02*
X112253000Y-107333000D01*
X127747000Y-122827000D02*
X127747000Y-107333000D01*
D11*
%TO.C,LS2*%
X131500000Y-151560000D02*
G75*
G02*
X108500000Y-151560000I-11500000J0D01*
G01*
X108500000Y-151560000D02*
G75*
G02*
X131500000Y-151560000I11500000J0D01*
G01*
D13*
%TO.C,D1*%
X133821605Y-142782803D02*
X133941605Y-142782803D01*
X133821605Y-142982804D02*
X133821605Y-142782803D01*
X133821605Y-142982804D02*
X133941605Y-142982804D01*
X133821605Y-143582804D02*
X135421605Y-143582804D01*
X133821605Y-144982804D02*
X133821605Y-142982804D01*
X133821605Y-144982804D02*
X133821605Y-145182805D01*
X133821605Y-145182805D02*
X133941605Y-145182805D01*
X133941605Y-142782803D02*
X133941605Y-142982804D01*
X135301605Y-142782803D02*
X135421605Y-142782803D01*
X135301605Y-142982804D02*
X135301605Y-142782803D01*
X135301605Y-142982804D02*
X135421605Y-142982804D01*
X135301605Y-145182805D02*
X135421605Y-145182805D01*
X135421605Y-142782803D02*
X135421605Y-142982804D01*
X135421605Y-144982804D02*
X135421605Y-142982804D01*
X135421605Y-145182805D02*
X135421605Y-144982804D01*
D15*
%TO.C,C2*%
X123360000Y-126075581D02*
X123360000Y-125794419D01*
X124380000Y-126075581D02*
X124380000Y-125794419D01*
%TD*%
M02*
