%TF.GenerationSoftware,KiCad,Pcbnew,9.0.3*%
%TF.CreationDate,2026-04-09T17:51:21+08:00*%
%TF.ProjectId,audio_player_toy_v1,61756469-6f5f-4706-9c61-7965725f746f,rev?*%
%TF.SameCoordinates,Original*%
%TF.FileFunction,Copper,L1,Top*%
%TF.FilePolarity,Positive*%
%FSLAX46Y46*%
G04 Gerber Fmt 4.6, Leading zero omitted, Abs format (unit mm)*
G04 Created by KiCad (PCBNEW 9.0.3) date 2026-04-09 17:51:21*
%MOMM*%
%LPD*%
G01*
G04 APERTURE LIST*
G04 Aperture macros list*
%AMRoundRect*
0 Rectangle with rounded corners*
0 $1 Rounding radius*
0 $2 $3 $4 $5 $6 $7 $8 $9 X,Y pos of 4 corners*
0 Add a 4 corners polygon primitive as box body*
4,1,4,$2,$3,$4,$5,$6,$7,$8,$9,$2,$3,0*
0 Add four circle primitives for the rounded corners*
1,1,$1+$1,$2,$3*
1,1,$1+$1,$4,$5*
1,1,$1+$1,$6,$7*
1,1,$1+$1,$8,$9*
0 Add four rect primitives between the rounded corners*
20,1,$1+$1,$2,$3,$4,$5,0*
20,1,$1+$1,$4,$5,$6,$7,0*
20,1,$1+$1,$6,$7,$8,$9,0*
20,1,$1+$1,$8,$9,$2,$3,0*%
G04 Aperture macros list end*
%TA.AperFunction,SMDPad,CuDef*%
%ADD10R,3.500000X3.500000*%
%TD*%
%TA.AperFunction,SMDPad,CuDef*%
%ADD11R,0.280000X0.800000*%
%TD*%
%TA.AperFunction,SMDPad,CuDef*%
%ADD12R,0.800000X0.280000*%
%TD*%
%TA.AperFunction,ComponentPad*%
%ADD13C,2.324100*%
%TD*%
%TA.AperFunction,SMDPad,CuDef*%
%ADD14RoundRect,0.200000X0.275000X-0.200000X0.275000X0.200000X-0.275000X0.200000X-0.275000X-0.200000X0*%
%TD*%
%TA.AperFunction,SMDPad,CuDef*%
%ADD15RoundRect,0.225000X0.250000X-0.225000X0.250000X0.225000X-0.250000X0.225000X-0.250000X-0.225000X0*%
%TD*%
%TA.AperFunction,SMDPad,CuDef*%
%ADD16RoundRect,0.225000X-0.250000X0.225000X-0.250000X-0.225000X0.250000X-0.225000X0.250000X0.225000X0*%
%TD*%
%TA.AperFunction,SMDPad,CuDef*%
%ADD17RoundRect,0.200000X-0.275000X0.200000X-0.275000X-0.200000X0.275000X-0.200000X0.275000X0.200000X0*%
%TD*%
%TA.AperFunction,ComponentPad*%
%ADD18C,1.500000*%
%TD*%
%TA.AperFunction,ComponentPad*%
%ADD19R,1.700000X1.700000*%
%TD*%
%TA.AperFunction,ComponentPad*%
%ADD20C,1.700000*%
%TD*%
%TA.AperFunction,SMDPad,CuDef*%
%ADD21RoundRect,0.165000X0.495000X-0.740000X0.495000X0.740000X-0.495000X0.740000X-0.495000X-0.740000X0*%
%TD*%
%TA.AperFunction,ComponentPad*%
%ADD22C,2.000000*%
%TD*%
%TA.AperFunction,SMDPad,CuDef*%
%ADD23RoundRect,0.375000X-0.875000X-0.875000X0.875000X-0.875000X0.875000X0.875000X-0.875000X0.875000X0*%
%TD*%
%TA.AperFunction,SMDPad,CuDef*%
%ADD24R,0.800000X1.000000*%
%TD*%
%TA.AperFunction,ViaPad*%
%ADD25C,0.600000*%
%TD*%
%TA.AperFunction,Conductor*%
%ADD26C,0.200000*%
%TD*%
%TA.AperFunction,Conductor*%
%ADD27C,0.400000*%
%TD*%
G04 APERTURE END LIST*
D10*
%TO.P,U2,33,EP*%
%TO.N,GND*%
X120000000Y-130925000D03*
D11*
%TO.P,U2,32,NC*%
%TO.N,unconnected-(U2-NC-Pad32)*%
X118250000Y-128425000D03*
%TO.P,U2,31,SSB*%
%TO.N,SSB*%
X118750000Y-128425000D03*
%TO.P,U2,30,SCLK/GPI1*%
%TO.N,SCLK*%
X119250000Y-128425000D03*
%TO.P,U2,29,MISO/GPIO2*%
%TO.N,MISO*%
X119750000Y-128425000D03*
%TO.P,U2,28,NC*%
%TO.N,unconnected-(U2-NC-Pad28)*%
X120250000Y-128425000D03*
%TO.P,U2,27,GPIO5*%
%TO.N,GPIO5*%
X120750000Y-128425000D03*
%TO.P,U2,26,VCCD*%
%TO.N,BAT+*%
X121250000Y-128425000D03*
%TO.P,U2,25,NC*%
%TO.N,unconnected-(U2-NC-Pad25)*%
X121750000Y-128425000D03*
D12*
%TO.P,U2,24,NC*%
%TO.N,unconnected-(U2-NC-Pad24)*%
X122500000Y-129175000D03*
%TO.P,U2,23,NC*%
%TO.N,unconnected-(U2-NC-Pad23)*%
X122500000Y-129675000D03*
%TO.P,U2,22,RDY/BSYB/GPIO4*%
%TO.N,RDY{slash}BSYB*%
X122500000Y-130175000D03*
%TO.P,U2,21,INTB/GPIO3*%
%TO.N,INTB*%
X122500000Y-130675000D03*
%TO.P,U2,20,NC*%
%TO.N,unconnected-(U2-NC-Pad20)*%
X122500000Y-131175000D03*
%TO.P,U2,19,NC*%
%TO.N,unconnected-(U2-NC-Pad19)*%
X122500000Y-131675000D03*
%TO.P,U2,18,NC*%
%TO.N,unconnected-(U2-NC-Pad18)*%
X122500000Y-132175000D03*
%TO.P,U2,17,NC*%
%TO.N,unconnected-(U2-NC-Pad17)*%
X122500000Y-132675000D03*
D11*
%TO.P,U2,16,NC*%
%TO.N,unconnected-(U2-NC-Pad16)*%
X121750000Y-133425000D03*
%TO.P,U2,15,VCCD_PWM*%
%TO.N,BAT+*%
X121250000Y-133425000D03*
%TO.P,U2,14,SPK-*%
%TO.N,SPK-*%
X120750000Y-133425000D03*
%TO.P,U2,13,VSSD_PWM*%
%TO.N,GND*%
X120250000Y-133425000D03*
%TO.P,U2,12,VSSD_PWM*%
X119750000Y-133425000D03*
%TO.P,U2,11,SPK+*%
%TO.N,SPK+*%
X119250000Y-133425000D03*
%TO.P,U2,10,VCCD_PWM*%
%TO.N,BAT+*%
X118750000Y-133425000D03*
%TO.P,U2,9,NC*%
%TO.N,unconnected-(U2-NC-Pad9)*%
X118250000Y-133425000D03*
D12*
%TO.P,U2,8,NC*%
%TO.N,unconnected-(U2-NC-Pad8)*%
X117500000Y-132675000D03*
%TO.P,U2,7,NC*%
%TO.N,unconnected-(U2-NC-Pad7)*%
X117500000Y-132175000D03*
%TO.P,U2,6,NC*%
%TO.N,unconnected-(U2-NC-Pad6)*%
X117500000Y-131675000D03*
%TO.P,U2,5,NC*%
%TO.N,unconnected-(U2-NC-Pad5)*%
X117500000Y-131175000D03*
%TO.P,U2,4,VSSD*%
%TO.N,GND*%
X117500000Y-130675000D03*
%TO.P,U2,3,MOSI/GPIO0*%
%TO.N,MOSI*%
X117500000Y-130175000D03*
%TO.P,U2,2,NC*%
%TO.N,unconnected-(U2-NC-Pad2)*%
X117500000Y-129675000D03*
%TO.P,U2,1,NC*%
%TO.N,unconnected-(U2-NC-Pad1)*%
X117500000Y-129175000D03*
%TD*%
D13*
%TO.P,S1,1*%
%TO.N,GPIO5*%
X116190000Y-112540000D03*
%TO.P,S1,2*%
%TO.N,GND*%
X122540000Y-110000000D03*
%TD*%
D14*
%TO.P,R1,1*%
%TO.N,BAT+*%
X110910000Y-114195000D03*
%TO.P,R1,2*%
%TO.N,GPIO5*%
X110910000Y-112545000D03*
%TD*%
D15*
%TO.P,C2,2*%
%TO.N,GND*%
X123870000Y-125160000D03*
%TO.P,C2,1*%
%TO.N,BAT+*%
X123870000Y-126710000D03*
%TD*%
D16*
%TO.P,C3,2*%
%TO.N,GND*%
X123940000Y-137395000D03*
%TO.P,C3,1*%
%TO.N,BAT+*%
X123940000Y-135845000D03*
%TD*%
D14*
%TO.P,C4,2*%
%TO.N,GND*%
X122265000Y-125110000D03*
%TO.P,C4,1*%
%TO.N,BAT+*%
X122265000Y-126760000D03*
%TD*%
D17*
%TO.P,C5,2*%
%TO.N,GND*%
X122320000Y-137445000D03*
%TO.P,C5,1*%
%TO.N,BAT+*%
X122320000Y-135795000D03*
%TD*%
D18*
%TO.P,U1,*%
%TO.N,*%
X104050000Y-155950000D03*
%TD*%
D19*
%TO.P,J1,1,Pin_1*%
%TO.N,unconnected-(J1-Pin_1-Pad1)*%
X133500000Y-110390000D03*
D20*
%TO.P,J1,2,Pin_2*%
%TO.N,RDY{slash}BSYB*%
X136040000Y-110390000D03*
%TO.P,J1,3,Pin_3*%
%TO.N,INTB*%
X133500000Y-112930000D03*
%TO.P,J1,4,Pin_4*%
%TO.N,SSB*%
X136040000Y-112930000D03*
%TO.P,J1,5,Pin_5*%
%TO.N,MOSI*%
X133500000Y-115470000D03*
%TO.P,J1,6,Pin_6*%
%TO.N,MISO*%
X136040000Y-115470000D03*
%TO.P,J1,7,Pin_7*%
%TO.N,SCLK*%
X133500000Y-118010000D03*
%TO.P,J1,8,Pin_8*%
%TO.N,BAT+*%
X136040000Y-118010000D03*
%TO.P,J1,9,Pin_9*%
%TO.N,GND*%
X133500000Y-120550000D03*
%TO.P,J1,10,Pin_10*%
X136040000Y-120550000D03*
%TD*%
D21*
%TO.P,C1,1*%
%TO.N,BAT+*%
X134621605Y-140390000D03*
%TO.P,C1,2*%
%TO.N,GND*%
X134621605Y-137790000D03*
%TD*%
D22*
%TO.P,LS2,1,1*%
%TO.N,SPK+*%
X115000000Y-151560000D03*
%TO.P,LS2,2,2*%
%TO.N,SPK-*%
X125000000Y-151560000D03*
%TD*%
D23*
%TO.P,LS1,1,1*%
%TO.N,SPK+*%
X104000000Y-160000000D03*
%TO.P,LS1,2,2*%
%TO.N,SPK-*%
X109000000Y-160000000D03*
%TD*%
D24*
%TO.P,D1,1,A*%
%TO.N,Net-(D1-A)*%
X134621605Y-145182804D03*
%TO.P,D1,2,K*%
%TO.N,BAT+*%
X134621605Y-142782804D03*
%TD*%
D25*
%TO.N,BAT+*%
X118650000Y-135800000D03*
X121350000Y-135800000D03*
%TO.N,GND*%
X107530000Y-125420000D03*
X125310000Y-160980000D03*
X110070000Y-150820000D03*
X138010000Y-127000000D03*
X107530000Y-115260000D03*
X107530000Y-145740000D03*
X127850000Y-127960000D03*
X112610000Y-102560000D03*
X135470000Y-127960000D03*
X107530000Y-148280000D03*
X107530000Y-135580000D03*
X107530000Y-143200000D03*
X112610000Y-148280000D03*
X104990000Y-133040000D03*
X102450000Y-122880000D03*
X102450000Y-115260000D03*
X112610000Y-143200000D03*
X115150000Y-130500000D03*
X104990000Y-125420000D03*
X107530000Y-140660000D03*
X102450000Y-135580000D03*
X107530000Y-138120000D03*
X115150000Y-155900000D03*
X104990000Y-102560000D03*
X117690000Y-125420000D03*
X121000000Y-131925000D03*
X125310000Y-153360000D03*
X115150000Y-110180000D03*
X135470000Y-135580000D03*
X138010000Y-125750000D03*
X115150000Y-115260000D03*
X125310000Y-122880000D03*
X115150000Y-135580000D03*
X102450000Y-150820000D03*
X125310000Y-133040000D03*
X125310000Y-112720000D03*
X110070000Y-145740000D03*
X132930000Y-122880000D03*
X104990000Y-143200000D03*
X117690000Y-110180000D03*
X112610000Y-110180000D03*
X110070000Y-122880000D03*
X112610000Y-150820000D03*
X127850000Y-125420000D03*
X110070000Y-155900000D03*
X130390000Y-138120000D03*
X110070000Y-130500000D03*
X112610000Y-135580000D03*
X120050000Y-138130000D03*
X102450000Y-153360000D03*
X127850000Y-133040000D03*
X122770000Y-122880000D03*
X135470000Y-130500000D03*
X115150000Y-107640000D03*
X132930000Y-130500000D03*
X104990000Y-120340000D03*
X102450000Y-148280000D03*
X117690000Y-138120000D03*
X125310000Y-163520000D03*
X104990000Y-107640000D03*
X107530000Y-150820000D03*
X120230000Y-150820000D03*
X115150000Y-133040000D03*
X110070000Y-140660000D03*
X130390000Y-133040000D03*
X138010000Y-105100000D03*
X115150000Y-143200000D03*
X102450000Y-107640000D03*
X110070000Y-120340000D03*
X112610000Y-138120000D03*
X104990000Y-153360000D03*
X138010000Y-160980000D03*
X102450000Y-120340000D03*
X132930000Y-133040000D03*
X122770000Y-115260000D03*
X107530000Y-120340000D03*
X127850000Y-112720000D03*
X122770000Y-150820000D03*
X120230000Y-148280000D03*
X122800000Y-118610000D03*
X115150000Y-117800000D03*
X125310000Y-158440000D03*
X110070000Y-138120000D03*
X110070000Y-110180000D03*
X104990000Y-117800000D03*
X112610000Y-115260000D03*
X107530000Y-130500000D03*
X125310000Y-138120000D03*
X112610000Y-140660000D03*
X112610000Y-107640000D03*
X112610000Y-133040000D03*
X135470000Y-105100000D03*
X112610000Y-127960000D03*
X115150000Y-140660000D03*
X135470000Y-102560000D03*
X107530000Y-153360000D03*
X132930000Y-135580000D03*
X102450000Y-102560000D03*
X115150000Y-145740000D03*
X102450000Y-143200000D03*
X138010000Y-115260000D03*
X138010000Y-158440000D03*
X107530000Y-110180000D03*
X110070000Y-127960000D03*
X138010000Y-112720000D03*
X127850000Y-122880000D03*
X121350000Y-134858528D03*
X115150000Y-153360000D03*
X104990000Y-130500000D03*
X120230000Y-110180000D03*
X112610000Y-130500000D03*
X138010000Y-145740000D03*
X102450000Y-125420000D03*
X117690000Y-135580000D03*
X102450000Y-145740000D03*
X102450000Y-127960000D03*
X122770000Y-112720000D03*
X112610000Y-120340000D03*
X138010000Y-150820000D03*
X117690000Y-117800000D03*
X125340000Y-118610000D03*
X135470000Y-107640000D03*
X102450000Y-112720000D03*
X104990000Y-148280000D03*
X107530000Y-127960000D03*
X135470000Y-122880000D03*
X138010000Y-122880000D03*
X119000000Y-131925000D03*
X112610000Y-122880000D03*
X125310000Y-148280000D03*
X107530000Y-133040000D03*
X102450000Y-155900000D03*
X122770000Y-140660000D03*
X125310000Y-145740000D03*
X135470000Y-125420000D03*
X102450000Y-133040000D03*
X120050000Y-140670000D03*
X117690000Y-153360000D03*
X104990000Y-112720000D03*
X135470000Y-133040000D03*
X127880000Y-119980000D03*
X138010000Y-153360000D03*
X122770000Y-127960000D03*
X120230000Y-153360000D03*
X102450000Y-110180000D03*
X121000000Y-129925000D03*
X104990000Y-150820000D03*
X120050000Y-143210000D03*
X122770000Y-143200000D03*
X102450000Y-140660000D03*
X122800000Y-119980000D03*
X127850000Y-140660000D03*
X122770000Y-145740000D03*
X138010000Y-148280000D03*
X117690000Y-145740000D03*
X110070000Y-135580000D03*
X115150000Y-102560000D03*
X104990000Y-105100000D03*
X132930000Y-127960000D03*
X102450000Y-105100000D03*
X104990000Y-127960000D03*
X115150000Y-138120000D03*
X104990000Y-145740000D03*
X127850000Y-110180000D03*
X115150000Y-105100000D03*
X115150000Y-127960000D03*
X138010000Y-102560000D03*
X117690000Y-155900000D03*
X104990000Y-140660000D03*
X127850000Y-138120000D03*
X110070000Y-143200000D03*
X138010000Y-110180000D03*
X112610000Y-145740000D03*
X125310000Y-127960000D03*
X112610000Y-155900000D03*
X104990000Y-163520000D03*
X138010000Y-107640000D03*
X119000000Y-129925000D03*
X107530000Y-117800000D03*
X104990000Y-115260000D03*
X107530000Y-122880000D03*
X110070000Y-117800000D03*
X115150000Y-125420000D03*
X138010000Y-155900000D03*
X112610000Y-105100000D03*
X112610000Y-125420000D03*
X104990000Y-138120000D03*
X102450000Y-130500000D03*
X130390000Y-135580000D03*
X117690000Y-140660000D03*
X125340000Y-119980000D03*
X125310000Y-143200000D03*
X122770000Y-155900000D03*
X125310000Y-125420000D03*
X110070000Y-115260000D03*
X138010000Y-120340000D03*
X117690000Y-150820000D03*
X122770000Y-148280000D03*
X125310000Y-155900000D03*
X115150000Y-122880000D03*
X107530000Y-112720000D03*
X125310000Y-115260000D03*
X130390000Y-140660000D03*
X104990000Y-110180000D03*
X110070000Y-125420000D03*
X127880000Y-118610000D03*
X120050000Y-145750000D03*
X102450000Y-117800000D03*
X102450000Y-138120000D03*
X110070000Y-133040000D03*
X117690000Y-143200000D03*
X104990000Y-135580000D03*
X130390000Y-110180000D03*
X115150000Y-148280000D03*
X110070000Y-148280000D03*
X125310000Y-140660000D03*
X127850000Y-115260000D03*
X125310000Y-110180000D03*
X132930000Y-125420000D03*
X104990000Y-122880000D03*
%TO.N,Net-(D1-A)*%
X135811605Y-144342804D03*
X133271605Y-146882804D03*
X135811605Y-146882804D03*
X133271605Y-144342804D03*
%TO.N,GPIO5*%
X119205570Y-117673601D03*
X120750000Y-127130000D03*
%TO.N,INTB*%
X130900000Y-112930000D03*
X130200000Y-130000000D03*
%TO.N,RDY{slash}BSYB*%
X131280057Y-111700000D03*
X129600000Y-129364512D03*
%TO.N,MOSI*%
X130890000Y-120270000D03*
X117140000Y-120730000D03*
X116410000Y-129720000D03*
%TO.N,MISO*%
X119868183Y-127497793D03*
X120150000Y-119540000D03*
%TO.N,SSB*%
X118650000Y-127528140D03*
X119361037Y-118526553D03*
%TO.N,SCLK*%
X120150000Y-118658999D03*
X119250000Y-126990000D03*
%TD*%
D26*
%TO.N,BAT+*%
X110910000Y-115405000D02*
X110910000Y-114195000D01*
X121250000Y-128425001D02*
X121250000Y-127775000D01*
D27*
X130311364Y-139590000D02*
X126566364Y-135845000D01*
X137740000Y-128650000D02*
X137740000Y-139860000D01*
D26*
X118650000Y-135800000D02*
X118650000Y-134780000D01*
D27*
X138750000Y-123860000D02*
X138750000Y-119220000D01*
D26*
X121355000Y-135795000D02*
X121350000Y-135800000D01*
X121250000Y-127775000D02*
X122265000Y-126760000D01*
D27*
X123940000Y-135845000D02*
X122370000Y-135845000D01*
D26*
X122320000Y-134980000D02*
X122320000Y-135795000D01*
D27*
X135850000Y-126760000D02*
X137740000Y-128650000D01*
X123870000Y-126710000D02*
X122315000Y-126710000D01*
X126566364Y-135845000D02*
X123940000Y-135845000D01*
D26*
X122320000Y-135795000D02*
X121355000Y-135795000D01*
D27*
X130311364Y-139590000D02*
X131290000Y-139590000D01*
X122370000Y-135845000D02*
X122320000Y-135795000D01*
X135800000Y-126710000D02*
X123870000Y-126710000D01*
X122325000Y-135790000D02*
X122320000Y-135795000D01*
X138750000Y-119220000D02*
X137540000Y-118010000D01*
D26*
X122265000Y-126760000D02*
X110910000Y-115405000D01*
D27*
X135850000Y-126760000D02*
X135800000Y-126710000D01*
D26*
X118750000Y-133424999D02*
X118750000Y-134680000D01*
X121250000Y-133424999D02*
X121250000Y-133910000D01*
D27*
X135850000Y-126760000D02*
X138750000Y-123860000D01*
D26*
X118650000Y-134780000D02*
X118750000Y-134680000D01*
D27*
X137540000Y-118010000D02*
X136040000Y-118010000D01*
D26*
X121250000Y-133910000D02*
X122320000Y-134980000D01*
D27*
X122315000Y-126710000D02*
X122265000Y-126760000D01*
D26*
%TO.N,GND*%
X119750000Y-131175000D02*
X120000000Y-130925000D01*
X117500000Y-130675000D02*
X119750000Y-130675000D01*
X119750000Y-130675000D02*
X120000000Y-130925000D01*
X120250000Y-131175000D02*
X120000000Y-130925000D01*
X119750000Y-133425000D02*
X119750000Y-131175000D01*
X120250000Y-133425000D02*
X120250000Y-131175000D01*
%TO.N,GPIO5*%
X119205570Y-117673601D02*
X116190000Y-114658031D01*
X116185000Y-112535000D02*
X116190000Y-112540000D01*
X116185000Y-112545000D02*
X116190000Y-112540000D01*
X110910000Y-112545000D02*
X116185000Y-112545000D01*
X116190000Y-114658031D02*
X116190000Y-112540000D01*
X120750000Y-128425000D02*
X120750000Y-127130000D01*
%TO.N,INTB*%
X129525000Y-130675000D02*
X130200000Y-130000000D01*
X130900000Y-112930000D02*
X133500000Y-112930000D01*
X122500000Y-130675000D02*
X129525000Y-130675000D01*
%TO.N,SPK+*%
X110165612Y-152461646D02*
X110250468Y-152376791D01*
X111438416Y-151528269D02*
X111785369Y-151875222D01*
X112124779Y-151875223D02*
X112209632Y-151790369D01*
X111962603Y-153410106D02*
X112047455Y-153325253D01*
X111530805Y-152469191D02*
X111530807Y-152469193D01*
X110589878Y-152376792D02*
X110936839Y-152723753D01*
X111361102Y-152299488D02*
X111014149Y-151952535D01*
X112047455Y-152985841D02*
X111530805Y-152469191D01*
X110512573Y-153148016D02*
X110165613Y-152801056D01*
X104000000Y-160000000D02*
X110512572Y-153487428D01*
X111106544Y-152893458D02*
X111106543Y-152893457D01*
X111014150Y-151613123D02*
X111099004Y-151528270D01*
X119250000Y-147310000D02*
X115000000Y-151560000D01*
X112440000Y-151560000D02*
X115000000Y-151560000D01*
X110936839Y-152723753D02*
X111106544Y-152893458D01*
X111530807Y-152469193D02*
X111361102Y-152299488D01*
X112209632Y-151790369D02*
X112440000Y-151560000D01*
X111106543Y-152893457D02*
X111623192Y-153410106D01*
X119250000Y-133425000D02*
X119250000Y-147310000D01*
X111623192Y-153410106D02*
G75*
G03*
X111962603Y-153410107I169706J169707D01*
G01*
X112047455Y-153325253D02*
G75*
G03*
X112047502Y-152985794I-169655J169753D01*
G01*
X110250468Y-152376791D02*
G75*
G02*
X110589905Y-152376764I169732J-169709D01*
G01*
X110512572Y-153487428D02*
G75*
G03*
X110512595Y-153147994I-169672J169728D01*
G01*
X111099004Y-151528270D02*
G75*
G02*
X111438406Y-151528279I169696J-169730D01*
G01*
X110165613Y-152801056D02*
G75*
G02*
X110165661Y-152461696I169687J169656D01*
G01*
X111014149Y-151952535D02*
G75*
G02*
X111014120Y-151613094I169751J169735D01*
G01*
X111785369Y-151875222D02*
G75*
G03*
X112124804Y-151875249I169731J169722D01*
G01*
%TO.N,RDY{slash}BSYB*%
X129176470Y-130175000D02*
X122500000Y-130175000D01*
X131280057Y-111700000D02*
X134730000Y-111700000D01*
X129600000Y-129751470D02*
X129176470Y-130175000D01*
X129600000Y-129364512D02*
X129600000Y-129751470D01*
X134730000Y-111700000D02*
X136040000Y-110390000D01*
%TO.N,MOSI*%
X117500000Y-130175000D02*
X116865000Y-130175000D01*
X116865000Y-130175000D02*
X116410000Y-129720000D01*
X130430000Y-120730000D02*
X130890000Y-120270000D01*
X117140000Y-120730000D02*
X130430000Y-120730000D01*
%TO.N,MISO*%
X120150000Y-119540000D02*
X120470000Y-119220000D01*
X119750000Y-128425000D02*
X119750000Y-127615976D01*
X134889000Y-116621000D02*
X136040000Y-115470000D01*
X133990000Y-119220000D02*
X134889000Y-118321000D01*
X134889000Y-118321000D02*
X134889000Y-116621000D01*
X120470000Y-119220000D02*
X133990000Y-119220000D01*
X119750000Y-127615976D02*
X119868183Y-127497793D01*
%TO.N,SSB*%
X118750000Y-128425001D02*
X118750000Y-127628140D01*
X119361037Y-118526553D02*
X120278590Y-117609000D01*
X120278590Y-117609000D02*
X131751000Y-117609000D01*
X118750000Y-127628140D02*
X118650000Y-127528140D01*
X134780000Y-116020000D02*
X134780000Y-114190000D01*
X134060000Y-116740000D02*
X134780000Y-116020000D01*
X132620000Y-116740000D02*
X134060000Y-116740000D01*
X131751000Y-117609000D02*
X132620000Y-116740000D01*
X134780000Y-114190000D02*
X136040000Y-112930000D01*
%TO.N,SCLK*%
X120151001Y-118660000D02*
X120151001Y-118658999D01*
X120800000Y-118010000D02*
X133500000Y-118010000D01*
X120150000Y-118658999D02*
X120151001Y-118660000D01*
X120151001Y-118658999D02*
X120800000Y-118010000D01*
X119250000Y-128425000D02*
X119250000Y-126990000D01*
%TO.N,SPK-*%
X120750000Y-147310000D02*
X125000000Y-151560000D01*
X125000000Y-151560000D02*
X116560000Y-160000000D01*
X120750000Y-133425000D02*
X120750000Y-147310000D01*
X116560000Y-160000000D02*
X109000000Y-160000000D01*
%TD*%
%TA.AperFunction,Conductor*%
%TO.N,Net-(D1-A)*%
G36*
X135309648Y-143612489D02*
G01*
X135344498Y-143650307D01*
X135346182Y-143649151D01*
X135350123Y-143654890D01*
X135395882Y-143707699D01*
X135409816Y-143721920D01*
X135413468Y-143725647D01*
X135413469Y-143725648D01*
X135413471Y-143725649D01*
X135489214Y-143768017D01*
X135493285Y-143770294D01*
X135560324Y-143789979D01*
X135618222Y-143798304D01*
X135618226Y-143798304D01*
X136533331Y-143798304D01*
X136552512Y-143803936D01*
X136572491Y-143804650D01*
X136585351Y-143813578D01*
X136600370Y-143817989D01*
X136613459Y-143833094D01*
X136629883Y-143844498D01*
X136644091Y-143868446D01*
X136646125Y-143870793D01*
X136647892Y-143874852D01*
X136678320Y-143948313D01*
X136686698Y-143979579D01*
X136700544Y-144084743D01*
X136701605Y-144100929D01*
X136701605Y-147084678D01*
X136700544Y-147100864D01*
X136686698Y-147206028D01*
X136678320Y-147237295D01*
X136640864Y-147327722D01*
X136624679Y-147355755D01*
X136565096Y-147433405D01*
X136542206Y-147456295D01*
X136464556Y-147515878D01*
X136436523Y-147532063D01*
X136346096Y-147569519D01*
X136314829Y-147577897D01*
X136221003Y-147590250D01*
X136209663Y-147591743D01*
X136193479Y-147592804D01*
X132829731Y-147592804D01*
X132813546Y-147591743D01*
X132800522Y-147590028D01*
X132708380Y-147577897D01*
X132677113Y-147569519D01*
X132586686Y-147532063D01*
X132558653Y-147515878D01*
X132481003Y-147456295D01*
X132458113Y-147433405D01*
X132398530Y-147355755D01*
X132382345Y-147327722D01*
X132344889Y-147237295D01*
X132336511Y-147206027D01*
X132322666Y-147100863D01*
X132321605Y-147084678D01*
X132321605Y-145730648D01*
X133721605Y-145730648D01*
X133728006Y-145790176D01*
X133728008Y-145790183D01*
X133778250Y-145924890D01*
X133778254Y-145924897D01*
X133864414Y-146039991D01*
X133864417Y-146039994D01*
X133979511Y-146126154D01*
X133979518Y-146126158D01*
X134114225Y-146176400D01*
X134114232Y-146176402D01*
X134173760Y-146182803D01*
X134173777Y-146182804D01*
X134371605Y-146182804D01*
X134871605Y-146182804D01*
X135069433Y-146182804D01*
X135069449Y-146182803D01*
X135128977Y-146176402D01*
X135128984Y-146176400D01*
X135263691Y-146126158D01*
X135263698Y-146126154D01*
X135378792Y-146039994D01*
X135378795Y-146039991D01*
X135464955Y-145924897D01*
X135464959Y-145924890D01*
X135515201Y-145790183D01*
X135515203Y-145790176D01*
X135521604Y-145730648D01*
X135521605Y-145730631D01*
X135521605Y-145432804D01*
X134871605Y-145432804D01*
X134871605Y-146182804D01*
X134371605Y-146182804D01*
X134371605Y-145432804D01*
X133721605Y-145432804D01*
X133721605Y-145730648D01*
X132321605Y-145730648D01*
X132321605Y-144634959D01*
X133721605Y-144634959D01*
X133721605Y-144932804D01*
X134371605Y-144932804D01*
X134871605Y-144932804D01*
X135521605Y-144932804D01*
X135521605Y-144634976D01*
X135521604Y-144634959D01*
X135515203Y-144575431D01*
X135515201Y-144575424D01*
X135464959Y-144440717D01*
X135464955Y-144440710D01*
X135378795Y-144325616D01*
X135378792Y-144325613D01*
X135263698Y-144239453D01*
X135263691Y-144239449D01*
X135128984Y-144189207D01*
X135128977Y-144189205D01*
X135069449Y-144182804D01*
X134871605Y-144182804D01*
X134871605Y-144932804D01*
X134371605Y-144932804D01*
X134371605Y-144182804D01*
X134173760Y-144182804D01*
X134114232Y-144189205D01*
X134114225Y-144189207D01*
X133979518Y-144239449D01*
X133979511Y-144239453D01*
X133864417Y-144325613D01*
X133864414Y-144325616D01*
X133778254Y-144440710D01*
X133778250Y-144440717D01*
X133728008Y-144575424D01*
X133728006Y-144575431D01*
X133721605Y-144634959D01*
X132321605Y-144634959D01*
X132321605Y-144100929D01*
X132322666Y-144084744D01*
X132336511Y-143979580D01*
X132336511Y-143979579D01*
X132344889Y-143948312D01*
X132375318Y-143874851D01*
X132419160Y-143820447D01*
X132485454Y-143798383D01*
X132489879Y-143798304D01*
X133624987Y-143798304D01*
X133624988Y-143798304D01*
X133646956Y-143797126D01*
X133673315Y-143794292D01*
X133749833Y-143770333D01*
X133811156Y-143736848D01*
X133832443Y-143723472D01*
X133893035Y-143654967D01*
X133893038Y-143654961D01*
X133897034Y-143649269D01*
X133898676Y-143650421D01*
X133941116Y-143607976D01*
X134000551Y-143592804D01*
X135242609Y-143592804D01*
X135309648Y-143612489D01*
G37*
%TD.AperFunction*%
%TD*%
%TA.AperFunction,Conductor*%
%TO.N,BAT+*%
G36*
X133473784Y-139081367D02*
G01*
X133540767Y-139101243D01*
X133586371Y-139154177D01*
X133596117Y-139223364D01*
X133579548Y-139269515D01*
X133515736Y-139375074D01*
X133467694Y-139529248D01*
X133461605Y-139596257D01*
X133461605Y-140140000D01*
X135781604Y-140140000D01*
X135781604Y-139596247D01*
X135775517Y-139529254D01*
X135775515Y-139529246D01*
X135727472Y-139375071D01*
X135727471Y-139375069D01*
X135667635Y-139276087D01*
X135649799Y-139208533D01*
X135671317Y-139142059D01*
X135725358Y-139097772D01*
X135774103Y-139087939D01*
X137714933Y-139093484D01*
X137731064Y-139094586D01*
X137836018Y-139108684D01*
X137867197Y-139117118D01*
X137957393Y-139154705D01*
X137985337Y-139170910D01*
X138053462Y-139223364D01*
X138062751Y-139230516D01*
X138085567Y-139253397D01*
X138144952Y-139330980D01*
X138161081Y-139358979D01*
X138198403Y-139449267D01*
X138206751Y-139480479D01*
X138213161Y-139529254D01*
X138219243Y-139575535D01*
X138220548Y-139585460D01*
X138221605Y-139601618D01*
X138221605Y-143084678D01*
X138220544Y-143100864D01*
X138206698Y-143206028D01*
X138198320Y-143237295D01*
X138160864Y-143327722D01*
X138144679Y-143355755D01*
X138085096Y-143433405D01*
X138062206Y-143456295D01*
X137984556Y-143515878D01*
X137956523Y-143532063D01*
X137866096Y-143569519D01*
X137834829Y-143577897D01*
X137741003Y-143590250D01*
X137729663Y-143591743D01*
X137713479Y-143592804D01*
X135618222Y-143592804D01*
X135551183Y-143573119D01*
X135505428Y-143520315D01*
X135495484Y-143451157D01*
X135502041Y-143425470D01*
X135515200Y-143390187D01*
X135515203Y-143390176D01*
X135521604Y-143330648D01*
X135521605Y-143330631D01*
X135521605Y-143032804D01*
X133721605Y-143032804D01*
X133721605Y-143330648D01*
X133728006Y-143390176D01*
X133728009Y-143390187D01*
X133741169Y-143425470D01*
X133746154Y-143495161D01*
X133712670Y-143556485D01*
X133651347Y-143589970D01*
X133624988Y-143592804D01*
X131439731Y-143592804D01*
X131423546Y-143591743D01*
X131410078Y-143589970D01*
X131318380Y-143577897D01*
X131287113Y-143569519D01*
X131196686Y-143532063D01*
X131168653Y-143515878D01*
X131091003Y-143456295D01*
X131068113Y-143433405D01*
X131062024Y-143425470D01*
X131008530Y-143355755D01*
X130992345Y-143327722D01*
X130954889Y-143237295D01*
X130946511Y-143206027D01*
X130932666Y-143100863D01*
X130931605Y-143084678D01*
X130931605Y-141183752D01*
X133461606Y-141183752D01*
X133467692Y-141250745D01*
X133467694Y-141250753D01*
X133515737Y-141404928D01*
X133515738Y-141404930D01*
X133599279Y-141543125D01*
X133599282Y-141543129D01*
X133713475Y-141657322D01*
X133713479Y-141657325D01*
X133839309Y-141733391D01*
X133886497Y-141784918D01*
X133898336Y-141853777D01*
X133871068Y-141918106D01*
X133865118Y-141924675D01*
X133778254Y-142040710D01*
X133778250Y-142040717D01*
X133728008Y-142175424D01*
X133728006Y-142175431D01*
X133721605Y-142234959D01*
X133721605Y-142532804D01*
X134371605Y-142532804D01*
X134871605Y-142532804D01*
X135521605Y-142532804D01*
X135521605Y-142234976D01*
X135521604Y-142234959D01*
X135515203Y-142175431D01*
X135515201Y-142175424D01*
X135464959Y-142040717D01*
X135464955Y-142040710D01*
X135373480Y-141918516D01*
X135375007Y-141917372D01*
X135346883Y-141865866D01*
X135351867Y-141796174D01*
X135393739Y-141740241D01*
X135403900Y-141733390D01*
X135529735Y-141657321D01*
X135643927Y-141543129D01*
X135643930Y-141543125D01*
X135727471Y-141404930D01*
X135727473Y-141404926D01*
X135775515Y-141250751D01*
X135781605Y-141183742D01*
X135781605Y-140640000D01*
X134871605Y-140640000D01*
X134871605Y-142532804D01*
X134371605Y-142532804D01*
X134371605Y-140640000D01*
X133461606Y-140640000D01*
X133461606Y-141183752D01*
X130931605Y-141183752D01*
X130931605Y-139583675D01*
X130932670Y-139567461D01*
X130937710Y-139529246D01*
X130946565Y-139462109D01*
X130954973Y-139430790D01*
X130978100Y-139375071D01*
X130992561Y-139340226D01*
X131008802Y-139312160D01*
X131068587Y-139234438D01*
X131091547Y-139211542D01*
X131169442Y-139151978D01*
X131197544Y-139135824D01*
X131288230Y-139098488D01*
X131319559Y-139090173D01*
X131424964Y-139076577D01*
X131441173Y-139075560D01*
X133473784Y-139081367D01*
G37*
%TD.AperFunction*%
%TD*%
%TA.AperFunction,Conductor*%
%TO.N,GND*%
G36*
X123229395Y-127129407D02*
G01*
X123259414Y-127164555D01*
X123271472Y-127188220D01*
X123366780Y-127283528D01*
X123366782Y-127283529D01*
X123486867Y-127344716D01*
X123486869Y-127344716D01*
X123486874Y-127344719D01*
X123562541Y-127356703D01*
X123586510Y-127360500D01*
X123586512Y-127360500D01*
X124153490Y-127360500D01*
X124174885Y-127357111D01*
X124253126Y-127344719D01*
X124373220Y-127283528D01*
X124468528Y-127188220D01*
X124480586Y-127164555D01*
X124523851Y-127121290D01*
X124568796Y-127110500D01*
X135593099Y-127110500D01*
X135651290Y-127129407D01*
X135663103Y-127139496D01*
X137310504Y-128786896D01*
X137338281Y-128841413D01*
X137339500Y-128856900D01*
X137339500Y-138787626D01*
X137320593Y-138845817D01*
X137271093Y-138881781D01*
X137240217Y-138886626D01*
X135837524Y-138882619D01*
X135779388Y-138863545D01*
X135743565Y-138813943D01*
X135743290Y-138754165D01*
X135775515Y-138650752D01*
X135775516Y-138650749D01*
X135781604Y-138583750D01*
X135781605Y-138583738D01*
X135781605Y-138290001D01*
X135781604Y-138290000D01*
X133461607Y-138290000D01*
X133461606Y-138290001D01*
X133461606Y-138583752D01*
X133467693Y-138650748D01*
X133467695Y-138650754D01*
X133497752Y-138747211D01*
X133497013Y-138808392D01*
X133460454Y-138857454D01*
X133402952Y-138875663D01*
X131441760Y-138870061D01*
X131441759Y-138870061D01*
X131441753Y-138870061D01*
X131428303Y-138870463D01*
X131412105Y-138871479D01*
X131398674Y-138872766D01*
X131374626Y-138875868D01*
X131293270Y-138886362D01*
X131278272Y-138889306D01*
X131266837Y-138891551D01*
X131235514Y-138899864D01*
X131235506Y-138899867D01*
X131210001Y-138908460D01*
X131119296Y-138945804D01*
X131119294Y-138945805D01*
X131095128Y-138957662D01*
X131095125Y-138957663D01*
X131067053Y-138973800D01*
X131067020Y-138973821D01*
X131044620Y-138988731D01*
X130966711Y-139048306D01*
X130946441Y-139066027D01*
X130923485Y-139088918D01*
X130905711Y-139109132D01*
X130905695Y-139109152D01*
X130893111Y-139125512D01*
X130873612Y-139150860D01*
X130823149Y-139185456D01*
X130795143Y-139189500D01*
X130518264Y-139189500D01*
X130460073Y-139170593D01*
X130448260Y-139160504D01*
X129132756Y-137845000D01*
X128284005Y-136996249D01*
X133461605Y-136996249D01*
X133461605Y-137289999D01*
X133461606Y-137290000D01*
X134121604Y-137290000D01*
X134121605Y-137289999D01*
X134121605Y-136385001D01*
X135121605Y-136385001D01*
X135121605Y-137289999D01*
X135121606Y-137290000D01*
X135781603Y-137290000D01*
X135781604Y-137289999D01*
X135781604Y-136996263D01*
X135781603Y-136996247D01*
X135775516Y-136929251D01*
X135775514Y-136929245D01*
X135727474Y-136775076D01*
X135727469Y-136775065D01*
X135643929Y-136636873D01*
X135529731Y-136522675D01*
X135391539Y-136439135D01*
X135391527Y-136439130D01*
X135237360Y-136391090D01*
X135237354Y-136391088D01*
X135170355Y-136385000D01*
X135121606Y-136385000D01*
X135121605Y-136385001D01*
X134121605Y-136385001D01*
X134121605Y-136384999D01*
X134072868Y-136385000D01*
X134072852Y-136385001D01*
X134005856Y-136391088D01*
X134005850Y-136391090D01*
X133851681Y-136439130D01*
X133851670Y-136439135D01*
X133713478Y-136522675D01*
X133599280Y-136636873D01*
X133515740Y-136775065D01*
X133515735Y-136775077D01*
X133467695Y-136929244D01*
X133467693Y-136929250D01*
X133461605Y-136996249D01*
X128284005Y-136996249D01*
X126812277Y-135524520D01*
X126812274Y-135524518D01*
X126812272Y-135524516D01*
X126720955Y-135471794D01*
X126720957Y-135471794D01*
X126681434Y-135461204D01*
X126619091Y-135444500D01*
X126619089Y-135444500D01*
X124638796Y-135444500D01*
X124580605Y-135425593D01*
X124550586Y-135390445D01*
X124538529Y-135366782D01*
X124538528Y-135366780D01*
X124443220Y-135271472D01*
X124443217Y-135271470D01*
X124323132Y-135210283D01*
X124323127Y-135210281D01*
X124323126Y-135210281D01*
X124278008Y-135203135D01*
X124223490Y-135194500D01*
X124223488Y-135194500D01*
X123656512Y-135194500D01*
X123656510Y-135194500D01*
X123556874Y-135210281D01*
X123556867Y-135210283D01*
X123436782Y-135271470D01*
X123341470Y-135366782D01*
X123329414Y-135390445D01*
X123286149Y-135433710D01*
X123241204Y-135444500D01*
X123028475Y-135444500D01*
X122970284Y-135425593D01*
X122940266Y-135390446D01*
X122928207Y-135366780D01*
X122923050Y-135356658D01*
X122833342Y-135266950D01*
X122720304Y-135209354D01*
X122720306Y-135209354D01*
X122704010Y-135206773D01*
X122649494Y-135178993D01*
X122621718Y-135124476D01*
X122620500Y-135108992D01*
X122620500Y-134940439D01*
X122620499Y-134940435D01*
X122615147Y-134920460D01*
X122600022Y-134864012D01*
X122600019Y-134864006D01*
X122560463Y-134795493D01*
X122560462Y-134795492D01*
X122560461Y-134795491D01*
X122560460Y-134795489D01*
X121939077Y-134174106D01*
X121911300Y-134119589D01*
X121920871Y-134059157D01*
X121960372Y-134019655D01*
X121960124Y-134019284D01*
X121961992Y-134018035D01*
X121964136Y-134015892D01*
X121967567Y-134014310D01*
X121968229Y-134013867D01*
X121968231Y-134013867D01*
X122034552Y-133969552D01*
X122078867Y-133903231D01*
X122090500Y-133844748D01*
X122090500Y-133114500D01*
X122109407Y-133056309D01*
X122158907Y-133020345D01*
X122189500Y-133015500D01*
X122919747Y-133015500D01*
X122919748Y-133015500D01*
X122978231Y-133003867D01*
X123044552Y-132959552D01*
X123088867Y-132893231D01*
X123100500Y-132834748D01*
X123100500Y-132515252D01*
X123088867Y-132456769D01*
X123088865Y-132456767D01*
X123086964Y-132447206D01*
X123090118Y-132446578D01*
X123086596Y-132401903D01*
X123088001Y-132397576D01*
X123088864Y-132393234D01*
X123088867Y-132393231D01*
X123100500Y-132334748D01*
X123100500Y-132015252D01*
X123088867Y-131956769D01*
X123088865Y-131956767D01*
X123086964Y-131947206D01*
X123090118Y-131946578D01*
X123086596Y-131901903D01*
X123088001Y-131897576D01*
X123088864Y-131893234D01*
X123088867Y-131893231D01*
X123100500Y-131834748D01*
X123100500Y-131515252D01*
X123088867Y-131456769D01*
X123088865Y-131456767D01*
X123086964Y-131447206D01*
X123090118Y-131446578D01*
X123086596Y-131401903D01*
X123088001Y-131397576D01*
X123088864Y-131393234D01*
X123088867Y-131393231D01*
X123100500Y-131334748D01*
X123100500Y-131074500D01*
X123119407Y-131016309D01*
X123168907Y-130980345D01*
X123199500Y-130975500D01*
X129564563Y-130975500D01*
X129564563Y-130975499D01*
X129640989Y-130955021D01*
X129709511Y-130915460D01*
X129737485Y-130887485D01*
X129765461Y-130859511D01*
X130095473Y-130529497D01*
X130149990Y-130501719D01*
X130165477Y-130500500D01*
X130265890Y-130500500D01*
X130265892Y-130500500D01*
X130393186Y-130466392D01*
X130393188Y-130466390D01*
X130393190Y-130466390D01*
X130507309Y-130400503D01*
X130507309Y-130400502D01*
X130507314Y-130400500D01*
X130600500Y-130307314D01*
X130600503Y-130307309D01*
X130666390Y-130193190D01*
X130666390Y-130193188D01*
X130666392Y-130193186D01*
X130700500Y-130065892D01*
X130700500Y-129934108D01*
X130666392Y-129806814D01*
X130666390Y-129806811D01*
X130666390Y-129806809D01*
X130600503Y-129692690D01*
X130600501Y-129692688D01*
X130600500Y-129692686D01*
X130507314Y-129599500D01*
X130507311Y-129599498D01*
X130507309Y-129599496D01*
X130393189Y-129533609D01*
X130393191Y-129533609D01*
X130343799Y-129520375D01*
X130265892Y-129499500D01*
X130199500Y-129499500D01*
X130141309Y-129480593D01*
X130105345Y-129431093D01*
X130100500Y-129400500D01*
X130100500Y-129298621D01*
X130100500Y-129298620D01*
X130066392Y-129171326D01*
X130066390Y-129171323D01*
X130066390Y-129171321D01*
X130000503Y-129057202D01*
X130000501Y-129057200D01*
X130000500Y-129057198D01*
X129907314Y-128964012D01*
X129907311Y-128964010D01*
X129907309Y-128964008D01*
X129793189Y-128898121D01*
X129793191Y-128898121D01*
X129743799Y-128884887D01*
X129665892Y-128864012D01*
X129534108Y-128864012D01*
X129456200Y-128884887D01*
X129406809Y-128898121D01*
X129292690Y-128964008D01*
X129199496Y-129057202D01*
X129133609Y-129171321D01*
X129133608Y-129171326D01*
X129099500Y-129298620D01*
X129099500Y-129430404D01*
X129122235Y-129515252D01*
X129133609Y-129557702D01*
X129181711Y-129641016D01*
X129182272Y-129643658D01*
X129184184Y-129645570D01*
X129188583Y-129673347D01*
X129194433Y-129700864D01*
X129193333Y-129703333D01*
X129193756Y-129706002D01*
X129180988Y-129731061D01*
X129169546Y-129756760D01*
X129165979Y-129760519D01*
X129080996Y-129845503D01*
X129026480Y-129873281D01*
X129010992Y-129874500D01*
X123199500Y-129874500D01*
X123141309Y-129855593D01*
X123105345Y-129806093D01*
X123100500Y-129775500D01*
X123100500Y-129515253D01*
X123100500Y-129515252D01*
X123088867Y-129456769D01*
X123088865Y-129456767D01*
X123086964Y-129447206D01*
X123090118Y-129446578D01*
X123086596Y-129401903D01*
X123088001Y-129397576D01*
X123088864Y-129393234D01*
X123088867Y-129393231D01*
X123100500Y-129334748D01*
X123100500Y-129015252D01*
X123088867Y-128956769D01*
X123044552Y-128890448D01*
X123044548Y-128890445D01*
X122978233Y-128846134D01*
X122978231Y-128846133D01*
X122978228Y-128846132D01*
X122978227Y-128846132D01*
X122919758Y-128834501D01*
X122919748Y-128834500D01*
X122919747Y-128834500D01*
X122189500Y-128834500D01*
X122131309Y-128815593D01*
X122095345Y-128766093D01*
X122090500Y-128735500D01*
X122090500Y-128005253D01*
X122090498Y-128005241D01*
X122087711Y-127991231D01*
X122078867Y-127946769D01*
X122034552Y-127880448D01*
X122034548Y-127880445D01*
X121968233Y-127836134D01*
X121968231Y-127836133D01*
X121968228Y-127836132D01*
X121968227Y-127836132D01*
X121909758Y-127824501D01*
X121909748Y-127824500D01*
X121909747Y-127824500D01*
X121864478Y-127824500D01*
X121806287Y-127805593D01*
X121770323Y-127756093D01*
X121770323Y-127694907D01*
X121794474Y-127655497D01*
X122060474Y-127389496D01*
X122114991Y-127361718D01*
X122130478Y-127360499D01*
X122571521Y-127360499D01*
X122571522Y-127360498D01*
X122618411Y-127353072D01*
X122665299Y-127345647D01*
X122665299Y-127345646D01*
X122665304Y-127345646D01*
X122778342Y-127288050D01*
X122868050Y-127198342D01*
X122885266Y-127164554D01*
X122901655Y-127148164D01*
X122915284Y-127129407D01*
X122922882Y-127126938D01*
X122928531Y-127121290D01*
X122973475Y-127110500D01*
X123171204Y-127110500D01*
X123229395Y-127129407D01*
G37*
%TD.AperFunction*%
%TA.AperFunction,Conductor*%
G36*
X121219504Y-134304475D02*
G01*
X121959950Y-135044921D01*
X121987727Y-135099438D01*
X121978156Y-135159870D01*
X121934891Y-135203135D01*
X121920543Y-135209078D01*
X121919698Y-135209352D01*
X121806658Y-135266950D01*
X121806656Y-135266951D01*
X121721676Y-135351931D01*
X121667159Y-135379708D01*
X121606727Y-135370136D01*
X121602173Y-135367664D01*
X121543187Y-135333608D01*
X121500754Y-135322238D01*
X121415892Y-135299500D01*
X121284108Y-135299500D01*
X121242438Y-135310665D01*
X121175122Y-135328702D01*
X121114021Y-135325499D01*
X121066471Y-135286994D01*
X121050500Y-135233075D01*
X121050500Y-134374479D01*
X121069407Y-134316288D01*
X121118907Y-134280324D01*
X121180093Y-134280324D01*
X121219504Y-134304475D01*
G37*
%TD.AperFunction*%
%TA.AperFunction,Conductor*%
G36*
X132479459Y-118329407D02*
G01*
X132512732Y-118371614D01*
X132569058Y-118507597D01*
X132684020Y-118679651D01*
X132684023Y-118679655D01*
X132754866Y-118750498D01*
X132782642Y-118805013D01*
X132773071Y-118865445D01*
X132729806Y-118908710D01*
X132684861Y-118919500D01*
X120727374Y-118919500D01*
X120669183Y-118900593D01*
X120633219Y-118851093D01*
X120629005Y-118809340D01*
X120629836Y-118802007D01*
X120650500Y-118724891D01*
X120650500Y-118619878D01*
X120651131Y-118614317D01*
X120661597Y-118591320D01*
X120669407Y-118567286D01*
X120676108Y-118559440D01*
X120676478Y-118558628D01*
X120677105Y-118558272D01*
X120679497Y-118555473D01*
X120895475Y-118339496D01*
X120949991Y-118311719D01*
X120965478Y-118310500D01*
X132421268Y-118310500D01*
X132479459Y-118329407D01*
G37*
%TD.AperFunction*%
%TA.AperFunction,Conductor*%
G36*
X135002152Y-100500593D02*
G01*
X135387853Y-100517434D01*
X135396432Y-100518184D01*
X135777053Y-100568295D01*
X135785544Y-100569792D01*
X136160338Y-100652881D01*
X136168673Y-100655115D01*
X136534797Y-100770553D01*
X136542913Y-100773507D01*
X136897587Y-100920418D01*
X136905398Y-100924060D01*
X137245910Y-101101320D01*
X137253390Y-101105638D01*
X137577167Y-101311906D01*
X137584241Y-101316860D01*
X137888797Y-101550554D01*
X137895398Y-101556093D01*
X138178459Y-101815470D01*
X138184529Y-101821540D01*
X138443905Y-102104599D01*
X138449445Y-102111202D01*
X138683139Y-102415758D01*
X138688093Y-102422832D01*
X138894361Y-102746609D01*
X138898679Y-102754089D01*
X139075935Y-103094593D01*
X139079585Y-103102420D01*
X139226492Y-103457086D01*
X139229446Y-103465202D01*
X139344884Y-103831326D01*
X139347119Y-103839668D01*
X139430205Y-104214445D01*
X139431705Y-104222951D01*
X139481813Y-104603554D01*
X139482566Y-104612158D01*
X139499406Y-104997847D01*
X139499500Y-105002165D01*
X139499500Y-159997834D01*
X139499406Y-160002152D01*
X139482566Y-160387841D01*
X139481813Y-160396445D01*
X139431705Y-160777048D01*
X139430205Y-160785554D01*
X139347119Y-161160331D01*
X139344884Y-161168673D01*
X139229446Y-161534797D01*
X139226492Y-161542913D01*
X139079585Y-161897579D01*
X139075935Y-161905406D01*
X138898679Y-162245910D01*
X138894361Y-162253390D01*
X138688093Y-162577167D01*
X138683139Y-162584241D01*
X138449445Y-162888797D01*
X138443895Y-162895411D01*
X138184540Y-163178447D01*
X138178447Y-163184540D01*
X138162727Y-163198946D01*
X137895413Y-163443894D01*
X137888797Y-163449445D01*
X137584241Y-163683139D01*
X137577167Y-163688093D01*
X137253390Y-163894361D01*
X137245910Y-163898679D01*
X136905406Y-164075935D01*
X136897579Y-164079585D01*
X136542913Y-164226492D01*
X136534797Y-164229446D01*
X136168673Y-164344884D01*
X136160331Y-164347119D01*
X135785554Y-164430205D01*
X135777048Y-164431705D01*
X135396445Y-164481813D01*
X135387841Y-164482566D01*
X135002153Y-164499406D01*
X134997835Y-164499500D01*
X105002165Y-164499500D01*
X104997847Y-164499406D01*
X104612158Y-164482566D01*
X104603554Y-164481813D01*
X104222951Y-164431705D01*
X104214445Y-164430205D01*
X103839668Y-164347119D01*
X103831326Y-164344884D01*
X103465202Y-164229446D01*
X103457086Y-164226492D01*
X103102420Y-164079585D01*
X103094593Y-164075935D01*
X102754089Y-163898679D01*
X102746609Y-163894361D01*
X102422832Y-163688093D01*
X102415758Y-163683139D01*
X102111202Y-163449445D01*
X102104599Y-163443905D01*
X101821540Y-163184529D01*
X101815470Y-163178459D01*
X101556093Y-162895398D01*
X101550554Y-162888797D01*
X101316860Y-162584241D01*
X101311906Y-162577167D01*
X101105638Y-162253390D01*
X101101320Y-162245910D01*
X100924064Y-161905406D01*
X100920414Y-161897579D01*
X100773507Y-161542913D01*
X100770553Y-161534797D01*
X100655115Y-161168673D01*
X100652880Y-161160331D01*
X100622931Y-161025238D01*
X100569792Y-160785544D01*
X100568294Y-160777048D01*
X100555643Y-160680953D01*
X100518184Y-160396432D01*
X100517434Y-160387853D01*
X100500594Y-160002152D01*
X100500500Y-159997834D01*
X100500500Y-159087279D01*
X102549500Y-159087279D01*
X102549500Y-160912720D01*
X102564312Y-161025232D01*
X102564314Y-161025238D01*
X102622021Y-161164556D01*
X102622302Y-161165233D01*
X102714549Y-161285451D01*
X102834767Y-161377698D01*
X102974764Y-161435687D01*
X103087280Y-161450500D01*
X103087281Y-161450500D01*
X104912719Y-161450500D01*
X104912720Y-161450500D01*
X105025236Y-161435687D01*
X105165233Y-161377698D01*
X105285451Y-161285451D01*
X105377698Y-161165233D01*
X105435687Y-161025236D01*
X105450500Y-160912720D01*
X105450500Y-159087280D01*
X105443748Y-159035996D01*
X105454898Y-158975838D01*
X105471894Y-158953075D01*
X110721963Y-153703008D01*
X110725023Y-153699949D01*
X110725022Y-153699948D01*
X110753032Y-153671939D01*
X110753034Y-153671934D01*
X110754016Y-153670953D01*
X110754020Y-153670950D01*
X110757581Y-153667389D01*
X110757812Y-153667124D01*
X110768072Y-153656868D01*
X110832891Y-153553741D01*
X110873133Y-153438775D01*
X110885948Y-153325122D01*
X110911255Y-153269419D01*
X110964473Y-153239228D01*
X111025273Y-153246083D01*
X111054328Y-153266213D01*
X111377050Y-153588935D01*
X111377052Y-153588938D01*
X111410707Y-153622592D01*
X111438681Y-153650566D01*
X111438682Y-153650566D01*
X111446831Y-153658715D01*
X111446830Y-153658715D01*
X111446833Y-153658717D01*
X111453770Y-153665654D01*
X111453772Y-153665655D01*
X111453775Y-153665658D01*
X111556898Y-153730453D01*
X111556900Y-153730454D01*
X111602931Y-153746561D01*
X111671857Y-153770680D01*
X111671861Y-153770681D01*
X111671864Y-153770682D01*
X111792897Y-153784319D01*
X111913930Y-153770682D01*
X112028894Y-153730455D01*
X112123597Y-153670950D01*
X112132018Y-153665659D01*
X112132018Y-153665658D01*
X112132024Y-153665655D01*
X112147112Y-153650566D01*
X112147115Y-153650565D01*
X112175087Y-153622593D01*
X112208742Y-153588939D01*
X112208743Y-153588936D01*
X112287917Y-153509762D01*
X112287919Y-153509757D01*
X112292306Y-153505371D01*
X112292833Y-153504768D01*
X112302909Y-153494699D01*
X112367740Y-153391578D01*
X112407994Y-153276614D01*
X112421651Y-153155575D01*
X112408027Y-153034532D01*
X112367805Y-152919558D01*
X112367805Y-152919557D01*
X112303004Y-152816421D01*
X112303003Y-152816419D01*
X112287915Y-152801331D01*
X112287915Y-152801330D01*
X111903542Y-152416957D01*
X111875767Y-152362443D01*
X111885338Y-152302011D01*
X111928603Y-152258746D01*
X111962470Y-152248578D01*
X112076083Y-152235787D01*
X112191042Y-152195574D01*
X112294172Y-152130790D01*
X112309274Y-152115691D01*
X112309291Y-152115682D01*
X112337297Y-152087676D01*
X112370896Y-152054086D01*
X112370896Y-152054084D01*
X112377214Y-152047769D01*
X112377273Y-152047697D01*
X112380220Y-152044751D01*
X112380223Y-152044749D01*
X112394143Y-152030829D01*
X112394144Y-152030829D01*
X112535475Y-151889496D01*
X112589992Y-151861719D01*
X112605479Y-151860500D01*
X113763430Y-151860500D01*
X113821621Y-151879407D01*
X113857585Y-151928907D01*
X113887453Y-152020832D01*
X113963987Y-152171040D01*
X113973240Y-152189199D01*
X114084310Y-152342073D01*
X114217927Y-152475690D01*
X114370801Y-152586760D01*
X114539168Y-152672547D01*
X114718882Y-152730940D01*
X114718883Y-152730940D01*
X114718886Y-152730941D01*
X114905516Y-152760500D01*
X114905519Y-152760500D01*
X115094484Y-152760500D01*
X115281113Y-152730941D01*
X115281114Y-152730940D01*
X115281118Y-152730940D01*
X115460832Y-152672547D01*
X115629199Y-152586760D01*
X115782073Y-152475690D01*
X115915690Y-152342073D01*
X116026760Y-152189199D01*
X116112547Y-152020832D01*
X116170940Y-151841118D01*
X116180169Y-151782850D01*
X116200500Y-151654484D01*
X116200500Y-151465515D01*
X116170941Y-151278886D01*
X116168934Y-151272708D01*
X116112547Y-151099168D01*
X116068665Y-151013047D01*
X116059094Y-150952616D01*
X116086871Y-150898099D01*
X119490460Y-147494511D01*
X119498353Y-147480840D01*
X119530020Y-147425992D01*
X119530021Y-147425989D01*
X119530022Y-147425988D01*
X119550500Y-147349562D01*
X119550500Y-147270438D01*
X119550500Y-134424000D01*
X119569407Y-134365809D01*
X119582965Y-134355958D01*
X119581003Y-134353996D01*
X119610000Y-134324999D01*
X119610000Y-133524000D01*
X119614845Y-133509088D01*
X119614845Y-133493407D01*
X119624061Y-133480721D01*
X119628907Y-133465809D01*
X119641592Y-133456592D01*
X119650809Y-133443907D01*
X119665721Y-133439061D01*
X119678407Y-133429845D01*
X119709000Y-133425000D01*
X119791000Y-133425000D01*
X119849191Y-133443907D01*
X119885155Y-133493407D01*
X119890000Y-133524000D01*
X119890000Y-134324999D01*
X119890001Y-134325000D01*
X119937823Y-134325000D01*
X119989417Y-134319453D01*
X120010583Y-134319453D01*
X120062177Y-134325000D01*
X120109999Y-134325000D01*
X120110000Y-134324999D01*
X120110000Y-133524000D01*
X120114845Y-133509088D01*
X120114845Y-133493407D01*
X120124061Y-133480721D01*
X120128907Y-133465809D01*
X120141592Y-133456592D01*
X120150809Y-133443907D01*
X120165721Y-133439061D01*
X120178407Y-133429845D01*
X120209000Y-133425000D01*
X120291000Y-133425000D01*
X120349191Y-133443907D01*
X120385155Y-133493407D01*
X120390000Y-133524000D01*
X120390000Y-134324999D01*
X120418997Y-134353996D01*
X120417273Y-134355719D01*
X120444655Y-134393407D01*
X120449500Y-134424000D01*
X120449500Y-147349562D01*
X120464720Y-147406363D01*
X120469979Y-147425989D01*
X120472567Y-147430471D01*
X120472568Y-147430474D01*
X120501647Y-147480840D01*
X120509540Y-147494511D01*
X123374529Y-150359500D01*
X123913127Y-150898098D01*
X123940904Y-150952615D01*
X123931333Y-151013046D01*
X123887454Y-151099164D01*
X123829058Y-151278886D01*
X123799500Y-151465515D01*
X123799500Y-151654484D01*
X123829058Y-151841113D01*
X123887452Y-152020830D01*
X123931333Y-152106952D01*
X123940904Y-152167384D01*
X123913127Y-152221900D01*
X116464525Y-159670504D01*
X116410008Y-159698281D01*
X116394521Y-159699500D01*
X110549500Y-159699500D01*
X110491309Y-159680593D01*
X110455345Y-159631093D01*
X110450500Y-159600500D01*
X110450500Y-159087281D01*
X110450500Y-159087280D01*
X110435687Y-158974764D01*
X110377698Y-158834767D01*
X110285451Y-158714549D01*
X110165233Y-158622302D01*
X110025236Y-158564313D01*
X110025234Y-158564312D01*
X110025232Y-158564312D01*
X109912720Y-158549500D01*
X108087280Y-158549500D01*
X108087279Y-158549500D01*
X107974767Y-158564312D01*
X107974761Y-158564314D01*
X107834768Y-158622301D01*
X107714551Y-158714547D01*
X107714547Y-158714551D01*
X107622301Y-158834768D01*
X107564314Y-158974761D01*
X107564312Y-158974767D01*
X107549500Y-159087279D01*
X107549500Y-160912720D01*
X107564312Y-161025232D01*
X107564314Y-161025238D01*
X107622021Y-161164556D01*
X107622302Y-161165233D01*
X107714549Y-161285451D01*
X107834767Y-161377698D01*
X107974764Y-161435687D01*
X108087280Y-161450500D01*
X108087281Y-161450500D01*
X109912719Y-161450500D01*
X109912720Y-161450500D01*
X110025236Y-161435687D01*
X110165233Y-161377698D01*
X110285451Y-161285451D01*
X110377698Y-161165233D01*
X110435687Y-161025236D01*
X110450500Y-160912720D01*
X110450500Y-160399500D01*
X110469407Y-160341309D01*
X110518907Y-160305345D01*
X110549500Y-160300500D01*
X116599563Y-160300500D01*
X116599563Y-160300499D01*
X116675989Y-160280021D01*
X116744511Y-160240460D01*
X116800460Y-160184511D01*
X124338100Y-152646869D01*
X124392615Y-152619094D01*
X124453044Y-152628664D01*
X124539168Y-152672547D01*
X124718882Y-152730940D01*
X124718883Y-152730940D01*
X124718886Y-152730941D01*
X124905516Y-152760500D01*
X124905519Y-152760500D01*
X125094484Y-152760500D01*
X125281113Y-152730941D01*
X125281114Y-152730940D01*
X125281118Y-152730940D01*
X125460832Y-152672547D01*
X125629199Y-152586760D01*
X125782073Y-152475690D01*
X125915690Y-152342073D01*
X126026760Y-152189199D01*
X126112547Y-152020832D01*
X126170940Y-151841118D01*
X126180169Y-151782850D01*
X126200500Y-151654484D01*
X126200500Y-151465515D01*
X126170941Y-151278886D01*
X126168934Y-151272708D01*
X126112547Y-151099168D01*
X126026760Y-150930801D01*
X125915690Y-150777927D01*
X125782073Y-150644310D01*
X125629199Y-150533240D01*
X125629198Y-150533239D01*
X125629196Y-150533238D01*
X125460832Y-150447453D01*
X125281113Y-150389058D01*
X125094484Y-150359500D01*
X125094481Y-150359500D01*
X124905519Y-150359500D01*
X124905516Y-150359500D01*
X124718886Y-150389058D01*
X124539164Y-150447454D01*
X124453046Y-150491333D01*
X124392614Y-150500904D01*
X124338098Y-150473127D01*
X121079496Y-147214525D01*
X121051719Y-147160008D01*
X121050500Y-147144521D01*
X121050500Y-137845000D01*
X121374124Y-137845000D01*
X121401979Y-137934393D01*
X121401982Y-137934400D01*
X121489924Y-138079872D01*
X121610127Y-138200075D01*
X121755599Y-138288017D01*
X121755607Y-138288020D01*
X121917890Y-138338590D01*
X121920000Y-138338781D01*
X121920000Y-137845001D01*
X122720000Y-137845001D01*
X122720000Y-138338781D01*
X122722109Y-138338590D01*
X122884392Y-138288020D01*
X122884400Y-138288017D01*
X123029872Y-138200075D01*
X123067318Y-138162630D01*
X123121835Y-138134853D01*
X123182267Y-138144424D01*
X123207326Y-138162630D01*
X123237270Y-138192574D01*
X123381512Y-138281545D01*
X123489999Y-138317494D01*
X123490000Y-138317494D01*
X123490000Y-137845001D01*
X124390000Y-137845001D01*
X124390000Y-138317494D01*
X124498487Y-138281545D01*
X124642729Y-138192574D01*
X124762573Y-138072730D01*
X124851547Y-137928483D01*
X124879211Y-137845000D01*
X124390001Y-137845000D01*
X124390000Y-137845001D01*
X123490000Y-137845001D01*
X123489999Y-137845000D01*
X122720001Y-137845000D01*
X122720000Y-137845001D01*
X121920000Y-137845001D01*
X121919999Y-137845000D01*
X121374124Y-137845000D01*
X121050500Y-137845000D01*
X121050500Y-136366924D01*
X121069407Y-136308733D01*
X121118907Y-136272769D01*
X121175120Y-136271297D01*
X121284108Y-136300500D01*
X121284110Y-136300500D01*
X121415890Y-136300500D01*
X121415892Y-136300500D01*
X121543186Y-136266392D01*
X121543188Y-136266390D01*
X121543190Y-136266390D01*
X121608513Y-136228676D01*
X121668361Y-136215954D01*
X121724257Y-136240840D01*
X121727997Y-136244389D01*
X121806658Y-136323050D01*
X121870850Y-136355757D01*
X121910322Y-136375870D01*
X121953586Y-136419135D01*
X121963157Y-136479567D01*
X121935379Y-136534083D01*
X121894829Y-136558596D01*
X121755607Y-136601979D01*
X121755599Y-136601982D01*
X121610127Y-136689924D01*
X121489924Y-136810127D01*
X121401982Y-136955599D01*
X121401979Y-136955606D01*
X121374123Y-137044999D01*
X121374124Y-137045000D01*
X122859999Y-137045000D01*
X122860000Y-137044999D01*
X122860000Y-137044000D01*
X122878907Y-136985809D01*
X122928407Y-136949845D01*
X122959000Y-136945000D01*
X124879211Y-136945000D01*
X124851547Y-136861516D01*
X124762573Y-136717269D01*
X124642730Y-136597426D01*
X124515248Y-136518793D01*
X124501413Y-136502499D01*
X124484681Y-136489197D01*
X124482038Y-136479680D01*
X124475647Y-136472152D01*
X124474032Y-136450838D01*
X124468314Y-136430242D01*
X124471860Y-136422179D01*
X124471024Y-136411141D01*
X124489726Y-136372925D01*
X124493227Y-136368520D01*
X124538528Y-136323220D01*
X124555104Y-136290686D01*
X124561301Y-136282892D01*
X124578912Y-136271228D01*
X124593851Y-136256290D01*
X124605800Y-136253421D01*
X124612313Y-136249108D01*
X124622014Y-136249528D01*
X124638796Y-136245500D01*
X126359463Y-136245500D01*
X126417654Y-136264407D01*
X126429467Y-136274496D01*
X129990882Y-139835910D01*
X129990884Y-139835913D01*
X130065451Y-139910480D01*
X130107055Y-139934500D01*
X130156776Y-139963207D01*
X130258637Y-139990500D01*
X130627105Y-139990500D01*
X130685296Y-140009407D01*
X130721260Y-140058907D01*
X130726105Y-140089500D01*
X130726105Y-143084678D01*
X130726544Y-143098120D01*
X130727605Y-143114302D01*
X130728925Y-143127695D01*
X130742766Y-143232836D01*
X130742768Y-143232845D01*
X130748011Y-143259207D01*
X130756395Y-143290497D01*
X130756396Y-143290498D01*
X130765031Y-143315933D01*
X130802489Y-143406366D01*
X130802501Y-143406392D01*
X130814374Y-143430470D01*
X130828800Y-143455455D01*
X130830562Y-143458506D01*
X130845496Y-143480856D01*
X130905079Y-143558506D01*
X130922803Y-143578715D01*
X130945693Y-143601605D01*
X130965902Y-143619329D01*
X131043552Y-143678912D01*
X131065902Y-143693846D01*
X131077280Y-143700415D01*
X131093937Y-143710033D01*
X131118015Y-143721906D01*
X131118040Y-143721917D01*
X131118045Y-143721920D01*
X131208468Y-143759374D01*
X131208469Y-143759375D01*
X131208472Y-143759376D01*
X131233925Y-143768017D01*
X131265192Y-143776395D01*
X131291556Y-143781639D01*
X131291558Y-143781639D01*
X131291562Y-143781640D01*
X131309816Y-143784043D01*
X131396722Y-143795485D01*
X131410103Y-143796803D01*
X131426288Y-143797864D01*
X131439731Y-143798304D01*
X132043315Y-143798304D01*
X132101506Y-143817211D01*
X132137470Y-143866711D01*
X132138939Y-143922936D01*
X132138013Y-143926390D01*
X132138011Y-143926396D01*
X132132768Y-143952756D01*
X132132767Y-143952766D01*
X132118925Y-144057912D01*
X132117605Y-144071305D01*
X132116544Y-144087486D01*
X132116105Y-144100928D01*
X132116105Y-147084678D01*
X132116544Y-147098120D01*
X132117605Y-147114302D01*
X132118925Y-147127695D01*
X132132766Y-147232836D01*
X132132768Y-147232845D01*
X132138011Y-147259207D01*
X132146395Y-147290497D01*
X132146396Y-147290498D01*
X132154829Y-147315340D01*
X132155032Y-147315936D01*
X132168960Y-147349562D01*
X132192489Y-147406366D01*
X132192501Y-147406392D01*
X132204374Y-147430470D01*
X132218800Y-147455455D01*
X132220562Y-147458506D01*
X132235496Y-147480856D01*
X132295079Y-147558506D01*
X132312803Y-147578715D01*
X132335693Y-147601605D01*
X132355902Y-147619329D01*
X132433552Y-147678912D01*
X132455902Y-147693846D01*
X132467280Y-147700415D01*
X132483937Y-147710033D01*
X132508015Y-147721906D01*
X132508040Y-147721917D01*
X132508045Y-147721920D01*
X132598468Y-147759374D01*
X132598469Y-147759375D01*
X132598472Y-147759376D01*
X132623925Y-147768017D01*
X132655192Y-147776395D01*
X132681556Y-147781639D01*
X132681558Y-147781639D01*
X132681562Y-147781640D01*
X132699816Y-147784043D01*
X132786722Y-147795485D01*
X132800103Y-147796803D01*
X132816288Y-147797864D01*
X132829731Y-147798304D01*
X136193479Y-147798304D01*
X136206922Y-147797864D01*
X136223106Y-147796803D01*
X136236487Y-147795485D01*
X136331532Y-147782971D01*
X136341646Y-147781640D01*
X136341647Y-147781639D01*
X136341653Y-147781639D01*
X136368017Y-147776395D01*
X136399284Y-147768017D01*
X136424737Y-147759376D01*
X136515164Y-147721920D01*
X136515183Y-147721910D01*
X136515193Y-147721906D01*
X136539271Y-147710033D01*
X136544550Y-147706984D01*
X136567307Y-147693846D01*
X136589657Y-147678912D01*
X136667307Y-147619329D01*
X136687516Y-147601605D01*
X136710406Y-147578715D01*
X136728130Y-147558506D01*
X136787713Y-147480856D01*
X136802647Y-147458506D01*
X136815785Y-147435749D01*
X136818834Y-147430470D01*
X136830707Y-147406392D01*
X136830711Y-147406382D01*
X136830721Y-147406363D01*
X136868177Y-147315936D01*
X136876818Y-147290483D01*
X136885196Y-147259216D01*
X136890440Y-147232853D01*
X136904286Y-147127689D01*
X136905604Y-147114306D01*
X136906665Y-147098120D01*
X136907105Y-147084678D01*
X136907105Y-144100929D01*
X136906665Y-144087487D01*
X136905604Y-144071301D01*
X136904286Y-144057918D01*
X136890440Y-143952754D01*
X136885195Y-143926390D01*
X136885192Y-143926378D01*
X136885192Y-143926376D01*
X136884269Y-143922932D01*
X136887468Y-143861831D01*
X136925970Y-143814278D01*
X136979894Y-143798304D01*
X137713479Y-143798304D01*
X137726922Y-143797864D01*
X137743106Y-143796803D01*
X137756487Y-143795485D01*
X137851532Y-143782971D01*
X137861646Y-143781640D01*
X137861647Y-143781639D01*
X137861653Y-143781639D01*
X137888017Y-143776395D01*
X137919284Y-143768017D01*
X137944737Y-143759376D01*
X138035164Y-143721920D01*
X138035183Y-143721910D01*
X138035193Y-143721906D01*
X138059271Y-143710033D01*
X138064550Y-143706984D01*
X138087307Y-143693846D01*
X138109657Y-143678912D01*
X138187307Y-143619329D01*
X138207516Y-143601605D01*
X138230406Y-143578715D01*
X138248130Y-143558506D01*
X138307713Y-143480856D01*
X138322647Y-143458506D01*
X138338832Y-143430473D01*
X138338834Y-143430470D01*
X138350707Y-143406392D01*
X138350711Y-143406382D01*
X138350721Y-143406363D01*
X138388177Y-143315936D01*
X138396818Y-143290483D01*
X138405196Y-143259216D01*
X138410440Y-143232853D01*
X138424286Y-143127689D01*
X138425604Y-143114306D01*
X138426665Y-143098120D01*
X138427105Y-143084678D01*
X138427105Y-139601618D01*
X138426667Y-139588204D01*
X138425610Y-139572046D01*
X138424296Y-139558683D01*
X138410499Y-139453702D01*
X138405273Y-139427382D01*
X138396925Y-139396170D01*
X138388317Y-139370763D01*
X138350995Y-139280475D01*
X138339149Y-139256402D01*
X138339145Y-139256395D01*
X138339141Y-139256387D01*
X138332967Y-139245671D01*
X138323020Y-139228403D01*
X138323011Y-139228390D01*
X138323005Y-139228379D01*
X138308139Y-139206079D01*
X138308123Y-139206058D01*
X138248758Y-139128500D01*
X138231828Y-139109144D01*
X138231084Y-139108293D01*
X138231078Y-139108287D01*
X138231072Y-139108280D01*
X138219884Y-139097061D01*
X138208268Y-139085412D01*
X138208265Y-139085409D01*
X138208264Y-139085408D01*
X138188113Y-139067681D01*
X138179099Y-139060740D01*
X138144529Y-139010256D01*
X138140500Y-138982301D01*
X138140500Y-128710714D01*
X138140501Y-128710701D01*
X138140501Y-128597272D01*
X138140500Y-128597270D01*
X138113207Y-128495413D01*
X138113206Y-128495411D01*
X138095396Y-128464564D01*
X138095396Y-128464563D01*
X138080638Y-128439003D01*
X138060480Y-128404087D01*
X137985913Y-128329520D01*
X137985910Y-128329518D01*
X136486396Y-126830004D01*
X136458619Y-126775487D01*
X136468190Y-126715055D01*
X136486396Y-126689996D01*
X137695388Y-125481004D01*
X139070480Y-124105913D01*
X139101105Y-124052867D01*
X139123169Y-124014653D01*
X139123179Y-124014634D01*
X139123206Y-124014588D01*
X139123207Y-124014587D01*
X139150500Y-123912727D01*
X139150500Y-119167273D01*
X139123207Y-119065413D01*
X139120370Y-119060500D01*
X139070480Y-118974087D01*
X138995913Y-118899519D01*
X138995913Y-118899520D01*
X137785913Y-117689520D01*
X137785910Y-117689518D01*
X137785909Y-117689517D01*
X137785908Y-117689516D01*
X137694591Y-117636794D01*
X137694593Y-117636794D01*
X137645320Y-117623592D01*
X137592727Y-117609500D01*
X137592725Y-117609500D01*
X137077310Y-117609500D01*
X137019119Y-117590593D01*
X136985846Y-117548385D01*
X136970942Y-117512404D01*
X136932348Y-117454644D01*
X136855977Y-117340345D01*
X136709655Y-117194023D01*
X136705264Y-117191089D01*
X136537597Y-117079058D01*
X136346418Y-116999869D01*
X136143467Y-116959500D01*
X136143465Y-116959500D01*
X135936535Y-116959500D01*
X135936532Y-116959500D01*
X135733581Y-116999869D01*
X135542402Y-117079058D01*
X135370344Y-117194023D01*
X135358501Y-117205866D01*
X135303984Y-117233642D01*
X135243552Y-117224068D01*
X135200289Y-117180802D01*
X135189500Y-117135860D01*
X135189500Y-116786477D01*
X135208407Y-116728286D01*
X135218490Y-116716480D01*
X135489708Y-116445261D01*
X135544223Y-116417485D01*
X135597591Y-116423801D01*
X135733580Y-116480130D01*
X135936535Y-116520500D01*
X135936536Y-116520500D01*
X136143464Y-116520500D01*
X136143465Y-116520500D01*
X136346420Y-116480130D01*
X136537598Y-116400941D01*
X136709655Y-116285977D01*
X136855977Y-116139655D01*
X136970941Y-115967598D01*
X137050130Y-115776420D01*
X137090500Y-115573465D01*
X137090500Y-115366535D01*
X137050130Y-115163580D01*
X136970941Y-114972402D01*
X136855977Y-114800345D01*
X136709655Y-114654023D01*
X136709651Y-114654020D01*
X136537597Y-114539058D01*
X136346418Y-114459869D01*
X136143467Y-114419500D01*
X136143465Y-114419500D01*
X135936535Y-114419500D01*
X135936532Y-114419500D01*
X135733581Y-114459869D01*
X135542402Y-114539058D01*
X135370348Y-114654020D01*
X135370345Y-114654022D01*
X135370345Y-114654023D01*
X135249501Y-114774866D01*
X135194987Y-114802642D01*
X135134555Y-114793071D01*
X135091290Y-114749806D01*
X135080500Y-114704861D01*
X135080500Y-114355477D01*
X135099407Y-114297286D01*
X135109490Y-114285480D01*
X135489708Y-113905261D01*
X135544223Y-113877485D01*
X135597591Y-113883801D01*
X135733580Y-113940130D01*
X135936535Y-113980500D01*
X135936536Y-113980500D01*
X136143464Y-113980500D01*
X136143465Y-113980500D01*
X136346420Y-113940130D01*
X136537598Y-113860941D01*
X136709655Y-113745977D01*
X136855977Y-113599655D01*
X136970941Y-113427598D01*
X137050130Y-113236420D01*
X137090500Y-113033465D01*
X137090500Y-112826535D01*
X137050130Y-112623580D01*
X136970941Y-112432402D01*
X136855977Y-112260345D01*
X136709655Y-112114023D01*
X136698634Y-112106659D01*
X136537597Y-111999058D01*
X136346418Y-111919869D01*
X136143467Y-111879500D01*
X136143465Y-111879500D01*
X135936535Y-111879500D01*
X135936532Y-111879500D01*
X135733581Y-111919869D01*
X135542402Y-111999058D01*
X135370348Y-112114020D01*
X135224020Y-112260348D01*
X135109058Y-112432402D01*
X135029869Y-112623581D01*
X134989500Y-112826532D01*
X134989500Y-113033467D01*
X135029869Y-113236418D01*
X135086196Y-113372402D01*
X135090997Y-113433399D01*
X135064736Y-113480291D01*
X134595489Y-113949539D01*
X134539539Y-114005489D01*
X134499980Y-114074007D01*
X134499978Y-114074011D01*
X134479500Y-114150435D01*
X134479500Y-114724861D01*
X134460593Y-114783052D01*
X134411093Y-114819016D01*
X134349907Y-114819016D01*
X134310498Y-114794866D01*
X134169655Y-114654023D01*
X134169651Y-114654020D01*
X133997597Y-114539058D01*
X133806418Y-114459869D01*
X133603467Y-114419500D01*
X133603465Y-114419500D01*
X133396535Y-114419500D01*
X133396532Y-114419500D01*
X133193581Y-114459869D01*
X133002402Y-114539058D01*
X132830348Y-114654020D01*
X132684020Y-114800348D01*
X132569058Y-114972402D01*
X132489869Y-115163581D01*
X132449500Y-115366532D01*
X132449500Y-115573467D01*
X132489869Y-115776418D01*
X132569058Y-115967597D01*
X132569059Y-115967598D01*
X132684023Y-116139655D01*
X132814866Y-116270498D01*
X132842642Y-116325013D01*
X132833071Y-116385445D01*
X132789806Y-116428710D01*
X132744861Y-116439500D01*
X132659562Y-116439500D01*
X132580438Y-116439500D01*
X132533661Y-116452033D01*
X132504007Y-116459979D01*
X132435493Y-116499536D01*
X131655525Y-117279504D01*
X131601008Y-117307281D01*
X131585521Y-117308500D01*
X121099997Y-117308500D01*
X121041806Y-117289593D01*
X121005842Y-117240093D01*
X121005842Y-117178907D01*
X121041806Y-117129407D01*
X121050486Y-117123769D01*
X121277881Y-116992484D01*
X121516578Y-116809326D01*
X121729326Y-116596578D01*
X121912484Y-116357881D01*
X122062919Y-116097319D01*
X122178058Y-115819351D01*
X122255929Y-115528732D01*
X122295200Y-115230435D01*
X122295200Y-114929565D01*
X122255929Y-114631268D01*
X122178058Y-114340649D01*
X122155204Y-114285474D01*
X122062921Y-114062685D01*
X122015471Y-113980499D01*
X121912484Y-113802119D01*
X121729326Y-113563422D01*
X121516578Y-113350674D01*
X121368844Y-113237314D01*
X121277884Y-113167518D01*
X121239744Y-113145498D01*
X121094729Y-113061773D01*
X121017314Y-113017078D01*
X120886298Y-112962810D01*
X120820576Y-112935586D01*
X120739350Y-112901941D01*
X120598153Y-112864108D01*
X130399500Y-112864108D01*
X130399500Y-112995892D01*
X130405177Y-113017078D01*
X130433609Y-113123190D01*
X130499496Y-113237309D01*
X130499498Y-113237311D01*
X130499500Y-113237314D01*
X130592686Y-113330500D01*
X130592688Y-113330501D01*
X130592690Y-113330503D01*
X130706810Y-113396390D01*
X130706808Y-113396390D01*
X130706812Y-113396391D01*
X130706814Y-113396392D01*
X130834108Y-113430500D01*
X130834110Y-113430500D01*
X130965890Y-113430500D01*
X130965892Y-113430500D01*
X131093186Y-113396392D01*
X131093188Y-113396390D01*
X131093190Y-113396390D01*
X131207309Y-113330503D01*
X131207309Y-113330502D01*
X131207314Y-113330500D01*
X131278319Y-113259494D01*
X131332834Y-113231719D01*
X131348321Y-113230500D01*
X132421268Y-113230500D01*
X132479459Y-113249407D01*
X132512732Y-113291614D01*
X132569058Y-113427597D01*
X132680579Y-113594501D01*
X132684023Y-113599655D01*
X132830345Y-113745977D01*
X133002402Y-113860941D01*
X133193580Y-113940130D01*
X133396535Y-113980500D01*
X133396536Y-113980500D01*
X133603464Y-113980500D01*
X133603465Y-113980500D01*
X133806420Y-113940130D01*
X133997598Y-113860941D01*
X134169655Y-113745977D01*
X134315977Y-113599655D01*
X134430941Y-113427598D01*
X134510130Y-113236420D01*
X134550500Y-113033465D01*
X134550500Y-112826535D01*
X134510130Y-112623580D01*
X134430941Y-112432402D01*
X134315977Y-112260345D01*
X134225133Y-112169501D01*
X134197358Y-112114987D01*
X134206929Y-112054555D01*
X134250194Y-112011290D01*
X134295139Y-112000500D01*
X134769563Y-112000500D01*
X134769563Y-112000499D01*
X134845989Y-111980021D01*
X134914511Y-111940460D01*
X134942485Y-111912485D01*
X134970461Y-111884511D01*
X135489706Y-111365264D01*
X135544223Y-111337486D01*
X135597595Y-111343802D01*
X135733580Y-111400130D01*
X135936535Y-111440500D01*
X135936536Y-111440500D01*
X136143464Y-111440500D01*
X136143465Y-111440500D01*
X136346420Y-111400130D01*
X136537598Y-111320941D01*
X136709655Y-111205977D01*
X136855977Y-111059655D01*
X136970941Y-110887598D01*
X137050130Y-110696420D01*
X137090500Y-110493465D01*
X137090500Y-110286535D01*
X137050130Y-110083580D01*
X136970941Y-109892402D01*
X136855977Y-109720345D01*
X136709655Y-109574023D01*
X136629182Y-109520253D01*
X136537597Y-109459058D01*
X136346418Y-109379869D01*
X136143467Y-109339500D01*
X136143465Y-109339500D01*
X135936535Y-109339500D01*
X135936532Y-109339500D01*
X135733581Y-109379869D01*
X135542402Y-109459058D01*
X135370348Y-109574020D01*
X135224020Y-109720348D01*
X135109058Y-109892402D01*
X135029869Y-110083581D01*
X134989500Y-110286532D01*
X134989500Y-110493467D01*
X135029869Y-110696418D01*
X135086196Y-110832402D01*
X135090997Y-110893399D01*
X135064736Y-110940292D01*
X134719504Y-111285524D01*
X134664987Y-111313301D01*
X134604555Y-111303730D01*
X134561290Y-111260465D01*
X134550500Y-111215520D01*
X134550500Y-109520253D01*
X134550498Y-109520241D01*
X134547697Y-109506158D01*
X134538867Y-109461769D01*
X134494552Y-109395448D01*
X134494548Y-109395445D01*
X134428233Y-109351134D01*
X134428231Y-109351133D01*
X134428228Y-109351132D01*
X134428227Y-109351132D01*
X134369758Y-109339501D01*
X134369748Y-109339500D01*
X132630252Y-109339500D01*
X132630251Y-109339500D01*
X132630241Y-109339501D01*
X132571772Y-109351132D01*
X132571766Y-109351134D01*
X132505451Y-109395445D01*
X132505445Y-109395451D01*
X132461134Y-109461766D01*
X132461132Y-109461772D01*
X132449501Y-109520241D01*
X132449500Y-109520253D01*
X132449500Y-111259751D01*
X132453764Y-111281186D01*
X132446572Y-111341948D01*
X132405039Y-111386877D01*
X132356666Y-111399500D01*
X131728378Y-111399500D01*
X131670187Y-111380593D01*
X131658380Y-111370509D01*
X131587371Y-111299500D01*
X131587368Y-111299498D01*
X131587366Y-111299496D01*
X131473246Y-111233609D01*
X131473248Y-111233609D01*
X131405737Y-111215520D01*
X131345949Y-111199500D01*
X131214165Y-111199500D01*
X131154377Y-111215520D01*
X131086866Y-111233609D01*
X130972747Y-111299496D01*
X130879553Y-111392690D01*
X130813666Y-111506809D01*
X130813665Y-111506814D01*
X130779557Y-111634108D01*
X130779557Y-111765892D01*
X130795628Y-111825870D01*
X130813666Y-111893190D01*
X130879553Y-112007309D01*
X130879555Y-112007311D01*
X130879557Y-112007314D01*
X130972743Y-112100500D01*
X130972745Y-112100501D01*
X130972747Y-112100503D01*
X131086867Y-112166390D01*
X131086865Y-112166390D01*
X131086869Y-112166391D01*
X131086871Y-112166392D01*
X131214165Y-112200500D01*
X131214167Y-112200500D01*
X131345947Y-112200500D01*
X131345949Y-112200500D01*
X131473243Y-112166392D01*
X131473245Y-112166390D01*
X131473247Y-112166390D01*
X131587366Y-112100503D01*
X131587366Y-112100502D01*
X131587371Y-112100500D01*
X131658376Y-112029494D01*
X131712891Y-112001719D01*
X131728378Y-112000500D01*
X132704861Y-112000500D01*
X132763052Y-112019407D01*
X132799016Y-112068907D01*
X132799016Y-112130093D01*
X132774866Y-112169501D01*
X132724673Y-112219695D01*
X132684020Y-112260348D01*
X132569058Y-112432402D01*
X132512732Y-112568386D01*
X132472995Y-112614912D01*
X132421268Y-112629500D01*
X131348321Y-112629500D01*
X131290130Y-112610593D01*
X131278323Y-112600509D01*
X131207314Y-112529500D01*
X131207311Y-112529498D01*
X131207309Y-112529496D01*
X131093189Y-112463609D01*
X131093191Y-112463609D01*
X131043799Y-112450375D01*
X130965892Y-112429500D01*
X130834108Y-112429500D01*
X130756200Y-112450375D01*
X130706809Y-112463609D01*
X130592690Y-112529496D01*
X130499496Y-112622690D01*
X130433609Y-112736809D01*
X130433608Y-112736814D01*
X130399500Y-112864108D01*
X120598153Y-112864108D01*
X120528706Y-112845500D01*
X120448732Y-112824071D01*
X120448729Y-112824070D01*
X120448727Y-112824070D01*
X120150436Y-112784800D01*
X120150435Y-112784800D01*
X119849565Y-112784800D01*
X119849563Y-112784800D01*
X119551275Y-112824070D01*
X119551270Y-112824070D01*
X119260649Y-112901941D01*
X118982685Y-113017078D01*
X118722115Y-113167518D01*
X118483425Y-113350671D01*
X118270671Y-113563425D01*
X118087518Y-113802115D01*
X117937078Y-114062685D01*
X117821941Y-114340649D01*
X117744070Y-114631270D01*
X117744070Y-114631275D01*
X117704800Y-114929563D01*
X117704800Y-115230436D01*
X117744071Y-115528734D01*
X117744562Y-115531201D01*
X117744483Y-115531864D01*
X117744494Y-115531945D01*
X117744473Y-115531947D01*
X117737372Y-115591962D01*
X117695841Y-115636893D01*
X117635831Y-115648831D01*
X117580266Y-115623217D01*
X117577461Y-115620521D01*
X116519496Y-114562556D01*
X116491719Y-114508039D01*
X116490500Y-114492552D01*
X116490500Y-113946958D01*
X116509407Y-113888767D01*
X116558904Y-113852804D01*
X116713038Y-113802724D01*
X116904132Y-113705357D01*
X117077642Y-113579295D01*
X117229295Y-113427642D01*
X117355357Y-113254132D01*
X117452724Y-113063038D01*
X117518999Y-112859064D01*
X117519000Y-112859059D01*
X117552550Y-112647238D01*
X117552550Y-112432761D01*
X117519000Y-112220940D01*
X117518596Y-112219696D01*
X117452724Y-112016962D01*
X117355357Y-111825868D01*
X117229295Y-111652358D01*
X117077642Y-111500705D01*
X116904132Y-111374643D01*
X116904131Y-111374642D01*
X116904129Y-111374641D01*
X116713038Y-111277276D01*
X116509059Y-111210999D01*
X116297238Y-111177450D01*
X116297235Y-111177450D01*
X116082765Y-111177450D01*
X116082762Y-111177450D01*
X115870940Y-111210999D01*
X115666961Y-111277276D01*
X115475870Y-111374641D01*
X115302359Y-111500704D01*
X115150704Y-111652359D01*
X115024641Y-111825870D01*
X114927275Y-112016963D01*
X114923203Y-112029496D01*
X114877713Y-112169504D01*
X114875572Y-112176092D01*
X114839608Y-112225592D01*
X114781417Y-112244500D01*
X111643951Y-112244500D01*
X111585760Y-112225593D01*
X111555742Y-112190447D01*
X111513050Y-112106658D01*
X111423342Y-112016950D01*
X111310304Y-111959354D01*
X111310305Y-111959354D01*
X111216522Y-111944500D01*
X110603479Y-111944500D01*
X110603476Y-111944501D01*
X110509700Y-111959352D01*
X110509695Y-111959354D01*
X110396659Y-112016949D01*
X110306949Y-112106659D01*
X110249354Y-112219695D01*
X110234500Y-112313477D01*
X110234500Y-112776520D01*
X110234501Y-112776523D01*
X110249352Y-112870299D01*
X110249354Y-112870304D01*
X110306950Y-112983342D01*
X110396658Y-113073050D01*
X110509696Y-113130646D01*
X110603481Y-113145500D01*
X111216518Y-113145499D01*
X111216520Y-113145499D01*
X111216521Y-113145498D01*
X111263411Y-113138072D01*
X111310299Y-113130647D01*
X111310299Y-113130646D01*
X111310304Y-113130646D01*
X111423342Y-113073050D01*
X111513050Y-112983342D01*
X111555742Y-112899553D01*
X111599006Y-112856290D01*
X111643951Y-112845500D01*
X114784666Y-112845500D01*
X114842857Y-112864407D01*
X114878821Y-112913907D01*
X114878821Y-112913908D01*
X114927275Y-113063036D01*
X115016073Y-113237314D01*
X115024643Y-113254132D01*
X115150705Y-113427642D01*
X115302358Y-113579295D01*
X115475868Y-113705357D01*
X115666962Y-113802724D01*
X115821093Y-113852804D01*
X115870592Y-113888767D01*
X115889500Y-113946957D01*
X115889500Y-114697595D01*
X115909978Y-114774019D01*
X115920978Y-114793071D01*
X115925178Y-114800345D01*
X115949540Y-114842542D01*
X118676075Y-117569077D01*
X118703851Y-117623592D01*
X118705070Y-117639079D01*
X118705070Y-117739493D01*
X118711313Y-117762791D01*
X118739179Y-117866791D01*
X118805066Y-117980910D01*
X118805068Y-117980912D01*
X118805070Y-117980915D01*
X118898256Y-118074101D01*
X118922076Y-118087854D01*
X118963017Y-118133323D01*
X118969413Y-118194173D01*
X118958313Y-118223090D01*
X118894645Y-118333365D01*
X118884397Y-118371614D01*
X118860537Y-118460661D01*
X118860537Y-118592445D01*
X118866398Y-118614317D01*
X118894646Y-118719743D01*
X118960533Y-118833862D01*
X118960535Y-118833864D01*
X118960537Y-118833867D01*
X119053723Y-118927053D01*
X119053725Y-118927054D01*
X119053727Y-118927056D01*
X119167847Y-118992943D01*
X119167845Y-118992943D01*
X119167849Y-118992944D01*
X119167851Y-118992945D01*
X119295145Y-119027053D01*
X119295147Y-119027053D01*
X119426927Y-119027053D01*
X119426929Y-119027053D01*
X119554223Y-118992945D01*
X119629121Y-118949702D01*
X119631762Y-118949140D01*
X119633674Y-118947229D01*
X119661453Y-118942829D01*
X119688966Y-118936981D01*
X119691436Y-118938080D01*
X119694106Y-118937658D01*
X119719170Y-118950428D01*
X119744862Y-118961867D01*
X119748623Y-118965435D01*
X119749498Y-118966310D01*
X119749500Y-118966313D01*
X119812684Y-119029497D01*
X119840460Y-119084012D01*
X119830889Y-119144444D01*
X119812683Y-119169502D01*
X119749500Y-119232685D01*
X119749496Y-119232690D01*
X119683609Y-119346809D01*
X119683608Y-119346814D01*
X119649500Y-119474108D01*
X119649500Y-119605892D01*
X119661344Y-119650093D01*
X119683609Y-119733190D01*
X119749496Y-119847309D01*
X119749498Y-119847311D01*
X119749500Y-119847314D01*
X119842686Y-119940500D01*
X119842688Y-119940501D01*
X119842690Y-119940503D01*
X119956810Y-120006390D01*
X119956808Y-120006390D01*
X119956812Y-120006391D01*
X119956814Y-120006392D01*
X120084108Y-120040500D01*
X120084110Y-120040500D01*
X120215890Y-120040500D01*
X120215892Y-120040500D01*
X120343186Y-120006392D01*
X120343188Y-120006390D01*
X120343190Y-120006390D01*
X120457309Y-119940503D01*
X120457309Y-119940502D01*
X120457314Y-119940500D01*
X120550500Y-119847314D01*
X120553054Y-119842891D01*
X120616390Y-119733190D01*
X120616390Y-119733188D01*
X120616392Y-119733186D01*
X120650500Y-119605892D01*
X120650500Y-119605890D01*
X120652179Y-119599624D01*
X120653549Y-119599991D01*
X120676756Y-119551348D01*
X120730528Y-119522157D01*
X120748563Y-119520500D01*
X132384986Y-119520500D01*
X132443177Y-119539407D01*
X132479141Y-119588907D01*
X132479141Y-119650093D01*
X132465079Y-119677691D01*
X132345375Y-119842448D01*
X132248904Y-120031784D01*
X132183240Y-120233878D01*
X132150000Y-120443749D01*
X132150000Y-120656250D01*
X132183240Y-120866121D01*
X132248907Y-121068224D01*
X132248908Y-121068227D01*
X132257602Y-121085288D01*
X132257603Y-121085289D01*
X132903905Y-120438989D01*
X133099901Y-120242993D01*
X133034075Y-120357007D01*
X133000000Y-120484174D01*
X133000000Y-120615826D01*
X133034075Y-120742993D01*
X133099901Y-120857007D01*
X133192993Y-120950099D01*
X133307007Y-121015925D01*
X133434174Y-121050000D01*
X133565826Y-121050000D01*
X133692993Y-121015925D01*
X133807007Y-120950099D01*
X133900099Y-120857007D01*
X133965925Y-120742993D01*
X134000000Y-120615826D01*
X134000000Y-120549999D01*
X134207107Y-120549999D01*
X134742396Y-121085288D01*
X134754516Y-121083369D01*
X134785488Y-121083370D01*
X134797602Y-121085288D01*
X135332891Y-120549999D01*
X135267066Y-120484174D01*
X135540000Y-120484174D01*
X135540000Y-120615826D01*
X135574075Y-120742993D01*
X135639901Y-120857007D01*
X135732993Y-120950099D01*
X135847007Y-121015925D01*
X135974174Y-121050000D01*
X136105826Y-121050000D01*
X136232993Y-121015925D01*
X136347007Y-120950099D01*
X136440099Y-120857007D01*
X136505925Y-120742993D01*
X136540000Y-120615826D01*
X136540000Y-120549999D01*
X136747107Y-120549999D01*
X137282396Y-121085288D01*
X137291092Y-121068223D01*
X137356759Y-120866121D01*
X137390000Y-120656250D01*
X137390000Y-120443749D01*
X137356759Y-120233878D01*
X137291092Y-120031776D01*
X137282396Y-120014710D01*
X136747107Y-120549999D01*
X136540000Y-120549999D01*
X136540000Y-120484174D01*
X136505925Y-120357007D01*
X136440099Y-120242993D01*
X136347007Y-120149901D01*
X136232993Y-120084075D01*
X136105826Y-120050000D01*
X135974174Y-120050000D01*
X135847007Y-120084075D01*
X135732993Y-120149901D01*
X135639901Y-120242993D01*
X135574075Y-120357007D01*
X135540000Y-120484174D01*
X135267066Y-120484174D01*
X134797601Y-120014709D01*
X134785488Y-120016628D01*
X134754516Y-120016628D01*
X134742398Y-120014708D01*
X134207107Y-120549999D01*
X134000000Y-120549999D01*
X134000000Y-120484174D01*
X133965925Y-120357007D01*
X133900099Y-120242993D01*
X133807007Y-120149901D01*
X133692993Y-120084075D01*
X133565826Y-120050000D01*
X133434174Y-120050000D01*
X133307007Y-120084075D01*
X133192993Y-120149901D01*
X133146447Y-120196447D01*
X133793397Y-119549496D01*
X133847914Y-119521719D01*
X133863401Y-119520500D01*
X134029563Y-119520500D01*
X134029563Y-119520499D01*
X134105989Y-119500021D01*
X134174511Y-119460460D01*
X134208070Y-119426901D01*
X134230461Y-119404511D01*
X135031093Y-118603877D01*
X135085610Y-118576099D01*
X135146042Y-118585670D01*
X135183412Y-118618878D01*
X135224019Y-118679650D01*
X135224020Y-118679651D01*
X135224023Y-118679655D01*
X135370345Y-118825977D01*
X135542402Y-118940941D01*
X135733580Y-119020130D01*
X135782003Y-119029762D01*
X135835386Y-119059657D01*
X135861003Y-119115221D01*
X135849067Y-119175231D01*
X135804138Y-119216765D01*
X135778177Y-119224640D01*
X135723877Y-119233241D01*
X135521779Y-119298906D01*
X135504710Y-119307602D01*
X136039999Y-119842891D01*
X136575288Y-119307602D01*
X136558227Y-119298908D01*
X136558224Y-119298907D01*
X136356122Y-119233241D01*
X136301822Y-119224640D01*
X136247306Y-119196862D01*
X136219529Y-119142345D01*
X136229101Y-119081913D01*
X136272366Y-119038649D01*
X136297993Y-119029762D01*
X136346420Y-119020130D01*
X136537598Y-118940941D01*
X136709655Y-118825977D01*
X136855977Y-118679655D01*
X136970941Y-118507598D01*
X136985846Y-118471615D01*
X137025582Y-118425089D01*
X137077310Y-118410500D01*
X137333099Y-118410500D01*
X137391290Y-118429407D01*
X137403103Y-118439496D01*
X138320504Y-119356897D01*
X138348281Y-119411414D01*
X138349500Y-119426901D01*
X138349500Y-123653099D01*
X138330593Y-123711290D01*
X138320504Y-123723103D01*
X135763103Y-126280504D01*
X135708586Y-126308281D01*
X135693099Y-126309500D01*
X124568796Y-126309500D01*
X124510605Y-126290593D01*
X124491300Y-126272107D01*
X124485104Y-126264314D01*
X124468528Y-126231780D01*
X124423230Y-126186482D01*
X124419725Y-126182073D01*
X124410894Y-126158434D01*
X124399440Y-126135953D01*
X124400349Y-126130207D01*
X124398314Y-126124757D01*
X124405063Y-126100446D01*
X124409011Y-126075521D01*
X124413264Y-126070905D01*
X124414682Y-126065801D01*
X124426982Y-126056022D01*
X124445248Y-126036205D01*
X124572732Y-125957571D01*
X124692573Y-125837730D01*
X124781547Y-125693483D01*
X124809211Y-125610000D01*
X122889000Y-125610000D01*
X122830809Y-125591093D01*
X122794845Y-125541593D01*
X122790000Y-125511000D01*
X122790000Y-125510001D01*
X122789999Y-125510000D01*
X121480979Y-125510000D01*
X121422788Y-125491093D01*
X121410975Y-125481004D01*
X120639970Y-124709999D01*
X121319123Y-124709999D01*
X121319124Y-124710000D01*
X121864999Y-124710000D01*
X121865000Y-124709999D01*
X122665000Y-124709999D01*
X122665001Y-124710000D01*
X123419999Y-124710000D01*
X123420000Y-124709999D01*
X124320000Y-124709999D01*
X124320001Y-124710000D01*
X124809211Y-124710000D01*
X124781547Y-124626516D01*
X124692573Y-124482269D01*
X124572730Y-124362426D01*
X124428483Y-124273452D01*
X124320000Y-124237504D01*
X124320000Y-124709999D01*
X123420000Y-124709999D01*
X123420000Y-124237504D01*
X123311516Y-124273452D01*
X123167269Y-124362426D01*
X123167264Y-124362430D01*
X123144824Y-124384870D01*
X123090307Y-124412646D01*
X123029875Y-124403074D01*
X123004819Y-124384870D01*
X122974872Y-124354924D01*
X122829400Y-124266982D01*
X122829392Y-124266979D01*
X122667104Y-124216408D01*
X122665000Y-124216216D01*
X122665000Y-124709999D01*
X121865000Y-124709999D01*
X121865000Y-124216217D01*
X121864999Y-124216216D01*
X121862895Y-124216408D01*
X121700607Y-124266979D01*
X121700599Y-124266982D01*
X121555127Y-124354924D01*
X121434924Y-124475127D01*
X121346982Y-124620599D01*
X121346979Y-124620606D01*
X121319123Y-124709999D01*
X120639970Y-124709999D01*
X117722367Y-121792396D01*
X132964710Y-121792396D01*
X132981776Y-121801092D01*
X133183878Y-121866759D01*
X133393750Y-121900000D01*
X133606250Y-121900000D01*
X133816121Y-121866759D01*
X134018223Y-121801092D01*
X134035288Y-121792396D01*
X135504710Y-121792396D01*
X135521776Y-121801092D01*
X135723878Y-121866759D01*
X135933750Y-121900000D01*
X136146250Y-121900000D01*
X136356121Y-121866759D01*
X136558223Y-121801092D01*
X136575288Y-121792396D01*
X136039999Y-121257107D01*
X135504710Y-121792396D01*
X134035288Y-121792396D01*
X133499999Y-121257107D01*
X132964710Y-121792396D01*
X117722367Y-121792396D01*
X117291319Y-121361348D01*
X117263542Y-121306831D01*
X117273113Y-121246399D01*
X117316378Y-121203134D01*
X117327233Y-121198968D01*
X117327194Y-121198874D01*
X117333180Y-121196393D01*
X117333186Y-121196392D01*
X117447314Y-121130500D01*
X117518319Y-121059494D01*
X117572834Y-121031719D01*
X117588321Y-121030500D01*
X130469563Y-121030500D01*
X130469563Y-121030499D01*
X130545989Y-121010021D01*
X130614511Y-120970460D01*
X130670460Y-120914511D01*
X130785473Y-120799496D01*
X130839990Y-120771719D01*
X130855477Y-120770500D01*
X130955890Y-120770500D01*
X130955892Y-120770500D01*
X131083186Y-120736392D01*
X131083188Y-120736390D01*
X131083190Y-120736390D01*
X131197309Y-120670503D01*
X131197309Y-120670502D01*
X131197314Y-120670500D01*
X131290500Y-120577314D01*
X131290503Y-120577309D01*
X131356390Y-120463190D01*
X131356390Y-120463188D01*
X131356392Y-120463186D01*
X131390500Y-120335892D01*
X131390500Y-120204108D01*
X131356392Y-120076814D01*
X131356390Y-120076811D01*
X131356390Y-120076809D01*
X131290503Y-119962690D01*
X131290501Y-119962688D01*
X131290500Y-119962686D01*
X131197314Y-119869500D01*
X131197311Y-119869498D01*
X131197309Y-119869496D01*
X131083189Y-119803609D01*
X131083191Y-119803609D01*
X131033799Y-119790375D01*
X130955892Y-119769500D01*
X130824108Y-119769500D01*
X130746200Y-119790375D01*
X130696809Y-119803609D01*
X130582690Y-119869496D01*
X130489496Y-119962690D01*
X130423609Y-120076809D01*
X130389500Y-120204109D01*
X130389500Y-120304521D01*
X130387031Y-120312118D01*
X130388281Y-120320006D01*
X130377758Y-120340659D01*
X130370593Y-120362712D01*
X130360505Y-120374523D01*
X130334527Y-120400502D01*
X130280011Y-120428281D01*
X130264522Y-120429500D01*
X117588321Y-120429500D01*
X117530130Y-120410593D01*
X117518323Y-120400509D01*
X117447314Y-120329500D01*
X117447311Y-120329498D01*
X117447309Y-120329496D01*
X117333189Y-120263609D01*
X117333191Y-120263609D01*
X117283799Y-120250375D01*
X117205892Y-120229500D01*
X117074108Y-120229500D01*
X116996200Y-120250375D01*
X116946809Y-120263609D01*
X116832690Y-120329496D01*
X116739496Y-120422690D01*
X116673609Y-120536810D01*
X116671126Y-120542806D01*
X116669260Y-120542033D01*
X116640950Y-120585619D01*
X116583827Y-120607541D01*
X116524728Y-120591699D01*
X116508651Y-120578680D01*
X111239496Y-115309525D01*
X111211719Y-115255008D01*
X111210500Y-115239521D01*
X111210500Y-114881007D01*
X111229407Y-114822816D01*
X111278907Y-114786852D01*
X111294012Y-114783226D01*
X111310304Y-114780646D01*
X111423342Y-114723050D01*
X111513050Y-114633342D01*
X111570646Y-114520304D01*
X111585500Y-114426519D01*
X111585499Y-113963482D01*
X111576279Y-113905263D01*
X111570647Y-113869700D01*
X111570646Y-113869698D01*
X111570646Y-113869696D01*
X111513050Y-113756658D01*
X111423342Y-113666950D01*
X111310304Y-113609354D01*
X111310305Y-113609354D01*
X111216522Y-113594500D01*
X110603479Y-113594500D01*
X110603476Y-113594501D01*
X110509700Y-113609352D01*
X110509695Y-113609354D01*
X110396659Y-113666949D01*
X110306949Y-113756659D01*
X110249354Y-113869695D01*
X110234500Y-113963477D01*
X110234500Y-114426520D01*
X110234501Y-114426523D01*
X110249352Y-114520299D01*
X110249354Y-114520304D01*
X110306950Y-114633342D01*
X110396658Y-114723050D01*
X110509696Y-114780646D01*
X110525986Y-114783226D01*
X110580503Y-114811003D01*
X110608281Y-114865519D01*
X110609500Y-114881007D01*
X110609500Y-115444564D01*
X110629978Y-115520987D01*
X110636305Y-115531947D01*
X110643217Y-115543918D01*
X110669540Y-115589511D01*
X116117343Y-121037314D01*
X121560504Y-126480475D01*
X121588281Y-126534992D01*
X121589500Y-126550479D01*
X121589500Y-126969519D01*
X121587031Y-126977116D01*
X121588281Y-126985006D01*
X121577757Y-127005660D01*
X121570593Y-127027710D01*
X121560504Y-127039522D01*
X121419504Y-127180523D01*
X121364987Y-127208301D01*
X121304555Y-127198730D01*
X121261291Y-127155465D01*
X121250500Y-127110520D01*
X121250500Y-127064109D01*
X121249868Y-127061749D01*
X121216392Y-126936814D01*
X121216390Y-126936810D01*
X121216390Y-126936809D01*
X121150503Y-126822690D01*
X121150501Y-126822688D01*
X121150500Y-126822686D01*
X121057314Y-126729500D01*
X121057311Y-126729498D01*
X121057309Y-126729496D01*
X120943189Y-126663609D01*
X120943191Y-126663609D01*
X120893799Y-126650375D01*
X120815892Y-126629500D01*
X120684108Y-126629500D01*
X120606200Y-126650375D01*
X120556809Y-126663609D01*
X120442690Y-126729496D01*
X120349496Y-126822690D01*
X120283609Y-126936810D01*
X120283607Y-126936814D01*
X120265276Y-127005226D01*
X120231952Y-127056540D01*
X120174830Y-127078466D01*
X120120149Y-127065338D01*
X120118020Y-127064109D01*
X120061369Y-127031401D01*
X119934075Y-126997293D01*
X119846075Y-126997293D01*
X119787884Y-126978386D01*
X119751920Y-126928886D01*
X119750453Y-126923935D01*
X119716392Y-126796814D01*
X119716390Y-126796811D01*
X119716390Y-126796809D01*
X119650503Y-126682690D01*
X119650501Y-126682688D01*
X119650500Y-126682686D01*
X119557314Y-126589500D01*
X119557311Y-126589498D01*
X119557309Y-126589496D01*
X119443189Y-126523609D01*
X119443191Y-126523609D01*
X119393799Y-126510375D01*
X119315892Y-126489500D01*
X119184108Y-126489500D01*
X119106200Y-126510375D01*
X119056809Y-126523609D01*
X118942690Y-126589496D01*
X118849496Y-126682690D01*
X118783609Y-126796809D01*
X118774715Y-126830004D01*
X118749552Y-126923916D01*
X118749500Y-126924109D01*
X118749500Y-126928640D01*
X118730593Y-126986831D01*
X118681093Y-127022795D01*
X118650500Y-127027640D01*
X118584108Y-127027640D01*
X118506200Y-127048515D01*
X118456809Y-127061749D01*
X118342690Y-127127636D01*
X118249496Y-127220830D01*
X118183609Y-127334949D01*
X118168994Y-127389496D01*
X118149500Y-127462248D01*
X118149500Y-127594032D01*
X118175477Y-127690979D01*
X118177942Y-127700179D01*
X118174739Y-127761281D01*
X118136234Y-127808831D01*
X118094971Y-127823291D01*
X118095023Y-127823550D01*
X118093199Y-127823912D01*
X118092023Y-127824325D01*
X118090247Y-127824499D01*
X118031772Y-127836132D01*
X118031766Y-127836134D01*
X117965451Y-127880445D01*
X117965445Y-127880451D01*
X117921134Y-127946766D01*
X117921132Y-127946772D01*
X117909501Y-128005241D01*
X117909500Y-128005253D01*
X117909500Y-128735500D01*
X117890593Y-128793691D01*
X117841093Y-128829655D01*
X117810500Y-128834500D01*
X117080252Y-128834500D01*
X117080251Y-128834500D01*
X117080241Y-128834501D01*
X117021772Y-128846132D01*
X117021766Y-128846134D01*
X116955451Y-128890445D01*
X116955445Y-128890451D01*
X116911134Y-128956766D01*
X116911132Y-128956772D01*
X116899501Y-129015241D01*
X116899500Y-129015253D01*
X116899500Y-129262679D01*
X116880593Y-129320870D01*
X116831093Y-129356834D01*
X116769907Y-129356834D01*
X116730498Y-129332684D01*
X116717314Y-129319500D01*
X116717311Y-129319498D01*
X116717309Y-129319496D01*
X116603189Y-129253609D01*
X116603191Y-129253609D01*
X116553799Y-129240375D01*
X116475892Y-129219500D01*
X116344108Y-129219500D01*
X116266200Y-129240375D01*
X116216809Y-129253609D01*
X116102690Y-129319496D01*
X116009496Y-129412690D01*
X115943609Y-129526809D01*
X115924539Y-129597978D01*
X115909500Y-129654108D01*
X115909500Y-129785892D01*
X115914913Y-129806093D01*
X115943609Y-129913190D01*
X116009496Y-130027309D01*
X116009498Y-130027311D01*
X116009500Y-130027314D01*
X116102686Y-130120500D01*
X116102688Y-130120501D01*
X116102690Y-130120503D01*
X116216810Y-130186390D01*
X116216808Y-130186390D01*
X116216812Y-130186391D01*
X116216814Y-130186392D01*
X116344108Y-130220500D01*
X116344110Y-130220500D01*
X116444521Y-130220500D01*
X116452118Y-130222968D01*
X116460008Y-130221719D01*
X116480663Y-130232243D01*
X116502712Y-130239407D01*
X116514525Y-130249496D01*
X116584844Y-130319815D01*
X116612621Y-130374332D01*
X116607599Y-130424413D01*
X116606402Y-130427620D01*
X116606402Y-130427623D01*
X116600000Y-130487175D01*
X116600000Y-130534999D01*
X116600001Y-130535000D01*
X117401000Y-130535000D01*
X117415912Y-130539845D01*
X117431593Y-130539845D01*
X117444278Y-130549061D01*
X117459191Y-130553907D01*
X117468407Y-130566592D01*
X117481093Y-130575809D01*
X117485938Y-130590721D01*
X117495155Y-130603407D01*
X117500000Y-130634000D01*
X117500000Y-130716000D01*
X117481093Y-130774191D01*
X117431593Y-130810155D01*
X117401000Y-130815000D01*
X116600001Y-130815000D01*
X116600000Y-130815001D01*
X116600000Y-130862824D01*
X116599999Y-130862824D01*
X116606401Y-130922370D01*
X116606403Y-130922381D01*
X116656646Y-131057088D01*
X116656647Y-131057090D01*
X116742807Y-131172184D01*
X116742815Y-131172192D01*
X116859829Y-131259788D01*
X116895082Y-131309796D01*
X116897697Y-131320232D01*
X116899500Y-131329549D01*
X116899500Y-131334748D01*
X116911133Y-131393231D01*
X116912104Y-131394684D01*
X116914331Y-131406191D01*
X116911743Y-131427118D01*
X116913392Y-131448137D01*
X116911993Y-131452440D01*
X116899500Y-131515249D01*
X116899500Y-131834750D01*
X116913035Y-131902794D01*
X116909884Y-131903420D01*
X116913392Y-131948137D01*
X116911993Y-131952440D01*
X116899500Y-132015249D01*
X116899500Y-132334750D01*
X116913035Y-132402794D01*
X116909884Y-132403420D01*
X116913392Y-132448137D01*
X116911993Y-132452440D01*
X116899500Y-132515249D01*
X116899500Y-132834746D01*
X116899501Y-132834758D01*
X116911132Y-132893227D01*
X116911134Y-132893233D01*
X116955445Y-132959548D01*
X116955448Y-132959552D01*
X117021769Y-133003867D01*
X117066231Y-133012711D01*
X117080241Y-133015498D01*
X117080246Y-133015498D01*
X117080252Y-133015500D01*
X117810500Y-133015500D01*
X117868691Y-133034407D01*
X117904655Y-133083907D01*
X117909500Y-133114500D01*
X117909500Y-133844746D01*
X117909501Y-133844758D01*
X117921132Y-133903227D01*
X117921134Y-133903233D01*
X117965445Y-133969548D01*
X117965448Y-133969552D01*
X118031769Y-134013867D01*
X118076231Y-134022711D01*
X118090241Y-134025498D01*
X118090246Y-134025498D01*
X118090252Y-134025500D01*
X118090253Y-134025500D01*
X118350500Y-134025500D01*
X118408691Y-134044407D01*
X118444655Y-134093907D01*
X118449500Y-134124500D01*
X118449500Y-134514521D01*
X118430593Y-134572712D01*
X118420506Y-134584522D01*
X118409540Y-134595488D01*
X118369980Y-134664007D01*
X118369978Y-134664011D01*
X118349500Y-134740435D01*
X118349500Y-135351679D01*
X118330593Y-135409870D01*
X118320509Y-135421676D01*
X118270393Y-135471793D01*
X118249497Y-135492689D01*
X118249496Y-135492690D01*
X118183609Y-135606809D01*
X118183608Y-135606814D01*
X118149500Y-135734108D01*
X118149500Y-135865892D01*
X118179579Y-135978151D01*
X118183609Y-135993190D01*
X118249496Y-136107309D01*
X118249498Y-136107311D01*
X118249500Y-136107314D01*
X118342686Y-136200500D01*
X118342688Y-136200501D01*
X118342690Y-136200503D01*
X118456810Y-136266390D01*
X118456808Y-136266390D01*
X118456812Y-136266391D01*
X118456814Y-136266392D01*
X118584108Y-136300500D01*
X118584110Y-136300500D01*
X118715890Y-136300500D01*
X118715892Y-136300500D01*
X118824879Y-136271297D01*
X118885978Y-136274500D01*
X118933528Y-136313005D01*
X118949500Y-136366924D01*
X118949500Y-147144520D01*
X118930593Y-147202711D01*
X118920504Y-147214524D01*
X115661900Y-150473127D01*
X115607383Y-150500904D01*
X115546952Y-150491333D01*
X115460830Y-150447452D01*
X115281113Y-150389058D01*
X115094484Y-150359500D01*
X115094481Y-150359500D01*
X114905519Y-150359500D01*
X114905516Y-150359500D01*
X114718886Y-150389058D01*
X114539167Y-150447453D01*
X114370803Y-150533238D01*
X114217928Y-150644309D01*
X114084309Y-150777928D01*
X113973238Y-150930803D01*
X113887453Y-151099167D01*
X113857585Y-151191093D01*
X113821621Y-151240593D01*
X113763430Y-151259500D01*
X112400434Y-151259500D01*
X112324014Y-151279977D01*
X112324013Y-151279978D01*
X112324011Y-151279978D01*
X112324011Y-151279979D01*
X112262017Y-151315771D01*
X112255485Y-151319542D01*
X112025076Y-151549951D01*
X111970560Y-151577728D01*
X111910128Y-151568157D01*
X111885069Y-151549951D01*
X111690196Y-151355078D01*
X111690196Y-151355077D01*
X111684550Y-151349431D01*
X111684548Y-151349427D01*
X111650892Y-151315774D01*
X111650890Y-151315771D01*
X111618455Y-151283337D01*
X111618257Y-151283163D01*
X111607820Y-151272727D01*
X111586768Y-151259500D01*
X111504696Y-151207933D01*
X111504694Y-151207932D01*
X111504690Y-151207930D01*
X111389740Y-151167707D01*
X111268720Y-151154070D01*
X111268717Y-151154070D01*
X111268715Y-151154070D01*
X111248338Y-151156365D01*
X111147689Y-151167701D01*
X111032734Y-151207918D01*
X110929603Y-151272707D01*
X110929601Y-151272709D01*
X110917967Y-151284340D01*
X110914504Y-151287802D01*
X110914494Y-151287809D01*
X110893473Y-151308829D01*
X110887350Y-151314952D01*
X110886533Y-151315769D01*
X110847804Y-151354490D01*
X110847761Y-151354540D01*
X110840290Y-151362011D01*
X110840175Y-151362110D01*
X110830639Y-151371650D01*
X110830520Y-151371710D01*
X110758539Y-151443722D01*
X110693761Y-151546855D01*
X110693758Y-151546862D01*
X110653552Y-151661817D01*
X110639928Y-151782850D01*
X110653935Y-151907088D01*
X110641666Y-151967030D01*
X110596506Y-152008314D01*
X110544481Y-152016557D01*
X110541195Y-152016187D01*
X110420158Y-152002559D01*
X110420157Y-152002559D01*
X110299119Y-152016206D01*
X110184159Y-152056441D01*
X110081032Y-152121250D01*
X110081029Y-152121252D01*
X110081029Y-152121253D01*
X110037968Y-152164320D01*
X110034905Y-152167384D01*
X110033590Y-152168699D01*
X110033587Y-152168700D01*
X109920935Y-152281351D01*
X109920312Y-152282061D01*
X109910149Y-152292219D01*
X109845328Y-152395342D01*
X109805085Y-152510291D01*
X109805084Y-152510294D01*
X109791429Y-152631324D01*
X109805049Y-152752354D01*
X109805050Y-152752360D01*
X109845259Y-152867315D01*
X109845262Y-152867321D01*
X109910051Y-152970457D01*
X109920844Y-152981253D01*
X109925146Y-152985556D01*
X109925153Y-152985567D01*
X109953108Y-153013522D01*
X109974114Y-153034532D01*
X109992371Y-153052793D01*
X109992424Y-153052838D01*
X110187303Y-153247717D01*
X110215080Y-153302234D01*
X110205509Y-153362666D01*
X110187303Y-153387725D01*
X105046926Y-158528101D01*
X104992409Y-158555878D01*
X104964002Y-158556250D01*
X104912725Y-158549500D01*
X104912720Y-158549500D01*
X103087280Y-158549500D01*
X103087279Y-158549500D01*
X102974767Y-158564312D01*
X102974761Y-158564314D01*
X102834768Y-158622301D01*
X102714551Y-158714547D01*
X102714547Y-158714551D01*
X102622301Y-158834768D01*
X102564314Y-158974761D01*
X102564312Y-158974767D01*
X102549500Y-159087279D01*
X100500500Y-159087279D01*
X100500500Y-155851456D01*
X103049500Y-155851456D01*
X103049500Y-156048543D01*
X103087949Y-156241834D01*
X103087949Y-156241836D01*
X103163367Y-156423913D01*
X103163368Y-156423914D01*
X103272861Y-156587782D01*
X103412218Y-156727139D01*
X103576086Y-156836632D01*
X103758165Y-156912051D01*
X103951459Y-156950500D01*
X103951460Y-156950500D01*
X104148540Y-156950500D01*
X104148541Y-156950500D01*
X104341835Y-156912051D01*
X104523914Y-156836632D01*
X104687782Y-156727139D01*
X104827139Y-156587782D01*
X104936632Y-156423914D01*
X105012051Y-156241835D01*
X105050500Y-156048541D01*
X105050500Y-155851459D01*
X105012051Y-155658165D01*
X104936632Y-155476086D01*
X104827139Y-155312218D01*
X104687782Y-155172861D01*
X104523914Y-155063368D01*
X104523915Y-155063368D01*
X104523913Y-155063367D01*
X104341835Y-154987949D01*
X104148543Y-154949500D01*
X104148541Y-154949500D01*
X103951459Y-154949500D01*
X103951456Y-154949500D01*
X103758165Y-154987949D01*
X103758163Y-154987949D01*
X103576086Y-155063367D01*
X103412218Y-155172861D01*
X103412214Y-155172864D01*
X103272864Y-155312214D01*
X103272861Y-155312218D01*
X103163367Y-155476086D01*
X103087949Y-155658163D01*
X103087949Y-155658165D01*
X103049500Y-155851456D01*
X100500500Y-155851456D01*
X100500500Y-109869190D01*
X120877950Y-109869190D01*
X120877950Y-110130809D01*
X120918875Y-110389195D01*
X120999717Y-110638004D01*
X121065594Y-110767297D01*
X121765300Y-110067591D01*
X121765300Y-110076301D01*
X121795072Y-110225972D01*
X121853470Y-110366958D01*
X121938252Y-110493842D01*
X122046158Y-110601748D01*
X122173042Y-110686530D01*
X122314028Y-110744928D01*
X122463699Y-110774700D01*
X122472405Y-110774700D01*
X121772701Y-111474404D01*
X121901995Y-111540282D01*
X122150804Y-111621124D01*
X122409191Y-111662050D01*
X122670809Y-111662050D01*
X122929195Y-111621124D01*
X123177999Y-111540284D01*
X123307297Y-111474404D01*
X122607593Y-110774700D01*
X122616301Y-110774700D01*
X122765972Y-110744928D01*
X122906958Y-110686530D01*
X123033842Y-110601748D01*
X123141748Y-110493842D01*
X123226530Y-110366958D01*
X123284928Y-110225972D01*
X123314700Y-110076301D01*
X123314700Y-110067593D01*
X124014404Y-110767297D01*
X124080284Y-110637999D01*
X124161124Y-110389195D01*
X124202050Y-110130809D01*
X124202050Y-109869190D01*
X124161124Y-109610804D01*
X124080282Y-109361995D01*
X124014404Y-109232701D01*
X123314700Y-109932405D01*
X123314700Y-109923699D01*
X123284928Y-109774028D01*
X123226530Y-109633042D01*
X123141748Y-109506158D01*
X123033842Y-109398252D01*
X122906958Y-109313470D01*
X122765972Y-109255072D01*
X122616301Y-109225300D01*
X122607591Y-109225300D01*
X123307297Y-108525594D01*
X123178004Y-108459717D01*
X122929195Y-108378875D01*
X122670809Y-108337950D01*
X122409191Y-108337950D01*
X122150804Y-108378875D01*
X121901995Y-108459717D01*
X121772702Y-108525595D01*
X122472407Y-109225300D01*
X122463699Y-109225300D01*
X122314028Y-109255072D01*
X122173042Y-109313470D01*
X122046158Y-109398252D01*
X121938252Y-109506158D01*
X121853470Y-109633042D01*
X121795072Y-109774028D01*
X121765300Y-109923699D01*
X121765300Y-109932407D01*
X121065595Y-109232702D01*
X120999717Y-109361995D01*
X120918875Y-109610804D01*
X120877950Y-109869190D01*
X100500500Y-109869190D01*
X100500500Y-105002165D01*
X100500594Y-104997847D01*
X100510433Y-104772498D01*
X100517434Y-104612144D01*
X100518184Y-104603568D01*
X100568295Y-104222942D01*
X100569791Y-104214459D01*
X100652883Y-103839655D01*
X100655115Y-103831326D01*
X100770553Y-103465202D01*
X100773507Y-103457086D01*
X100785072Y-103429166D01*
X100920421Y-103102403D01*
X100924056Y-103094609D01*
X101101325Y-102754079D01*
X101105632Y-102746618D01*
X101311913Y-102422820D01*
X101316851Y-102415769D01*
X101550564Y-102111189D01*
X101556083Y-102104612D01*
X101815481Y-101821528D01*
X101821528Y-101815481D01*
X102104612Y-101556083D01*
X102111189Y-101550564D01*
X102415769Y-101316851D01*
X102422820Y-101311913D01*
X102746618Y-101105632D01*
X102754079Y-101101325D01*
X103094609Y-100924056D01*
X103102403Y-100920421D01*
X103457093Y-100773504D01*
X103465194Y-100770555D01*
X103831334Y-100655112D01*
X103839655Y-100652883D01*
X104214459Y-100569791D01*
X104222942Y-100568295D01*
X104603568Y-100518184D01*
X104612144Y-100517434D01*
X104997847Y-100500593D01*
X105002165Y-100500500D01*
X105065892Y-100500500D01*
X134934108Y-100500500D01*
X134997835Y-100500500D01*
X135002152Y-100500593D01*
G37*
%TD.AperFunction*%
%TD*%
M02*
